<svg viewBox="0 0 25 25" fill="none" xmlns="http://www.w3.org/2000/svg" id="admin-menu">
  <path d="M22.8027 0.78125H2.19727C0.985718 0.78125 0 1.76697 0 2.97852V17.627C0 18.8385 0.985718 19.8242 2.19727 19.8242H8.55408L7.57751 22.7539H5.17578C4.77123 22.7539 4.44336 23.0818 4.44336 23.4863C4.44336 23.8909 4.77123 24.2188 5.17578 24.2188H19.8242C20.2288 24.2188 20.5566 23.8909 20.5566 23.4863C20.5566 23.0818 20.2288 22.7539 19.8242 22.7539H17.4225L16.4459 19.8242H22.8027C24.0143 19.8242 25 18.8385 25 17.627V2.97852C25 1.76697 24.0143 0.78125 22.8027 0.78125ZM9.1217 22.7539L10.0983 19.8242H14.9017L15.8783 22.7539H9.1217ZM23.5352 17.627C23.5352 18.0307 23.2065 18.3594 22.8027 18.3594C20.6747 18.3594 4.34742 18.3594 2.19727 18.3594C1.79348 18.3594 1.46484 18.0307 1.46484 17.627V16.8945H23.5352V17.627ZM7.98721 11.2202L7.32098 10.5541L8.35667 9.51824L9.0229 10.1845C9.25903 10.4206 9.62505 10.4671 9.91287 10.2974C10.3245 10.0548 10.7639 9.87186 11.2188 9.75399C11.5419 9.67045 11.7676 9.37881 11.7676 9.04503V8.10547H13.2324V9.04503C13.2324 9.37881 13.4581 9.67045 13.7812 9.75399C14.2359 9.87186 14.6753 10.0548 15.0869 10.2976C15.3748 10.4671 15.7408 10.4206 15.9769 10.1845L16.6431 9.51824L17.679 10.5541L17.0128 11.2204C16.7767 11.4565 16.7301 11.8225 16.8999 12.1101C17.1427 12.5219 17.3254 12.9614 17.4433 13.4161C17.5268 13.7392 17.8185 13.9648 18.1522 13.9648H19.0918V15.4297H16.0881C16.1369 15.1897 16.1621 14.9443 16.1621 14.6973C16.1621 12.678 14.5193 11.0352 12.5 11.0352C10.4807 11.0352 8.83789 12.678 8.83789 14.6973C8.83789 14.9443 8.86307 15.1897 8.9119 15.4297H5.9082V13.9648H6.84776C7.18155 13.9648 7.47318 13.7392 7.55692 13.4161C7.6746 12.9614 7.85751 12.5219 8.10013 12.1101C8.26969 11.8225 8.22334 11.4565 7.98721 11.2202ZM14.6973 14.6973C14.6973 14.9481 14.6538 15.1958 14.5714 15.4297H10.4286C10.3462 15.1958 10.3027 14.9481 10.3027 14.6973C10.3027 13.4857 11.2885 12.5 12.5 12.5C13.7115 12.5 14.6973 13.4857 14.6973 14.6973ZM23.5352 15.4297H20.5566V13.2324C20.5566 12.8279 20.2288 12.5 19.8242 12.5H18.6928C18.6169 12.2871 18.5297 12.0779 18.4317 11.8729L19.2327 11.072C19.5187 10.7859 19.5187 10.3222 19.2326 10.0361L17.161 7.96452C17.0237 7.82719 16.8373 7.75013 16.6431 7.75013C16.449 7.75013 16.2626 7.82719 16.1253 7.96452L15.3244 8.7656C15.1194 8.66756 14.9101 8.5804 14.6973 8.50468V7.37305C14.6973 6.9685 14.3694 6.64062 13.9648 6.64062H11.0352C10.6306 6.64062 10.3027 6.9685 10.3027 7.37305V8.50468C10.0899 8.5804 9.88064 8.66756 9.6756 8.7656L8.8747 7.96452C8.73737 7.82719 8.55103 7.75013 8.35686 7.75013C8.1625 7.75013 7.97634 7.82719 7.83882 7.96452L5.76744 10.0361C5.48134 10.3222 5.48134 10.7859 5.76744 11.072L6.56834 11.8731C6.4703 12.0779 6.38332 12.2871 6.30741 12.5H5.17578C4.77123 12.5 4.44336 12.8281 4.44336 13.2324V15.4297H1.46484V2.97852C1.46484 2.57473 1.79348 2.24609 2.19727 2.24609H22.8027C23.2065 2.24609 23.5352 2.57473 23.5352 2.97852V15.4297Z" fill="#1A457B" stroke="white" stroke-width="0.2" />
  <path d="M19.8242 3.71094C18.6127 3.71094 17.627 4.69666 17.627 5.9082C17.627 7.11975 18.6127 8.10547 19.8242 8.10547C21.0358 8.10547 22.0215 7.11975 22.0215 5.9082C22.0215 4.69666 21.0358 3.71094 19.8242 3.71094ZM19.8242 6.64062C19.4204 6.64062 19.0918 6.31199 19.0918 5.9082C19.0918 5.50442 19.4204 5.17578 19.8242 5.17578C20.228 5.17578 20.5566 5.50442 20.5566 5.9082C20.5566 6.31199 20.228 6.64062 19.8242 6.64062Z" fill="#1A457B" stroke="white" stroke-width="0.2" />
</svg>
