<svg width="700" height="290" viewBox="0 0 700 290" fill="none" xmlns="http://www.w3.org/2000/svg">
<g clip-path="url(#clip0_398_659)">
<path fill-rule="evenodd" clip-rule="evenodd" d="M417.247 38.3348H143.764C141.592 38.3348 139.627 39.2165 138.204 40.6419C136.781 42.0676 135.901 44.0374 135.901 46.2132V233.933C135.901 236.107 136.781 238.077 138.204 239.503C139.627 240.929 141.593 241.811 143.764 241.811H417.247C419.419 241.811 421.384 240.929 422.807 239.504C424.23 238.078 425.11 236.108 425.11 233.933V46.2132C425.11 44.0386 424.23 42.0686 422.806 40.6424C421.383 39.2169 419.418 38.3348 417.247 38.3348Z" fill="white" stroke="#141C3A" stroke-width="3"/>
<path fill-rule="evenodd" clip-rule="evenodd" d="M403.772 55.7837H156.958C156.028 55.7837 155.186 56.1621 154.576 56.7743C153.967 57.3856 153.59 58.23 153.59 59.1627V199.031C153.59 199.964 153.967 200.809 154.576 201.42C155.185 202.032 156.028 202.41 156.958 202.41H403.772C404.702 202.41 405.544 202.032 406.154 201.42C406.763 200.808 407.14 199.964 407.14 199.031V59.1627C407.14 58.2298 406.763 57.3854 406.154 56.774C405.545 56.162 404.703 55.7837 403.772 55.7837Z" fill="#6E07F3" stroke="#6E07F3" stroke-width="3"/>
<path fill-rule="evenodd" clip-rule="evenodd" d="M301.382 241.811H259.91L257.11 278.116H304.182L301.382 241.811Z" fill="white" stroke="#141C3A" stroke-width="3"/>
<path fill-rule="evenodd" clip-rule="evenodd" d="M321.219 286.277H240.073C239.995 286.277 239.925 286.246 239.874 286.195C239.823 286.143 239.792 286.072 239.792 285.993V282.197C239.792 281.07 240.247 280.049 240.984 279.311C241.721 278.572 242.74 278.116 243.865 278.116H317.427C318.552 278.116 319.57 278.573 320.307 279.311C321.044 280.05 321.5 281.07 321.5 282.197V285.993C321.5 286.072 321.469 286.144 321.418 286.195C321.367 286.246 321.297 286.277 321.219 286.277Z" fill="white" stroke="#141C3A" stroke-width="3"/>
<path d="M280.646 228.865C283.515 228.865 285.84 226.534 285.84 223.659C285.84 220.783 283.515 218.452 280.646 218.452C277.777 218.452 275.451 220.783 275.451 223.659C275.451 226.534 277.777 228.865 280.646 228.865Z" stroke="#141C3A" stroke-width="3"/>
<path d="M158.083 176.8H115.965C112.243 176.8 109.226 179.824 109.226 183.554V279.523C109.226 283.253 112.243 286.277 115.965 286.277H158.083C161.804 286.277 164.822 283.253 164.822 279.523V183.554C164.822 179.824 161.804 176.8 158.083 176.8Z" fill="white" stroke="#141C3A" stroke-width="8"/>
<path fill-rule="evenodd" clip-rule="evenodd" d="M164.822 189.183H109.226V270.039H164.822V189.183Z" fill="#141C3A" stroke="#141C3A" stroke-width="8"/>
<path d="M149.378 181.866H124.95C124.33 181.866 123.827 182.37 123.827 182.991C123.827 183.613 124.33 184.117 124.95 184.117H149.378C149.999 184.117 150.501 183.613 150.501 182.991C150.501 182.37 149.999 181.866 149.378 181.866Z" fill="#141C3A"/>
<path d="M140.337 277.947C140.337 276.175 138.904 274.739 137.136 274.739C135.368 274.739 133.935 276.175 133.935 277.947C133.935 279.719 135.368 281.155 137.136 281.155C138.904 281.155 140.337 279.719 140.337 277.947Z" fill="#141C3A"/>
<path d="M124.95 233.649C127.276 233.649 129.162 231.759 129.162 229.428C129.162 227.096 127.276 225.206 124.95 225.206C122.624 225.206 120.738 227.096 120.738 229.428C120.738 231.759 122.624 233.649 124.95 233.649Z" fill="#6E07F3" stroke="#6E07F3" stroke-width="8"/>
<path d="M153.309 222.111H135.9C135.28 222.111 134.777 222.615 134.777 223.236C134.777 223.858 135.28 224.362 135.9 224.362H153.309C153.93 224.362 154.432 223.858 154.432 223.236C154.432 222.615 153.93 222.111 153.309 222.111Z" fill="white"/>
<path d="M147.694 228.302H135.9C135.28 228.302 134.777 228.806 134.777 229.428C134.777 230.05 135.28 230.554 135.9 230.554H147.694C148.314 230.554 148.817 230.05 148.817 229.428C148.817 228.806 148.314 228.302 147.694 228.302Z" fill="white"/>
<path d="M142.078 234.494H135.9C135.28 234.494 134.777 234.998 134.777 235.619C134.777 236.241 135.28 236.745 135.9 236.745H142.078C142.698 236.745 143.201 236.241 143.201 235.619C143.201 234.998 142.698 234.494 142.078 234.494Z" fill="white"/>
<path d="M80.726 229.991C104.53 229.991 123.827 210.649 123.827 186.791C123.827 162.932 104.53 143.591 80.726 143.591C56.9222 143.591 37.6254 162.932 37.6254 186.791C37.6254 210.649 56.9222 229.991 80.726 229.991Z" fill="#5BE9B9" stroke="#141C3A" stroke-width="3"/>
<path fill-rule="evenodd" clip-rule="evenodd" d="M544.728 134.585H352.665C350.494 134.585 348.529 135.467 347.107 136.893C345.685 138.319 344.805 140.289 344.805 142.465V266.577C344.805 268.752 345.685 270.722 347.108 272.149C348.53 273.575 350.495 274.457 352.665 274.457H544.728C546.899 274.457 548.863 273.575 550.286 272.149C551.708 270.723 552.587 268.753 552.587 266.577V142.465C552.587 140.29 551.707 138.32 550.285 136.893C548.862 135.467 546.898 134.585 544.728 134.585Z" fill="white" stroke="#141C3A" stroke-width="3"/>
<path fill-rule="evenodd" clip-rule="evenodd" d="M566.629 274.457H330.764C330.687 274.457 330.618 274.489 330.568 274.539C330.517 274.59 330.485 274.661 330.485 274.739V280.367C330.485 282 331.145 283.477 332.213 284.546C333.28 285.616 334.755 286.277 336.384 286.277H561.009C562.638 286.277 564.112 285.616 565.18 284.546C566.247 283.477 566.907 281.999 566.907 280.367V274.739C566.907 274.661 566.876 274.59 566.825 274.539C566.775 274.489 566.705 274.457 566.629 274.457Z" fill="white" stroke="#141C3A" stroke-width="3"/>
<path fill-rule="evenodd" clip-rule="evenodd" d="M464.221 274.583L432.778 274.584C433.325 276.029 434.244 277.29 435.418 278.25C436.917 279.477 438.831 280.212 440.917 280.212H456.082C458.167 280.212 460.082 279.477 461.581 278.25C462.754 277.289 463.674 276.028 464.221 274.583Z" fill="white" stroke="#141C3A" stroke-width="3"/>
<path d="M542.032 146.687H355.195C353.954 146.687 352.948 147.695 352.948 148.938V260.343C352.948 261.587 353.954 262.595 355.195 262.595H542.032C543.272 262.595 544.278 261.587 544.278 260.343V148.938C544.278 147.695 543.272 146.687 542.032 146.687Z" fill="#5BE9B9"/>
<path d="M274.328 59.7238C275.103 59.7238 275.732 59.0937 275.732 58.3166C275.732 57.5394 275.103 56.9094 274.328 56.9094C273.553 56.9094 272.924 57.5394 272.924 58.3166C272.924 59.0937 273.553 59.7238 274.328 59.7238Z" fill="#293347"/>
<path fill-rule="evenodd" clip-rule="evenodd" d="M321.5 19.4788H196.27V141.903C196.27 143.458 196.898 144.864 197.914 145.883C198.931 146.901 200.336 147.531 201.888 147.531H315.882C317.434 147.531 318.838 146.901 319.855 145.882C320.871 144.864 321.5 143.457 321.5 141.903V19.4788Z" fill="#141C3A" stroke="#141C3A" stroke-width="8"/>
<path fill-rule="evenodd" clip-rule="evenodd" d="M315.882 4H201.888C200.336 4 198.932 4.63007 197.915 5.64885C196.898 6.66763 196.27 8.07509 196.27 9.62973V17.2274H321.5V9.62973C321.5 8.07555 320.871 6.66807 319.854 5.64916C318.838 4.63035 317.433 4 315.882 4Z" fill="white" stroke="#141C3A" stroke-width="8"/>
<path d="M206.097 13.2873C207.493 13.2873 208.624 12.1533 208.624 10.7544C208.624 9.35551 207.493 8.2215 206.097 8.2215C204.701 8.2215 203.57 9.35551 203.57 10.7544C203.57 12.1533 204.701 13.2873 206.097 13.2873Z" fill="#141C3A"/>
<path d="M214.521 13.2873C215.916 13.2873 217.048 12.1533 217.048 10.7544C217.048 9.35551 215.916 8.2215 214.521 8.2215C213.125 8.2215 211.994 9.35551 211.994 10.7544C211.994 12.1533 213.125 13.2873 214.521 13.2873Z" fill="#6E07F3"/>
<path d="M222.944 13.2873C224.34 13.2873 225.471 12.1533 225.471 10.7544C225.471 9.35551 224.34 8.2215 222.944 8.2215C221.549 8.2215 220.417 9.35551 220.417 10.7544C220.417 12.1533 221.549 13.2873 222.944 13.2873Z" fill="#5BE9B9"/>
<path opacity="0.54" d="M213.678 99.4058H210.87C210.25 99.4058 209.747 99.9098 209.747 100.532C209.747 101.153 210.25 101.657 210.87 101.657H213.678C214.299 101.657 214.801 101.153 214.801 100.532C214.801 99.9098 214.299 99.4058 213.678 99.4058Z" fill="#535B6B"/>
<path opacity="0.54" d="M213.678 43.1192H210.87C210.25 43.1192 209.747 43.6232 209.747 44.2449C209.747 44.8667 210.25 45.3707 210.87 45.3707H213.678C214.299 45.3707 214.801 44.8667 214.801 44.2449C214.801 43.6232 214.299 43.1192 213.678 43.1192Z" fill="#535B6B"/>
<path fill-rule="evenodd" clip-rule="evenodd" d="M219.294 43.1192H226.875C227.496 43.1192 227.998 43.6232 227.998 44.2449C227.998 44.8667 227.496 45.3707 226.875 45.3707H219.294C218.674 45.3707 218.171 44.8667 218.171 44.2449C218.171 43.6232 218.674 43.1192 219.294 43.1192Z" fill="#6E07F3"/>
<path fill-rule="evenodd" clip-rule="evenodd" d="M231.929 43.1192H239.511C240.131 43.1192 240.634 43.6232 240.634 44.2449C240.634 44.8667 240.131 45.3707 239.511 45.3707H231.929C231.309 45.3707 230.806 44.8667 230.806 44.2449C230.806 43.6232 231.309 43.1192 231.929 43.1192Z" fill="#5BE9B9"/>
<path fill-rule="evenodd" clip-rule="evenodd" d="M244.565 43.1192H258.604C259.224 43.1192 259.727 43.6232 259.727 44.2449C259.727 44.8667 259.224 45.3707 258.604 45.3707H244.565C243.944 45.3707 243.442 44.8667 243.442 44.2449C243.442 43.6232 243.944 43.1192 244.565 43.1192Z" fill="#6E07F3"/>
<path fill-rule="evenodd" clip-rule="evenodd" d="M263.658 43.1192H284.436C285.057 43.1192 285.56 43.6232 285.56 44.2449C285.56 44.8667 285.057 45.3707 284.436 45.3707H263.658C263.038 45.3707 262.535 44.8667 262.535 44.2449C262.535 43.6232 263.038 43.1192 263.658 43.1192Z" fill="#6E07F3"/>
<path opacity="0.54" d="M213.678 54.3765H210.87C210.25 54.3765 209.747 54.8805 209.747 55.5023C209.747 56.124 210.25 56.628 210.87 56.628H213.678C214.299 56.628 214.801 56.124 214.801 55.5023C214.801 54.8805 214.299 54.3765 213.678 54.3765Z" fill="#535B6B"/>
<path opacity="0.54" d="M213.678 65.6338H210.87C210.25 65.6338 209.747 66.1378 209.747 66.7596C209.747 67.3813 210.25 67.8853 210.87 67.8853H213.678C214.299 67.8853 214.801 67.3813 214.801 66.7596C214.801 66.1378 214.299 65.6338 213.678 65.6338Z" fill="#535B6B"/>
<path opacity="0.54" d="M213.678 76.8912H210.87C210.25 76.8912 209.747 77.3952 209.747 78.0169C209.747 78.6386 210.25 79.1426 210.87 79.1426H213.678C214.299 79.1426 214.801 78.6386 214.801 78.0169C214.801 77.3952 214.299 76.8912 213.678 76.8912Z" fill="#535B6B"/>
<path opacity="0.54" d="M213.678 88.1485H210.87C210.25 88.1485 209.747 88.6525 209.747 89.2742C209.747 89.8959 210.25 90.4 210.87 90.4H213.678C214.299 90.4 214.801 89.8959 214.801 89.2742C214.801 88.6525 214.299 88.1485 213.678 88.1485Z" fill="#535B6B"/>
<path opacity="0.54" d="M213.678 110.663H210.87C210.25 110.663 209.747 111.167 209.747 111.789C209.747 112.411 210.25 112.915 210.87 112.915H213.678C214.299 112.915 214.801 112.411 214.801 111.789C214.801 111.167 214.299 110.663 213.678 110.663Z" fill="#535B6B"/>
<path opacity="0.54" d="M213.678 121.92H210.87C210.25 121.92 209.747 122.424 209.747 123.046C209.747 123.668 210.25 124.172 210.87 124.172H213.678C214.299 124.172 214.801 123.668 214.801 123.046C214.801 122.424 214.299 121.92 213.678 121.92Z" fill="#535B6B"/>
<path d="M236.703 54.3765H219.294C218.674 54.3765 218.171 54.8805 218.171 55.5023C218.171 56.124 218.674 56.628 219.294 56.628H236.703C237.323 56.628 237.826 56.124 237.826 55.5023C237.826 54.8805 237.323 54.3765 236.703 54.3765Z" fill="#6E07F3"/>
<path d="M273.205 54.3765H241.757C241.137 54.3765 240.634 54.8805 240.634 55.5023C240.634 56.124 241.137 56.628 241.757 56.628H273.205C273.825 56.628 274.328 56.124 274.328 55.5023C274.328 54.8805 273.825 54.3765 273.205 54.3765Z" fill="#5BE9B9"/>
<path d="M290.052 54.3765H278.259C277.639 54.3765 277.136 54.8805 277.136 55.5023C277.136 56.124 277.639 56.628 278.259 56.628H290.052C290.672 56.628 291.175 56.124 291.175 55.5023C291.175 54.8805 290.672 54.3765 290.052 54.3765Z" fill="#6E07F3"/>
<path d="M231.087 65.6338H219.294C218.674 65.6338 218.171 66.1378 218.171 66.7596C218.171 67.3813 218.674 67.8853 219.294 67.8853H231.087C231.707 67.8853 232.21 67.3813 232.21 66.7596C232.21 66.1378 231.707 65.6338 231.087 65.6338Z" fill="#5BE9B9"/>
<path d="M247.934 65.6338H236.141C235.521 65.6338 235.018 66.1378 235.018 66.7596C235.018 67.3813 235.521 67.8853 236.141 67.8853H247.934C248.555 67.8853 249.057 67.3813 249.057 66.7596C249.057 66.1378 248.555 65.6338 247.934 65.6338Z" fill="#6E07F3"/>
<path d="M259.166 65.6338H252.988C252.368 65.6338 251.865 66.1378 251.865 66.7596C251.865 67.3813 252.368 67.8853 252.988 67.8853H259.166C259.786 67.8853 260.289 67.3813 260.289 66.7596C260.289 66.1378 259.786 65.6338 259.166 65.6338Z" fill="#6E07F3"/>
<path d="M245.126 76.8912H219.294C218.674 76.8912 218.171 77.3952 218.171 78.0169C218.171 78.6386 218.674 79.1426 219.294 79.1426H245.126C245.747 79.1426 246.25 78.6386 246.25 78.0169C246.25 77.3952 245.747 76.8912 245.126 76.8912Z" fill="#6E07F3"/>
<path d="M267.589 76.8912H250.181C249.56 76.8912 249.057 77.3952 249.057 78.0169C249.057 78.6386 249.56 79.1426 250.181 79.1426H267.589C268.21 79.1426 268.712 78.6386 268.712 78.0169C268.712 77.3952 268.21 76.8912 267.589 76.8912Z" fill="#6E07F3"/>
<path d="M245.126 88.1485H219.294C218.674 88.1485 218.171 88.6525 218.171 89.2742C218.171 89.8959 218.674 90.4 219.294 90.4H245.126C245.747 90.4 246.25 89.8959 246.25 89.2742C246.25 88.6525 245.747 88.1485 245.126 88.1485Z" fill="#6E07F3"/>
<path d="M284.436 88.1485H250.181C249.56 88.1485 249.057 88.6525 249.057 89.2742C249.057 89.8959 249.56 90.4 250.181 90.4H284.436C285.057 90.4 285.56 89.8959 285.56 89.2742C285.56 88.6525 285.057 88.1485 284.436 88.1485Z" fill="#5BE9B9"/>
<path d="M236.703 99.4058H219.294C218.674 99.4058 218.171 99.9098 218.171 100.532C218.171 101.153 218.674 101.657 219.294 101.657H236.703C237.323 101.657 237.826 101.153 237.826 100.532C237.826 99.9098 237.323 99.4058 236.703 99.4058Z" fill="#6E07F3"/>
<path d="M259.166 99.4058H241.757C241.137 99.4058 240.634 99.9098 240.634 100.532C240.634 101.153 241.137 101.657 241.757 101.657H259.166C259.786 101.657 260.289 101.153 260.289 100.532C260.289 99.9098 259.786 99.4058 259.166 99.4058Z" fill="#5BE9B9"/>
<path d="M273.205 99.4058H264.22C263.6 99.4058 263.097 99.9098 263.097 100.532C263.097 101.153 263.6 101.657 264.22 101.657H273.205C273.825 101.657 274.328 101.153 274.328 100.532C274.328 99.9098 273.825 99.4058 273.205 99.4058Z" fill="#6E07F3"/>
<path d="M253.55 110.663H219.294C218.674 110.663 218.171 111.167 218.171 111.789C218.171 112.411 218.674 112.915 219.294 112.915H253.55C254.17 112.915 254.673 112.411 254.673 111.789C254.673 111.167 254.17 110.663 253.55 110.663Z" fill="#6E07F3"/>
<path d="M233.895 121.92H219.294C218.674 121.92 218.171 122.424 218.171 123.046C218.171 123.668 218.674 124.172 219.294 124.172H233.895C234.515 124.172 235.018 123.668 235.018 123.046C235.018 122.424 234.515 121.92 233.895 121.92Z" fill="#5BE9B9"/>
<path fill-rule="evenodd" clip-rule="evenodd" d="M601.444 105.597H447.573V215.355C447.573 217.532 448.453 219.502 449.877 220.928C451.3 222.354 453.266 223.236 455.438 223.236H593.579C595.752 223.236 597.718 222.354 599.141 220.929C600.564 219.502 601.444 217.532 601.444 215.355V105.597Z" fill="white" stroke="#141C3A" stroke-width="8"/>
<path fill-rule="evenodd" clip-rule="evenodd" d="M593.579 91.5257H455.438C453.265 91.5257 451.299 92.4073 449.877 93.8323C448.453 95.2581 447.573 97.228 447.573 99.4039V107.849H601.444V99.4039C601.444 97.2282 600.564 95.2586 599.14 93.8329C597.717 92.4074 595.751 91.5257 593.579 91.5257Z" fill="#141C3A" stroke="#141C3A" stroke-width="8"/>
<path d="M459.647 102.22C461.043 102.22 462.174 101.086 462.174 99.6872C462.174 98.2884 461.043 97.1544 459.647 97.1544C458.251 97.1544 457.12 98.2884 457.12 99.6872C457.12 101.086 458.251 102.22 459.647 102.22Z" fill="white"/>
<path d="M468.071 102.22C469.466 102.22 470.598 101.086 470.598 99.6872C470.598 98.2884 469.466 97.1544 468.071 97.1544C466.675 97.1544 465.544 98.2884 465.544 99.6872C465.544 101.086 466.675 102.22 468.071 102.22Z" fill="#6E07F3"/>
<path d="M476.494 102.22C477.89 102.22 479.021 101.086 479.021 99.6872C479.021 98.2884 477.89 97.1544 476.494 97.1544C475.099 97.1544 473.967 98.2884 473.967 99.6872C473.967 101.086 475.099 102.22 476.494 102.22Z" fill="#5BE9B9"/>
<path d="M542.76 192.56C558.267 192.56 570.838 179.96 570.838 164.417C570.838 148.874 558.267 136.274 542.76 136.274C527.252 136.274 514.681 148.874 514.681 164.417C514.681 179.96 527.252 192.56 542.76 192.56Z" stroke="#6E07F3" stroke-width="9"/>
<path fill-rule="evenodd" clip-rule="evenodd" d="M546.41 132.896H539.671V139.651H546.41V132.896Z" fill="#FFFFFE" stroke="#5BE9B9" stroke-width="8"/>
<path fill-rule="evenodd" clip-rule="evenodd" d="M546.129 189.183H539.39V195.937H546.129V189.183Z" fill="#FFFFFE" stroke="#5BE9B9" stroke-width="8"/>
<path fill-rule="evenodd" clip-rule="evenodd" d="M518.051 161.321H511.312V168.075H518.051V161.321Z" fill="#FFFFFE" stroke="#5BE9B9" stroke-width="8"/>
<path d="M570.838 139.088V160.195" stroke="#141C3A" stroke-width="8" stroke-linecap="square"/>
<path d="M570.838 168.638V189.746" stroke="#141C3A" stroke-width="8" stroke-linecap="square"/>
<path d="M570.838 141.621C572.699 141.621 574.208 140.109 574.208 138.244C574.208 136.378 572.699 134.866 570.838 134.866C568.977 134.866 567.469 136.378 567.469 138.244C567.469 140.109 568.977 141.621 570.838 141.621Z" fill="#141C3A"/>
<path d="M570.838 195.093C572.699 195.093 574.208 193.581 574.208 191.716C574.208 189.851 572.699 188.339 570.838 188.339C568.977 188.339 567.469 189.851 567.469 191.716C567.469 193.581 568.977 195.093 570.838 195.093Z" fill="#141C3A"/>
<path fill-rule="evenodd" clip-rule="evenodd" d="M573.927 161.321H567.188V168.075H573.927V161.321Z" fill="#FFFFFE" stroke="#5BE9B9" stroke-width="8"/>
<path d="M490.253 129.238H477.337C475.476 129.238 473.967 130.75 473.967 132.615V145.561C473.967 147.426 475.476 148.938 477.337 148.938H490.253C492.114 148.938 493.622 147.426 493.622 145.561V132.615C493.622 130.75 492.114 129.238 490.253 129.238Z" fill="#141C3A"/>
<path d="M490.253 154.567H477.337C475.476 154.567 473.967 156.079 473.967 157.944V170.89C473.967 172.755 475.476 174.267 477.337 174.267H490.253C492.114 174.267 493.622 172.755 493.622 170.89V157.944C493.622 156.079 492.114 154.567 490.253 154.567Z" fill="#5BE9B9"/>
<path d="M490.253 179.896H477.337C475.476 179.896 473.967 181.408 473.967 183.273V196.219C473.967 198.084 475.476 199.596 477.337 199.596H490.253C492.114 199.596 493.622 198.084 493.622 196.219V183.273C493.622 181.408 492.114 179.896 490.253 179.896Z" fill="#6E07F3"/>
<path d="M682.03 276.146C691.334 276.146 698.877 268.586 698.877 259.26C698.877 249.934 691.334 242.374 682.03 242.374C672.725 242.374 665.182 249.934 665.182 259.26C665.182 268.586 672.725 276.146 682.03 276.146Z" fill="white" stroke="#141C3A" stroke-width="3"/>
<path d="M682.03 269.11C687.457 269.11 691.857 264.7 691.857 259.26C691.857 253.82 687.457 249.41 682.03 249.41C676.602 249.41 672.202 253.82 672.202 259.26C672.202 264.7 676.602 269.11 682.03 269.11Z" fill="white" stroke="#141C3A" stroke-width="3"/>
<path d="M659.567 239.278C662.668 239.278 665.182 236.758 665.182 233.649C665.182 230.541 662.668 228.021 659.567 228.021C656.465 228.021 653.951 230.541 653.951 233.649C653.951 236.758 656.465 239.278 659.567 239.278Z" fill="#FFFFFE" stroke="#141C3A" stroke-width="3"/>
<path fill-rule="evenodd" clip-rule="evenodd" d="M682.572 232.242H634.858C634.547 232.242 634.267 232.368 634.063 232.572C633.86 232.776 633.734 233.057 633.734 233.368V280.649C633.734 282.203 634.363 283.61 635.379 284.629C636.396 285.647 637.799 286.277 639.35 286.277H678.079C679.63 286.277 681.034 285.647 682.05 284.629C683.066 283.61 683.695 282.203 683.695 280.649V233.368C683.695 233.057 683.569 232.776 683.366 232.572C683.162 232.368 682.882 232.242 682.572 232.242Z" fill="white" stroke="#141C3A" stroke-width="3"/>
<path fill-rule="evenodd" clip-rule="evenodd" d="M669.956 247.44H659.848C659.227 247.44 658.666 247.692 658.259 248.099C657.853 248.506 657.601 249.069 657.601 249.691V263.2C657.601 263.822 657.853 264.384 658.259 264.792C658.666 265.199 659.227 265.451 659.848 265.451H669.956C670.576 265.451 671.138 265.199 671.544 264.792C671.951 264.384 672.202 263.822 672.202 263.2V249.691C672.202 249.069 671.951 248.506 671.544 248.099C671.138 247.692 670.576 247.44 669.956 247.44Z" fill="#5BE9B9" stroke="#141C3A" stroke-width="3"/>
<path d="M664.761 232.664V245.47" stroke="#141C3A" stroke-width="3" stroke-linecap="square"/>
<path fill-rule="evenodd" clip-rule="evenodd" d="M601.725 270.855C597.166 270.855 593.038 272.707 590.05 275.702C587.322 278.436 585.545 282.122 585.256 286.221H618.194C617.905 282.122 616.127 278.436 613.399 275.702C610.412 272.707 606.284 270.855 601.725 270.855Z" fill="white" stroke="#141C3A" stroke-width="3"/>
<path d="M602.848 272.206C602.848 271.584 602.345 271.08 601.725 271.08C601.105 271.08 600.602 271.584 600.602 272.206V273.613C600.602 274.235 601.105 274.739 601.725 274.739C602.345 274.739 602.848 274.235 602.848 273.613V272.206Z" fill="#141C3A"/>
<path fill-rule="evenodd" clip-rule="evenodd" d="M85.6398 253.068H17.6897C13.115 253.068 8.97334 254.927 5.97539 257.932C2.97744 260.937 1.12317 265.088 1.12317 269.673C1.12317 274.258 2.97744 278.409 5.97539 281.414C8.97334 284.419 13.115 286.278 17.6897 286.278H85.6398C86.105 286.278 86.5262 286.089 86.8311 285.783C87.136 285.477 87.3245 285.055 87.3245 284.589V281.976C87.3245 281.385 87.0967 280.844 86.722 280.441C86.3472 280.038 85.8255 279.772 85.2376 279.73C81.3507 279.453 78.4614 278.464 76.5244 276.857C74.4831 275.163 73.4251 272.782 73.4251 269.673C73.4251 266.56 74.4854 264.155 76.5501 262.421C78.5013 260.782 81.4144 259.742 85.3448 259.387C85.9071 259.32 86.401 259.048 86.7549 258.65C87.1103 258.251 87.3245 257.724 87.3245 257.152V254.757C87.3245 254.291 87.136 253.868 86.8311 253.563C86.5262 253.257 86.105 253.068 85.6398 253.068Z" fill="#6E07F3" stroke="#141C3A" stroke-width="3"/>
<path fill-rule="evenodd" clip-rule="evenodd" d="M82.2103 259.541H17.4087C14.6174 259.541 12.0903 260.675 10.2611 262.509C8.43183 264.342 7.30042 266.875 7.30042 269.673C7.30042 272.471 8.43183 275.003 10.2611 276.837C12.0903 278.67 14.6174 279.804 17.4087 279.804C47.9852 279.804 69.7271 279.863 82.6344 279.98C80.3751 279.368 77.7841 278.501 75.9443 276.608C74.4664 275.086 73.425 272.92 73.425 269.673C73.425 266.395 74.486 264.221 75.986 262.705C77.7075 260.964 80.0734 260.116 82.2103 259.541Z" fill="white" stroke="#141C3A" stroke-width="3"/>
<path fill-rule="evenodd" clip-rule="evenodd" d="M16.2646 272.206H73.0254C73.6341 272.206 74.1276 272.71 74.1276 273.331C74.1276 273.953 73.6341 274.457 73.0254 274.457H16.2646C15.6559 274.457 15.1625 273.953 15.1625 273.331C15.1625 272.71 15.6559 272.206 16.2646 272.206Z" fill="#141C3A"/>
<path fill-rule="evenodd" clip-rule="evenodd" d="M16.2646 264.888H73.0254C73.6341 264.888 74.1276 265.392 74.1276 266.014C74.1276 266.636 73.6341 267.14 73.0254 267.14H16.2646C15.6559 267.14 15.1625 266.636 15.1625 266.014C15.1625 265.392 15.6559 264.888 16.2646 264.888Z" fill="#141C3A"/>
<path d="M70.2399 196.882C68.8619 195.654 67.4839 194.426 66.1059 193.198C63.91 191.244 61.7203 189.283 59.5243 187.328C59.021 186.883 58.5176 186.432 58.0205 185.988C58.0205 186.576 58.0205 187.172 58.0205 187.761C59.3985 186.533 60.7765 185.305 62.1545 184.077C64.3504 182.122 66.5401 180.161 68.7361 178.207C69.2394 177.762 69.7428 177.311 70.2399 176.866C70.7307 176.428 70.7244 175.532 70.2399 175.093C69.7176 174.611 68.9877 174.623 68.4592 175.093C67.0812 176.321 65.7032 177.549 64.3253 178.777C62.1293 180.731 59.9396 182.692 57.7437 184.647C57.2403 185.092 56.7369 185.543 56.2398 185.988C55.7553 186.42 55.7553 187.328 56.2398 187.761C57.6178 188.988 58.9958 190.216 60.3738 191.444C62.5697 193.399 64.7594 195.36 66.9554 197.314C67.4587 197.759 67.9621 198.21 68.4592 198.655C68.95 199.094 69.7617 199.175 70.2399 198.655C70.6803 198.179 70.7621 197.352 70.2399 196.882Z" fill="#141C3A"/>
<path d="M91.2235 176.869C92.6015 178.097 93.9795 179.325 95.3575 180.553C97.5534 182.507 99.7431 184.468 101.939 186.423C102.442 186.868 102.946 187.319 103.443 187.764C103.443 187.175 103.443 186.579 103.443 185.991C102.065 187.218 100.687 188.446 99.3089 189.674C97.113 191.629 94.9233 193.59 92.7273 195.544C92.224 195.989 91.7206 196.44 91.2235 196.885C90.7327 197.324 90.739 198.219 91.2235 198.658C91.7458 199.14 92.4757 199.128 93.0042 198.658C94.3822 197.43 95.7602 196.202 97.1381 194.974C99.3341 193.02 101.524 191.059 103.72 189.104C104.223 188.659 104.726 188.208 105.224 187.764C105.708 187.331 105.708 186.423 105.224 185.991C103.846 184.763 102.468 183.535 101.09 182.307C98.8937 180.352 96.704 178.391 94.508 176.437C94.0047 175.992 93.5013 175.541 93.0042 175.096C92.5134 174.658 91.7017 174.576 91.2235 175.096C90.7831 175.572 90.7013 176.399 91.2235 176.869Z" fill="#141C3A"/>
<path d="M76.2441 204.26C76.6216 203.132 76.9929 202.005 77.3704 200.871C78.2702 198.158 79.17 195.452 80.0697 192.739C81.152 189.469 82.2342 186.205 83.3228 182.935C84.2603 180.109 85.1978 177.284 86.1354 174.458C86.5821 173.086 87.0855 171.721 87.5008 170.33C87.5071 170.311 87.5134 170.292 87.5196 170.273C87.7273 169.653 87.2805 168.876 86.6387 168.732C85.9466 168.576 85.3111 168.939 85.0909 169.609C84.7133 170.737 84.3421 171.865 83.9646 172.999C83.0648 175.711 82.165 178.418 81.2652 181.13C80.183 184.401 79.1007 187.664 78.0122 190.935C77.0747 193.76 76.1371 196.586 75.1996 199.411C74.7529 200.777 74.2495 202.142 73.8342 203.533C73.8279 203.552 73.8216 203.571 73.8153 203.59C73.6077 204.21 74.0544 204.987 74.6962 205.131C75.3884 205.287 76.0239 204.924 76.2441 204.26Z" fill="#141C3A"/>
</g>
<defs>
<clipPath id="clip0_398_659">
<rect width="700" height="290" fill="white"/>
</clipPath>
</defs>
</svg>
