<svg width="700" height="450" viewBox="0 0 700 450" fill="none" xmlns="http://www.w3.org/2000/svg">
<path d="M525.566 23.4955V22.05L537.202 16.1237V18.4364L528.276 22.7366L528.348 22.5921V22.9534L528.276 22.8089L537.202 27.1091V29.4218L525.566 23.4955ZM548.261 10.631L542.299 32.7825H540.348L546.31 10.631H548.261ZM563.039 23.4955L551.403 29.4218V27.1091L560.329 22.8089L560.256 22.9534V22.5921L560.329 22.7366L551.403 18.4364V16.1237L563.039 22.05V23.4955Z" fill="#323247"/>
<path d="M439.837 171.349C438.573 199.041 445.489 295.02 423.779 302.06C419.88 303.324 383.441 301.83 379.779 302.06C373.419 302.46 340.829 303.901 335.279 302.06C313.099 294.701 327.062 197.381 324.531 171.349C321.79 143.154 331.803 143.574 339.26 131.822C348.296 117.583 365.135 109.714 382.184 109.714C414.025 109.714 441.844 127.401 439.837 171.349Z" fill="#2B2B3F"/>
<path d="M404.528 227.505H359.842V283.448H404.528V227.505Z" fill="#E3B5AA"/>
<path d="M432.379 194.875C440.35 182.779 450.492 182.249 454.727 196.554C458.962 210.86 444.985 222.632 433.604 218.288C422.224 213.944 432.379 194.875 432.379 194.875Z" fill="#E3B5AA"/>
<path d="M441.789 195.191C447.128 194.214 449.865 210.122 438.156 210.647L440.564 205.097L438.304 200.479L441.789 195.191Z" fill="#D78F97"/>
<path d="M436.404 212.828C443.229 205.553 438.304 200.479 438.304 200.479C438.304 200.479 444.8 187.155 447.404 197.367" stroke="#C87E84" stroke-width="0.5" stroke-miterlimit="10"/>
<path d="M331.617 194.875C323.646 182.779 313.504 182.249 309.269 196.554C305.034 210.86 319.011 222.632 330.392 218.288C341.772 213.944 331.617 194.875 331.617 194.875Z" fill="#E3B5AA"/>
<path d="M322.207 195.191C316.868 194.214 314.131 210.122 325.841 210.647L323.433 205.097L325.693 200.479L322.207 195.191Z" fill="#D78F97"/>
<path d="M327.592 212.828C320.766 205.553 325.692 200.479 325.692 200.479C325.692 200.479 319.196 187.155 316.592 197.367" stroke="#C87E84" stroke-width="0.5" stroke-miterlimit="10"/>
<path d="M404.528 228.742V249.553C388.47 271.313 359.842 264.238 359.842 264.238L360.343 228.741H404.528V228.742Z" fill="#C87E84"/>
<path d="M382 258.5C368.13 258.5 358.809 243.863 350 234.5C345.959 230.205 342.5 224 339 218.5C335.5 213 335 211 333.884 204.289V168.993C333.884 150.976 348.49 136.37 366.507 136.37H397.862C415.879 136.37 430.485 150.976 430.485 168.993V204.289C429 210.5 428.5 212.5 425.5 218.5C422.771 223.959 419.041 230.205 415 234.5C406.191 243.863 395.87 258.5 382 258.5Z" fill="#E3B5AA"/>
<path d="M387 210.603C387 214.707 384.753 218.034 382.185 218.034C379.616 218.034 377.5 214.707 377.5 210.603" stroke="#2B2B3F" stroke-width="0.5" stroke-miterlimit="10"/>
<path d="M375.983 197.831C378.796 187.479 372.685 176.808 362.333 173.995C351.981 171.182 341.31 177.294 338.497 187.645C335.684 197.997 341.796 208.669 352.147 211.481C362.499 214.294 373.171 208.182 375.983 197.831Z" fill="#25E3A3"/>
<rect x="363.229" y="173" width="9" height="37" transform="rotate(38.8881 363.229 173)" fill="white" fill-opacity="0.45"/>
<rect x="371.229" y="181" width="2.47331" height="37" transform="rotate(38.8881 371.229 181)" fill="white" fill-opacity="0.45"/>
<path d="M375.983 197.831C378.796 187.479 372.685 176.808 362.333 173.995C351.981 171.182 341.31 177.294 338.497 187.645C335.684 197.997 341.796 208.669 352.147 211.481C362.499 214.294 373.171 208.182 375.983 197.831Z" stroke="#2B2B3F" stroke-width="4" stroke-miterlimit="10"/>
<path d="M425.828 197.911C428.691 187.573 422.632 176.872 412.294 174.009C401.956 171.146 391.255 177.205 388.392 187.543C385.529 197.88 391.588 208.582 401.926 211.445C412.264 214.308 422.965 208.248 425.828 197.911Z" fill="#25E3A3"/>
<rect x="414.229" y="174" width="9" height="37" transform="rotate(38.8881 414.229 174)" fill="white" fill-opacity="0.45"/>
<rect x="422.229" y="182" width="2.47331" height="37" transform="rotate(38.8881 422.229 182)" fill="white" fill-opacity="0.45"/>
<path d="M425.828 197.911C428.691 187.573 422.632 176.872 412.294 174.009C401.956 171.146 391.255 177.205 388.392 187.543C385.529 197.88 391.588 208.582 401.926 211.445C412.264 214.308 422.965 208.248 425.828 197.911Z" stroke="#2B2B3F" stroke-width="4" stroke-miterlimit="10"/>
<path d="M337.279 182.059C337.279 182.059 338.329 154.544 349.779 142.56C355.301 136.781 367.463 142.411 375.08 141.68C398.492 139.433 414.382 157.844 427.169 141.077C427.169 141.077 435.738 126.734 408.447 117.357C381.156 107.98 363.181 111.725 348.279 128.56C340.305 137.568 336.725 146.261 333.779 156.06C333.779 165.06 334.477 173.308 337.279 182.059Z" fill="#2B2B3F"/>
<path d="M333.958 166.815C333.958 166.815 337.375 191.74 333.958 206.952C333.958 206.952 328.964 168.302 333.958 166.815Z" fill="#2B2B3F"/>
<path d="M430.134 166.815C430.134 166.815 426.717 191.74 430.134 206.952C430.134 206.952 435.128 168.302 430.134 166.815Z" fill="#2B2B3F"/>
<path d="M367.863 164.869C362.593 162.346 353.219 159.577 344.534 165.763C343.077 166.801 343.631 169.091 345.393 169.395C348.179 169.876 352.177 170.373 356.701 170.344C360.218 170.322 364.38 169.456 367.489 168.657C369.316 168.188 369.565 165.684 367.863 164.869Z" fill="#2B2B3F"/>
<path d="M418.759 164.869C413.489 162.346 404.115 159.577 395.43 165.763C393.974 166.801 394.527 169.091 396.289 169.395C399.075 169.876 403.073 170.373 407.597 170.344C411.114 170.322 415.276 169.456 418.385 168.657C420.212 168.188 420.46 165.684 418.759 164.869Z" fill="#2B2B3F"/>
<path d="M378 232.5H387.5" stroke="#2B2B3F" stroke-width="0.5"/>
<path d="M537.21 422.406L210.25 422.746C210.25 422.746 216.35 409.986 225.13 393.076C225.78 391.826 226.45 390.546 227.13 389.246C239.12 366.376 255.25 337.486 267.84 321.816C282.34 303.776 316.6 290.916 339.87 283.886C353.43 279.796 363.25 277.686 363.25 277.686H400.81C400.81 277.686 409.63 279.576 422.09 283.266C445.34 290.136 480.1 304.236 496.22 321.816C499.76 325.676 503.09 330.346 506.21 335.526C526.05 368.496 537.21 422.406 537.21 422.406Z" fill="#A36EE9"/>
<path opacity="0.5" d="M537.21 422.406L210.25 422.746C210.25 422.746 216.35 409.986 225.13 393.076C388.291 441.038 474.273 362.438 493.893 341.161C497.061 337.726 501.46 335.657 506.131 335.528L506.21 335.526C526.05 368.496 537.21 422.406 537.21 422.406Z" fill="#6E07F3"/>
<path d="M377.054 196.031H387.313" stroke="#2B2B3F" stroke-width="4" stroke-miterlimit="10"/>
<path d="M422.089 283.262C381.616 327.793 339.87 283.891 339.87 283.891C353.431 279.793 363.253 277.682 363.253 277.682H400.811C400.811 277.682 409.631 279.578 422.089 283.262Z" fill="#E3B5AA"/>
<path d="M292.82 372.023V422.807" stroke="#DC831E" stroke-width="3" stroke-miterlimit="10"/>
<path d="M292.821 404.391L279.185 387.006" stroke="#DC831E" stroke-width="3" stroke-miterlimit="10"/>
<path d="M470.623 372.023V422.807" stroke="#5906C6" stroke-width="3" stroke-miterlimit="10"/>
<path d="M470.623 404.392L482.73 388.955" stroke="#5906C6" stroke-width="3" stroke-miterlimit="10"/>
<path d="M337.932 303.218C337.932 303.218 388.116 337.49 422.089 301.554" stroke="#5906C6" stroke-width="3" stroke-miterlimit="10"/>
<path d="M433.325 342.787V340.287H450.779V342.787H443.461V363.56H440.643V342.787H433.325Z" fill="white"/>
<path d="M326.382 157.373C322.675 134.586 345.065 114.28 371.279 109.112C375.055 108.367 379.279 108.119 382.279 110.56C384.279 108.119 390.139 108.026 393.779 108.619C408.072 110.947 421.664 118.669 431.102 133.747C436.207 141.904 437.063 145.717 439.279 158.56C439.279 167.456 432.924 182.56 431.102 171.06C429.279 159.56 422.119 152.889 416.279 150.56C392.644 141.135 356.286 138.24 340.303 158.56C338.201 161.232 334.621 165.512 331.436 164.321C328.511 163.227 326.884 160.456 326.382 157.373Z" fill="#2B2B3F"/>
<path d="M352.139 259.215C352.139 259.215 349.219 260.562 347.516 273.118C346.473 280.809 347.95 289.043 349.535 292.95C350.725 295.88 353.852 302.37 358.704 307.745C371.105 321.483 370.148 313.678 366.42 302.392C363.341 293.069 360.321 290.741 359.709 275.766C359.168 262.494 356.534 257.431 352.139 259.215Z" fill="#2B2B3F"/>
<path d="M411.612 258.215C411.612 258.215 414.532 259.562 416.235 272.118C417.278 279.809 415.801 288.043 414.215 291.95C413.026 294.88 409.899 301.37 405.047 306.745C392.646 320.483 393.603 312.678 397.331 301.392C400.41 292.069 403.43 289.741 404.042 274.766C404.583 261.494 407.217 256.431 411.612 258.215Z" fill="#2B2B3F"/>
<path d="M400.71 422.436C400.68 422.446 400.64 422.456 400.6 422.456C400.33 422.486 400.05 422.496 399.77 422.496H180.78C177.87 422.496 175.28 421.146 173.59 419.026C172.33 417.456 171.58 415.456 171.58 413.286L171.55 413.186L137.45 316.836C134.84 309.476 140.3 301.746 148.11 301.746H290.29C295.09 301.746 299.36 304.766 300.96 309.286L337.71 413.106C337.75 413.226 337.77 413.286 337.77 413.286H399.98C405.69 413.287 406.32 421.827 400.71 422.436Z" fill="#25E3A3"/>
<path d="M237.49 360.318C241.085 370.772 237.02 381.648 228.409 384.609C219.799 387.57 209.904 381.496 206.309 371.041C202.714 360.587 206.779 349.711 215.39 346.75C224 343.789 233.895 349.863 237.49 360.318Z" fill="#2B2B3F"/>
<path d="M207.923 367.191C207.738 367.108 207.572 366.988 207.434 366.838C207.297 366.689 207.191 366.513 207.124 366.321C206.959 365.91 206.959 365.452 207.124 365.041C207.213 364.815 207.348 364.61 207.52 364.438C207.692 364.266 207.897 364.131 208.124 364.041L215.613 361.041C215.863 360.931 216.124 361.041 216.404 361.371C216.652 361.649 216.803 362 216.833 362.371C216.84 362.55 216.795 362.726 216.705 362.88C216.615 363.035 216.482 363.16 216.324 363.241L210.043 365.681L216.344 368.211C216.476 368.3 216.582 368.423 216.651 368.568C216.72 368.712 216.748 368.872 216.733 369.031C216.721 369.394 216.595 369.744 216.374 370.031C216.134 370.351 215.893 370.461 215.643 370.361L207.923 367.191Z" fill="white"/>
<path d="M219.611 373.1C219.508 373.018 219.425 372.913 219.37 372.793C219.314 372.673 219.287 372.542 219.291 372.41C219.336 372.05 219.416 371.695 219.531 371.35L223.691 359.35C223.951 358.45 224.321 358 224.801 358C225.065 357.996 225.321 358.088 225.521 358.26C225.619 358.358 225.695 358.476 225.745 358.605C225.795 358.734 225.818 358.872 225.811 359.01C225.786 359.353 225.708 359.69 225.581 360.01L221.231 372.71C221.183 372.912 221.065 373.09 220.899 373.214C220.733 373.338 220.529 373.401 220.321 373.39C220.058 373.382 219.806 373.279 219.611 373.1Z" fill="white"/>
<path d="M227.783 370.031C227.561 369.744 227.435 369.394 227.423 369.031C227.408 368.872 227.437 368.712 227.505 368.568C227.574 368.423 227.68 368.3 227.813 368.211L234.113 365.681L227.833 363.241C227.674 363.16 227.542 363.034 227.451 362.88C227.361 362.726 227.316 362.55 227.323 362.371C227.353 362 227.504 361.649 227.753 361.371C228.033 361.041 228.293 360.931 228.543 361.041L236.033 364.041C236.394 364.184 236.701 364.436 236.913 364.761C237.103 365.038 237.205 365.366 237.203 365.701C237.191 366.015 237.101 366.32 236.943 366.591C236.796 366.859 236.564 367.07 236.283 367.191L228.513 370.421C228.263 370.461 228.023 370.351 227.783 370.031Z" fill="white"/>
<path d="M399.982 413.285H337.769C337.769 413.285 337.751 413.222 337.715 413.105L300.959 309.284C299.357 304.765 295.09 301.749 290.292 301.749H285.539C285.539 301.749 296.161 302.442 298.817 311.948C301.473 321.445 337.769 422.295 337.769 422.295L340.452 422.493H399.767C400.055 422.493 400.334 422.484 400.604 422.457C406.328 421.936 405.725 413.285 399.982 413.285Z" fill="#005036"/>
<path opacity="0.4" d="M400.71 422.436C400.68 422.446 400.64 422.456 400.6 422.456C400.33 422.486 400.05 422.496 399.77 422.496H180.78C177.87 422.496 175.28 421.146 173.59 419.026C303.03 430.146 290.29 301.746 290.29 301.746C295.09 301.746 299.36 304.766 300.96 309.286L337.71 413.106C337.75 413.226 337.77 413.286 337.77 413.286H399C399.66 416.317 400.24 419.366 400.71 422.436Z" fill="#0D7C57"/>
<path d="M140.312 358.891V362.114C134.486 362.78 133.061 367.708 133.061 373.704V375.687C133.061 381.684 134.487 386.611 140.312 387.277V390.484H28.9224C24.3514 390.484 20.6484 386.781 20.6484 382.21V367.18C20.6484 362.609 24.3514 358.89 28.9224 358.89H140.312V358.891Z" fill="#6E07F3"/>
<path d="M138.577 383.977C139.243 385.558 138.019 387.277 136.315 387.277L29.8682 387.354V362.036L136.315 362.113C136.935 362.113 137.493 362.345 137.911 362.717C138.655 363.337 138.995 364.406 138.577 365.413C137.694 367.52 137.725 370.449 137.725 373.702V375.685C137.724 378.941 137.693 381.87 138.577 383.977Z" fill="white"/>
<path opacity="0.4" d="M137.91 362.719C135.865 362.827 41.7982 367.693 35.3522 376.834C33.6012 379.313 31.6182 380.692 29.8672 380.971V362.037L136.314 362.114C136.934 362.114 137.492 362.347 137.91 362.719Z" fill="#A3D5E6"/>
<path d="M35.3524 390.491H25.9924C23.0414 390.491 20.6484 388.099 20.6484 385.147V364.242C20.6484 361.291 23.0404 358.898 25.9924 358.898H35.3524V390.491Z" fill="#6E07F3"/>
<path opacity="0.4" d="M138.577 383.977C139.243 385.557 138.019 387.277 136.315 387.277L115.065 387.293C131.946 385.373 130.891 371.504 130.891 371.504C131.077 370.838 117.551 362.703 117.784 362.099L136.315 362.115C136.935 362.115 137.493 362.347 137.911 362.719C138.655 363.339 138.995 364.408 138.577 365.415C137.694 367.522 137.725 370.451 137.725 373.705V375.688C137.724 378.941 137.693 381.87 138.577 383.977Z" fill="#A3D5E6"/>
<path opacity="0.4" d="M137.724 372.848H35.5332V375.13H137.724V372.848Z" fill="#A3D5E6"/>
<path opacity="0.4" d="M137.724 367.709H35.5332V369.991H137.724V367.709Z" fill="#A3D5E6"/>
<path opacity="0.4" d="M137.724 379.385H35.5332V381.667H137.724V379.385Z" fill="#A3D5E6"/>
<path d="M104.808 382.628L99.3754 377.209L93.9414 382.628V367.709H104.808V382.628Z" fill="#C33E5D"/>
<path d="M152.227 390.377V393.6C146.401 394.266 144.976 399.193 144.976 405.19V407.173C144.976 413.169 146.402 418.097 152.227 418.763V421.97H40.8375C36.2665 421.97 32.5635 418.267 32.5635 413.696V398.666C32.5635 394.095 36.2665 390.377 40.8375 390.377H152.227Z" fill="#C33E5D"/>
<path d="M150.491 415.463C151.157 417.043 149.933 418.763 148.229 418.763L41.7822 418.84V393.522L148.229 393.6C148.849 393.6 149.407 393.832 149.825 394.204C150.569 394.824 150.91 395.893 150.491 396.9C149.608 399.007 149.639 401.936 149.639 405.189V407.172C149.639 410.427 149.608 413.356 150.491 415.463Z" fill="white"/>
<path opacity="0.4" d="M149.825 394.205C147.78 394.313 53.7132 399.179 47.2672 408.321C45.5162 410.8 43.5332 412.179 41.7822 412.458V393.524L148.229 393.602C148.849 393.6 149.407 393.833 149.825 394.205Z" fill="#A3D5E6"/>
<path d="M47.2675 421.977H37.9075C34.9565 421.977 32.5635 419.585 32.5635 416.633V395.728C32.5635 392.777 34.9555 390.384 37.9075 390.384H47.2675V421.977Z" fill="#C33E5D"/>
<path opacity="0.4" d="M150.492 415.463C151.158 417.044 149.933 418.763 148.229 418.763L126.979 418.779C143.86 416.859 142.805 402.99 142.805 402.99C142.991 402.324 129.466 394.189 129.699 393.585L148.229 393.601C148.849 393.601 149.408 393.833 149.826 394.205C150.569 394.825 150.911 395.894 150.492 396.901C149.609 399.008 149.639 401.937 149.639 405.19V407.173C149.639 410.427 149.609 413.356 150.492 415.463Z" fill="#A3D5E6"/>
<path opacity="0.4" d="M149.639 404.334H47.4482V406.616H149.639V404.334Z" fill="#A3D5E6"/>
<path opacity="0.4" d="M149.639 399.195H47.4482V401.477H149.639V399.195Z" fill="#A3D5E6"/>
<path opacity="0.4" d="M149.639 410.871H47.4482V413.153H149.639V410.871Z" fill="#A3D5E6"/>
<path d="M138.462 416.099L132.72 410.373L126.979 416.099V400.336H138.462V416.099Z" fill="#C33E5D"/>
<path d="M691.63 434.697V437.007C691.63 444.067 685.9 449.787 678.84 449.787H24.7998C18.8498 449.787 13.8498 445.727 12.4198 440.237C12.4198 440.227 12.4198 440.217 12.4098 440.207C12.1498 439.177 12.0098 438.107 12.0098 437.007V434.697C12.0098 427.637 17.7298 421.917 24.7998 421.917H678.84C685.9 421.917 691.63 427.637 691.63 434.697Z" fill="#47547C"/>
<path opacity="0.5" d="M691.63 434.697V437.007C691.63 444.067 685.9 449.787 678.84 449.787H24.7998C18.8498 449.787 13.8498 445.727 12.4198 440.237C12.4198 440.227 12.4198 440.217 12.4098 440.207C12.1398 438.157 12.0098 437.007 12.0098 437.007C378.764 449.787 678.84 421.917 678.84 421.917C685.9 421.917 691.63 427.637 691.63 434.697Z" fill="#2B2B3F"/>
<path d="M675.319 85.291C675.319 85.208 675.33 85.135 675.33 85.052C675.33 84.969 675.319 84.896 675.319 84.823C676.516 84.272 677.723 83.637 678.91 82.867C680.179 81.993 681.47 80.983 682.667 79.828L682.407 78.808C682.157 77.653 681.71 76.539 681.304 75.426C681.075 74.885 680.804 74.354 680.544 73.823C680.305 73.271 680.013 72.761 679.691 72.262L679.15 71.367C677.516 71.377 675.861 71.586 674.352 71.866C672.989 72.147 671.667 72.553 670.439 73.021L670.106 72.688C670.564 71.449 670.98 70.138 671.251 68.775C671.542 67.266 671.75 65.611 671.761 63.977L670.866 63.436C670.366 63.113 669.846 62.822 669.305 62.583C668.774 62.323 668.243 62.052 667.692 61.823C666.579 61.417 665.475 60.97 664.32 60.72L663.3 60.46C662.145 61.657 661.135 62.937 660.261 64.217C659.491 65.393 658.856 66.6 658.305 67.807C658.232 67.807 658.149 67.786 658.076 67.786C657.993 67.786 657.919 67.807 657.837 67.807C657.296 66.6 656.65 65.393 655.88 64.217C655.017 62.937 653.997 61.657 652.852 60.46L651.832 60.72C650.666 60.97 649.563 61.417 648.45 61.823C647.909 62.052 647.378 62.323 646.837 62.583C646.296 62.822 645.786 63.114 645.276 63.436L644.381 63.977C644.402 65.611 644.61 67.266 644.891 68.775C645.172 70.138 645.578 71.449 646.046 72.688C645.932 72.802 645.817 72.906 645.713 73.021C644.474 72.553 643.163 72.147 641.8 71.866C640.291 71.585 638.626 71.377 637.002 71.367L636.45 72.262C636.138 72.762 635.846 73.272 635.597 73.823C635.347 74.354 635.077 74.884 634.847 75.426C634.431 76.54 633.994 77.653 633.744 78.808L633.484 79.828C634.681 80.983 635.961 81.993 637.241 82.867C638.417 83.637 639.624 84.272 640.821 84.823C640.821 84.896 640.811 84.969 640.811 85.052C640.811 85.135 640.821 85.208 640.821 85.291C639.624 85.832 638.417 86.478 637.241 87.248C635.961 88.112 634.681 89.131 633.484 90.276L633.744 91.296C633.994 92.451 634.431 93.565 634.847 94.678C635.076 95.219 635.347 95.75 635.597 96.291C635.847 96.832 636.138 97.342 636.45 97.842L637.002 98.737C638.626 98.727 640.291 98.518 641.8 98.237C643.163 97.956 644.474 97.55 645.713 97.082C645.817 97.196 645.932 97.311 646.046 97.415C645.578 98.653 645.171 99.965 644.891 101.328C644.61 102.837 644.402 104.502 644.381 106.126L645.276 106.677C645.786 106.989 646.296 107.281 646.837 107.52C647.378 107.78 647.909 108.051 648.45 108.28C649.563 108.696 650.667 109.133 651.832 109.383L652.852 109.643C653.997 108.446 655.017 107.166 655.88 105.886C656.651 104.71 657.296 103.503 657.837 102.296C657.92 102.306 657.993 102.317 658.076 102.317C658.149 102.317 658.232 102.307 658.305 102.296C658.857 103.503 659.492 104.711 660.261 105.886C661.136 107.166 662.145 108.446 663.3 109.643L664.32 109.383C665.475 109.133 666.578 108.696 667.692 108.28C668.244 108.051 668.774 107.78 669.305 107.52C669.846 107.281 670.367 106.989 670.866 106.677L671.761 106.126C671.75 104.502 671.542 102.837 671.251 101.328C670.98 99.965 670.564 98.653 670.106 97.415C670.22 97.311 670.325 97.196 670.439 97.082C671.667 97.55 672.989 97.956 674.352 98.237C675.861 98.518 677.516 98.726 679.15 98.737L679.691 97.842C680.014 97.342 680.305 96.833 680.544 96.291C680.804 95.75 681.075 95.219 681.304 94.678C681.71 93.565 682.157 92.451 682.407 91.296L682.667 90.276C681.47 89.131 680.18 88.111 678.91 87.248C677.723 86.477 676.516 85.832 675.319 85.291ZM658.074 93.304C653.516 93.304 649.821 89.609 649.821 85.051C649.821 80.493 653.516 76.798 658.074 76.798C662.632 76.798 666.326 80.493 666.326 85.051C666.327 89.61 662.632 93.304 658.074 93.304Z" fill="#5BE9B9"/>
<path d="M634.417 97.7891H578.73V152.631H594.193" stroke="#0C8D62" stroke-miterlimit="10" stroke-dasharray="4 4"/>
<path d="M626.134 181.984H595.519V187.455H626.134V181.984Z" fill="#5906C6"/>
<path d="M642.586 192.107H595.519V197.579H642.586V192.107Z" fill="#5906C6"/>
<path d="M611.55 202.23H595.519V207.702H611.55V202.23Z" fill="#5906C6"/>
<path d="M634.124 202.23H618.093V207.702H634.124V202.23Z" fill="#5BE9B9"/>
<path d="M662.88 202.23H639.859V207.702H662.88V202.23Z" fill="#5BE9B9"/>
<path d="M662.88 192.107H648.901V197.579H662.88V192.107Z" fill="#5BE9B9"/>
<path d="M662.881 181.984H632.266V187.455H662.881V181.984Z" fill="#5BE9B9"/>
<path d="M674.095 146.551H673.074V207.535H674.095V146.551Z" fill="#2B2B3F"/>
<path d="M627.474 148.792H595.993V154.418H627.474V148.792Z" fill="#5906C6"/>
<path d="M644.393 159.201H595.993V164.828H644.393V159.201Z" fill="#5906C6"/>
<path d="M612.478 169.61H595.993V175.236H612.478V169.61Z" fill="#5906C6"/>
<path d="M635.691 169.61H619.206V175.236H635.691V169.61Z" fill="#5BE9B9"/>
<path d="M665.262 169.61H641.59V175.236H665.262V169.61Z" fill="#5BE9B9"/>
<path d="M665.262 159.201H650.887V164.828H665.262V159.201Z" fill="#5BE9B9"/>
<path d="M665.261 148.792H633.78V154.418H665.261V148.792Z" fill="#5BE9B9"/>
<path d="M556.484 43.9312H465.893V221.951H556.484V43.9312Z" fill="#6E07F3"/>
<path d="M544.229 81.793H476.213V89.017H544.229V81.793Z" fill="white"/>
<path d="M521.229 97.7891H476.213V105.013H521.229V97.7891Z" fill="white"/>
<path d="M544.228 97.7891H527.914V105.013H544.228V97.7891Z" fill="#5BE9B9"/>
<path d="M544.229 113.785H502.08V121.009H544.229V113.785Z" fill="#5BE9B9"/>
<path d="M495.953 113.785H476.213V121.009H495.953V113.785Z" fill="white"/>
<path d="M512.165 129.781H476.213V137.005H512.165V129.781Z" fill="white"/>
<path d="M544.227 129.781H517.701V137.005H544.227V129.781Z" fill="#5BE9B9"/>
<path d="M544.227 145.777H495.951V153.001H544.227V145.777Z" fill="#5BE9B9"/>
<path d="M490.806 145.777H476.213V153.001H490.806V145.777Z" fill="white"/>
<path d="M505.399 161.773H476.213V168.997H505.399V161.773Z" fill="white"/>
<path d="M544.229 161.773H510.221V168.997H544.229V161.773Z" fill="#5BE9B9"/>
<path d="M542.219 204.404V206.437L534.774 209.268V207.313L539.982 205.42L534.774 203.512V201.573L542.219 204.404Z" fill="white"/>
<path d="M521.054 201.573V203.512L515.846 205.42L521.054 207.313V209.268L513.61 206.437V204.404L521.054 201.573Z" fill="white"/>
<path d="M529.854 196.093H532.183L526.654 211.875H524.326L529.854 196.093Z" fill="white"/>
<path d="M508.037 65.4751V68.1401L498.281 71.8501V69.2881L505.106 66.8081L498.281 64.3081V61.7661L508.037 65.4751Z" fill="white"/>
<path d="M490.097 61.7651V64.3071L483.272 66.8071L490.097 69.2871V71.8491L480.341 68.1391V65.4741L490.097 61.7651Z" fill="white"/>
<path d="M468.102 29V15.5988H469.725V21.5665H476.871V15.5988H478.493V29H476.871V23.0061H469.725V29H468.102ZM481.009 17.0383V15.5988H491.06V17.0383H486.846V29H485.224V17.0383H481.009ZM493.565 15.5988H495.502L500.056 26.7228H500.213L504.768 15.5988H506.704V29H505.186V18.8182H505.055L500.868 29H499.402L495.214 18.8182H495.083V29H493.565V15.5988ZM509.958 29V15.5988H511.581V27.5604H517.811V29H509.958Z" fill="#2B2B3F"/>
<path d="M46.697 226.306C44.816 224.462 42.645 222.971 40.29 221.888C40.248 221.865 40.205 221.846 40.161 221.828C36.842 220.324 33.178 219.612 29.478 219.816C26.947 219.95 24.401 220.52 21.941 221.553C21.789 221.618 21.634 221.684 21.483 221.751C17.072 223.718 13.592 226.926 11.276 230.785C7.57201 236.94 6.83001 244.747 9.97301 251.793C15.082 263.248 28.56 268.412 40.015 263.303C50.516 258.62 55.729 246.906 52.591 236.164C52.307 235.185 51.951 234.215 51.525 233.261C50.33 230.581 48.678 228.245 46.697 226.306ZM37.177 256.941C29.229 260.486 19.88 256.903 16.335 248.956C14.227 244.229 14.641 239.007 16.995 234.807C17.011 234.778 17.028 234.745 17.047 234.711C18.652 231.888 21.134 229.535 24.32 228.114C24.917 227.848 25.524 227.622 26.135 227.438C26.198 227.416 26.263 227.397 26.327 227.378C29.484 226.453 32.758 226.569 35.736 227.565C35.749 227.566 35.76 227.57 35.772 227.574C38.323 228.432 40.65 229.937 42.49 231.983C43.565 233.175 44.474 234.556 45.162 236.099C45.59 237.059 45.912 238.037 46.136 239.024C47.778 246.219 44.165 253.824 37.177 256.941Z" fill="#5906C6"/>
<path d="M40.2903 221.888C42.6453 222.97 44.8163 224.462 46.6973 226.306C48.6773 228.245 50.3303 230.582 51.5253 233.262C51.9513 234.216 52.3073 235.186 52.5913 236.165L46.1373 239.024C45.9133 238.037 45.5913 237.059 45.1633 236.099C44.4753 234.556 43.5673 233.175 42.4913 231.983C40.6513 229.937 38.3233 228.432 35.7733 227.574L35.7373 227.565L40.1613 221.829" fill="#5BE9B9"/>
<path d="M35.7734 227.573L35.7374 227.564C32.7604 226.568 29.4854 226.452 26.3284 227.377C26.2644 227.396 26.1994 227.416 26.1364 227.437L21.9424 221.553C24.4024 220.519 26.9484 219.95 29.4794 219.816C33.1804 219.612 36.8444 220.323 40.1624 221.828" fill="#B83D5D"/>
<path d="M32.5635 265.275V267.275" stroke="#0C8D62" stroke-miterlimit="10"/>
<path d="M32.5635 271.103V299.809" stroke="#0C8D62" stroke-miterlimit="10" stroke-dasharray="3.83 3.83"/>
<path d="M32.5635 301.723V303.723H34.5635" stroke="#0C8D62" stroke-miterlimit="10"/>
<path d="M38.6797 303.723H94.2397" stroke="#0C8D62" stroke-miterlimit="10" stroke-dasharray="4.12 4.12"/>
<path d="M96.2979 303.723H98.2979V301.723" stroke="#0C8D62" stroke-miterlimit="10"/>
<path d="M98.2979 297.827V268.616" stroke="#0C8D62" stroke-miterlimit="10" stroke-dasharray="3.89 3.89"/>
<path d="M98.2979 266.669V264.669" stroke="#0C8D62" stroke-miterlimit="10"/>
<path d="M267.155 32.8574H74.3066V262.775H267.155V32.8574Z" fill="#6E07F3"/>
<path d="M267.155 21.5601H74.3066V50.7411H267.155V21.5601Z" fill="#A36EE9"/>
<path d="M244.838 246.96V248.854L237.903 251.491V249.67L242.755 247.907L237.903 246.13V244.323L244.838 246.96Z" fill="white"/>
<path d="M225.122 244.323V246.13L220.27 247.907L225.122 249.67V251.491L218.187 248.854V246.96L225.122 244.323Z" fill="white"/>
<path d="M233.896 239.862L230.237 253.455H229.039L232.698 239.862H233.896Z" fill="white"/>
<path d="M120.004 69.4413V71.8033L111.356 75.0913V72.8203L117.406 70.6223L111.356 68.4063V66.1533L120.004 69.4413Z" fill="white"/>
<path d="M104.101 66.1523V68.4053L98.0511 70.6213L104.101 72.8193V75.0903L95.4531 71.8023V69.4403L104.101 66.1523Z" fill="white"/>
<path d="M87.0646 40.5601V31.8328H92.2976V32.7703H88.1214V35.7191H91.9055V36.6566H88.1214V40.5601H87.0646ZM94.1076 40.5601V31.8328H97.0565C97.7383 31.8328 98.2979 31.9493 98.7354 32.1822C99.1729 32.4123 99.4968 32.7291 99.707 33.1325C99.9173 33.5359 100.022 33.9947 100.022 34.5089C100.022 35.0231 99.9173 35.4791 99.707 35.8768C99.4968 36.2745 99.1744 36.587 98.7397 36.8143C98.305 37.0388 97.7496 37.151 97.0735 37.151H94.6871V36.1964H97.0394C97.5053 36.1964 97.8803 36.1282 98.1644 35.9919C98.4513 35.8555 98.6587 35.6623 98.7866 35.4123C98.9173 35.1595 98.9826 34.8584 98.9826 34.5089C98.9826 34.1595 98.9173 33.8541 98.7866 33.5927C98.6559 33.3314 98.4471 33.1297 98.1602 32.9876C97.8732 32.8427 97.494 32.7703 97.0224 32.7703H95.1644V40.5601H94.1076ZM98.2156 36.6396L100.363 40.5601H99.136L97.0224 36.6396H98.2156ZM109.147 36.1964C109.147 37.1169 108.981 37.9123 108.648 38.5828C108.316 39.2532 107.86 39.7703 107.281 40.1339C106.701 40.4976 106.039 40.6794 105.295 40.6794C104.55 40.6794 103.888 40.4976 103.309 40.1339C102.729 39.7703 102.273 39.2532 101.941 38.5828C101.609 37.9123 101.442 37.1169 101.442 36.1964C101.442 35.276 101.609 34.4805 101.941 33.8101C102.273 33.1396 102.729 32.6226 103.309 32.2589C103.888 31.8953 104.55 31.7135 105.295 31.7135C106.039 31.7135 106.701 31.8953 107.281 32.2589C107.86 32.6226 108.316 33.1396 108.648 33.8101C108.981 34.4805 109.147 35.276 109.147 36.1964ZM108.124 36.1964C108.124 35.4407 107.998 34.803 107.745 34.2831C107.495 33.7632 107.156 33.3697 106.727 33.1027C106.3 32.8356 105.823 32.7021 105.295 32.7021C104.766 32.7021 104.288 32.8356 103.859 33.1027C103.433 33.3697 103.093 33.7632 102.84 34.2831C102.59 34.803 102.465 35.4407 102.465 36.1964C102.465 36.9521 102.59 37.5899 102.84 38.1098C103.093 38.6297 103.433 39.0231 103.859 39.2902C104.288 39.5572 104.766 39.6907 105.295 39.6907C105.823 39.6907 106.3 39.5572 106.727 39.2902C107.156 39.0231 107.495 38.6297 107.745 38.1098C107.998 37.5899 108.124 36.9521 108.124 36.1964ZM117.844 31.8328V40.5601H116.822L112.066 33.7078H111.981V40.5601H110.924V31.8328H111.947L116.719 38.7021H116.805V31.8328H117.844ZM119.482 32.7703V31.8328H126.027V32.7703H123.283V40.5601H122.226V32.7703H119.482ZM127.658 40.5601V31.8328H132.925V32.7703H128.715V35.7191H132.653V36.6566H128.715V39.6226H132.994V40.5601H127.658ZM141.751 31.8328V40.5601H140.728L135.972 33.7078H135.887V40.5601H134.83V31.8328H135.853L140.626 38.7021H140.711V31.8328H141.751ZM146.559 40.5601H143.865V31.8328H146.678C147.525 31.8328 148.249 32.0075 148.851 32.3569C149.453 32.7035 149.915 33.2021 150.236 33.8527C150.557 34.5004 150.718 35.276 150.718 36.1794C150.718 37.0885 150.556 37.8711 150.232 38.5274C149.908 39.1808 149.436 39.6836 148.817 40.0359C148.198 40.3853 147.445 40.5601 146.559 40.5601ZM144.922 39.6226H146.49C147.212 39.6226 147.81 39.4834 148.284 39.2049C148.759 38.9265 149.113 38.5302 149.346 38.016C149.578 37.5018 149.695 36.8896 149.695 36.1794C149.695 35.4748 149.58 34.8683 149.35 34.3598C149.12 33.8484 148.776 33.4564 148.319 33.1836C147.861 32.9081 147.292 32.7703 146.61 32.7703H144.922V39.6226ZM158.559 40.5601H155.865V31.8328H158.678C159.525 31.8328 160.249 32.0075 160.851 32.3569C161.453 32.7035 161.915 33.2021 162.236 33.8527C162.557 34.5004 162.718 35.276 162.718 36.1794C162.718 37.0885 162.556 37.8711 162.232 38.5274C161.908 39.1808 161.436 39.6836 160.817 40.0359C160.198 40.3853 159.445 40.5601 158.559 40.5601ZM156.922 39.6226H158.49C159.212 39.6226 159.81 39.4834 160.284 39.2049C160.759 38.9265 161.113 38.5302 161.346 38.016C161.578 37.5018 161.695 36.8896 161.695 36.1794C161.695 35.4748 161.58 34.8683 161.35 34.3598C161.12 33.8484 160.776 33.4564 160.319 33.1836C159.861 32.9081 159.292 32.7703 158.61 32.7703H156.922V39.6226ZM164.49 40.5601V31.8328H169.757V32.7703H165.547V35.7191H169.485V36.6566H165.547V39.6226H169.826V40.5601H164.49ZM172.02 31.8328L174.611 39.1794H174.713L177.304 31.8328H178.412L175.208 40.5601H174.117L170.912 31.8328H172.02ZM179.772 40.5601V31.8328H185.039V32.7703H180.828V35.7191H184.766V36.6566H180.828V39.6226H185.107V40.5601H179.772ZM186.944 40.5601V31.8328H188V39.6226H192.057V40.5601H186.944ZM200.717 36.1964C200.717 37.1169 200.551 37.9123 200.219 38.5828C199.886 39.2532 199.43 39.7703 198.851 40.1339C198.271 40.4976 197.609 40.6794 196.865 40.6794C196.121 40.6794 195.459 40.4976 194.879 40.1339C194.3 39.7703 193.844 39.2532 193.511 38.5828C193.179 37.9123 193.013 37.1169 193.013 36.1964C193.013 35.276 193.179 34.4805 193.511 33.8101C193.844 33.1396 194.3 32.6226 194.879 32.2589C195.459 31.8953 196.121 31.7135 196.865 31.7135C197.609 31.7135 198.271 31.8953 198.851 32.2589C199.43 32.6226 199.886 33.1396 200.219 33.8101C200.551 34.4805 200.717 35.276 200.717 36.1964ZM199.695 36.1964C199.695 35.4407 199.568 34.803 199.315 34.2831C199.065 33.7632 198.726 33.3697 198.297 33.1027C197.871 32.8356 197.393 32.7021 196.865 32.7021C196.337 32.7021 195.858 32.8356 195.429 33.1027C195.003 33.3697 194.663 33.7632 194.411 34.2831C194.161 34.803 194.036 35.4407 194.036 36.1964C194.036 36.9521 194.161 37.5899 194.411 38.1098C194.663 38.6297 195.003 39.0231 195.429 39.2902C195.858 39.5572 196.337 39.6907 196.865 39.6907C197.393 39.6907 197.871 39.5572 198.297 39.2902C198.726 39.0231 199.065 38.6297 199.315 38.1098C199.568 37.5899 199.695 36.9521 199.695 36.1964ZM202.494 40.5601V31.8328H205.443C206.128 31.8328 206.688 31.9564 207.122 32.2035C207.56 32.4478 207.884 32.7788 208.094 33.1964C208.304 33.614 208.409 34.0799 208.409 34.5941C208.409 35.1084 208.304 35.5757 208.094 35.9961C207.886 36.4166 207.565 36.7518 207.131 37.0018C206.696 37.249 206.139 37.3726 205.46 37.3726H203.347V36.4351H205.426C205.895 36.4351 206.271 36.3541 206.555 36.1922C206.839 36.0302 207.045 35.8115 207.173 35.5359C207.304 35.2575 207.369 34.9436 207.369 34.5941C207.369 34.2447 207.304 33.9322 207.173 33.6566C207.045 33.3811 206.838 33.1652 206.551 33.0089C206.264 32.8498 205.884 32.7703 205.409 32.7703H203.551V40.5601H202.494ZM210.112 40.5601V31.8328H215.379V32.7703H211.168V35.7191H215.106V36.6566H211.168V39.6226H215.447V40.5601H210.112ZM217.283 40.5601V31.8328H220.232C220.914 31.8328 221.474 31.9493 221.911 32.1822C222.349 32.4123 222.673 32.7291 222.883 33.1325C223.093 33.5359 223.198 33.9947 223.198 34.5089C223.198 35.0231 223.093 35.4791 222.883 35.8768C222.673 36.2745 222.35 36.587 221.915 36.8143C221.481 37.0388 220.925 37.151 220.249 37.151H217.863V36.1964H220.215C220.681 36.1964 221.056 36.1282 221.34 35.9919C221.627 35.8555 221.835 35.6623 221.962 35.4123C222.093 35.1595 222.158 34.8584 222.158 34.5089C222.158 34.1595 222.093 33.8541 221.962 33.5927C221.832 33.3314 221.623 33.1297 221.336 32.9876C221.049 32.8427 220.67 32.7703 220.198 32.7703H218.34V40.5601H217.283ZM221.391 36.6396L223.539 40.5601H222.312L220.198 36.6396H221.391Z" fill="white"/>
<path d="M164.333 89.1143H107.646V99.4953H164.333V89.1143Z" fill="#B83D5D"/>
<path d="M200.664 89.1143H172.32V99.4953H200.664V89.1143Z" fill="#5BE9B9"/>
<path d="M246.23 89.1143H207.192V99.4953H246.23V89.1143Z" fill="white"/>
<path d="M134.103 107.648H107.646V118.029H134.103V107.648Z" fill="#B83D5D"/>
<path d="M186.493 107.648H141.303V118.029H186.493V107.648Z" fill="#5BE9B9"/>
<path d="M246.23 107.648H193.856V118.029H246.23V107.648Z" fill="white"/>
<path d="M142.472 126.182H107.646V136.563H142.472V126.182Z" fill="#B83D5D"/>
<path d="M213.654 126.182H148.142V136.563H213.654V126.182Z" fill="#5BE9B9"/>
<path d="M246.231 126.182H220.674V136.563H246.231V126.182Z" fill="white"/>
<path d="M151.561 144.716H107.646V155.097H151.561V144.716Z" fill="#B83D5D"/>
<path d="M200.664 144.716H158.04V155.097H200.664V144.716Z" fill="#5BE9B9"/>
<path d="M246.23 144.716H207.192V155.097H246.23V144.716Z" fill="white"/>
<path d="M126.904 163.25H107.646V173.631H126.904V163.25Z" fill="#B83D5D"/>
<path d="M171.539 163.25H133.384V173.631H171.539V163.25Z" fill="#5BE9B9"/>
<path d="M246.231 163.25H177.479V173.631H246.231V163.25Z" fill="white"/>
<path d="M162.719 181.784H107.646V192.165H162.719V181.784Z" fill="#B83D5D"/>
<path d="M186.493 181.784H169.56V192.165H186.493V181.784Z" fill="#5BE9B9"/>
<path d="M246.23 181.784H193.856V192.165H246.23V181.784Z" fill="white"/>
<path d="M179.352 200.318H107.646V210.699H179.352V200.318Z" fill="#B83D5D"/>
<path d="M214.734 200.318H185.397V210.699H214.734V200.318Z" fill="#5BE9B9"/>
<path d="M246.231 200.318H220.674V210.699H246.231V200.318Z" fill="white"/>
<path d="M129.603 218.852H107.646V229.233H129.603V218.852Z" fill="#B83D5D"/>
<path d="M162.719 218.852H135.989V229.233H162.719V218.852Z" fill="#5BE9B9"/>
<path d="M246.231 218.852H169.56V229.233H246.231V218.852Z" fill="white"/>
<path d="M255.922 89.1143H253.811V229.233H255.922V89.1143Z" fill="white"/>
<path d="M89.8199 99.4963C92.6868 99.4963 95.0109 97.1722 95.0109 94.3053C95.0109 91.4383 92.6868 89.1143 89.8199 89.1143C86.953 89.1143 84.6289 91.4383 84.6289 94.3053C84.6289 97.1722 86.953 99.4963 89.8199 99.4963Z" fill="white"/>
<path d="M89.8199 118.03C92.6868 118.03 95.0109 115.706 95.0109 112.839C95.0109 109.973 92.6868 107.648 89.8199 107.648C86.953 107.648 84.6289 109.973 84.6289 112.839C84.6289 115.706 86.953 118.03 89.8199 118.03Z" fill="white"/>
<path d="M89.8199 136.564C92.6868 136.564 95.0109 134.24 95.0109 131.373C95.0109 128.506 92.6868 126.182 89.8199 126.182C86.953 126.182 84.6289 128.506 84.6289 131.373C84.6289 134.24 86.953 136.564 89.8199 136.564Z" fill="white"/>
<path d="M89.8199 155.097C92.6868 155.097 95.0109 152.773 95.0109 149.906C95.0109 147.039 92.6868 144.715 89.8199 144.715C86.953 144.715 84.6289 147.039 84.6289 149.906C84.6289 152.773 86.953 155.097 89.8199 155.097Z" fill="white"/>
<path d="M89.8199 173.631C92.6868 173.631 95.0109 171.307 95.0109 168.44C95.0109 165.573 92.6868 163.249 89.8199 163.249C86.953 163.249 84.6289 165.573 84.6289 168.44C84.6289 171.307 86.953 173.631 89.8199 173.631Z" fill="white"/>
<path d="M89.8199 192.166C92.6868 192.166 95.0109 189.842 95.0109 186.975C95.0109 184.108 92.6868 181.784 89.8199 181.784C86.953 181.784 84.6289 184.108 84.6289 186.975C84.6289 189.842 86.953 192.166 89.8199 192.166Z" fill="white"/>
<path d="M89.8199 210.7C92.6868 210.7 95.0109 208.376 95.0109 205.509C95.0109 202.642 92.6868 200.318 89.8199 200.318C86.953 200.318 84.6289 202.642 84.6289 205.509C84.6289 208.376 86.953 210.7 89.8199 210.7Z" fill="white"/>
<path d="M89.8199 229.234C92.6868 229.234 95.0109 226.91 95.0109 224.043C95.0109 221.176 92.6868 218.852 89.8199 218.852C86.953 218.852 84.6289 221.176 84.6289 224.043C84.6289 226.91 86.953 229.234 89.8199 229.234Z" fill="white"/>
<path d="M258.565 37.857C258.565 40.781 256.195 43.151 253.271 43.151C250.347 43.151 247.977 40.781 247.977 37.857C247.977 34.933 250.347 32.563 253.271 32.563C256.194 32.563 258.565 34.933 258.565 37.857Z" fill="#B83D5D"/>
<path d="M245.478 37.751C245.478 40.697 243.09 43.085 240.144 43.085C237.198 43.085 234.81 40.697 234.81 37.751C234.81 34.805 237.198 32.417 240.144 32.417C243.09 32.416 245.478 34.804 245.478 37.751Z" fill="white"/>
<path d="M311.503 59.8921H292.821V65.1261H311.503V59.8921Z" fill="#5906C6"/>
<path d="M349.974 50.5723H292.821V55.8063H349.974V50.5723Z" fill="#8737EF"/>
<path d="M325.842 66.123V68.123" stroke="#0C8D62" stroke-miterlimit="10"/>
<path d="M325.842 71.499V83.316" stroke="#0C8D62" stroke-miterlimit="10" stroke-dasharray="3.38 3.38"/>
<path d="M325.842 85.0039V87.0039H327.842" stroke="#0C8D62" stroke-miterlimit="10"/>
<path d="M331.65 87.0039H390.691" stroke="#0C8D62" stroke-miterlimit="10" stroke-dasharray="3.81 3.81"/>
<path d="M392.596 87.0039H394.596V85.0039" stroke="#0C8D62" stroke-miterlimit="10"/>
<path d="M394.596 80.9468V74.8618" stroke="#0C8D62" stroke-miterlimit="10" stroke-dasharray="4.06 4.06"/>
<path d="M394.596 72.833V70.833" stroke="#0C8D62" stroke-miterlimit="10"/>
<path d="M305.228 27.1104H303.605C303.509 26.6436 303.341 26.2335 303.101 25.8802C302.866 25.5268 302.578 25.2302 302.237 24.9903C301.902 24.746 301.529 24.5627 301.119 24.4406C300.708 24.3185 300.281 24.2574 299.836 24.2574C299.025 24.2574 298.29 24.4624 297.631 24.8725C296.976 25.2825 296.455 25.8867 296.067 26.685C295.683 27.4834 295.491 28.4627 295.491 29.6231C295.491 30.7835 295.683 31.7629 296.067 32.5612C296.455 33.3595 296.976 33.9637 297.631 34.3737C298.29 34.7838 299.025 34.9888 299.836 34.9888C300.281 34.9888 300.708 34.9278 301.119 34.8056C301.529 34.6835 301.902 34.5024 302.237 34.2625C302.578 34.0182 302.866 33.7194 303.101 33.366C303.341 33.0083 303.509 32.5983 303.605 32.1358H305.228C305.106 32.8207 304.883 33.4337 304.56 33.9746C304.238 34.5155 303.836 34.9758 303.356 35.3553C302.877 35.7304 302.338 36.0162 301.74 36.2125C301.147 36.4088 300.512 36.507 299.836 36.507C298.693 36.507 297.677 36.2278 296.787 35.6694C295.897 35.111 295.197 34.317 294.686 33.2875C294.176 32.258 293.921 31.0365 293.921 29.6231C293.921 28.2097 294.176 26.9882 294.686 25.9587C295.197 24.9292 295.897 24.1352 296.787 23.5769C297.677 23.0185 298.693 22.7393 299.836 22.7393C300.512 22.7393 301.147 22.8374 301.74 23.0337C302.338 23.23 302.877 23.518 303.356 23.8975C303.836 24.2727 304.238 24.7307 304.56 25.2716C304.883 25.8082 305.106 26.4211 305.228 27.1104ZM315.179 26.2728C315.101 25.6097 314.782 25.095 314.224 24.7285C313.665 24.3621 312.98 24.1789 312.169 24.1789C311.576 24.1789 311.057 24.2748 310.612 24.4668C310.171 24.6587 309.826 24.9226 309.578 25.2585C309.333 25.5945 309.211 25.9762 309.211 26.4037C309.211 26.7614 309.296 27.0689 309.467 27.3263C309.641 27.5793 309.863 27.7909 310.134 27.961C310.404 28.1268 310.688 28.2642 310.985 28.3733C311.281 28.478 311.554 28.5631 311.803 28.6285L313.164 28.9949C313.513 29.0865 313.901 29.213 314.328 29.3745C314.76 29.5359 315.172 29.7562 315.565 30.0354C315.962 30.3102 316.289 30.6635 316.547 31.0954C316.804 31.5273 316.933 32.0573 316.933 32.6855C316.933 33.4097 316.743 34.064 316.363 34.6486C315.988 35.2331 315.439 35.6977 314.714 36.0424C313.995 36.387 313.12 36.5593 312.09 36.5593C311.131 36.5593 310.3 36.4044 309.597 36.0947C308.899 35.785 308.35 35.3531 307.948 34.7991C307.551 34.2451 307.327 33.6016 307.274 32.8687H308.95C308.993 33.3748 309.163 33.7935 309.46 34.1251C309.761 34.4523 310.14 34.6966 310.599 34.858C311.061 35.015 311.558 35.0935 312.09 35.0935C312.71 35.0935 313.266 34.9932 313.759 34.7925C314.252 34.5875 314.642 34.3039 314.93 33.9419C315.218 33.5754 315.362 33.1479 315.362 32.6593C315.362 32.2144 315.238 31.8523 314.989 31.5731C314.741 31.2939 314.413 31.0671 314.008 30.8926C313.602 30.7181 313.164 30.5654 312.692 30.4345L311.044 29.9634C309.997 29.6624 309.168 29.2327 308.557 28.6743C307.946 28.1159 307.641 27.3852 307.641 26.4822C307.641 25.7319 307.844 25.0775 308.249 24.5191C308.659 23.9564 309.209 23.5201 309.898 23.2104C310.592 22.8963 311.366 22.7393 312.221 22.7393C313.085 22.7393 313.853 22.8941 314.525 23.2039C315.196 23.5092 315.729 23.928 316.121 24.4602C316.518 24.9924 316.728 25.5966 316.749 26.2728H315.179ZM326.93 26.2728C326.851 25.6097 326.533 25.095 325.974 24.7285C325.416 24.3621 324.731 24.1789 323.92 24.1789C323.326 24.1789 322.807 24.2748 322.362 24.4668C321.922 24.6587 321.577 24.9226 321.328 25.2585C321.084 25.5945 320.962 25.9762 320.962 26.4037C320.962 26.7614 321.047 27.0689 321.217 27.3263C321.392 27.5793 321.614 27.7909 321.885 27.961C322.155 28.1268 322.439 28.2642 322.735 28.3733C323.032 28.478 323.305 28.5631 323.553 28.6285L324.914 28.9949C325.263 29.0865 325.651 29.213 326.079 29.3745C326.511 29.5359 326.923 29.7562 327.316 30.0354C327.713 30.3102 328.04 30.6635 328.297 31.0954C328.555 31.5273 328.683 32.0573 328.683 32.6855C328.683 33.4097 328.494 34.064 328.114 34.6486C327.739 35.2331 327.189 35.6977 326.465 36.0424C325.745 36.387 324.871 36.5593 323.841 36.5593C322.881 36.5593 322.05 36.4044 321.348 36.0947C320.65 35.785 320.1 35.3531 319.699 34.7991C319.302 34.2451 319.077 33.6016 319.025 32.8687H320.7C320.744 33.3748 320.914 33.7935 321.211 34.1251C321.512 34.4523 321.891 34.6966 322.349 34.858C322.812 35.015 323.309 35.0935 323.841 35.0935C324.461 35.0935 325.017 34.9932 325.51 34.7925C326.003 34.5875 326.393 34.3039 326.681 33.9419C326.969 33.5754 327.113 33.1479 327.113 32.6593C327.113 32.2144 326.989 31.8523 326.74 31.5731C326.491 31.2939 326.164 31.0671 325.758 30.8926C325.353 30.7181 324.914 30.5654 324.443 30.4345L322.794 29.9634C321.747 29.6624 320.918 29.2327 320.308 28.6743C319.697 28.1159 319.391 27.3852 319.391 26.4822C319.391 25.7319 319.594 25.0775 320 24.5191C320.41 23.9564 320.96 23.5201 321.649 23.2104C322.343 22.8963 323.117 22.7393 323.972 22.7393C324.836 22.7393 325.603 22.8941 326.275 23.2039C326.947 23.5092 327.479 23.928 327.872 24.4602C328.269 24.9924 328.478 25.5966 328.5 26.2728H326.93Z" fill="#2B2B3F"/>
<path d="M409.746 49.5159C409.552 48.8359 409.302 48.1629 409.011 47.5039C408.179 45.6449 407.034 44.0219 405.661 42.6759C404.357 41.3999 402.845 40.3659 401.214 39.6169C401.186 39.5959 401.151 39.5819 401.124 39.5749C398.821 38.5269 396.282 38.0349 393.715 38.1739C391.96 38.2709 390.191 38.6669 388.485 39.3809C388.381 39.4299 388.27 39.4709 388.166 39.5199C385.107 40.8869 382.693 43.1059 381.09 45.7839C379.092 49.0999 378.336 53.1019 379.12 57.0149C379.342 58.1459 379.696 59.2619 380.181 60.3579C383.726 68.3079 393.077 71.8869 401.019 68.3419C405.868 66.1779 409.094 61.8629 410.065 57.0139C410.557 54.5799 410.474 52.0129 409.746 49.5159ZM399.056 63.9309C393.541 66.3869 387.055 63.9029 384.6 58.3879C384.399 57.9369 384.232 57.4789 384.094 57.0149C383.241 54.1289 383.65 51.0839 385.058 48.5799C385.065 48.5589 385.079 48.5309 385.093 48.5109C386.203 46.5549 387.923 44.9179 390.136 43.9329C390.552 43.7529 390.968 43.5929 391.399 43.4679C391.441 43.4469 391.482 43.4329 391.531 43.4259C393.723 42.7809 395.991 42.8639 398.059 43.5509C398.066 43.5509 398.073 43.5579 398.08 43.5579C399.849 44.1539 401.465 45.2019 402.741 46.6169C403.49 47.4419 404.115 48.3999 404.593 49.4749C404.891 50.1409 405.113 50.8209 405.273 51.5009C405.696 53.3599 405.613 55.2539 405.093 57.0159C404.224 59.9909 402.101 62.5709 399.056 63.9309Z" fill="#8737EF"/>
<path d="M410.065 57.0149H405.091C405.611 55.2529 405.694 53.3589 405.271 51.4999C405.111 50.8199 404.889 50.1399 404.591 49.4739C404.112 48.3989 403.488 47.4409 402.739 46.6159C401.463 45.2009 399.846 44.1529 398.078 43.5569C398.071 43.5569 398.064 43.5499 398.057 43.5499C395.99 42.8629 393.721 42.7799 391.529 43.4249C391.481 43.4319 391.439 43.4459 391.397 43.4669C390.967 43.5919 390.551 43.7509 390.134 43.9319C387.921 44.9169 386.201 46.5539 385.091 48.5099C385.077 48.5309 385.063 48.5589 385.056 48.5789C383.648 51.0829 383.238 54.1279 384.092 57.0139H379.118C378.334 53.1009 379.09 49.0989 381.088 45.7829C382.69 43.1049 385.105 40.8859 388.164 39.5189C388.268 39.4699 388.379 39.4289 388.483 39.3799C390.19 38.6659 391.958 38.2699 393.713 38.1729C396.28 38.0339 398.818 38.5269 401.122 39.5739C401.15 39.5809 401.184 39.5949 401.212 39.6159C402.842 40.3649 404.354 41.3989 405.659 42.6749C407.033 44.0209 408.177 45.6439 409.009 47.5029C409.3 48.1619 409.55 48.8349 409.744 49.5149C410.474 52.0129 410.557 54.5799 410.065 57.0149Z" fill="#B83D5D"/>
<path d="M349.975 59.8921H315.247V65.1261H349.975V59.8921Z" fill="#8737EF"/>
<path d="M14.9754 35.4554V34.2924C16.0195 34.2924 16.7479 34.0736 17.1606 33.6359C17.5795 33.1982 17.789 32.4667 17.789 31.4413V28.4401C17.789 27.5773 17.8703 26.8301 18.0328 26.1986C18.2016 25.5671 18.4736 25.045 18.8488 24.6324C19.2239 24.2197 19.7241 23.9133 20.3494 23.7133C20.9746 23.5132 21.7468 23.4132 22.6659 23.4132V25.2514C21.9406 25.2514 21.3685 25.3639 20.9496 25.589C20.5369 25.8141 20.2431 26.1642 20.068 26.6394C19.8992 27.1083 19.8148 27.7086 19.8148 28.4401V32.1916C19.8148 32.6793 19.7491 33.1232 19.6178 33.5233C19.4928 33.9235 19.2583 34.2674 18.9144 34.555C18.5705 34.8426 18.0797 35.0646 17.442 35.2209C16.8105 35.3772 15.9883 35.4554 14.9754 35.4554ZM22.6659 47.4225C21.7468 47.4225 20.9746 47.3225 20.3494 47.1224C19.7241 46.9223 19.2239 46.616 18.8488 46.2033C18.4736 45.7906 18.2016 45.2686 18.0328 44.6371C17.8703 44.0056 17.789 43.2584 17.789 42.3956V39.3944C17.789 38.369 17.5795 37.6375 17.1606 37.1998C16.7479 36.7621 16.0195 36.5433 14.9754 36.5433V35.3803C15.9883 35.3803 16.8105 35.4585 17.442 35.6148C18.0797 35.7711 18.5705 35.9931 18.9144 36.2807C19.2583 36.5683 19.4928 36.9122 19.6178 37.3123C19.7491 37.7125 19.8148 38.1564 19.8148 38.6441V42.3956C19.8148 43.1271 19.8992 43.7273 20.068 44.1963C20.2431 44.6652 20.5369 45.0122 20.9496 45.2373C21.3685 45.4686 21.9406 45.5843 22.6659 45.5843V47.4225ZM14.9754 36.5433V34.2924H17.1887V36.5433H14.9754ZM24.544 35.4554V34.2924C25.5881 34.2924 26.3165 34.0736 26.7292 33.6359C27.1481 33.1982 27.3576 32.4667 27.3576 31.4413V28.4401C27.3576 27.5773 27.4388 26.8301 27.6014 26.1986C27.7702 25.5671 28.0422 25.045 28.4173 24.6324C28.7925 24.2197 29.2927 23.9133 29.9179 23.7133C30.5432 23.5132 31.3153 23.4132 32.2345 23.4132V25.2514C31.5092 25.2514 30.9371 25.3639 30.5182 25.589C30.1055 25.8141 29.8116 26.1642 29.6366 26.6394C29.4678 27.1083 29.3833 27.7086 29.3833 28.4401V32.1916C29.3833 32.6793 29.3177 33.1232 29.1864 33.5233C29.0613 33.9235 28.8269 34.2674 28.483 34.555C28.1391 34.8426 27.6483 35.0646 27.0105 35.2209C26.379 35.3772 25.5569 35.4554 24.544 35.4554ZM32.2345 47.4225C31.3153 47.4225 30.5432 47.3225 29.9179 47.1224C29.2927 46.9223 28.7925 46.616 28.4173 46.2033C28.0422 45.7906 27.7702 45.2686 27.6014 44.6371C27.4388 44.0056 27.3576 43.2584 27.3576 42.3956V39.3944C27.3576 38.369 27.1481 37.6375 26.7292 37.1998C26.3165 36.7621 25.5881 36.5433 24.544 36.5433V35.3803C25.5569 35.3803 26.379 35.4585 27.0105 35.6148C27.6483 35.7711 28.1391 35.9931 28.483 36.2807C28.8269 36.5683 29.0613 36.9122 29.1864 37.3123C29.3177 37.7125 29.3833 38.1564 29.3833 38.6441V42.3956C29.3833 43.1271 29.4678 43.7273 29.6366 44.1963C29.8116 44.6652 30.1055 45.0122 30.5182 45.2373C30.9371 45.4686 31.5092 45.5843 32.2345 45.5843V47.4225ZM24.544 36.5433V34.2924H26.7573V36.5433H24.544ZM41.728 35.3803V36.5433C40.6838 36.5433 39.9523 36.7621 39.5334 37.1998C39.1207 37.6375 38.9144 38.369 38.9144 39.3944V42.3956C38.9144 43.2584 38.83 44.0056 38.6612 44.6371C38.4986 45.2686 38.2298 45.7906 37.8546 46.2033C37.4795 46.616 36.9793 46.9223 36.354 47.1224C35.7288 47.3225 34.9566 47.4225 34.0375 47.4225V45.5843C34.7628 45.5843 35.3318 45.4686 35.7444 45.2373C36.1633 45.0122 36.4572 44.6652 36.626 44.1963C36.8011 43.7273 36.8886 43.1271 36.8886 42.3956V38.6441C36.8886 38.1564 36.9511 37.7125 37.0762 37.3123C37.2075 36.9122 37.4451 36.5683 37.789 36.2807C38.1328 35.9931 38.6205 35.7711 39.252 35.6148C39.8898 35.4585 40.7151 35.3803 41.728 35.3803ZM34.0375 23.4132C34.9566 23.4132 35.7288 23.5132 36.354 23.7133C36.9793 23.9133 37.4795 24.2197 37.8546 24.6324C38.2298 25.045 38.4986 25.5671 38.6612 26.1986C38.83 26.8301 38.9144 27.5773 38.9144 28.4401V31.4413C38.9144 32.4667 39.1207 33.1982 39.5334 33.6359C39.9523 34.0736 40.6838 34.2924 41.728 34.2924V35.4554C40.7151 35.4554 39.8898 35.3772 39.252 35.2209C38.6205 35.0646 38.1328 34.8426 37.789 34.555C37.4451 34.2674 37.2075 33.9235 37.0762 33.5233C36.9511 33.1232 36.8886 32.6793 36.8886 32.1916V28.4401C36.8886 27.7086 36.8011 27.1083 36.626 26.6394C36.4572 26.1642 36.1633 25.8141 35.7444 25.589C35.3318 25.3639 34.7628 25.2514 34.0375 25.2514V23.4132ZM41.728 34.2924V36.5433H39.5146V34.2924H41.728ZM51.2966 35.3803V36.5433C50.2524 36.5433 49.5209 36.7621 49.102 37.1998C48.6893 37.6375 48.483 38.369 48.483 39.3944V42.3956C48.483 43.2584 48.3986 44.0056 48.2298 44.6371C48.0672 45.2686 47.7983 45.7906 47.4232 46.2033C47.048 46.616 46.5478 46.9223 45.9226 47.1224C45.2974 47.3225 44.5252 47.4225 43.6061 47.4225V45.5843C44.3314 45.5843 44.9003 45.4686 45.313 45.2373C45.7319 45.0122 46.0258 44.6652 46.1946 44.1963C46.3697 43.7273 46.4572 43.1271 46.4572 42.3956V38.6441C46.4572 38.1564 46.5197 37.7125 46.6448 37.3123C46.7761 36.9122 47.0137 36.5683 47.3575 36.2807C47.7014 35.9931 48.1891 35.7711 48.8206 35.6148C49.4584 35.4585 50.2837 35.3803 51.2966 35.3803ZM43.6061 23.4132C44.5252 23.4132 45.2974 23.5132 45.9226 23.7133C46.5478 23.9133 47.048 24.2197 47.4232 24.6324C47.7983 25.045 48.0672 25.5671 48.2298 26.1986C48.3986 26.8301 48.483 27.5773 48.483 28.4401V31.4413C48.483 32.4667 48.6893 33.1982 49.102 33.6359C49.5209 34.0736 50.2524 34.2924 51.2966 34.2924V35.4554C50.2837 35.4554 49.4584 35.3772 48.8206 35.2209C48.1891 35.0646 47.7014 34.8426 47.3575 34.555C47.0137 34.2674 46.7761 33.9235 46.6448 33.5233C46.5197 33.1232 46.4572 32.6793 46.4572 32.1916V28.4401C46.4572 27.7086 46.3697 27.1083 46.1946 26.6394C46.0258 26.1642 45.7319 25.8141 45.313 25.589C44.9003 25.3639 44.3314 25.2514 43.6061 25.2514V23.4132ZM51.2966 34.2924V36.5433H49.0832V34.2924H51.2966Z" fill="#2B2B3F"/>
<path d="M42.833 73.5059H22.293V83.3079H42.833V73.5059Z" fill="#5906C6"/>
<path d="M42.833 90.6299H22.293V100.432H42.833V90.6299Z" fill="#5906C6"/>
<path d="M42.833 107.755H22.293V117.557H42.833V107.755Z" fill="#5BE9B9"/>
<path d="M42.833 124.88H22.293V134.682H42.833V124.88Z" fill="#5BE9B9"/>
<path d="M42.833 142.005H22.293V151.807H42.833V142.005Z" fill="#5BE9B9"/>
<path d="M42.833 159.13H22.293V168.932H42.833V159.13Z" fill="#5BE9B9"/>
<path d="M42.833 176.254H22.293V186.056H42.833V176.254Z" fill="#5BE9B9"/>
<path d="M623.27 266.248C623.27 266.177 623.279 266.115 623.279 266.043C623.279 265.972 623.27 265.91 623.27 265.847C624.293 265.375 625.326 264.833 626.34 264.174C627.425 263.426 628.529 262.563 629.553 261.575L629.33 260.703C629.116 259.715 628.734 258.763 628.387 257.811C628.191 257.348 627.96 256.894 627.737 256.441C627.532 255.969 627.283 255.533 627.007 255.106L626.544 254.341C625.147 254.35 623.732 254.528 622.441 254.768C621.275 255.008 620.145 255.355 619.095 255.756L618.81 255.471C619.202 254.412 619.558 253.29 619.789 252.125C620.038 250.835 620.216 249.419 620.225 248.022L619.46 247.559C619.033 247.283 618.588 247.034 618.125 246.829C617.671 246.606 617.217 246.375 616.745 246.179C615.793 245.832 614.85 245.449 613.862 245.236L612.99 245.013C612.002 246.036 611.139 247.131 610.391 248.226C609.733 249.232 609.19 250.264 608.718 251.296C608.656 251.296 608.585 251.278 608.522 251.278C608.451 251.278 608.388 251.296 608.317 251.296C607.854 250.264 607.302 249.231 606.643 248.226C605.905 247.131 605.033 246.037 604.054 245.013L603.182 245.236C602.185 245.449 601.242 245.832 600.29 246.179C599.827 246.375 599.373 246.606 598.91 246.829C598.447 247.034 598.011 247.283 597.575 247.559L596.81 248.022C596.828 249.419 597.006 250.834 597.246 252.125C597.486 253.291 597.833 254.412 598.234 255.471C598.136 255.569 598.038 255.658 597.949 255.756C596.889 255.355 595.768 255.009 594.603 254.768C593.313 254.528 591.889 254.35 590.5 254.341L590.028 255.106C589.761 255.533 589.512 255.969 589.298 256.441C589.085 256.895 588.853 257.349 588.657 257.811C588.301 258.763 587.928 259.716 587.714 260.703L587.492 261.575C588.515 262.563 589.61 263.426 590.705 264.174C591.71 264.832 592.743 265.375 593.766 265.847C593.766 265.909 593.757 265.972 593.757 266.043C593.757 266.114 593.766 266.177 593.766 266.248C592.743 266.711 591.71 267.263 590.705 267.921C589.61 268.66 588.516 269.532 587.492 270.511L587.714 271.383C587.928 272.371 588.301 273.323 588.657 274.275C588.853 274.738 589.085 275.192 589.298 275.654C589.511 276.117 589.761 276.553 590.028 276.98L590.5 277.745C591.888 277.736 593.312 277.558 594.603 277.318C595.769 277.078 596.89 276.731 597.949 276.33C598.038 276.428 598.136 276.526 598.234 276.615C597.833 277.674 597.486 278.795 597.246 279.961C597.006 281.251 596.828 282.675 596.81 284.064L597.575 284.536C598.011 284.803 598.447 285.052 598.91 285.257C599.373 285.48 599.827 285.711 600.29 285.907C601.242 286.263 602.185 286.637 603.182 286.85L604.054 287.073C605.033 286.049 605.905 284.955 606.643 283.86C607.302 282.855 607.854 281.822 608.317 280.79C608.388 280.799 608.45 280.808 608.522 280.808C608.584 280.808 608.655 280.799 608.718 280.79C609.19 281.822 609.733 282.855 610.391 283.86C611.139 284.955 612.002 286.049 612.99 287.073L613.862 286.85C614.85 286.636 615.793 286.263 616.745 285.907C617.217 285.711 617.671 285.48 618.125 285.257C618.588 285.052 619.033 284.803 619.46 284.536L620.225 284.064C620.216 282.676 620.038 281.252 619.789 279.961C619.557 278.795 619.201 277.674 618.81 276.615C618.908 276.526 618.997 276.428 619.095 276.33C620.145 276.73 621.275 277.078 622.441 277.318C623.732 277.558 625.147 277.736 626.544 277.745L627.007 276.98C627.283 276.553 627.532 276.117 627.737 275.654C627.959 275.191 628.191 274.737 628.387 274.275C628.734 273.323 629.117 272.371 629.33 271.383L629.553 270.511C628.53 269.532 627.426 268.66 626.34 267.921C625.326 267.263 624.294 266.711 623.27 266.248ZM608.524 273.101C604.626 273.101 601.467 269.942 601.467 266.044C601.467 262.146 604.627 258.987 608.524 258.987C612.422 258.987 615.581 262.146 615.581 266.044C615.581 269.942 612.422 273.101 608.524 273.101Z" fill="#5906C6"/>
<path d="M558.419 240.04H549.101V282.008H558.419V240.04Z" fill="#B83D5D"/>
<path d="M545.344 258.531H535.355V282.007H545.344V258.531Z" fill="#8025F5"/>
<path d="M531.508 266.044H521.52V282.008H531.508V266.044Z" fill="#0C8D62"/>
<path d="M519.752 275.322H517.752" stroke="#0C8D62" stroke-miterlimit="10"/>
<path d="M512.681 275.322H505.075" stroke="#0C8D62" stroke-miterlimit="10" stroke-dasharray="5.07 5.07"/>
<path d="M502.539 275.322H500.539V277.322" stroke="#0C8D62" stroke-miterlimit="10"/>
<path d="M500.539 281.063V309.116" stroke="#0C8D62" stroke-miterlimit="10" stroke-dasharray="3.74 3.74"/>
<path d="M500.539 310.987V312.987H502.539" stroke="#0C8D62" stroke-miterlimit="10"/>
<path d="M505.936 312.987H517.822" stroke="#0C8D62" stroke-miterlimit="10" stroke-dasharray="3.4 3.4"/>
<path d="M519.52 312.987H521.52" stroke="#0C8D62" stroke-miterlimit="10"/>
<path d="M551.112 311.122H524.683V315.845H551.112V311.122Z" fill="#5906C6"/>
<path d="M542.963 319.861H524.683V324.584H542.963V319.861Z" fill="#5906C6"/>
<path d="M547.821 328.6H524.683V333.323H547.821V328.6Z" fill="#5906C6"/>
<path d="M558.009 328.6H552.607V333.323H558.009V328.6Z" fill="#5BE9B9"/>
<path d="M582.835 328.6H562.962V333.323H582.835V328.6Z" fill="#5BE9B9"/>
<path d="M582.834 319.861H548.82V324.584H582.834V319.861Z" fill="#5BE9B9"/>
<path d="M582.834 311.122H556.405V315.845H582.834V311.122Z" fill="#5BE9B9"/>
<path d="M673.472 263.483H656.057V271.794H673.472V263.483Z" fill="#B83D5D"/>
<path d="M673.472 278.003H656.057V286.314H673.472V278.003Z" fill="#B83D5D"/>
<path d="M673.472 292.522H656.057V300.833H673.472V292.522Z" fill="#B83D5D"/>
<path d="M673.472 307.041H656.057V315.352H673.472V307.041Z" fill="#B83D5D"/>
<path d="M673.472 321.56H656.057V329.871H673.472V321.56Z" fill="#5906C6"/>
<path d="M673.472 336.079H656.057V344.39H673.472V336.079Z" fill="#5906C6"/>
<path d="M673.472 350.599H656.057V358.91H673.472V350.599Z" fill="#5906C6"/>
<path d="M597.545 382.724C591.036 383.214 585.588 381.667 581.035 378.842C562.665 367.474 558.832 335.412 558.568 333.004C558.729 333.743 560.54 337.663 579.634 350.509C581.223 351.581 582.678 352.668 584.006 353.767C584.006 353.767 584.029 353.786 584.075 353.82C600.715 367.6 597.545 382.724 597.545 382.724Z" fill="#47547C"/>
<path d="M558.556 332.862C558.556 332.862 575.71 374.956 594.739 379.387" stroke="white" stroke-miterlimit="10"/>
<path opacity="0.5" d="M597.545 382.725C591.036 383.215 585.588 381.668 581.035 378.843C584.692 370.19 584.006 353.769 584.006 353.769C584.006 353.769 584.029 353.788 584.075 353.822C600.715 367.601 597.545 382.725 597.545 382.725Z" fill="#2B2B3F"/>
<path d="M646.305 335.346C646.232 335.794 645.976 337.348 645.463 339.638C645.463 339.638 645.463 339.642 645.463 339.646C642.752 351.783 632.97 384.443 606.651 381.169C606.651 381.169 606.207 378.366 607.095 374.174C608.397 368.01 612.582 358.832 625.312 351.136C644.202 339.711 646.113 336.043 646.305 335.346Z" fill="#47547C"/>
<path opacity="0.5" d="M645.462 339.638C645.462 339.638 645.462 339.642 645.462 339.646C642.751 351.783 632.969 384.443 606.65 381.169C606.65 381.169 606.206 378.366 607.094 374.174H607.121C629.018 375.345 645.462 339.638 645.462 339.638Z" fill="#2B2B3F"/>
<path d="M645.462 337.939C645.462 337.939 631.955 372.935 608.524 380.072" stroke="white" stroke-miterlimit="10"/>
<path d="M605.237 382.337C604.586 383.467 594.976 379.473 590.646 367.918H590.642C588.042 360.976 587.349 351.305 591.645 338.383C602.932 304.445 598.28 298.047 598.142 297.867C598.368 297.974 608.177 302.845 614.502 314.695C614.502 314.695 614.51 314.71 614.529 314.741C621.486 327.811 624.201 349.352 605.237 382.337Z" fill="#2B2B3F"/>
<path d="M598.138 297.862C598.138 297.862 612.856 316.432 607.252 351.755C601.647 387.077 605.238 382.336 605.238 382.336" stroke="white" stroke-miterlimit="10"/>
<path opacity="0.5" d="M605.237 382.337C604.586 383.467 594.976 379.473 590.646 367.918C614.878 374.802 614.503 314.694 614.503 314.694C614.503 314.694 614.511 314.709 614.53 314.74C621.486 327.811 624.201 349.352 605.237 382.337Z" fill="#47547C"/>
<path d="M558.553 332.862C558.553 332.862 558.557 332.9 558.565 332.981C558.545 332.896 558.553 332.862 558.553 332.862Z" fill="#1DB984"/>
<path d="M623.864 381.831V408.958C623.864 416.895 617.432 423.327 609.495 423.327H596.738C591.542 423.327 586.99 420.57 584.467 416.435H584.463C583.134 414.256 582.369 411.695 582.369 408.957V381.83H623.864V381.831Z" fill="#2B2B3F"/>
<path d="M625.373 378.312H580.862C580.277 378.312 579.803 378.786 579.803 379.371V380.772C579.803 381.357 580.277 381.831 580.862 381.831H625.373C625.958 381.831 626.432 381.357 626.432 380.772V379.371C626.432 378.787 625.958 378.312 625.373 378.312Z" fill="#2B2B3F"/>
<path d="M623.865 381.831V408.958C623.865 416.895 617.433 423.327 609.496 423.327H596.739C591.543 423.327 586.991 420.57 584.468 416.435C614.861 425.98 621.462 403.632 620.286 394.768C619.114 385.905 608.164 381.831 608.164 381.831H623.865Z" fill="#47547C"/>
</svg>
