<svg width="500" height="400" viewBox="0 0 500 400" fill="none" xmlns="http://www.w3.org/2000/svg">
<path d="M449.901 357.542H416.779V357.792H449.901V357.542Z" fill="#939393"/>
<path d="M331.22 360.256H322.527V360.506H331.22V360.256Z" fill="#939393"/>
<path d="M415.778 348.256H396.586V348.506H415.778V348.256Z" fill="#939393"/>
<path d="M95.652 349.936H52.459V350.186H95.652V349.936Z" fill="#939393"/>
<path d="M110.889 349.936H104.556V350.186H110.889V349.936Z" fill="#939393"/>
<path d="M225.147 354.159H131.471V354.409H225.147V354.159Z" fill="#939393"/>
<path d="M238.401 296.848H45.3017C42.1547 296.848 39.5938 294.287 39.5938 291.14V19.708C39.5938 16.561 42.1547 14 45.3017 14H238.401C241.547 14 244.108 16.561 244.108 19.708V291.14C244.108 294.287 241.547 296.848 238.401 296.848ZM45.3017 14.251C42.2917 14.251 39.8438 16.699 39.8438 19.709V291.141C39.8438 294.151 42.2917 296.599 45.3017 296.599H238.401C241.41 296.599 243.858 294.151 243.858 291.141V19.708C243.858 16.699 241.41 14.25 238.401 14.25L45.3017 14.251Z" fill="#939393"/>
<path d="M454.698 296.848H261.599C258.453 296.848 255.892 294.287 255.892 291.14V19.708C255.892 16.561 258.453 14 261.599 14H454.698C457.846 14 460.406 16.561 460.406 19.708V291.14C460.406 294.287 457.845 296.848 454.698 296.848ZM261.599 14.251C258.59 14.251 256.142 16.699 256.142 19.709V291.141C256.142 294.151 258.59 296.599 261.599 296.599H454.698C457.708 296.599 460.156 294.151 460.156 291.141V19.708C460.156 16.699 457.708 14.25 454.698 14.25L261.599 14.251Z" fill="#939393"/>
<path d="M500 341.446H0V341.696H500V341.446Z" fill="#939393"/>
<path d="M191.642 97.3311L245.641 151.33C243.685 156.93 244.944 163.404 249.419 167.879C251.853 170.313 255.393 171.279 258.794 171.563C259.924 171.657 260.55 170.277 259.748 169.475L253.388 163.115L256.685 152.591L267.209 149.294L273.569 155.654C274.371 156.456 275.751 155.83 275.657 154.7C275.373 151.299 274.407 147.76 271.973 145.325C267.498 140.85 261.024 139.59 255.424 141.547L201.425 87.5481C203.381 81.9481 202.122 75.4751 197.647 70.9991C195.213 68.5651 191.673 67.5991 188.272 67.3151C187.142 67.2211 186.516 68.6011 187.318 69.4031L193.678 75.7631L190.381 86.2871L179.857 89.5841L173.497 83.2241C172.695 82.4221 171.315 83.0481 171.409 84.1781C171.693 87.5791 172.658 91.1191 175.093 93.5531C179.568 98.0281 186.042 99.2871 191.642 97.3311Z" fill="#F0F0F0"/>
<path d="M198.285 96.3649L200.459 94.1909C201.319 93.3309 202.713 93.3309 203.573 94.1909L249.323 139.941C250.183 140.801 250.183 142.195 249.323 143.054L247.149 145.228C246.289 146.088 244.895 146.088 244.035 145.228L198.285 99.4779C197.425 98.6189 197.425 97.2249 198.285 96.3649Z" fill="#FAFAFA"/>
<path d="M70.3551 235.862L101.162 216.269V185.476L66.8301 228.412C66.4511 228.886 66.2441 229.476 66.2441 230.083V233.603C66.2431 235.716 68.5741 236.995 70.3551 235.862Z" fill="#EBEBEB"/>
<path d="M102.347 185.477V216.27L133.153 235.863C134.934 236.996 137.264 235.716 137.264 233.605V230.085C137.264 229.478 137.057 228.888 136.678 228.414L102.347 185.477Z" fill="#EBEBEB"/>
<path d="M86.6931 225.471L101.161 216.269V185.476L84.9551 205.743C85.4911 212.239 86.0711 218.867 86.6931 225.471Z" fill="#E0E0E0"/>
<path d="M118.552 205.743L102.347 185.476V216.269L116.815 225.47C117.436 218.867 118.017 212.238 118.552 205.743Z" fill="#E0E0E0"/>
<path d="M101.754 92.9131C92.2902 92.9131 84.6182 130.664 84.6182 143.81C84.6182 150.979 86.9002 190.522 90.5092 225C93.6052 225.364 97.0652 225.574 100.735 225.574C105.247 225.574 109.448 225.26 113.028 224.726C116.621 190.312 118.891 150.96 118.891 143.81C118.891 130.664 111.218 92.9131 101.754 92.9131Z" fill="#F5F5F5"/>
<path d="M101.754 123.467C106.688 123.467 111.505 123.264 116.162 122.88C113.112 108.323 107.8 92.9141 101.754 92.9141C95.7067 92.9141 90.3957 108.323 87.3457 122.88C92.0027 123.263 96.8197 123.467 101.754 123.467Z" fill="#E6E6E6"/>
<path d="M101.755 155.227C94.8696 155.227 89.2676 149.626 89.2676 142.741C89.2676 135.856 94.8686 130.255 101.755 130.255C108.64 130.255 114.241 135.856 114.241 142.741C114.241 149.626 108.64 155.227 101.755 155.227ZM101.755 132.494C96.1046 132.494 91.5076 137.091 91.5076 142.741C91.5076 148.391 96.1046 152.988 101.755 152.988C107.405 152.988 112.001 148.391 112.001 142.741C112.002 137.091 107.405 132.494 101.755 132.494Z" fill="#EBEBEB"/>
<path d="M101.754 150.778C106.193 150.778 109.791 147.18 109.791 142.741C109.791 138.302 106.193 134.704 101.754 134.704C97.3151 134.704 93.7168 138.302 93.7168 142.741C93.7168 147.18 97.3151 150.778 101.754 150.778Z" fill="#EBEBEB"/>
<path d="M106.359 136.159L99.6729 150.496C100.338 150.674 101.033 150.778 101.754 150.778C102.145 150.778 102.526 150.741 102.902 150.687L108.579 138.512C108.004 137.585 107.25 136.784 106.359 136.159Z" fill="#E0E0E0"/>
<path d="M97.3643 149.468L104.087 135.05C103.704 134.934 103.308 134.853 102.903 134.795L96.4062 148.729C96.7072 148.997 97.0253 149.247 97.3643 149.468Z" fill="#E0E0E0"/>
<path d="M102.044 238.477H101.465C100.13 238.477 99.0469 237.394 99.0469 236.059V187.894C99.0469 186.559 100.13 185.476 101.465 185.476H102.044C103.379 185.476 104.462 186.559 104.462 187.894V236.059C104.461 237.395 103.379 238.477 102.044 238.477Z" fill="#E0E0E0"/>
<path d="M313.841 98.255C313.964 96.845 313.983 95.46 313.92 94.1L319.365 91.216C319.187 89.557 318.891 87.94 318.49 86.369L312.551 86.467C311.713 83.873 310.517 81.458 309.017 79.272L312.512 74.186C311.521 72.923 310.438 71.736 309.271 70.635L303.918 73.685C301.88 71.994 299.588 70.587 297.087 69.522L297.704 63.592C296.18 63.053 294.602 62.616 292.971 62.293L289.633 67.485C288.289 67.303 286.913 67.2 285.503 67.2C284.093 67.2 282.699 67.303 281.324 67.485L278.894 62.293C277.207 62.616 275.552 63.054 273.933 63.592L273.512 69.522C270.825 70.587 268.287 71.994 265.953 73.685L261.134 70.635C259.774 71.737 258.484 72.923 257.272 74.186L259.877 79.272C257.994 81.458 256.377 83.873 255.084 86.467L249.163 86.369C248.487 87.94 247.908 89.557 247.44 91.216L252.38 94.1C252.079 95.46 251.855 96.845 251.732 98.255C251.609 99.665 251.59 101.05 251.653 102.41L246.209 105.294C246.387 106.953 246.683 108.57 247.084 110.141L253.023 110.043C253.861 112.637 255.057 115.052 256.557 117.238L253.062 122.324C254.053 123.587 255.136 124.774 256.303 125.875L261.656 122.825C263.694 124.516 265.986 125.923 268.487 126.988L267.87 132.918C269.394 133.457 270.972 133.894 272.603 134.217L275.941 129.025C277.285 129.207 278.661 129.31 280.071 129.31C281.481 129.31 282.875 129.207 284.25 129.025L286.68 134.217C288.367 133.894 290.022 133.456 291.64 132.918L292.061 126.988C294.748 125.923 297.286 124.516 299.62 122.825L304.439 125.875C305.799 124.773 307.089 123.587 308.301 122.324L305.696 117.238C307.578 115.052 309.196 112.637 310.489 110.043L316.41 110.141C317.086 108.57 317.665 106.953 318.133 105.294L313.193 102.41C313.493 101.05 313.717 99.665 313.841 98.255ZM281.862 108.814C276.031 108.814 271.717 104.087 272.227 98.255C272.737 92.423 277.878 87.696 283.709 87.696C289.541 87.696 293.854 92.423 293.344 98.255C292.834 104.087 287.693 108.814 281.862 108.814Z" fill="#F0F0F0"/>
<path d="M373.291 72.1912C373.37 71.2912 373.396 70.4032 373.378 69.5282L380.994 65.4942C380.854 64.3602 380.65 63.2502 380.391 62.1632L372.075 62.3002C371.496 60.6612 370.736 59.1162 369.813 57.6892L374.706 50.5682C374.011 49.7122 373.268 48.8972 372.479 48.1272L364.984 52.3972C363.648 51.3502 362.182 50.4552 360.606 49.7322L361.47 41.4282C360.414 41.0742 359.33 40.7732 358.217 40.5342L353.547 47.7972C352.68 47.7032 351.797 47.6512 350.897 47.6512C349.997 47.6512 349.105 47.7032 348.222 47.7972L344.823 40.5342C343.668 40.7732 342.531 41.0742 341.414 41.4282L340.825 49.7322C339.123 50.4552 337.5 51.3502 335.981 52.3972L329.234 48.1272C328.31 48.8972 327.425 49.7122 326.58 50.5682L330.227 57.6892C329.055 59.1162 328.025 60.6612 327.159 62.3002L318.867 62.1632C318.418 63.2502 318.019 64.3602 317.681 65.4942L324.591 69.5282C324.42 70.4032 324.291 71.2912 324.212 72.1912C324.133 73.0912 324.107 73.9792 324.125 74.8542L316.509 78.8882C316.648 80.0222 316.853 81.1322 317.112 82.2192L325.428 82.0822C326.007 83.7212 326.767 85.2662 327.69 86.6932L322.797 93.8142C323.492 94.6702 324.235 95.4852 325.024 96.2552L332.519 91.9852C333.855 93.0322 335.321 93.9272 336.897 94.6502L336.033 102.954C337.089 103.308 338.173 103.61 339.286 103.848L343.956 96.5852C344.823 96.6792 345.706 96.7312 346.606 96.7312C347.506 96.7312 348.398 96.6792 349.282 96.5852L352.681 103.848C353.836 103.609 354.973 103.308 356.09 102.954L356.679 94.6502C358.381 93.9272 360.004 93.0332 361.523 91.9852L368.27 96.2552C369.193 95.4852 370.08 94.6702 370.924 93.8142L367.277 86.6932C368.449 85.2662 369.479 83.7212 370.345 82.0822L378.637 82.2192C379.086 81.1322 379.485 80.0222 379.823 78.8882L372.913 74.8542C373.083 73.9792 373.212 73.0912 373.291 72.1912ZM347.841 82.5932C342.096 82.5932 337.846 77.9362 338.349 72.1912C338.852 66.4462 343.916 61.7892 349.661 61.7892C355.406 61.7892 359.656 66.4462 359.153 72.1912C358.651 77.9362 353.586 82.5932 347.841 82.5932Z" fill="#EBEBEB"/>
<path d="M429.136 159.243C429.174 158.806 429.187 158.374 429.178 157.949L432.878 155.989C432.81 155.438 432.711 154.899 432.585 154.37L428.545 154.437C428.263 153.641 427.894 152.89 427.446 152.197L429.823 148.737C429.485 148.321 429.124 147.925 428.741 147.551L425.099 149.626C424.45 149.117 423.737 148.682 422.972 148.331L423.392 144.296C422.879 144.124 422.352 143.978 421.811 143.862L419.542 147.391C419.121 147.345 418.692 147.32 418.254 147.32C417.817 147.32 417.383 147.345 416.954 147.391L415.302 143.862C414.741 143.978 414.189 144.124 413.645 144.296L413.359 148.331C412.532 148.682 411.743 149.117 411.005 149.626L407.726 147.551C407.277 147.925 406.847 148.321 406.436 148.737L408.208 152.197C407.638 152.89 407.138 153.641 406.717 154.437L402.688 154.37C402.47 154.898 402.276 155.438 402.112 155.989L405.469 157.949C405.386 158.374 405.323 158.806 405.285 159.243C405.247 159.68 405.234 160.112 405.243 160.537L401.543 162.497C401.611 163.048 401.71 163.587 401.836 164.116L405.876 164.049C406.158 164.845 406.527 165.596 406.975 166.289L404.597 169.749C404.935 170.165 405.296 170.561 405.679 170.935L409.321 168.86C409.97 169.369 410.683 169.804 411.448 170.155L411.028 174.19C411.541 174.362 412.068 174.509 412.609 174.624L414.878 171.095C415.299 171.141 415.728 171.166 416.166 171.166C416.603 171.166 417.037 171.141 417.466 171.095L419.118 174.624C419.679 174.508 420.231 174.362 420.775 174.19L421.061 170.155C421.888 169.804 422.677 169.369 423.415 168.86L426.694 170.935C427.143 170.561 427.573 170.165 427.984 169.749L426.212 166.289C426.782 165.596 427.282 164.845 427.703 164.049L431.732 164.116C431.95 163.588 432.144 163.048 432.308 162.497L428.951 160.537C429.035 160.112 429.098 159.681 429.136 159.243ZM416.77 164.298C413.979 164.298 411.914 162.035 412.158 159.244C412.402 156.453 414.863 154.19 417.654 154.19C420.445 154.19 422.51 156.453 422.266 159.244C422.023 162.035 419.562 164.298 416.77 164.298Z" fill="#F0F0F0"/>
<path d="M419.241 110.121C419.311 109.323 419.334 108.536 419.318 107.76L426.071 104.182C425.947 103.176 425.766 102.192 425.536 101.228L418.162 101.35C417.648 99.8969 416.975 98.5268 416.157 97.2608L420.496 90.9458C419.88 90.1868 419.221 89.4638 418.521 88.7818L411.875 92.5679C410.691 91.6389 409.39 90.8458 407.993 90.2048L408.759 82.8409C407.823 82.5269 406.861 82.2599 405.874 82.0479L401.733 88.4879C400.964 88.4039 400.181 88.3578 399.383 88.3578C398.585 88.3578 397.793 88.4039 397.01 88.4879L393.996 82.0479C392.972 82.2599 391.964 82.5269 390.973 82.8409L390.451 90.2048C388.942 90.8458 387.502 91.6389 386.155 92.5679L380.172 88.7818C379.353 89.4648 378.567 90.1868 377.818 90.9458L381.052 97.2608C380.012 98.5268 379.099 99.8969 378.331 101.35L370.978 101.228C370.58 102.192 370.226 103.177 369.927 104.182L376.054 107.76C375.902 108.536 375.788 109.323 375.718 110.121C375.648 110.919 375.625 111.706 375.641 112.482L368.888 116.06C369.012 117.066 369.193 118.05 369.423 119.014L376.797 118.892C377.311 120.345 377.984 121.715 378.802 122.981L374.463 129.296C375.079 130.055 375.739 130.778 376.438 131.46L383.084 127.674C384.268 128.603 385.569 129.396 386.966 130.037L386.2 137.401C387.136 137.715 388.098 137.982 389.085 138.194L393.226 131.754C393.995 131.838 394.778 131.884 395.576 131.884C396.374 131.884 397.165 131.838 397.949 131.754L400.963 138.194C401.987 137.982 402.995 137.715 403.986 137.401L404.508 130.037C406.017 129.396 407.457 128.603 408.804 127.674L414.788 131.46C415.607 130.777 416.393 130.055 417.142 129.296L413.908 122.981C414.948 121.715 415.861 120.345 416.629 118.892L423.982 119.014C424.38 118.05 424.734 117.066 425.034 116.06L418.907 112.482C419.056 111.706 419.171 110.919 419.241 110.121ZM396.354 122.98C389.252 122.98 383.998 117.222 384.619 110.12C385.24 103.018 391.502 97.2599 398.604 97.2599C405.706 97.2599 410.96 103.018 410.339 110.12C409.717 117.223 403.456 122.98 396.354 122.98Z" fill="#F5F5F5"/>
<path d="M139.654 91.9019L171.449 60.1069C174.746 61.2589 178.558 60.5179 181.193 57.8819C182.626 56.4489 183.195 54.3639 183.362 52.3619C183.417 51.6969 182.605 51.3279 182.133 51.7999L178.388 55.5449L172.191 53.6039L170.25 47.4069L173.995 43.6619C174.467 43.1899 174.099 42.3769 173.433 42.4329C171.431 42.5999 169.346 43.1689 167.913 44.6019C165.278 47.2369 164.536 51.0489 165.688 54.3459L133.893 86.1409C130.596 84.9889 126.784 85.7309 124.149 88.3659C122.716 89.7989 122.147 91.8839 121.98 93.8859C121.924 94.5509 122.737 94.9199 123.209 94.4479L126.954 90.7029L133.151 92.6439L135.092 98.8409L131.347 102.586C130.875 103.058 131.243 103.871 131.909 103.815C133.911 103.648 135.996 103.079 137.429 101.646C140.064 99.0109 140.806 95.1989 139.654 91.9019Z" fill="#F0F0F0"/>
<path d="M138.445 87.3501C137.585 86.4901 137.585 85.0961 138.445 84.2371L164.103 58.5791C164.963 57.7191 166.357 57.7191 167.217 58.5791C168.077 59.4391 168.077 60.8331 167.217 61.6931L141.559 87.3511C140.699 88.2091 139.305 88.2091 138.445 87.3501Z" fill="#FAFAFA"/>
<path d="M250 386.064C357.082 386.064 443.889 380.994 443.889 374.741C443.889 368.487 357.082 363.418 250 363.418C142.918 363.418 56.1113 368.487 56.1113 374.741C56.1113 380.994 142.918 386.064 250 386.064Z" fill="#F5F5F5"/>
<path d="M252.885 260.139L233.788 358.383H282.79L301.887 260.139H252.885ZM273.213 322.979L270.465 337.117C269.706 341.021 265.926 344.186 262.022 344.186C258.118 344.186 255.568 341.021 256.327 337.117L259.075 322.979C259.834 319.075 263.614 315.91 267.518 315.91C271.422 315.91 273.972 319.075 273.213 322.979Z" fill="#263238"/>
<path opacity="0.3" d="M252.885 260.139L233.788 358.383H282.79L301.887 260.139H252.885ZM273.213 322.979L270.465 337.117C269.706 341.021 265.926 344.186 262.022 344.186C258.118 344.186 255.568 341.021 256.327 337.117L259.075 322.979C259.834 319.075 263.614 315.91 267.518 315.91C271.422 315.91 273.972 319.075 273.213 322.979Z" fill="white"/>
<path d="M233.896 358.383H229.599L248.695 260.139H252.993L233.896 358.383Z" fill="#263238"/>
<path opacity="0.6" d="M233.896 358.383H229.599L248.695 260.139H252.993L233.896 358.383Z" fill="white"/>
<path opacity="0.2" d="M252.885 260.139H248.695L238.508 312.548H291.7L301.888 260.139H252.993H252.885Z" fill="black"/>
<path d="M267.518 315.91C266.852 315.91 266.191 316.008 265.546 316.181C268.353 317.018 270.004 319.741 269.375 322.979L266.627 337.117C265.998 340.355 263.289 343.078 260.156 343.915C260.734 344.087 261.356 344.186 262.022 344.186C265.926 344.186 269.706 341.021 270.465 337.117L273.213 322.979C273.971 319.075 271.422 315.91 267.518 315.91Z" fill="#263238"/>
<path opacity="0.6" d="M267.518 315.91C266.852 315.91 266.191 316.008 265.546 316.181C268.353 317.018 270.004 319.741 269.375 322.979L266.627 337.117C265.998 340.355 263.289 343.078 260.156 343.915C260.734 344.087 261.356 344.186 262.022 344.186C265.926 344.186 269.706 341.021 270.465 337.117L273.213 322.979C273.971 319.075 271.422 315.91 267.518 315.91Z" fill="white"/>
<path d="M260.155 357.949H189.833V373.705H260.155V357.949Z" fill="#5BE9B9"/>
<path opacity="0.4" d="M260.155 357.949H189.833V373.705H260.155V357.949Z" fill="white"/>
<path d="M352.994 357.949H260.155V373.705H352.994V357.949Z" fill="#5BE9B9"/>
<path opacity="0.6" d="M352.994 357.949H260.155V373.705H352.994V357.949Z" fill="white"/>
<path d="M144.794 306.717H391.859C396.35 306.802 400.059 303.23 400.144 298.74C400.151 298.382 400.134 298.024 400.094 297.668L384.485 119.136C383.975 114.064 379.752 110.176 374.656 110.087H127.59C123.099 110.002 119.39 113.574 119.305 118.065C119.298 118.423 119.315 118.781 119.355 119.137L134.975 297.68C135.486 302.745 139.704 306.629 144.794 306.717Z" fill="#263238"/>
<path opacity="0.3" d="M144.794 306.717H391.859C396.35 306.802 400.059 303.23 400.144 298.74C400.151 298.382 400.134 298.024 400.094 297.668L384.485 119.136C383.975 114.064 379.752 110.176 374.656 110.087H127.59C123.099 110.002 119.39 113.574 119.305 118.065C119.298 118.423 119.315 118.781 119.355 119.137L134.975 297.68C135.486 302.745 139.704 306.629 144.794 306.717Z" fill="white"/>
<path d="M398.419 278.384L400.104 297.68C400.611 302.143 397.404 306.172 392.941 306.678C392.586 306.718 392.227 306.735 391.87 306.729H144.794C139.7 306.639 135.48 302.75 134.976 297.68L133.279 278.384H398.419Z" fill="#5BE9B9"/>
<path opacity="0.6" d="M398.419 278.384L400.104 297.68C400.611 302.143 397.404 306.172 392.941 306.678C392.586 306.718 392.227 306.735 391.87 306.729H144.794C139.7 306.639 135.48 302.75 134.976 297.68L133.279 278.384H398.419Z" fill="white"/>
<path d="M142 272.92H388.748C391.184 272.966 393.196 271.029 393.242 268.593C393.246 268.402 393.237 268.212 393.216 268.022L380.31 120.472C380.03 117.726 377.742 115.623 374.983 115.574H128.235C125.799 115.528 123.787 117.465 123.741 119.901C123.737 120.092 123.746 120.282 123.767 120.472L136.673 268.023C136.953 270.768 139.241 272.872 142 272.92Z" fill="#5BE9B9"/>
<path opacity="0.8" d="M142 272.92H388.748C391.184 272.966 393.196 271.029 393.242 268.593C393.246 268.402 393.237 268.212 393.216 268.022L380.31 120.472C380.03 117.726 377.742 115.623 374.983 115.574H128.235C125.799 115.528 123.787 117.465 123.741 119.901C123.737 120.092 123.746 120.282 123.767 120.472L136.673 268.023C136.953 270.768 139.241 272.872 142 272.92Z" fill="#5BE9B9"/>
<path opacity="0.8" d="M142 272.92H388.748C391.184 272.966 393.196 271.029 393.242 268.593C393.246 268.402 393.237 268.212 393.216 268.022L380.31 120.472C380.03 117.726 377.742 115.623 374.983 115.574H128.235C125.799 115.528 123.787 117.465 123.741 119.901C123.737 120.092 123.746 120.282 123.767 120.472L136.673 268.023C136.953 270.768 139.241 272.872 142 272.92Z" fill="white"/>
<g opacity="0.65">
<path d="M319.606 272.921H342.135L308.69 115.573H286.161L319.606 272.921Z" fill="white"/>
<path d="M305.34 272.921H311.106L277.66 115.573H271.894L305.34 272.921Z" fill="white"/>
<path d="M221.417 272.921H225.194L191.749 115.573H187.971L221.417 272.921Z" fill="white"/>
<path d="M207.149 272.921H212.915L179.47 115.573H173.704L207.149 272.921Z" fill="white"/>
</g>
<path d="M122.127 110.122H127.59C123.099 110.037 119.39 113.609 119.305 118.099C119.298 118.457 119.315 118.815 119.355 119.171L134.975 297.68C135.479 302.75 139.699 306.639 144.793 306.729H139.33C134.236 306.639 130.016 302.75 129.512 297.68L113.893 119.148C113.399 114.684 116.617 110.664 121.081 110.17C121.428 110.131 121.778 110.115 122.127 110.122Z" fill="#263238"/>
<path opacity="0.6" d="M122.127 110.122H127.59C123.099 110.037 119.39 113.609 119.305 118.099C119.298 118.457 119.315 118.815 119.355 119.171L134.975 297.68C135.479 302.75 139.699 306.639 144.793 306.729H139.33C134.236 306.639 130.016 302.75 129.512 297.68L113.893 119.148C113.399 114.684 116.617 110.664 121.081 110.17C121.428 110.131 121.778 110.115 122.127 110.122Z" fill="white"/>
<path d="M176.238 165.695H165.1C164.207 165.695 163.42 164.971 163.342 164.078C163.264 163.185 163.924 162.461 164.817 162.461H175.955C176.848 162.461 177.635 163.185 177.713 164.078C177.792 164.971 177.131 165.695 176.238 165.695Z" fill="#5BE9B9"/>
<path d="M203.729 152.761H195.466C194.573 152.761 193.786 152.037 193.708 151.144C193.63 150.251 194.29 149.527 195.183 149.527H203.446C204.339 149.527 205.126 150.251 205.204 151.144C205.282 152.037 204.622 152.761 203.729 152.761Z" fill="#5BE9B9"/>
<path d="M294.44 165.695H283.302C282.409 165.695 281.622 164.971 281.544 164.078C281.466 163.185 282.126 162.461 283.019 162.461H294.157C295.05 162.461 295.837 163.185 295.915 164.078C295.994 164.971 295.333 165.695 294.44 165.695Z" fill="#5BE9B9"/>
<path d="M272.165 165.695H187.017C186.124 165.695 185.337 164.971 185.259 164.078C185.181 163.185 185.841 162.461 186.734 162.461H271.882C272.775 162.461 273.562 163.185 273.64 164.078C273.719 164.971 273.058 165.695 272.165 165.695Z" fill="#263238"/>
<path d="M177.214 176.833H166.076C165.183 176.833 164.396 176.109 164.318 175.216C164.24 174.323 164.9 173.599 165.793 173.599H176.931C177.824 173.599 178.611 174.323 178.689 175.216C178.767 176.109 178.107 176.833 177.214 176.833Z" fill="#5BE9B9"/>
<path d="M210.986 176.833H187.992C187.099 176.833 186.312 176.109 186.234 175.216C186.156 174.323 186.816 173.599 187.709 173.599H210.703C211.596 173.599 212.383 174.323 212.461 175.216C212.539 176.109 211.879 176.833 210.986 176.833Z" fill="#5BE9B9"/>
<path d="M252.302 176.833H218.171C217.278 176.833 216.491 176.109 216.413 175.216C216.335 174.323 216.995 173.599 217.888 173.599H252.019C252.912 173.599 253.699 174.323 253.777 175.216C253.855 176.109 253.194 176.833 252.302 176.833Z" fill="#5BE9B9"/>
<path d="M178.187 187.97H167.049C166.156 187.97 165.369 187.246 165.291 186.353C165.213 185.46 165.873 184.736 166.766 184.736H177.904C178.797 184.736 179.584 185.46 179.662 186.353C179.741 187.246 179.08 187.97 178.187 187.97Z" fill="#5BE9B9"/>
<path d="M234.593 187.97H188.965C188.072 187.97 187.285 187.246 187.207 186.353C187.129 185.46 187.789 184.736 188.682 184.736H234.31C235.203 184.736 235.99 185.46 236.068 186.353C236.147 187.246 235.486 187.97 234.593 187.97Z" fill="#263238"/>
<path d="M179.163 199.108H168.025C167.132 199.108 166.345 198.384 166.267 197.491C166.189 196.598 166.849 195.874 167.742 195.874H178.88C179.773 195.874 180.56 196.598 180.638 197.491C180.716 198.384 180.055 199.108 179.163 199.108Z" fill="#5BE9B9"/>
<path d="M209.162 199.108H189.941C189.048 199.108 188.261 198.384 188.183 197.491C188.105 196.598 188.765 195.874 189.658 195.874H208.879C209.772 195.874 210.559 196.598 210.637 197.491C210.716 198.384 210.055 199.108 209.162 199.108Z" fill="#263238"/>
<path d="M253.169 219.587H233.948C233.055 219.587 232.268 218.863 232.19 217.97C232.112 217.077 232.772 216.353 233.665 216.353H252.886C253.779 216.353 254.566 217.077 254.644 217.97C254.722 218.863 254.062 219.587 253.169 219.587Z" fill="#5BE9B9"/>
<path d="M352.688 219.587H262.959C262.066 219.587 261.279 218.863 261.201 217.97C261.123 217.077 261.783 216.353 262.676 216.353H352.405C353.298 216.353 354.085 217.077 354.163 217.97C354.242 218.863 353.581 219.587 352.688 219.587Z" fill="#263238"/>
<path d="M319.891 230.724H227.378C226.485 230.724 225.698 230 225.62 229.107C225.542 228.214 226.202 227.49 227.095 227.49H319.609C320.502 227.49 321.289 228.214 321.367 229.107C321.444 230 320.784 230.724 319.891 230.724Z" fill="#5BE9B9"/>
<path d="M353.662 230.724H331.387C330.494 230.724 329.707 230 329.629 229.107C329.551 228.214 330.211 227.49 331.104 227.49H353.379C354.272 227.49 355.059 228.214 355.137 229.107C355.215 230 354.555 230.724 353.662 230.724Z" fill="#5BE9B9"/>
<path d="M303.439 241.862H294.098C293.205 241.862 292.418 241.138 292.34 240.245C292.262 239.352 292.922 238.628 293.815 238.628H303.156C304.049 238.628 304.836 239.352 304.914 240.245C304.993 241.138 304.332 241.862 303.439 241.862Z" fill="#5BE9B9"/>
<path d="M354.637 241.862H313.5C312.607 241.862 311.82 241.138 311.742 240.245C311.664 239.352 312.324 238.628 313.217 238.628H354.354C355.247 238.628 356.034 239.352 356.112 240.245C356.19 241.138 355.53 241.862 354.637 241.862Z" fill="#263238"/>
<path d="M237.948 252.999H210.643C209.75 252.999 208.963 252.275 208.885 251.382C208.807 250.489 209.467 249.765 210.36 249.765H237.665C238.558 249.765 239.345 250.489 239.423 251.382C239.501 252.275 238.84 252.999 237.948 252.999Z" fill="#263238"/>
<path d="M355.611 252.999H274.415C273.522 252.999 272.735 252.275 272.657 251.382C272.579 250.489 273.239 249.765 274.132 249.765H355.328C356.221 249.765 357.008 250.489 357.086 251.382C357.165 252.275 356.504 252.999 355.611 252.999Z" fill="#263238"/>
<path d="M269.161 199.108H220.12C219.227 199.108 218.44 198.384 218.362 197.491C218.284 196.598 218.944 195.874 219.837 195.874H268.878C269.771 195.874 270.558 196.598 270.636 197.491C270.715 198.384 270.054 199.108 269.161 199.108Z" fill="#263238"/>
<path d="M187.682 210.245H169C168.107 210.245 167.32 209.521 167.242 208.628C167.164 207.735 167.824 207.011 168.717 207.011H187.399C188.292 207.011 189.079 207.735 189.157 208.628C189.235 209.521 188.575 210.245 187.682 210.245Z" fill="#263238"/>
<path d="M205.701 210.245H195.765C194.872 210.245 194.085 209.521 194.007 208.628C193.929 207.735 194.589 207.011 195.482 207.011H205.418C206.311 207.011 207.098 207.735 207.176 208.628C207.254 209.521 206.594 210.245 205.701 210.245Z" fill="#263238"/>
<path d="M170.286 144.844L165.359 146.71L170.608 148.557C171.014 148.7 171.309 149.074 171.346 149.493L171.347 149.508C171.408 150.205 170.752 150.686 170.079 150.438L163.961 148.187C163.377 147.972 162.956 147.43 162.903 146.826L162.883 146.592C162.83 145.987 163.156 145.446 163.703 145.231L169.427 142.98C170.057 142.732 170.797 143.214 170.858 143.911C170.894 144.327 170.666 144.7 170.286 144.844Z" fill="#263238"/>
<path d="M177.336 138.224C178.115 138.224 178.729 138.994 178.535 139.729L174.86 153.71C174.741 154.164 174.339 154.467 173.859 154.467H173.858C173.079 154.467 172.465 153.697 172.659 152.962L176.335 138.981C176.454 138.528 176.856 138.224 177.336 138.224Z" fill="#263238"/>
<path d="M188.182 146.591L188.202 146.825C188.255 147.43 187.929 147.971 187.382 148.186L181.658 150.437C181.028 150.685 180.288 150.204 180.227 149.507L180.226 149.492C180.189 149.073 180.419 148.699 180.8 148.556L185.725 146.709L180.472 144.843C180.067 144.699 179.774 144.326 179.737 143.908C179.676 143.211 180.332 142.73 181.005 142.977L187.123 145.228C187.708 145.445 188.129 145.987 188.182 146.591Z" fill="#263238"/>
<path d="M378.082 229.784C378.123 229.551 377.376 229.224 376.414 229.055C375.787 228.944 375.227 228.929 374.899 228.996C374.81 228.67 374.563 228.186 374.213 227.686C373.653 226.886 373.041 226.347 372.847 226.483C372.653 226.619 372.95 227.378 373.51 228.178C373.986 228.858 374.498 229.347 374.761 229.396C375.026 229.584 375.589 229.78 376.265 229.899C377.228 230.069 378.041 230.017 378.082 229.784Z" fill="#263238"/>
<path d="M373.027 232.282C373.308 231.509 373.416 230.815 373.311 230.566C373.314 230.242 373.149 229.662 372.858 229.039C372.445 228.154 371.936 227.517 371.722 227.617C371.507 227.717 371.668 228.516 372.081 229.401C372.349 229.977 372.658 230.446 372.9 230.677C372.684 230.937 372.43 231.416 372.222 231.989C371.888 232.907 371.797 233.717 372.02 233.798C372.241 233.879 372.693 233.2 373.027 232.282Z" fill="#263238"/>
<path d="M379.204 225.312C379.104 225.097 378.305 225.258 377.419 225.671C376.843 225.939 376.374 226.248 376.143 226.49C375.883 226.274 375.404 226.02 374.831 225.812C373.913 225.478 373.103 225.387 373.022 225.61C372.941 225.833 373.62 226.284 374.538 226.618C375.311 226.899 376.005 227.007 376.254 226.902C376.578 226.905 377.158 226.74 377.782 226.449C378.667 226.035 379.304 225.526 379.204 225.312Z" fill="#263238"/>
<path d="M362.906 214.608C363.139 214.567 363.466 215.314 363.636 216.276C363.747 216.903 363.762 217.463 363.695 217.791C364.021 217.88 364.505 218.127 365.005 218.477C365.805 219.037 366.344 219.649 366.208 219.843C366.072 220.037 365.313 219.74 364.513 219.18C363.833 218.704 363.344 218.192 363.295 217.929C363.107 217.664 362.911 217.101 362.792 216.425C362.622 215.462 362.673 214.649 362.906 214.608Z" fill="#263238"/>
<path d="M360.408 219.663C361.181 219.382 361.875 219.274 362.125 219.38C362.449 219.377 363.029 219.542 363.653 219.833C364.538 220.246 365.175 220.755 365.075 220.969C364.975 221.184 364.176 221.023 363.29 220.61C362.714 220.342 362.245 220.033 362.014 219.791C361.754 220.007 361.275 220.261 360.702 220.469C359.784 220.803 358.974 220.894 358.893 220.671C358.811 220.448 359.49 219.997 360.408 219.663Z" fill="#263238"/>
<path d="M367.378 213.486C367.593 213.586 367.432 214.385 367.019 215.27C366.751 215.846 366.442 216.315 366.2 216.546C366.416 216.806 366.67 217.286 366.878 217.858C367.212 218.776 367.303 219.586 367.08 219.667C366.857 219.748 366.406 219.069 366.072 218.151C365.791 217.378 365.683 216.684 365.788 216.435C365.785 216.111 365.95 215.531 366.241 214.908C366.654 214.022 367.163 213.385 367.378 213.486Z" fill="#263238"/>
<path d="M372.402 218.879C371.704 218.879 371.137 219.445 371.137 220.144C371.137 220.842 371.703 221.408 372.402 221.408C373.101 221.408 373.666 220.842 373.666 220.144H372.402V218.879Z" fill="#5BE9B9"/>
<path opacity="0.2" d="M372.402 218.879C371.704 218.879 371.137 219.445 371.137 220.144C371.137 220.842 371.703 221.408 372.402 221.408C373.101 221.408 373.666 220.842 373.666 220.144H372.402V218.879Z" fill="black"/>
<path d="M364.85 218.66C363.949 219.104 363.087 219.711 362.317 220.482C359.111 223.688 358.693 228.469 361.384 231.16C364.075 233.851 368.856 233.433 372.062 230.227C372.832 229.457 373.44 228.595 373.884 227.694L364.85 218.66Z" fill="#5BE9B9"/>
<path opacity="0.3" d="M364.85 218.66C363.949 219.104 363.087 219.711 362.317 220.482C359.111 223.688 358.693 228.469 361.384 231.16C364.075 233.851 368.856 233.433 372.062 230.227C372.832 229.457 373.44 228.595 373.884 227.694L364.85 218.66Z" fill="black"/>
<path d="M365.754 219.564L372.981 226.791C374.104 224.511 373.906 221.91 372.27 220.274C370.635 218.639 368.034 218.44 365.754 219.564Z" fill="#5BE9B9"/>
<path opacity="0.5" d="M365.754 219.564L372.981 226.791C374.104 224.511 373.906 221.91 372.27 220.274C370.635 218.639 368.034 218.44 365.754 219.564Z" fill="black"/>
<path opacity="0.2" d="M364.85 218.66C363.949 219.104 363.087 219.711 362.317 220.482C359.111 223.688 358.693 228.469 361.384 231.16L369.367 223.177L364.85 218.66Z" fill="black"/>
<path d="M368.898 212.817C369.664 213.129 370.413 213.626 370.992 214.21C372.54 215.772 372.231 217.662 370.958 219.311C370.873 219.422 371.027 219.578 371.114 219.466C372.273 217.965 372.816 216.164 371.577 214.539C370.925 213.684 369.948 213.007 368.954 212.603C368.823 212.551 368.769 212.765 368.898 212.817Z" fill="#263238"/>
<path d="M379.94 223.59C379.536 222.597 378.859 221.619 378.004 220.967C376.38 219.728 374.578 220.27 373.077 221.43C372.965 221.516 373.122 221.671 373.232 221.586C374.876 220.317 376.775 219.999 378.333 221.552C378.917 222.134 379.414 222.879 379.726 223.646C379.78 223.775 379.993 223.721 379.94 223.59Z" fill="#263238"/>
<path d="M365.909 223.274C365.403 223.78 364.583 223.78 364.077 223.274C363.571 222.768 363.571 221.948 364.077 221.442C364.583 220.936 365.403 220.936 365.909 221.442C366.415 221.948 366.415 222.768 365.909 223.274Z" fill="#5BE9B9"/>
<path d="M371.103 228.468C370.597 228.974 369.777 228.974 369.271 228.468C368.765 227.962 368.765 227.142 369.271 226.636C369.777 226.13 370.597 226.13 371.103 226.636C371.609 227.142 371.609 227.962 371.103 228.468Z" fill="#5BE9B9"/>
<path d="M363.092 227.334C362.586 227.84 361.766 227.84 361.26 227.334C360.754 226.828 360.754 226.008 361.26 225.502C361.766 224.996 362.586 224.996 363.092 225.502C363.598 226.008 363.598 226.828 363.092 227.334Z" fill="#5BE9B9"/>
<path d="M367.044 231.285C366.538 231.791 365.718 231.791 365.212 231.285C364.706 230.779 364.706 229.959 365.212 229.453C365.718 228.947 366.538 228.947 367.044 229.453C367.549 229.958 367.549 230.778 367.044 231.285Z" fill="#5BE9B9"/>
<g opacity="0.7">
<path d="M365.909 223.274C365.403 223.78 364.583 223.78 364.077 223.274C363.571 222.768 363.571 221.948 364.077 221.442C364.583 220.936 365.403 220.936 365.909 221.442C366.415 221.948 366.415 222.768 365.909 223.274Z" fill="white"/>
<path d="M371.103 228.468C370.597 228.974 369.777 228.974 369.271 228.468C368.765 227.962 368.765 227.142 369.271 226.636C369.777 226.13 370.597 226.13 371.103 226.636C371.609 227.142 371.609 227.962 371.103 228.468Z" fill="white"/>
<path d="M363.092 227.334C362.586 227.84 361.766 227.84 361.26 227.334C360.754 226.828 360.754 226.008 361.26 225.502C361.766 224.996 362.586 224.996 363.092 225.502C363.598 226.008 363.598 226.828 363.092 227.334Z" fill="white"/>
<path d="M367.044 231.285C366.538 231.791 365.718 231.791 365.212 231.285C364.706 230.779 364.706 229.959 365.212 229.453C365.718 228.947 366.538 228.947 367.044 229.453C367.549 229.958 367.549 230.778 367.044 231.285Z" fill="white"/>
</g>
<path d="M297.396 140.446C297.437 140.213 296.69 139.886 295.728 139.717C295.101 139.606 294.541 139.591 294.213 139.658C294.124 139.332 293.877 138.848 293.527 138.348C292.967 137.548 292.355 137.009 292.161 137.145C291.967 137.281 292.264 138.04 292.824 138.84C293.3 139.52 293.812 140.009 294.075 140.058C294.34 140.246 294.903 140.442 295.579 140.561C296.542 140.731 297.355 140.679 297.396 140.446Z" fill="#263238"/>
<path d="M292.341 142.944C292.622 142.171 292.73 141.477 292.624 141.228C292.627 140.904 292.462 140.324 292.171 139.7C291.758 138.815 291.249 138.178 291.035 138.278C290.82 138.378 290.981 139.177 291.394 140.062C291.662 140.638 291.971 141.107 292.213 141.338C291.997 141.598 291.743 142.078 291.535 142.65C291.201 143.568 291.11 144.378 291.333 144.459C291.556 144.54 292.007 143.862 292.341 142.944Z" fill="#263238"/>
<path d="M298.518 135.974C298.418 135.759 297.619 135.92 296.734 136.333C296.158 136.601 295.689 136.91 295.458 137.152C295.198 136.936 294.718 136.682 294.146 136.474C293.228 136.14 292.418 136.049 292.337 136.272C292.256 136.495 292.935 136.946 293.853 137.28C294.626 137.561 295.32 137.669 295.569 137.564C295.893 137.567 296.473 137.402 297.096 137.111C297.982 136.697 298.618 136.188 298.518 135.974Z" fill="#263238"/>
<path d="M282.22 125.269C282.453 125.228 282.78 125.975 282.949 126.937C283.06 127.564 283.075 128.124 283.008 128.452C283.334 128.541 283.818 128.788 284.318 129.138C285.118 129.698 285.657 130.31 285.521 130.504C285.385 130.698 284.626 130.401 283.826 129.841C283.146 129.365 282.657 128.853 282.608 128.591C282.42 128.326 282.224 127.763 282.105 127.087C281.935 126.124 281.986 125.311 282.22 125.269Z" fill="#263238"/>
<path d="M279.722 130.325C280.495 130.044 281.189 129.936 281.438 130.042C281.762 130.039 282.342 130.204 282.965 130.495C283.85 130.908 284.487 131.417 284.387 131.631C284.287 131.846 283.488 131.685 282.603 131.272C282.027 131.004 281.558 130.695 281.327 130.453C281.067 130.669 280.587 130.923 280.015 131.131C279.097 131.465 278.287 131.556 278.206 131.333C278.125 131.11 278.804 130.659 279.722 130.325Z" fill="#263238"/>
<path d="M286.692 124.147C286.907 124.247 286.746 125.046 286.333 125.932C286.065 126.508 285.756 126.977 285.514 127.208C285.73 127.468 285.984 127.948 286.192 128.52C286.526 129.438 286.616 130.248 286.394 130.329C286.171 130.41 285.72 129.731 285.386 128.813C285.105 128.04 284.997 127.346 285.102 127.097C285.099 126.773 285.264 126.193 285.555 125.569C285.968 124.684 286.477 124.047 286.692 124.147Z" fill="#263238"/>
<path d="M291.715 129.541C291.017 129.541 290.45 130.107 290.45 130.805C290.45 131.503 291.016 132.07 291.715 132.07C292.414 132.07 292.98 131.504 292.98 130.805H291.715V129.541Z" fill="#5BE9B9"/>
<path opacity="0.2" d="M291.715 129.541C291.017 129.541 290.45 130.107 290.45 130.805C290.45 131.503 291.016 132.07 291.715 132.07C292.414 132.07 292.98 131.504 292.98 130.805H291.715V129.541Z" fill="black"/>
<path d="M284.164 129.322C283.263 129.766 282.402 130.373 281.631 131.144C278.425 134.35 278.007 139.131 280.698 141.822C283.389 144.513 288.17 144.095 291.376 140.889C292.146 140.119 292.754 139.257 293.198 138.356L284.164 129.322Z" fill="#5BE9B9"/>
<path opacity="0.3" d="M284.164 129.322C283.263 129.766 282.402 130.373 281.631 131.144C278.425 134.35 278.007 139.131 280.698 141.822C283.389 144.513 288.17 144.095 291.376 140.889C292.146 140.119 292.754 139.257 293.198 138.356L284.164 129.322Z" fill="black"/>
<path d="M285.066 130.226L292.293 137.453C293.417 135.173 293.218 132.572 291.582 130.936C289.947 129.301 287.347 129.102 285.066 130.226Z" fill="#5BE9B9"/>
<path opacity="0.5" d="M285.066 130.226L292.293 137.453C293.417 135.173 293.218 132.572 291.582 130.936C289.947 129.301 287.347 129.102 285.066 130.226Z" fill="black"/>
<path opacity="0.2" d="M284.164 129.322C283.263 129.766 282.402 130.373 281.631 131.144C278.425 134.35 278.007 139.131 280.698 141.822L288.681 133.839L284.164 129.322Z" fill="black"/>
<path d="M288.212 123.479C288.978 123.79 289.727 124.287 290.306 124.872C291.854 126.434 291.545 128.324 290.272 129.973C290.187 130.084 290.341 130.24 290.428 130.129C291.587 128.628 292.13 126.827 290.891 125.202C290.239 124.347 289.262 123.67 288.268 123.266C288.138 123.213 288.083 123.426 288.212 123.479Z" fill="#263238"/>
<path d="M299.254 134.252C298.85 133.259 298.173 132.281 297.318 131.629C295.694 130.39 293.892 130.932 292.391 132.092C292.279 132.178 292.436 132.333 292.547 132.248C294.191 130.979 296.09 130.661 297.648 132.214C298.232 132.796 298.729 133.541 299.041 134.308C299.094 134.437 299.307 134.383 299.254 134.252Z" fill="#263238"/>
<path d="M285.222 133.936C284.716 134.442 283.896 134.442 283.39 133.936C282.884 133.43 282.884 132.61 283.39 132.104C283.896 131.598 284.716 131.598 285.222 132.104C285.728 132.609 285.728 133.43 285.222 133.936Z" fill="#5BE9B9"/>
<path d="M290.417 139.129C289.911 139.635 289.091 139.635 288.585 139.129C288.079 138.623 288.079 137.803 288.585 137.297C289.091 136.791 289.911 136.791 290.417 137.297C290.923 137.803 290.923 138.623 290.417 139.129Z" fill="#5BE9B9"/>
<path d="M282.406 137.996C281.9 138.502 281.08 138.502 280.574 137.996C280.068 137.49 280.068 136.67 280.574 136.164C281.08 135.658 281.9 135.658 282.406 136.164C282.912 136.67 282.912 137.49 282.406 137.996Z" fill="#5BE9B9"/>
<path d="M286.357 141.945C285.851 142.451 285.031 142.451 284.525 141.945C284.019 141.439 284.019 140.619 284.525 140.113C285.031 139.607 285.851 139.607 286.357 140.113C286.863 140.619 286.863 141.439 286.357 141.945Z" fill="#5BE9B9"/>
<g opacity="0.7">
<path d="M285.222 133.936C284.716 134.442 283.896 134.442 283.39 133.936C282.884 133.43 282.884 132.61 283.39 132.104C283.896 131.598 284.716 131.598 285.222 132.104C285.728 132.609 285.728 133.43 285.222 133.936Z" fill="white"/>
<path d="M290.417 139.129C289.911 139.635 289.091 139.635 288.585 139.129C288.079 138.623 288.079 137.803 288.585 137.297C289.091 136.791 289.911 136.791 290.417 137.297C290.923 137.803 290.923 138.623 290.417 139.129Z" fill="white"/>
<path d="M282.406 137.996C281.9 138.502 281.08 138.502 280.574 137.996C280.068 137.49 280.068 136.67 280.574 136.164C281.08 135.658 281.9 135.658 282.406 136.164C282.912 136.67 282.912 137.49 282.406 137.996Z" fill="white"/>
<path d="M286.357 141.945C285.851 142.451 285.031 142.451 284.525 141.945C284.019 141.439 284.019 140.619 284.525 140.113C285.031 139.607 285.851 139.607 286.357 140.113C286.863 140.619 286.863 141.439 286.357 141.945Z" fill="white"/>
</g>
<path d="M195.155 246.195C194.922 246.154 194.595 246.901 194.425 247.863C194.315 248.49 194.299 249.05 194.366 249.378C194.04 249.467 193.556 249.714 193.056 250.064C192.256 250.624 191.717 251.236 191.853 251.43C191.989 251.624 192.748 251.327 193.548 250.767C194.228 250.291 194.717 249.779 194.766 249.516C194.954 249.251 195.15 248.688 195.269 248.012C195.44 247.05 195.388 246.237 195.155 246.195Z" fill="#263238"/>
<path d="M197.653 251.251C196.88 250.97 196.186 250.862 195.936 250.967C195.612 250.964 195.032 251.129 194.409 251.42C193.524 251.833 192.887 252.342 192.987 252.556C193.087 252.771 193.886 252.61 194.772 252.197C195.348 251.929 195.817 251.62 196.048 251.378C196.308 251.594 196.787 251.848 197.36 252.056C198.278 252.39 199.088 252.481 199.169 252.258C199.249 252.036 198.571 251.585 197.653 251.251Z" fill="#263238"/>
<path d="M190.683 245.073C190.468 245.173 190.629 245.972 191.042 246.858C191.31 247.434 191.619 247.903 191.861 248.134C191.645 248.394 191.391 248.874 191.183 249.446C190.849 250.364 190.758 251.174 190.981 251.255C191.203 251.336 191.655 250.657 191.989 249.739C192.27 248.966 192.378 248.272 192.272 248.022C192.275 247.698 192.11 247.118 191.819 246.495C191.406 245.61 190.897 244.973 190.683 245.073Z" fill="#263238"/>
<path d="M179.979 261.372C179.938 261.139 180.685 260.812 181.647 260.643C182.274 260.532 182.834 260.517 183.162 260.584C183.251 260.258 183.498 259.774 183.848 259.274C184.408 258.474 185.02 257.935 185.214 258.071C185.408 258.207 185.111 258.966 184.551 259.766C184.075 260.446 183.563 260.935 183.3 260.984C183.035 261.172 182.472 261.368 181.796 261.487C180.833 261.656 180.02 261.605 179.979 261.372Z" fill="#263238"/>
<path d="M185.034 263.87C184.753 263.097 184.645 262.403 184.751 262.154C184.748 261.83 184.913 261.25 185.204 260.626C185.617 259.741 186.126 259.104 186.34 259.204C186.555 259.304 186.394 260.103 185.981 260.988C185.713 261.564 185.404 262.033 185.162 262.264C185.378 262.524 185.632 263.004 185.84 263.576C186.174 264.494 186.265 265.304 186.042 265.385C185.819 265.466 185.368 264.788 185.034 263.87Z" fill="#263238"/>
<path d="M178.856 256.9C178.956 256.685 179.755 256.846 180.641 257.259C181.217 257.527 181.686 257.836 181.917 258.078C182.177 257.862 182.657 257.608 183.229 257.4C184.147 257.066 184.957 256.975 185.038 257.198C185.119 257.421 184.441 257.872 183.522 258.206C182.749 258.487 182.055 258.595 181.805 258.489C181.481 258.492 180.902 258.327 180.278 258.036C179.393 257.623 178.756 257.114 178.856 256.9Z" fill="#263238"/>
<path d="M184.25 251.877C184.25 252.575 184.816 253.142 185.515 253.142C186.213 253.142 186.78 252.576 186.78 251.877C186.78 251.178 186.214 250.613 185.515 250.613V251.877H184.25Z" fill="#5BE9B9"/>
<path opacity="0.2" d="M184.25 251.877C184.25 252.575 184.816 253.142 185.515 253.142C186.213 253.142 186.78 252.576 186.78 251.877C186.78 251.178 186.214 250.613 185.515 250.613V251.877H184.25Z" fill="black"/>
<path d="M184.031 259.428C184.475 260.329 185.082 261.19 185.853 261.961C189.059 265.167 193.84 265.585 196.531 262.894C199.222 260.203 198.804 255.422 195.598 252.216C194.828 251.446 193.966 250.838 193.065 250.394L184.031 259.428Z" fill="#5BE9B9"/>
<path opacity="0.3" d="M184.031 259.428C184.475 260.329 185.082 261.19 185.853 261.961C189.059 265.167 193.84 265.585 196.531 262.894C199.222 260.203 198.804 255.422 195.598 252.216C194.828 251.446 193.966 250.838 193.065 250.394L184.031 259.428Z" fill="black"/>
<path d="M184.935 258.524L192.162 251.297C189.882 250.174 187.281 250.372 185.646 252.008C184.01 253.643 183.811 256.244 184.935 258.524Z" fill="#5BE9B9"/>
<path opacity="0.5" d="M184.935 258.524L192.162 251.297C189.882 250.174 187.281 250.372 185.646 252.008C184.01 253.643 183.811 256.244 184.935 258.524Z" fill="black"/>
<path opacity="0.2" d="M184.031 259.428C184.475 260.329 185.082 261.19 185.853 261.961C189.059 265.167 193.84 265.585 196.531 262.894L188.548 254.911L184.031 259.428Z" fill="black"/>
<path d="M178.188 255.379C178.499 254.613 178.997 253.864 179.581 253.285C181.143 251.737 183.033 252.046 184.682 253.319C184.793 253.404 184.949 253.25 184.838 253.164C183.337 252.005 181.536 251.462 179.911 252.701C179.056 253.353 178.379 254.33 177.975 255.324C177.922 255.454 178.135 255.509 178.188 255.379Z" fill="#263238"/>
<path d="M188.961 244.338C187.968 244.742 186.99 245.419 186.338 246.274C185.099 247.898 185.641 249.7 186.801 251.201C186.887 251.313 187.042 251.156 186.957 251.045C185.688 249.401 185.37 247.502 186.923 245.944C187.505 245.36 188.25 244.863 189.017 244.551C189.146 244.498 189.092 244.284 188.961 244.338Z" fill="#263238"/>
<path d="M188.645 258.369C189.151 258.875 189.151 259.695 188.645 260.201C188.139 260.707 187.319 260.707 186.813 260.201C186.307 259.695 186.307 258.875 186.813 258.369C187.318 257.863 188.139 257.863 188.645 258.369Z" fill="#5BE9B9"/>
<path d="M193.839 253.175C194.345 253.681 194.345 254.501 193.839 255.007C193.333 255.513 192.513 255.513 192.007 255.007C191.501 254.501 191.501 253.681 192.007 253.175C192.513 252.669 193.333 252.669 193.839 253.175Z" fill="#5BE9B9"/>
<path d="M192.706 261.185C193.212 261.691 193.212 262.511 192.706 263.017C192.2 263.523 191.38 263.523 190.874 263.017C190.368 262.511 190.368 261.691 190.874 261.185C191.379 260.679 192.2 260.679 192.706 261.185Z" fill="#5BE9B9"/>
<path d="M196.655 257.235C197.161 257.741 197.161 258.561 196.655 259.067C196.149 259.573 195.329 259.573 194.823 259.067C194.317 258.561 194.317 257.741 194.823 257.235C195.329 256.729 196.149 256.729 196.655 257.235Z" fill="#5BE9B9"/>
<g opacity="0.7">
<path d="M188.645 258.369C189.151 258.875 189.151 259.695 188.645 260.201C188.139 260.707 187.319 260.707 186.813 260.201C186.307 259.695 186.307 258.875 186.813 258.369C187.318 257.863 188.139 257.863 188.645 258.369Z" fill="white"/>
<path d="M193.839 253.175C194.345 253.681 194.345 254.501 193.839 255.007C193.333 255.513 192.513 255.513 192.007 255.007C191.501 254.501 191.501 253.681 192.007 253.175C192.513 252.669 193.333 252.669 193.839 253.175Z" fill="white"/>
<path d="M192.705 261.185C193.211 261.691 193.211 262.511 192.705 263.017C192.199 263.523 191.379 263.523 190.873 263.017C190.367 262.511 190.367 261.691 190.873 261.185C191.378 260.679 192.199 260.679 192.705 261.185Z" fill="white"/>
<path d="M196.655 257.235C197.161 257.741 197.161 258.561 196.655 259.067C196.149 259.573 195.329 259.573 194.823 259.067C194.317 258.561 194.317 257.741 194.823 257.235C195.329 256.729 196.149 256.729 196.655 257.235Z" fill="white"/>
</g>
<path d="M344.348 119.055C343.959 118.986 343.415 120.231 343.132 121.834C342.948 122.879 342.923 123.812 343.033 124.358C342.49 124.506 341.683 124.918 340.85 125.502C339.516 126.436 338.618 127.455 338.845 127.779C339.071 128.102 340.336 127.607 341.67 126.673C342.803 125.88 343.619 125.026 343.7 124.589C344.013 124.148 344.34 123.209 344.539 122.082C344.823 120.479 344.737 119.124 344.348 119.055Z" fill="#263238"/>
<path d="M348.512 127.48C347.224 127.011 346.067 126.832 345.651 127.007C345.111 127.003 344.145 127.277 343.105 127.762C341.629 128.45 340.568 129.298 340.735 129.656C340.902 130.014 342.233 129.746 343.709 129.058C344.668 128.611 345.45 128.096 345.835 127.692C346.268 128.052 347.067 128.475 348.022 128.822C349.552 129.379 350.902 129.53 351.037 129.159C351.172 128.79 350.042 128.037 348.512 127.48Z" fill="#263238"/>
<path d="M336.895 117.185C336.537 117.352 336.805 118.684 337.493 120.159C337.94 121.119 338.455 121.9 338.859 122.285C338.5 122.718 338.076 123.517 337.729 124.472C337.172 126.002 337.021 127.352 337.392 127.487C337.763 127.622 338.515 126.491 339.072 124.961C339.541 123.673 339.72 122.516 339.545 122.1C339.549 121.56 339.274 120.594 338.79 119.554C338.1 118.079 337.253 117.018 336.895 117.185Z" fill="#263238"/>
<path d="M319.054 144.349C318.985 143.96 320.231 143.416 321.834 143.133C322.879 142.949 323.812 142.924 324.358 143.034C324.506 142.491 324.918 141.685 325.502 140.851C326.436 139.517 327.455 138.619 327.778 138.846C328.101 139.072 327.607 140.337 326.673 141.671C325.88 142.804 325.026 143.62 324.589 143.701C324.148 144.013 323.209 144.341 322.082 144.54C320.479 144.824 319.123 144.738 319.054 144.349Z" fill="#263238"/>
<path d="M327.479 148.512C327.01 147.224 326.831 146.067 327.006 145.651C327.002 145.111 327.277 144.145 327.762 143.105C328.45 141.629 329.298 140.568 329.656 140.735C330.014 140.902 329.746 142.233 329.058 143.709C328.611 144.669 328.096 145.45 327.692 145.835C328.051 146.268 328.475 147.067 328.822 148.022C329.379 149.552 329.53 150.902 329.159 151.037C328.789 151.173 328.036 150.043 327.479 148.512Z" fill="#263238"/>
<path d="M317.184 136.896C317.351 136.538 318.682 136.806 320.158 137.494C321.118 137.941 321.899 138.456 322.284 138.86C322.718 138.501 323.517 138.077 324.471 137.73C326.001 137.173 327.351 137.022 327.486 137.393C327.621 137.764 326.49 138.516 324.96 139.073C323.672 139.542 322.515 139.721 322.099 139.546C321.559 139.55 320.593 139.275 319.553 138.79C318.078 138.101 317.017 137.253 317.184 136.896Z" fill="#263238"/>
<path d="M326.173 128.524C326.173 129.688 327.117 130.632 328.281 130.632C329.445 130.632 330.389 129.688 330.389 128.524C330.389 127.36 329.445 126.416 328.281 126.416V128.524H326.173Z" fill="#5BE9B9"/>
<path opacity="0.2" d="M326.173 128.524C326.173 129.688 327.117 130.632 328.281 130.632C329.445 130.632 330.389 129.688 330.389 128.524C330.389 127.36 329.445 126.416 328.281 126.416V128.524H326.173Z" fill="black"/>
<path d="M325.809 141.109C326.549 142.611 327.561 144.047 328.845 145.33C334.189 150.674 342.157 151.37 346.642 146.885C351.127 142.4 350.431 134.432 345.087 129.088C343.804 127.804 342.368 126.792 340.866 126.052L325.809 141.109Z" fill="#5BE9B9"/>
<path opacity="0.3" d="M325.809 141.109C326.549 142.611 327.561 144.047 328.845 145.33C334.189 150.674 342.157 151.37 346.642 146.885C351.127 142.4 350.431 134.432 345.087 129.088C343.804 127.804 342.368 126.792 340.866 126.052L325.809 141.109Z" fill="black"/>
<path d="M327.315 139.603L339.36 127.557C335.56 125.685 331.226 126.015 328.499 128.742C325.773 131.469 325.442 135.803 327.315 139.603Z" fill="#5BE9B9"/>
<path opacity="0.5" d="M327.315 139.603L339.36 127.557C335.56 125.685 331.226 126.015 328.499 128.742C325.773 131.469 325.442 135.803 327.315 139.603Z" fill="black"/>
<path opacity="0.2" d="M325.809 141.109C326.549 142.611 327.561 144.047 328.845 145.33C334.189 150.674 342.157 151.37 346.642 146.885L333.337 133.58L325.809 141.109Z" fill="black"/>
<path d="M316.07 134.361C316.589 133.084 317.417 131.837 318.392 130.871C320.995 128.29 324.146 128.805 326.894 130.928C327.078 131.07 327.34 130.813 327.153 130.669C324.651 128.737 321.65 127.832 318.942 129.898C317.517 130.984 316.388 132.613 315.715 134.269C315.627 134.486 315.983 134.577 316.07 134.361Z" fill="#263238"/>
<path d="M334.025 115.959C332.37 116.632 330.74 117.761 329.654 119.185C327.59 121.892 328.493 124.894 330.425 127.397C330.569 127.583 330.826 127.322 330.684 127.138C328.568 124.399 328.039 121.232 330.627 118.636C331.597 117.663 332.838 116.834 334.118 116.314C334.334 116.226 334.243 115.87 334.025 115.959Z" fill="#263238"/>
<path d="M333.498 139.345C334.341 140.188 334.341 141.555 333.498 142.399C332.655 143.242 331.288 143.242 330.444 142.399C329.601 141.556 329.601 140.189 330.444 139.345C331.287 138.502 332.655 138.502 333.498 139.345Z" fill="#5BE9B9"/>
<path d="M342.156 130.687C342.999 131.53 342.999 132.897 342.156 133.741C341.313 134.584 339.945 134.584 339.102 133.741C338.259 132.898 338.259 131.531 339.102 130.687C339.945 129.844 341.312 129.844 342.156 130.687Z" fill="#5BE9B9"/>
<path d="M340.265 144.038C341.108 144.881 341.108 146.249 340.265 147.092C339.422 147.935 338.055 147.935 337.211 147.092C336.368 146.249 336.368 144.881 337.211 144.038C338.054 143.195 339.422 143.195 340.265 144.038Z" fill="#5BE9B9"/>
<path d="M346.849 137.454C347.692 138.297 347.692 139.665 346.849 140.508C346.006 141.351 344.639 141.351 343.795 140.508C342.952 139.665 342.952 138.297 343.795 137.454C344.639 136.611 346.006 136.611 346.849 137.454Z" fill="#5BE9B9"/>
<g opacity="0.7">
<path d="M333.498 139.345C334.341 140.188 334.341 141.555 333.498 142.399C332.655 143.242 331.288 143.242 330.444 142.399C329.601 141.556 329.601 140.189 330.444 139.345C331.287 138.502 332.655 138.502 333.498 139.345Z" fill="white"/>
<path d="M342.156 130.687C342.999 131.53 342.999 132.897 342.156 133.741C341.313 134.584 339.945 134.584 339.102 133.741C338.259 132.898 338.259 131.531 339.102 130.687C339.945 129.844 341.312 129.844 342.156 130.687Z" fill="white"/>
<path d="M340.264 144.038C341.107 144.881 341.107 146.249 340.264 147.092C339.421 147.935 338.054 147.935 337.21 147.092C336.367 146.249 336.367 144.881 337.21 144.038C338.053 143.195 339.421 143.195 340.264 144.038Z" fill="white"/>
<path d="M346.848 137.454C347.691 138.297 347.691 139.665 346.848 140.508C346.005 141.351 344.638 141.351 343.794 140.508C342.951 139.665 342.951 138.297 343.794 137.454C344.638 136.611 346.005 136.611 346.848 137.454Z" fill="white"/>
</g>
<path d="M341.859 157.223L336.899 158.097L337.774 163.057L342.733 162.182L341.859 157.223Z" fill="black"/>
<path opacity="0.5" d="M341.859 157.223L336.899 158.097L337.774 163.057L342.733 162.182L341.859 157.223Z" fill="white"/>
<path d="M345.89 190.142L344.4 190.405C342.814 190.685 341.301 189.626 341.021 188.039L336.887 164.593C336.607 163.007 337.666 161.494 339.253 161.214L340.743 160.951C342.329 160.671 343.842 161.73 344.122 163.317L348.256 186.763C348.535 188.35 347.476 189.863 345.89 190.142Z" fill="black"/>
<path opacity="0.1" d="M344.303 114.418C344.433 114.967 344.551 115.522 344.651 116.085C347.466 132.048 336.807 147.271 320.843 150.086C320.28 150.185 319.718 150.263 319.157 150.33C324.151 155.584 331.597 158.318 339.27 156.965C351.438 154.82 359.562 143.216 357.417 131.049C356.064 123.375 350.948 117.314 344.303 114.418Z" fill="black"/>
<path d="M330.944 109.741C317.031 112.194 307.741 125.462 310.194 139.375C312.647 153.288 325.915 162.579 339.828 160.125C353.741 157.672 363.032 144.404 360.578 130.491C358.126 116.578 344.858 107.288 330.944 109.741ZM338.953 155.161C327.782 157.131 317.129 149.671 315.159 138.5C313.189 127.329 320.649 116.676 331.82 114.706C342.991 112.736 353.644 120.196 355.614 131.367C357.584 142.538 350.125 153.191 338.953 155.161Z" fill="#5BE9B9"/>
<path d="M415.96 163.314C416.94 164.843 417.777 166.309 418.635 167.826C419.489 169.332 420.3 170.86 421.082 172.407C422.648 175.5 424.085 178.675 425.362 181.96C426.017 183.593 426.577 185.285 427.116 186.995L427.22 187.325L427.355 187.862C427.449 188.215 427.503 188.587 427.545 188.962C427.64 189.707 427.604 190.472 427.503 191.204C427.281 192.673 426.714 193.946 426.049 194.977C424.683 197.038 423.026 198.307 421.372 199.336C420.535 199.838 419.696 200.286 418.826 200.648C417.945 201.024 417.132 201.341 416.138 201.622L414.244 197.587C415.368 196.653 416.594 195.56 417.555 194.498C418.533 193.442 419.336 192.304 419.624 191.412C419.773 190.973 419.807 190.632 419.75 190.42C419.714 190.313 419.686 190.229 419.639 190.143C419.618 190.101 419.604 190.057 419.565 190.009C419.55 189.985 419.538 189.962 419.528 189.937L419.419 189.672C418.832 188.205 418.188 186.748 417.511 185.283C416.151 182.363 414.661 179.458 413.1 176.579L410.729 172.27L408.306 168.05L415.96 163.314Z" fill="#FFC3BD"/>
<path d="M416.313 197.037L411.907 195.892L411.654 203.006C411.654 203.006 415.101 203.518 417.211 201.41L416.313 197.037Z" fill="#FFC3BD"/>
<path d="M405.664 194.693L406.658 200.938L411.655 203.006L411.908 195.892L405.664 194.693Z" fill="#FFC3BD"/>
<path d="M387.437 134.614C387.338 135.101 387 135.443 386.681 135.379C386.363 135.314 386.185 134.867 386.284 134.38C386.383 133.893 386.721 133.551 387.039 133.616C387.358 133.68 387.536 134.127 387.437 134.614Z" fill="#263238"/>
<path d="M387.045 135.453C387.045 135.453 385.367 138.037 383.872 139.145C384.57 140.124 386.11 140.054 386.11 140.054L387.045 135.453Z" fill="#ED847E"/>
<path d="M389.77 132.273C389.841 132.273 389.912 132.247 389.968 132.196C390.086 132.087 390.094 131.902 389.984 131.784C388.888 130.598 387.559 130.809 387.501 130.818C387.342 130.845 387.235 130.996 387.262 131.155C387.289 131.314 387.442 131.42 387.597 131.394C387.641 131.387 388.68 131.234 389.555 132.18C389.613 132.241 389.692 132.273 389.77 132.273Z" fill="#263238"/>
<path d="M401.309 141.463C400.425 145.97 399.544 154.228 402.697 157.235C402.697 157.235 401.465 161.807 393.091 161.807C383.882 161.807 388.69 157.236 388.69 157.236C393.716 156.036 393.586 152.307 392.711 148.805L401.309 141.463Z" fill="#FFC3BD"/>
<path d="M404.513 158.071C405.186 156.819 405.928 155.386 404.394 154.937C402.707 154.443 391.869 153.527 388.685 154.454C389.663 156.194 388.007 158.333 388.007 158.333L404.513 158.071Z" fill="#5BE9B9"/>
<path opacity="0.3" d="M404.513 158.071C405.186 156.819 405.928 155.386 404.394 154.937C402.707 154.443 391.869 153.527 388.685 154.454C389.663 156.194 388.007 158.333 388.007 158.333L404.513 158.071Z" fill="black"/>
<path d="M394.946 368.898H388.786L388.172 354.632H394.333L394.946 368.898Z" fill="#FFC3BD"/>
<path d="M440.163 366.047L434.142 367.35L428.097 354.062L434.118 352.758L440.163 366.047Z" fill="#FFC3BD"/>
<path d="M433.563 366.746L440.327 365.281C440.573 365.228 440.823 365.353 440.929 365.581L443.277 370.675C443.521 371.204 443.198 371.823 442.627 371.937C440.257 372.408 439.079 372.517 436.105 373.162C434.275 373.558 430.144 374.565 427.616 375.112C425.144 375.647 424.218 373.232 425.203 372.781C429.622 370.762 431.469 368.984 432.665 367.327C432.881 367.029 433.203 366.824 433.563 366.746Z" fill="#263238"/>
<path d="M388.825 368.185H395.553C395.805 368.185 396.023 368.36 396.078 368.606L397.295 374.082C397.421 374.65 396.99 375.188 396.409 375.178C393.982 375.137 390.475 374.994 387.425 374.994C383.858 374.994 380.778 375.188 376.595 375.188C374.066 375.188 373.364 372.631 374.423 372.4C379.242 371.346 383.177 371.233 387.342 368.665C387.794 368.386 388.294 368.185 388.825 368.185Z" fill="#263238"/>
<path d="M413.726 158.628C419.5 159.952 424.261 174.692 424.261 174.692L412.666 183.53C412.666 183.53 408.411 179.518 406.516 172.144C404.532 164.419 407.822 157.275 413.726 158.628Z" fill="#5BE9B9"/>
<path opacity="0.2" d="M408.779 169.468C411.915 172.571 412.938 178.223 413.182 183.137L412.67 183.531C412.67 183.531 408.41 179.514 406.515 172.143C406.398 171.682 406.297 171.22 406.213 170.768L408.779 169.468Z" fill="black"/>
<path d="M379.214 158.946C379.214 158.946 372.657 166.352 378.849 212.194C388.777 212.194 406.969 212.194 411.8 212.194C412.027 207.136 408.849 182.461 413.727 158.628C413.727 158.628 408.079 157.495 402.697 157.235C398.487 157.032 392.391 156.898 388.69 157.236C383.81 157.681 379.214 158.946 379.214 158.946Z" fill="#46B38E"/>
<path opacity="0.2" d="M376.333 172.957L376.459 172.848L383.948 174.642C384.376 179.707 379.168 185.762 376.485 188.529C376.115 182.064 376.123 176.965 376.333 172.957Z" fill="black"/>
<path opacity="0.2" d="M388.174 354.636L388.489 361.99H394.652L394.337 354.636H388.174Z" fill="black"/>
<path opacity="0.2" d="M434.121 352.762L428.097 354.066L431.216 360.914L437.24 359.61L434.121 352.762Z" fill="black"/>
<path d="M403.889 136.883C402.306 142.789 401.68 146.326 398.036 148.781C392.554 152.475 385.729 148.236 385.515 141.976C385.323 136.342 387.943 127.63 394.281 126.44C400.525 125.268 405.472 130.978 403.889 136.883Z" fill="#FFC3BD"/>
<path d="M390.537 212.194C390.537 212.194 397.528 259.274 401.367 276.912C405.57 296.227 428.108 360.13 428.108 360.13L439.136 357.742C439.136 357.742 423.376 305.665 419.849 278.662C418.69 269.79 417.05 261.347 415.552 248.867C414.998 244.249 415.463 234.763 414.98 230.689C414.471 226.401 413.019 222.569 412.66 219.521C412.127 214.993 411.8 212.193 411.8 212.193L390.537 212.194Z" fill="#5BE9B9"/>
<path d="M425.468 356.449C425.421 356.459 427.523 360.437 427.523 360.437L439.931 357.751L438.885 354.021L425.468 356.449Z" fill="#5BE9B9"/>
<path opacity="0.3" d="M425.468 356.449C425.421 356.459 427.523 360.437 427.523 360.437L439.931 357.751L438.885 354.021L425.468 356.449Z" fill="black"/>
<path opacity="0.3" d="M394.957 228.968C403.041 230.553 402.186 260.7 401.213 276.206C398.882 265.246 395.469 244.155 393.137 229.186C393.673 228.918 394.277 228.834 394.957 228.968Z" fill="black"/>
<path d="M378.849 212.194C378.849 212.194 378.001 258.255 378.671 277.042C379.368 296.583 386.193 360.566 386.193 360.566H396.629C396.629 360.566 397.012 297.725 397.476 278.534C397.982 257.612 400.508 212.195 400.508 212.195H378.849V212.194Z" fill="#5BE9B9"/>
<path d="M384.184 356.409C384.136 356.409 384.773 360.742 384.773 360.742H397.468L397.811 356.875L384.184 356.409Z" fill="#5BE9B9"/>
<path opacity="0.3" d="M384.184 356.409C384.136 356.409 384.773 360.742 384.773 360.742H397.468L397.811 356.875L384.184 356.409Z" fill="black"/>
<path d="M376.32 164.652C375.37 166.136 374.288 167.79 373.21 169.325C372.11 170.873 371.002 172.41 369.849 173.903C368.694 175.385 367.519 176.855 366.284 178.223C365.686 178.939 365.039 179.567 364.419 180.247C363.772 180.863 363.138 181.532 362.476 182.101L361.489 182.979L360.48 183.768L360.066 184.093C359.788 184.048 359.41 183.945 359.008 183.769C358.35 183.486 357.608 183.106 356.874 182.649C353.917 180.8 350.882 178.234 348.03 175.731L344.562 178.532C346.806 182.108 349.273 185.348 352.641 188.317C353.497 189.049 354.411 189.774 355.509 190.419C356.612 191.053 357.863 191.701 359.688 191.967C360.598 192.085 361.698 192.061 362.831 191.7C363.385 191.536 363.968 191.244 364.426 190.963L365.135 190.496C365.605 190.182 366.088 189.873 366.547 189.55L367.868 188.544C371.341 185.814 374.196 182.705 376.879 179.498C378.182 177.87 379.462 176.233 380.64 174.528C381.832 172.805 382.954 171.155 384.062 169.242L376.32 164.652ZM360.44 184.109C360.389 184.128 360.276 184.123 360.141 184.105C360.175 184.095 360.211 184.084 360.236 184.078C360.43 184.044 360.514 184.081 360.44 184.109Z" fill="#FFC3BD"/>
<path d="M388.277 168.264C390.248 176.524 375.303 184.612 375.303 184.612L365.596 173.239C365.596 173.239 370.015 166.542 375.513 161.266C382.304 154.748 386.777 161.977 388.277 168.264Z" fill="#5BE9B9"/>
<path d="M345.425 179.49L339.838 174.184L345.198 170.103C345.198 170.103 349.625 173.263 348.52 177.612L345.425 179.49Z" fill="#FFC3BD"/>
<path d="M338.076 172.113L341.822 167.896L345.197 170.103L339.837 174.183L338.076 172.113Z" fill="#FFC3BD"/>
<path d="M391.304 135.453C391.304 135.453 387.974 131.609 388.471 127.98C388.471 127.98 385.367 122.778 388.268 120.942C391.168 119.106 392.981 123.044 392.981 123.044C392.981 123.044 394.856 118.981 397.544 119.481C400.232 119.981 399.576 123.544 399.576 123.544C399.576 123.544 403.169 120.405 405.419 121.381C407.669 122.357 406.357 125.857 406.357 125.857C406.357 125.857 410.034 125.161 410.883 127.446C411.732 129.732 409.537 131.125 409.537 131.125C409.537 131.125 412.845 132.362 412.945 135.453C413.045 138.544 409.483 138.223 409.483 138.223C409.483 138.223 408.875 142.815 401.806 146.732C401.36 146.979 400.824 147.041 400.338 146.885C399.759 146.7 398.806 146.54 397.541 146.823C396.808 146.987 396.048 146.693 395.595 146.095C394.63 144.82 393.109 142.741 392.672 141.731C392.029 140.257 391.304 135.453 391.304 135.453Z" fill="#263238"/>
<path opacity="0.3" d="M406.418 139.044C404.23 142.982 401.543 136.596 401.543 136.596C399.522 141.719 395.793 134.794 395.793 134.794C394.855 138.419 391.305 135.453 391.305 135.453C391.305 135.453 392.03 140.258 392.668 141.732C393.106 142.742 394.625 144.821 395.591 146.096C396.045 146.695 396.805 146.988 397.538 146.824C398.803 146.54 399.756 146.7 400.335 146.886C400.821 147.042 401.357 146.98 401.803 146.733C408.872 142.817 409.48 138.224 409.48 138.224C408.543 141.338 406.418 139.044 406.418 139.044Z" fill="white"/>
<path d="M384.29 136.963C384.198 136.963 384.106 136.95 384.015 136.924C383.713 136.837 383.484 136.633 383.352 136.335C382.765 135.006 384.336 131.746 384.517 131.378L384.698 131.011L391.497 135.132L391.108 135.774L386.624 133.056C386.428 133.909 385.82 136.208 384.84 136.802C384.664 136.908 384.477 136.963 384.29 136.963ZM385.015 132.08C384.419 133.382 383.733 135.339 384.039 136.032C384.092 136.151 384.162 136.186 384.224 136.203C384.278 136.22 384.346 136.226 384.452 136.161C385.098 135.769 385.708 133.809 385.947 132.645L385.015 132.08Z" fill="#5BE9B9"/>
<path d="M393.841 137.131C393.439 138.681 392.421 140.014 391.355 140.807C389.752 142 388.554 140.826 388.668 139.011C388.771 137.378 389.728 134.79 391.497 134.306C393.239 133.829 394.3 135.358 393.841 137.131Z" fill="#FFC3BD"/>
<path d="M204.886 331.731H156.417C153.961 331.731 151.757 330.223 150.868 327.934L132.129 279.734C130.32 275.081 125.082 272.776 120.429 274.585C120.429 274.585 71.1407 272.776 66.4877 274.585L62.8037 276.017L87.1137 338.546C88.5607 342.269 92.1457 344.722 96.1407 344.722H150.082H159.984H213.925V340.77C213.926 335.778 209.879 331.731 204.886 331.731Z" fill="#5BE9B9"/>
<path opacity="0.3" d="M204.886 331.731H156.417C153.961 331.731 151.757 330.223 150.868 327.934L132.129 279.734C130.32 275.081 125.082 272.776 120.429 274.585C120.429 274.585 71.1407 272.776 66.4877 274.585L62.8037 276.017L87.1137 338.546C88.5607 342.269 92.1457 344.722 96.1407 344.722H150.082H159.984H213.925V340.77C213.926 335.778 209.879 331.731 204.886 331.731Z" fill="white"/>
<path opacity="0.2" d="M96.9267 327.934L78.1877 279.734C76.3787 275.081 71.1407 272.776 66.4877 274.585L62.8037 276.017L87.1137 338.546C88.5607 342.269 92.1457 344.722 96.1407 344.722H159.984V340.77C159.984 335.778 155.937 331.731 150.945 331.731H102.476C100.021 331.731 97.8167 330.223 96.9267 327.934Z" fill="black"/>
<path d="M205.415 350.043H139.654L132.767 374.943H136.631L144.062 359.169H201.007L208.438 374.943H212.302L205.415 350.043Z" fill="#263238"/>
<path opacity="0.2" d="M205.415 350.043H139.654L132.767 374.943H136.631L144.062 359.169H201.007L208.438 374.943H212.302L205.415 350.043Z" fill="white"/>
<path d="M202.292 350.043H136.532L129.644 374.943H133.509L140.94 359.169H197.885L205.316 374.943H209.18L202.292 350.043Z" fill="#263238"/>
<path opacity="0.3" d="M202.292 350.043H136.532L129.644 374.943H133.509L140.94 359.169H197.885L205.316 374.943H209.18L202.292 350.043Z" fill="white"/>
<path d="M158.581 350.043H92.8206L85.9326 374.943H89.7976L97.2286 359.169H154.173L161.605 374.943H165.469L158.581 350.043Z" fill="#263238"/>
<path opacity="0.2" d="M158.581 350.043H92.8206L85.9326 374.943H89.7976L97.2286 359.169H154.173L161.605 374.943H165.469L158.581 350.043Z" fill="white"/>
<path d="M155.459 350.043H89.6975L82.8105 374.943H86.6746L94.1056 359.169H151.051L158.482 374.943H162.346L155.459 350.043Z" fill="#263238"/>
<path opacity="0.4" d="M155.459 350.043H89.6975L82.8105 374.943H86.6746L94.1056 359.169H151.051L158.482 374.943H162.346L155.459 350.043Z" fill="white"/>
<path d="M153.984 344.722H93.8018V350.043H153.984V344.722Z" fill="#263238"/>
<path opacity="0.2" d="M153.984 344.722H93.8018V350.043H153.984V344.722Z" fill="white"/>
<path d="M201.165 344.722H153.983V350.043H201.165V344.722Z" fill="#263238"/>
<path opacity="0.1" d="M201.165 344.722H153.983V350.043H201.165V344.722Z" fill="white"/>
<path d="M163.681 324.296L175.198 328.984L173.897 333.854L161.603 331.321L163.681 324.296Z" fill="#CE7A63"/>
<path d="M124.351 307.676C124.351 307.676 179.476 288.581 184.022 306.125C188.567 323.67 146.792 335.772 124.905 335.035C103.016 334.299 124.351 307.676 124.351 307.676Z" fill="#263238"/>
<path opacity="0.3" d="M124.351 307.676C124.351 307.676 179.476 288.581 184.022 306.125C188.567 323.67 146.792 335.772 124.905 335.035C103.016 334.299 124.351 307.676 124.351 307.676Z" fill="black"/>
<path opacity="0.7" d="M165.331 309.453L138.583 326.503L142.853 333.509C142.853 333.509 140.267 334.369 136.689 325.81L153.245 314.866C153.245 314.866 148.06 314.346 148.194 313.533C148.412 312.211 159.786 309.673 164.978 308.581C165.499 308.472 165.78 309.167 165.331 309.453Z" fill="black"/>
<path opacity="0.7" d="M137.61 325.752L142.247 333.615C135.954 334.7 129.909 335.205 124.904 335.037C122.572 334.958 120.734 334.584 119.305 333.981L117.678 330.862L121.186 323.467L137.61 325.752Z" fill="black"/>
<path d="M138.082 326.959L132.874 331.324L135.266 335.037L143.193 333.798L138.082 326.959Z" fill="#CE7A63"/>
<path d="M144.586 333.93L139.144 325.354L136.689 327.108L141.395 334.511L144.586 333.93Z" fill="#5BE9B9"/>
<path d="M104.975 325.939C102.01 320.912 96.2883 305.784 110.046 303.151C123.803 300.518 168.995 325.939 168.995 325.939L166.891 332.554L124.1 325.495C124.1 325.495 135.997 336.261 122.984 334.923C112.661 333.862 107.857 330.826 104.975 325.939Z" fill="#263238"/>
<path d="M167.881 324.296L165.206 332.933L167.881 333.305L170.292 325.844L167.881 324.296Z" fill="#5BE9B9"/>
<path d="M132.554 330.172L136.674 335.07C136.829 335.255 136.836 335.522 136.69 335.714L133.45 339.951C133.165 340.329 132.628 340.405 132.25 340.12C132.201 340.083 132.157 340.042 132.117 339.996C130.662 338.204 129.438 336.553 127.586 334.357C125.403 331.763 125.646 332.683 123.037 329.669C121.467 327.851 123.273 325.758 124.031 326.451C127.48 329.64 128.868 329.104 131.302 329.406C131.799 329.501 132.244 329.773 132.554 330.172Z" fill="#5BE9B9"/>
<path opacity="0.3" d="M132.554 330.172L136.674 335.07C136.829 335.255 136.836 335.522 136.69 335.714L133.45 339.951C133.165 340.329 132.628 340.405 132.25 340.12C132.201 340.083 132.157 340.042 132.117 339.996C130.662 338.204 129.438 336.553 127.586 334.357C125.403 331.763 125.646 332.683 123.037 329.669C121.467 327.851 123.273 325.758 124.031 326.451C127.48 329.64 128.868 329.104 131.302 329.406C131.799 329.501 132.244 329.773 132.554 330.172Z" fill="black"/>
<path d="M174.267 328.367L172.257 334.46C172.181 334.69 172.275 334.941 172.482 335.065L177.075 337.802C177.481 338.048 178.009 337.918 178.255 337.513C178.287 337.461 178.312 337.406 178.332 337.348C179.019 335.139 179.543 333.146 180.449 330.413C181.515 327.187 181.631 328.133 182.937 324.357C183.721 322.081 181.261 320.806 180.814 321.732C178.792 325.984 177.3 326.002 175.148 327.189C174.719 327.46 174.406 327.879 174.267 328.367Z" fill="#5BE9B9"/>
<path opacity="0.3" d="M174.267 328.367L172.257 334.46C172.181 334.69 172.275 334.941 172.482 335.065L177.075 337.802C177.481 338.048 178.009 337.918 178.255 337.513C178.287 337.461 178.312 337.406 178.332 337.348C179.019 335.139 179.543 333.146 180.449 330.413C181.515 327.187 181.631 328.133 182.937 324.357C183.721 322.081 181.261 320.806 180.814 321.732C178.792 325.984 177.3 326.002 175.148 327.189C174.719 327.46 174.406 327.879 174.267 328.367Z" fill="black"/>
<path d="M141.499 270.972C141.499 270.972 145.136 288.87 147.587 291.838C150.039 294.807 160.724 302.791 160.724 302.791L167.073 301.458L171.624 305.257L168.649 307.605L165.126 306.28C165.126 306.28 162.592 306.784 159.309 306.784C156.026 306.784 142.7 298.943 140.058 294.54C137.416 290.137 133.718 273.581 133.718 273.581L141.499 270.972Z" fill="#CE7A63"/>
<path d="M133.614 276.207C133.614 276.207 129.001 262.242 135.079 257.519C141.157 252.796 144.007 273.62 144.007 273.62L133.614 276.207Z" fill="#5BE9B9"/>
<path d="M132.371 275.01L133.302 277.404L144.943 274.411L144.477 272.017L132.371 275.01Z" fill="#5BE9B9"/>
<path d="M102.016 309.889C102.016 309.889 94.5072 287.123 104.481 257.519C104.481 257.519 117.424 251.496 135.881 255.914C137.998 256.421 139.281 258.562 138.738 260.67C136.891 267.849 134.036 284.968 140.93 306.605C140.932 306.605 123.747 309.464 102.016 309.889Z" fill="#5BE9B9"/>
<path opacity="0.8" d="M102.016 309.889C102.016 309.889 94.5072 287.123 104.481 257.519C104.481 257.519 117.424 251.496 135.881 255.914C137.998 256.421 139.281 258.562 138.738 260.67C136.891 267.849 134.036 284.968 140.93 306.605C140.932 306.605 123.747 309.464 102.016 309.889Z" fill="white"/>
<path d="M123.054 258.756C123.054 258.756 125.387 261.339 127.429 258.756L128.554 258.589C128.554 258.589 128.471 261.339 126.971 262.256C126.971 262.256 130.008 275.702 132.115 295.583L130.068 297.022L127.585 295.583C127.585 295.583 128.197 286.915 125.448 262.464C125.448 262.464 122.43 261.506 121.513 258.589L123.054 258.756Z" fill="#263238"/>
<path d="M119.198 254.431L125.447 259.843L129.076 256.629C127.704 255.607 128.08 253.302 128.846 250.813L119.984 243.817C120.433 247.103 120.773 251.612 119.198 254.431Z" fill="#CE7A63"/>
<path d="M111.167 266.445C111.167 266.445 115.154 286.066 117.842 289.321C120.53 292.575 132.244 301.328 132.244 301.328L139.205 299.867L144.195 304.031L140.933 306.605L137.071 305.153C137.071 305.153 134.293 305.705 130.694 305.705C127.095 305.705 112.486 297.109 109.589 292.282C106.693 287.455 102.638 269.305 102.638 269.305L111.167 266.445Z" fill="#CE7A63"/>
<path d="M116.894 254.567L119.375 253.128L125.448 259.844C125.448 259.844 122.109 258.48 121.171 259.032C120.324 259.53 120.915 261.681 119.933 261.698C117.748 261.735 116.894 254.567 116.894 254.567Z" fill="#5BE9B9"/>
<path d="M125.447 259.843L128.615 253.59L131.204 254.988C131.204 254.988 133.613 261.057 131.772 261.697C130.652 262.086 130.223 259.248 129.111 258.837C128.22 258.508 125.447 259.843 125.447 259.843Z" fill="#5BE9B9"/>
<path d="M103.016 276.207C103.016 276.207 98.4033 262.242 104.481 257.519C110.559 252.796 113.409 273.62 113.409 273.62L103.016 276.207Z" fill="#5BE9B9"/>
<path d="M101.773 275.01L102.704 277.404L114.344 274.411L113.879 272.017L101.773 275.01Z" fill="#5BE9B9"/>
<path opacity="0.1" d="M120.129 244.981C120.083 244.581 120.034 244.19 119.983 243.817L128.845 250.813C128.516 251.88 128.27 252.907 128.19 253.822C122.837 253.868 120.81 247.952 120.129 244.981Z" fill="black"/>
<path d="M121.654 233.609C119.809 239.858 118.89 242.492 120.843 246.702C123.774 253.11 131.854 254.009 135.527 248.436C138.812 243.414 141.335 234.045 136.2 229.432C132.572 226.126 126.95 226.388 123.644 230.016C122.709 231.042 122.028 232.272 121.654 233.609Z" fill="#CE7A63"/>
<path d="M129.159 240.96C128.983 241.459 129.097 241.955 129.425 242.076C129.752 242.197 130.162 241.887 130.338 241.388C130.514 240.889 130.406 240.394 130.079 240.273C129.751 240.152 129.341 240.462 129.159 240.96Z" fill="#263238"/>
<path d="M134.788 243.003C134.605 243.501 134.725 244.004 135.047 244.119C135.369 244.233 135.784 243.93 135.967 243.432C136.15 242.934 136.029 242.437 135.708 242.317C135.387 242.196 134.971 242.505 134.788 243.003Z" fill="#263238"/>
<path d="M132.267 242.195C132.299 243.491 132.507 244.776 132.885 246.016C132.239 246.198 131.546 246.085 130.991 245.707L132.267 242.195Z" fill="#BA4D3C"/>
<path d="M128.499 236.558C128.563 236.677 128.696 236.743 128.83 236.72C130.261 236.504 131.566 237.836 131.575 237.848C131.694 237.973 131.892 237.977 132.017 237.858C132.142 237.739 132.147 237.541 132.028 237.416C131.951 237.378 130.486 235.835 128.74 236.096C128.571 236.124 128.455 236.282 128.478 236.452C128.477 236.489 128.484 236.525 128.499 236.558Z" fill="#263238"/>
<path d="M137.943 240.59C138.049 240.625 138.165 240.603 138.251 240.532C138.378 240.419 138.393 240.225 138.285 240.094C137.655 239.305 136.68 238.873 135.672 238.935C135.5 238.956 135.377 239.112 135.398 239.284C135.419 239.456 135.575 239.579 135.747 239.558C136.544 239.524 137.309 239.874 137.803 240.5C137.843 240.541 137.89 240.571 137.943 240.59Z" fill="#263238"/>
<path d="M120.437 237.254C120.437 237.254 122.781 237.199 122.453 234.523C122.453 234.523 126.331 234.414 126.495 231.573C126.495 231.573 129.882 234.577 131.084 232.228C131.084 232.228 135.236 235.943 135.782 233.485C135.782 233.485 140.098 238.838 139.879 235.561C139.879 235.561 144.741 235.069 140.371 230.863C140.371 230.863 144.359 227.367 137.913 225.947C137.913 225.947 138.477 221.802 133.938 223.626C133.938 223.626 132.887 219.12 128.954 221.742C128.954 221.742 126.829 218.574 124.505 222.834C124.505 222.834 121.076 220.87 119.984 225.295C119.984 225.295 113.778 226.05 116.338 230.126C116.338 230.126 118.253 243.818 119.984 243.818C121.161 243.818 120.437 237.254 120.437 237.254Z" fill="#263238"/>
<path d="M129.237 247.669C129.457 247.733 129.682 247.779 129.91 247.805C129.983 247.817 130.053 247.768 130.065 247.695C130.065 247.693 130.065 247.692 130.066 247.69C130.071 247.614 130.015 247.549 129.94 247.54C128.773 247.415 127.735 246.744 127.142 245.732C127.109 245.664 127.027 245.636 126.959 245.669C126.891 245.702 126.863 245.784 126.896 245.852C127.399 246.748 128.243 247.404 129.237 247.669Z" fill="#263238"/>
<path d="M170.508 308.853H145.704C144.535 308.853 143.588 307.905 143.588 306.737H172.625C172.624 307.905 171.677 308.853 170.508 308.853Z" fill="#263238"/>
<path opacity="0.2" d="M170.508 308.853H145.704C144.535 308.853 143.588 307.905 143.588 306.737H172.625C172.624 307.905 171.677 308.853 170.508 308.853Z" fill="white"/>
<path d="M152.249 308.853H134.23C133.061 308.853 132.114 307.905 132.114 306.737H154.365C154.365 307.905 153.418 308.853 152.249 308.853Z" fill="#263238"/>
<path opacity="0.5" d="M152.249 308.853H134.23C133.061 308.853 132.114 307.905 132.114 306.737H154.365C154.365 307.905 153.418 308.853 152.249 308.853Z" fill="white"/>
<path d="M170.683 308.206H154.357C154.012 308.206 153.77 307.865 153.884 307.539L161.146 286.794C161.346 286.222 161.885 285.84 162.491 285.84H178.818C179.163 285.84 179.405 286.181 179.291 286.507L172.029 307.252C171.828 307.823 171.289 308.206 170.683 308.206Z" fill="#263238"/>
<path opacity="0.5" d="M170.683 308.206H154.357C154.012 308.206 153.77 307.865 153.884 307.539L161.146 286.794C161.346 286.222 161.885 285.84 162.491 285.84H178.818C179.163 285.84 179.405 286.181 179.291 286.507L172.029 307.252C171.828 307.823 171.289 308.206 170.683 308.206Z" fill="white"/>
<path d="M171.323 308.206H154.996C154.651 308.206 154.409 307.865 154.523 307.539L161.785 286.794C161.985 286.222 162.525 285.84 163.13 285.84H179.456C179.801 285.84 180.043 286.181 179.929 286.507L172.667 307.252C172.468 307.823 171.929 308.206 171.323 308.206Z" fill="#263238"/>
<path opacity="0.7" d="M171.323 308.206H154.996C154.651 308.206 154.409 307.865 154.523 307.539L161.785 286.794C161.985 286.222 162.525 285.84 163.13 285.84H179.456C179.801 285.84 180.043 286.181 179.929 286.507L172.667 307.252C172.468 307.823 171.929 308.206 171.323 308.206Z" fill="white"/>
<path d="M168.609 297.023C168.44 297.818 167.89 298.462 167.381 298.462C166.872 298.462 166.596 297.818 166.765 297.023C166.934 296.228 167.484 295.584 167.993 295.584C168.502 295.583 168.778 296.228 168.609 297.023Z" fill="white"/>
<path opacity="0.3" d="M121.637 232.214C121.637 232.214 120.387 232.84 119.512 232.214C118.637 231.588 119.753 229.84 119.753 229.84C117.536 231.132 116.337 230.126 116.337 230.126C116.337 230.126 118.252 243.818 119.983 243.818C121.161 243.818 120.437 237.254 120.437 237.254C120.437 237.254 122.781 237.199 122.453 234.523C120.353 234.122 121.637 232.214 121.637 232.214Z" fill="white"/>
<path d="M138.325 241.278C138.086 240.556 137.607 240.031 136.975 239.8C135.749 239.352 134.312 240.172 133.663 241.637L132.464 241.151C132.59 240.523 132.541 239.88 132.3 239.298C131.994 238.556 131.427 238.002 130.704 237.737C129.428 237.27 128.005 237.849 127.253 239.042L125.718 238.423L121.635 236.162L121.393 236.6L125.504 238.874L127.025 239.489C126.997 239.553 126.96 239.61 126.936 239.677C126.65 240.457 126.661 241.293 126.966 242.032C127.272 242.774 127.839 243.328 128.562 243.593C128.861 243.703 129.172 243.757 129.484 243.757C129.926 243.757 130.37 243.648 130.788 243.432C131.498 243.065 132.046 242.433 132.331 241.654C132.333 241.649 132.333 241.644 132.335 241.639L133.491 242.107C133.282 242.812 133.27 243.537 133.482 244.177C133.721 244.899 134.2 245.424 134.832 245.655C135.061 245.739 135.3 245.78 135.542 245.78C135.968 245.78 136.405 245.652 136.818 245.398C137.458 245.007 137.966 244.364 138.251 243.587C138.533 242.81 138.561 241.99 138.325 241.278ZM130.671 243.209C130.021 243.545 129.302 243.597 128.646 243.357C127.99 243.117 127.475 242.612 127.195 241.935C126.914 241.255 126.905 240.483 127.169 239.762C127.604 238.576 128.679 237.824 129.787 237.824C130.065 237.824 130.346 237.871 130.619 237.971C131.275 238.211 131.79 238.716 132.07 239.393C132.351 240.073 132.36 240.845 132.096 241.566C131.831 242.289 131.325 242.871 130.671 243.209ZM138.014 243.5C137.748 244.224 137.277 244.823 136.685 245.185C136.103 245.542 135.476 245.624 134.916 245.42C134.357 245.215 133.932 244.746 133.717 244.098C133.499 243.44 133.525 242.679 133.79 241.955C134.24 240.728 135.268 239.927 136.268 239.927C136.478 239.927 136.686 239.962 136.888 240.036C137.447 240.24 137.872 240.71 138.087 241.358C138.305 242.015 138.28 242.776 138.014 243.5Z" fill="#5BE9B9"/>
<path opacity="0.5" d="M138.325 241.278C138.086 240.556 137.607 240.031 136.975 239.8C135.749 239.352 134.312 240.172 133.663 241.637L132.464 241.151C132.59 240.523 132.541 239.88 132.3 239.298C131.994 238.556 131.427 238.002 130.704 237.737C129.428 237.27 128.005 237.849 127.253 239.042L125.718 238.423L121.635 236.162L121.393 236.6L125.504 238.874L127.025 239.489C126.997 239.553 126.96 239.61 126.936 239.677C126.65 240.457 126.661 241.293 126.966 242.032C127.272 242.774 127.839 243.328 128.562 243.593C128.861 243.703 129.172 243.757 129.484 243.757C129.926 243.757 130.37 243.648 130.788 243.432C131.498 243.065 132.046 242.433 132.331 241.654C132.333 241.649 132.333 241.644 132.335 241.639L133.491 242.107C133.282 242.812 133.27 243.537 133.482 244.177C133.721 244.899 134.2 245.424 134.832 245.655C135.061 245.739 135.3 245.78 135.542 245.78C135.968 245.78 136.405 245.652 136.818 245.398C137.458 245.007 137.966 244.364 138.251 243.587C138.533 242.81 138.561 241.99 138.325 241.278ZM130.671 243.209C130.021 243.545 129.302 243.597 128.646 243.357C127.99 243.117 127.475 242.612 127.195 241.935C126.914 241.255 126.905 240.483 127.169 239.762C127.604 238.576 128.679 237.824 129.787 237.824C130.065 237.824 130.346 237.871 130.619 237.971C131.275 238.211 131.79 238.716 132.07 239.393C132.351 240.073 132.36 240.845 132.096 241.566C131.831 242.289 131.325 242.871 130.671 243.209ZM138.014 243.5C137.748 244.224 137.277 244.823 136.685 245.185C136.103 245.542 135.476 245.624 134.916 245.42C134.357 245.215 133.932 244.746 133.717 244.098C133.499 243.44 133.525 242.679 133.79 241.955C134.24 240.728 135.268 239.927 136.268 239.927C136.478 239.927 136.686 239.962 136.888 240.036C137.447 240.24 137.872 240.71 138.087 241.358C138.305 242.015 138.28 242.776 138.014 243.5Z" fill="white"/>
<path d="M118.299 237.895C118.337 239.156 118.875 240.35 119.793 241.215C121.012 242.355 122.403 241.445 122.688 239.891C122.953 238.493 122.645 236.217 121.112 235.67C119.992 235.293 118.778 235.896 118.401 237.016C118.307 237.299 118.272 237.598 118.299 237.895Z" fill="#CE7A63"/>
</svg>
