<svg width="96" height="39" viewBox="0 0 96 39" fill="none" xmlns="http://www.w3.org/2000/svg">
<path fill-rule="evenodd" clip-rule="evenodd" d="M92.3121 2H19.7025C14.8141 2 10.3885 3.9792 7.18495 7.17913C3.98142 10.3791 2 14.7997 2 19.6826C2 24.5656 3.98142 28.9862 7.18495 32.1862C10.3885 35.3861 14.8141 37.3653 19.7025 37.3653H92.3121C92.8092 37.3653 93.2593 37.164 93.585 36.8386C93.9108 36.5132 94.1123 36.0636 94.1123 35.5671V32.7839C94.1123 32.1548 93.8689 31.5792 93.4685 31.1498C93.068 30.7203 92.5105 30.4369 91.8823 30.3923C87.7289 30.0972 84.6414 29.044 82.5715 27.3328C80.3903 25.5294 79.2597 22.9931 79.2597 19.6826C79.2597 16.3678 80.3928 13.8061 82.5991 11.9596C84.6841 10.2146 87.7969 9.1066 91.9968 8.72916C92.5977 8.65769 93.1255 8.36773 93.5037 7.94405C93.8834 7.51869 94.1123 6.95838 94.1123 6.34853V3.79822C94.1123 3.30166 93.9108 2.8521 93.585 2.52669C93.2593 2.20127 92.8092 2 92.3121 2Z" fill="#6E07F3" stroke="black" stroke-width="3"/>
<path fill-rule="evenodd" clip-rule="evenodd" d="M88.6476 8.89317H19.4025C16.4198 8.89317 13.7194 10.1008 11.7647 12.0533C9.81007 14.0058 8.60107 16.7031 8.60107 19.6825C8.60107 22.6619 9.81007 25.3592 11.7647 27.3117C13.7194 29.2642 16.4198 30.4718 19.4025 30.4718C52.0757 30.4718 75.3085 30.534 89.1008 30.6584C86.6866 30.0072 83.9179 29.0843 81.952 27.0675C80.3727 25.4473 79.2599 23.1403 79.2599 19.6825C79.2599 16.1919 80.3936 13.8765 81.9965 12.2618C83.8361 10.4088 86.3642 9.50506 88.6476 8.89317Z" fill="white" stroke="black" stroke-width="3"/>
<path fill-rule="evenodd" clip-rule="evenodd" d="M18.1797 22.3798H78.8326C79.4831 22.3798 80.0104 22.9165 80.0104 23.5786C80.0104 24.2407 79.4831 24.7774 78.8326 24.7774H18.1797C17.5292 24.7774 17.002 24.2407 17.002 23.5786C17.002 22.9165 17.5292 22.3798 18.1797 22.3798Z" fill="black"/>
<path fill-rule="evenodd" clip-rule="evenodd" d="M18.1797 14.5875H78.8326C79.4831 14.5875 80.0104 15.1243 80.0104 15.7863C80.0104 16.4484 79.4831 16.9852 78.8326 16.9852H18.1797C17.5292 16.9852 17.002 16.4484 17.002 15.7863C17.002 15.1243 17.5292 14.5875 18.1797 14.5875Z" fill="black"/>
</svg>
