<svg width="98" height="98" viewBox="0 0 98 98" fill="none" xmlns="http://www.w3.org/2000/svg">
<path d="M49.0562 95.0089C74.4923 95.0089 95.1123 74.412 95.1123 49.0045C95.1123 23.5969 74.4923 3 49.0562 3C23.62 3 3 23.5969 3 49.0045C3 74.412 23.62 95.0089 49.0562 95.0089Z" fill="#5BE9B9" stroke="black" stroke-width="5"/>
<path d="M37.8508 59.7509C36.3783 58.4433 34.9058 57.1356 33.4334 55.828C31.0868 53.7465 28.747 51.6584 26.4005 49.5769C25.8626 49.1032 25.3247 48.6228 24.7935 48.1492C24.7935 48.7763 24.7935 49.4101 24.7935 50.0372C26.266 48.7296 27.7385 47.422 29.2109 46.1144C31.5575 44.0329 33.8973 41.9447 36.2438 39.8632C36.7817 39.3895 37.3196 38.9092 37.8508 38.4355C38.3752 37.9685 38.3685 37.0145 37.8508 36.5475C37.2927 36.0338 36.5128 36.0471 35.948 36.5475C34.4755 37.8551 33.003 39.1627 31.5306 40.4703C29.184 42.5518 26.8442 44.64 24.4977 46.7215C23.9598 47.1951 23.4219 47.6755 22.8907 48.1492C22.373 48.6095 22.373 49.5769 22.8907 50.0372C24.3632 51.3448 25.8357 52.6524 27.3081 53.96C29.6547 56.0415 31.9945 58.1297 34.341 60.2112C34.8789 60.6849 35.4168 61.1652 35.948 61.6389C36.4724 62.1059 37.3398 62.1926 37.8508 61.6389C38.3214 61.1319 38.4088 60.2512 37.8508 59.7509Z" fill="black"/>
<path d="M60.2731 38.4387C61.7456 39.7463 63.2181 41.0539 64.6906 42.3615C67.0371 44.443 69.3769 46.5312 71.7235 48.6127C72.2613 49.0863 72.7992 49.5667 73.3304 50.0404C73.3304 49.4132 73.3304 48.7795 73.3304 48.1523C71.8579 49.4599 70.3855 50.7676 68.913 52.0752C66.5664 54.1567 64.2266 56.2448 61.8801 58.3263C61.3422 58.8 60.8043 59.2804 60.2731 59.754C59.7487 60.221 59.7554 61.1751 60.2731 61.6421C60.8312 62.1558 61.6111 62.1424 62.1759 61.6421C63.6484 60.3345 65.1209 59.0268 66.5933 57.7192C68.9399 55.6377 71.2797 53.5496 73.6262 51.4681C74.1641 50.9944 74.702 50.514 75.2332 50.0404C75.7509 49.58 75.7509 48.6127 75.2332 48.1523C73.7607 46.8447 72.2882 45.5371 70.8158 44.2295C68.4692 42.148 66.1294 40.0598 63.7829 37.9783C63.245 37.5047 62.7071 37.0243 62.1759 36.5506C61.6515 36.0836 60.7841 35.9969 60.2731 36.5506C59.8025 37.0577 59.7151 37.9383 60.2731 38.4387Z" fill="black"/>
<path d="M44.267 67.6076C44.6704 66.4067 45.0671 65.2059 45.4705 63.9983C46.432 61.1096 47.3934 58.2275 48.3549 55.3388C49.5114 51.8562 50.6678 48.3804 51.831 44.8979C52.8328 41.8891 53.8347 38.8802 54.8365 35.8714C55.3139 34.4103 55.8518 32.956 56.2955 31.4749C56.3022 31.4549 56.309 31.4349 56.3157 31.4148C56.5376 30.7544 56.0602 29.9271 55.3744 29.7737C54.6348 29.6069 53.9557 29.9938 53.7204 30.7077C53.3169 31.9085 52.9203 33.1094 52.5168 34.3169C51.5554 37.2057 50.5939 40.0878 49.6324 42.9765C48.4759 46.459 47.3195 49.9349 46.1563 53.4174C45.1545 56.4262 44.1527 59.435 43.1508 62.4439C42.6735 63.8983 42.1356 65.3526 41.6918 66.8337C41.6851 66.8537 41.6784 66.8737 41.6716 66.8938C41.4498 67.5542 41.9271 68.3815 42.613 68.5349C43.3525 68.7017 44.0316 68.3148 44.267 67.6076Z" fill="black"/>
</svg>
