<svg width="76" height="68" viewBox="0 0 76 68" fill="none" xmlns="http://www.w3.org/2000/svg">
<path d="M54.6069 54.2493C64.5494 54.2493 72.6093 46.1984 72.6093 36.2671C72.6093 26.3358 64.5494 18.2849 54.6069 18.2849C44.6644 18.2849 36.6045 26.3358 36.6045 36.2671C36.6045 46.1984 44.6644 54.2493 54.6069 54.2493Z" fill="white" stroke="black" stroke-width="5"/>
<path d="M54.6069 46.7567C60.4066 46.7567 65.1083 42.0603 65.1083 36.2671C65.1083 30.4738 60.4066 25.7775 54.6069 25.7775C48.8071 25.7775 44.1055 30.4738 44.1055 36.2671C44.1055 42.0603 48.8071 46.7567 54.6069 46.7567Z" fill="white" stroke="black" stroke-width="5"/>
<path d="M30.6038 14.9881C33.918 14.9881 36.6046 12.3045 36.6046 8.99407C36.6046 5.68363 33.918 3 30.6038 3C27.2897 3 24.603 5.68363 24.603 8.99407C24.603 12.3045 27.2897 14.9881 30.6038 14.9881Z" fill="#FFFFFE" stroke="black" stroke-width="5"/>
<path fill-rule="evenodd" clip-rule="evenodd" d="M55.1859 7.49554H4.20016C3.86875 7.49554 3.56871 7.62973 3.35152 7.84667C3.13433 8.06361 3 8.36331 3 8.69436V59.0445C3 60.6997 3.67166 62.1982 4.75759 63.283C5.84353 64.3677 7.34373 65.0386 9.0008 65.0386H50.3852C52.0423 65.0386 53.5425 64.3677 54.6284 63.283C55.7144 62.1982 56.386 60.6997 56.386 59.0445V8.69436C56.386 8.36331 56.2517 8.06361 56.0345 7.84667C55.8173 7.62973 55.5173 7.49554 55.1859 7.49554Z" fill="white" stroke="black" stroke-width="5"/>
<path fill-rule="evenodd" clip-rule="evenodd" d="M41.7052 23.6795H30.9037C30.2409 23.6795 29.6408 23.9479 29.2065 24.3818C28.7721 24.8157 28.5034 25.4151 28.5034 26.0771V40.4629C28.5034 41.125 28.7721 41.7244 29.2065 42.1583C29.6408 42.5922 30.2409 42.8605 30.9037 42.8605H41.7052C42.368 42.8605 42.9681 42.5922 43.4025 42.1583C43.8368 41.7244 44.1055 41.125 44.1055 40.4629V26.0771C44.1055 25.4151 43.8368 24.8157 43.4025 24.3818C42.9681 23.9479 42.368 23.6795 41.7052 23.6795Z" fill="#5BE9B9" stroke="black" stroke-width="5"/>
<path d="M36.1543 7.9451V21.5816" stroke="black" stroke-width="5" stroke-linecap="square"/>
</svg>
