<svg width="80" height="80" viewBox="0 0 80 80" fill="none" xmlns="http://www.w3.org/2000/svg">
<path d="M75.5554 24.0669L48.889 3.05208C46.4444 1.08661 43.2798 0 40.0001 0C36.7205 0 33.5558 1.08661 31.1113 3.05208L4.44483 24.0669C3.03315 25.2019 1.90663 26.5941 1.14029 28.151C0.373946 29.7079 -0.0146335 31.3937 0.000421304 33.0961V68.0143C0.000421304 71.1931 1.40517 74.2417 3.90564 76.4895C6.4061 78.7372 9.79747 80 13.3337 80H66.6666C70.2028 80 73.5942 78.7372 76.0946 76.4895C78.5951 74.2417 79.9999 71.1931 79.9999 68.0143V33.0562C80.0086 31.3605 79.617 29.6824 78.8508 28.1328C78.0847 26.5832 76.9615 25.1974 75.5554 24.0669ZM48.889 72.0096H31.1113V52.0335C31.1113 50.9739 31.5796 49.9577 32.4131 49.2084C33.2465 48.4592 34.377 48.0382 35.5557 48.0382H44.4445C45.6233 48.0382 46.7537 48.4592 47.5872 49.2084C48.4207 49.9577 48.889 50.9739 48.889 52.0335V72.0096ZM71.111 68.0143C71.111 69.0739 70.6428 70.0901 69.8093 70.8394C68.9758 71.5886 67.8453 72.0096 66.6666 72.0096H57.7778V52.0335C57.7778 48.8547 56.373 45.8061 53.8726 43.5583C51.3721 41.3106 47.9807 40.0478 44.4445 40.0478H35.5557C32.0195 40.0478 28.6282 41.3106 26.1277 43.5583C23.6272 45.8061 22.2225 48.8547 22.2225 52.0335V72.0096H13.3337C12.1549 72.0096 11.0245 71.5886 10.191 70.8394C9.3575 70.0901 8.88925 69.0739 8.88925 68.0143V33.0562C8.89005 32.4889 9.02522 31.9283 9.28576 31.4117C9.54631 30.895 9.92627 30.4342 10.4003 30.0598L37.0668 9.08486C37.8779 8.44435 38.9206 8.09111 40.0001 8.09111C41.0797 8.09111 42.1224 8.44435 42.9334 9.08486L69.5999 30.0598C70.074 30.4342 70.4539 30.895 70.7145 31.4117C70.9751 31.9283 71.1102 32.4889 71.111 33.0562V68.0143Z" fill="#6E07F3"/>
</svg>
