<svg width="81" height="80" viewBox="0 0 81 80" fill="none" xmlns="http://www.w3.org/2000/svg">
<path d="M20.2002 56C19.4091 56 18.6357 56.2346 17.9779 56.6741C17.3201 57.1136 16.8074 57.7384 16.5047 58.4693C16.2019 59.2002 16.1227 60.0044 16.2771 60.7804C16.4314 61.5563 16.8124 62.269 17.3718 62.8284C17.9312 63.3878 18.6439 63.7688 19.4198 63.9231C20.1958 64.0775 21 63.9983 21.7309 63.6955C22.4618 63.3928 23.0865 62.8801 23.5261 62.2223C23.9656 61.5645 24.2002 60.7911 24.2002 60C24.2002 58.9391 23.7788 57.9217 23.0286 57.1716C22.2785 56.4214 21.2611 56 20.2002 56ZM68.4402 40L73.3602 35.08C75.6074 32.83 76.8696 29.78 76.8696 26.6C76.8696 23.42 75.6074 20.37 73.3602 18.12L62.0402 6.84C59.7902 4.59279 56.7402 3.33056 53.5602 3.33056C50.3802 3.33056 47.3302 4.59279 45.0802 6.84L40.2002 11.76C40.1374 8.61918 38.8454 5.62823 36.6017 3.42945C34.3581 1.23066 31.3416 -0.000628111 28.2002 2.40378e-07H12.2002C9.0176 2.40378e-07 5.96535 1.26428 3.71491 3.51472C1.46448 5.76516 0.200195 8.8174 0.200195 12V68C0.200195 71.1826 1.46448 74.2348 3.71491 76.4853C5.96535 78.7357 9.0176 80 12.2002 80H68.2002C71.3828 80 74.435 78.7357 76.6855 76.4853C78.9359 74.2348 80.2002 71.1826 80.2002 68V52C80.2008 48.8586 78.9695 45.8421 76.7708 43.5985C74.572 41.3548 71.581 40.0628 68.4402 40ZM32.2002 68C32.2002 69.0609 31.7788 70.0783 31.0286 70.8284C30.2785 71.5786 29.2611 72 28.2002 72H12.2002C11.1393 72 10.1219 71.5786 9.37177 70.8284C8.62162 70.0783 8.2002 69.0609 8.2002 68V12C8.2002 10.9391 8.62162 9.92172 9.37177 9.17157C10.1219 8.42143 11.1393 8 12.2002 8H28.2002C29.2611 8 30.2785 8.42143 31.0286 9.17157C31.7788 9.92172 32.2002 10.9391 32.2002 12V68ZM40.2002 23.04L50.7602 12.48C51.5096 11.735 52.5235 11.3168 53.5802 11.3168C54.6369 11.3168 55.6507 11.735 56.4002 12.48L67.7202 24C68.4652 24.7495 68.8834 25.7633 68.8834 26.82C68.8834 27.8767 68.4652 28.8905 67.7202 29.64L56.2002 41.16L40.2002 56.96V23.04ZM72.2002 68C72.2002 69.0609 71.7788 70.0783 71.0286 70.8284C70.2785 71.5786 69.2611 72 68.2002 72H39.4802C39.8905 70.8145 40.1198 69.5739 40.1602 68.32L60.4802 48H68.2002C69.2611 48 70.2785 48.4214 71.0286 49.1716C71.7788 49.9217 72.2002 50.9391 72.2002 52V68Z" fill="#6E07F3"/>
</svg>
