<svg width="50" height="50" viewBox="0 0 50 50" fill="none" xmlns="http://www.w3.org/2000/svg">
<circle cx="25" cy="25" r="25" fill="#5BE9B9"/>
<g clip-path="url(#clip0_399_770)">
<path d="M22.928 9H27.072V14.328H32.4V18.472H27.072V23.8H22.928V18.472H17.6V14.328H22.928V9Z" fill="black"/>
<path d="M14.618 19.4564L5.55325 24.43C4.81445 24.8348 4.81445 25.492 5.55325 25.8972L23.6632 35.8352C24.4016 36.2404 25.5984 36.2404 26.3368 35.8352L44.4468 25.8976C45.1856 25.4924 45.1856 24.8352 44.4468 24.4304L35.396 19.4636L35.3908 19.4828L33.5556 21.3868L40.4384 25.1636L25 33.6356L9.56245 25.1636L16.4144 21.4036L14.618 19.4564ZM6.89085 28.9164L5.55325 29.65C4.81445 30.0552 4.81445 30.7124 5.55325 31.1172L23.6632 41.0556C24.4016 41.4608 25.5984 41.4608 26.3368 41.0556L44.4468 31.1176C45.1852 30.7124 45.1848 30.0556 44.446 29.6504L43.1092 28.9168L40.436 30.3832L40.4376 30.384L25 38.8556L9.56165 30.3836L9.56324 30.3828L6.89085 28.9164Z" fill="black"/>
</g>
<defs>
<clipPath id="clip0_399_770">
<rect width="40" height="40" fill="white" transform="translate(5 5)"/>
</clipPath>
</defs>
</svg>
