<svg width="196" height="169" viewBox="0 0 196 169" fill="none" xmlns="http://www.w3.org/2000/svg">
<path fill-rule="evenodd" clip-rule="evenodd" d="M191.8 21.1121H4V154.585C4 157.232 5.07432 159.628 6.81123 161.362C8.54827 163.097 10.9481 164.169 13.5989 164.169H182.201C184.853 164.169 187.252 163.097 188.988 161.363C190.726 159.628 191.8 157.232 191.8 154.585V21.1121Z" fill="white" stroke="black" stroke-width="8"/>
<path fill-rule="evenodd" clip-rule="evenodd" d="M182.201 4H13.5989C10.9471 4 8.54789 5.07204 6.81141 6.80501C5.07406 8.53885 4 10.9344 4 13.5804V23.85H191.8V13.5804C191.8 10.9347 190.725 8.53946 188.988 6.80569C187.251 5.07222 184.851 4 182.201 4Z" fill="black" stroke="black" stroke-width="8"/>
<path d="M18.7362 17.0052C20.4396 17.0052 21.8205 15.6261 21.8205 13.925C21.8205 12.2239 20.4396 10.8448 18.7362 10.8448C17.0327 10.8448 15.6519 12.2239 15.6519 13.925C15.6519 15.6261 17.0327 17.0052 18.7362 17.0052Z" fill="white"/>
<path d="M29.0169 17.0052C30.7203 17.0052 32.1012 15.6261 32.1012 13.925C32.1012 12.2239 30.7203 10.8448 29.0169 10.8448C27.3135 10.8448 25.9326 12.2239 25.9326 13.925C25.9326 15.6261 27.3135 17.0052 29.0169 17.0052Z" fill="#6E07F3"/>
<path d="M39.2977 17.0052C41.0011 17.0052 42.382 15.6261 42.382 13.925C42.382 12.2239 41.0011 10.8448 39.2977 10.8448C37.5943 10.8448 36.2134 12.2239 36.2134 13.925C36.2134 15.6261 37.5943 17.0052 39.2977 17.0052Z" fill="#5BE9B9"/>
<path d="M120.175 126.865C139.102 126.865 154.445 111.542 154.445 92.6406C154.445 73.7391 139.102 58.4164 120.175 58.4164C101.248 58.4164 85.9053 73.7391 85.9053 92.6406C85.9053 111.542 101.248 126.865 120.175 126.865Z" stroke="#6E07F3" stroke-width="9"/>
<path fill-rule="evenodd" clip-rule="evenodd" d="M124.63 54.3095H116.405V62.5233H124.63V54.3095Z" fill="#FFFFFE" stroke="#5BE9B9" stroke-width="8"/>
<path fill-rule="evenodd" clip-rule="evenodd" d="M124.287 122.758H116.062V130.972H124.287V122.758Z" fill="#FFFFFE" stroke="#5BE9B9" stroke-width="8"/>
<path fill-rule="evenodd" clip-rule="evenodd" d="M90.0173 88.8759H81.7925V97.0897H90.0173V88.8759Z" fill="#FFFFFE" stroke="#5BE9B9" stroke-width="8"/>
<path d="M154.445 61.8388V87.507" stroke="black" stroke-width="8" stroke-linecap="square"/>
<path d="M154.445 97.7742V123.442" stroke="black" stroke-width="8" stroke-linecap="square"/>
<path d="M154.445 64.919C156.716 64.919 158.557 63.0803 158.557 60.8121C158.557 58.5439 156.716 56.7052 154.445 56.7052C152.174 56.7052 150.333 58.5439 150.333 60.8121C150.333 63.0803 152.174 64.919 154.445 64.919Z" fill="black"/>
<path d="M154.445 129.945C156.716 129.945 158.557 128.106 158.557 125.838C158.557 123.57 156.716 121.731 154.445 121.731C152.174 121.731 150.333 123.57 150.333 125.838C150.333 128.106 152.174 129.945 154.445 129.945Z" fill="black"/>
<path fill-rule="evenodd" clip-rule="evenodd" d="M158.215 88.8759H149.99V97.0897H158.215V88.8759Z" fill="#FFFFFE" stroke="#5BE9B9" stroke-width="8"/>
<path d="M56.09 49.8604H40.3258C38.0546 49.8604 36.2134 51.6991 36.2134 53.9673V69.7104C36.2134 71.9786 38.0546 73.8173 40.3258 73.8173H56.09C58.3612 73.8173 60.2024 71.9786 60.2024 69.7104V53.9673C60.2024 51.6991 58.3612 49.8604 56.09 49.8604Z" fill="black"/>
<path d="M56.09 80.6621H40.3258C38.0546 80.6621 36.2134 82.5009 36.2134 84.769V100.512C36.2134 102.78 38.0546 104.619 40.3258 104.619H56.09C58.3612 104.619 60.2024 102.78 60.2024 100.512V84.769C60.2024 82.5009 58.3612 80.6621 56.09 80.6621Z" fill="#5BE9B9"/>
<path d="M56.09 111.464H40.3258C38.0546 111.464 36.2134 113.303 36.2134 115.571V131.314C36.2134 133.582 38.0546 135.421 40.3258 135.421H56.09C58.3612 135.421 60.2024 133.582 60.2024 131.314V115.571C60.2024 113.303 58.3612 111.464 56.09 111.464Z" fill="#6E07F3"/>
</svg>
