<svg xmlns="http://www.w3.org/2000/svg" fill="none" viewBox="0 0 30 30" id="earth">
  <path fill="#1A457B" d="M27.243 6.351a14.522 14.522 0 00-.72-.94C23.77 2.107 19.626 0 15 0h-.036l-.052.002c-4.591.026-8.698 2.127-11.436 5.41a15.66 15.66 0 00-.72.939A14.914 14.914 0 000 15c0 3.22 1.023 6.203 2.756 8.649.229.322.468.637.72.94 2.737 3.282 6.844 5.383 11.436 5.41l.052.001h.035c4.627 0 8.77-2.107 11.524-5.41.252-.303.492-.619.72-.941a14.915 14.915 0 002.756-8.65c0-3.218-1.023-6.202-2.756-8.648zm-16.628-4.4C9.237 3.28 8.091 5.225 7.301 7.558a14.258 14.258 0 01-2.83-1.409 13.808 13.808 0 016.144-4.198zM3.748 7.09a15.805 15.805 0 003.203 1.615 23.887 23.887 0 00-.82 6.167H1.232a13.7 13.7 0 012.515-7.783zm-2.469 9.013h4.875c.08 1.843.36 3.591.796 5.19-1.193.449-2.27.994-3.202 1.617a13.67 13.67 0 01-2.469-6.807zm3.195 7.744c.821-.536 1.77-1.01 2.826-1.406.79 2.334 1.936 4.277 3.315 5.607a13.816 13.816 0 01-6.141-4.2zm9.91 4.877c-2.525-.346-4.705-2.936-5.94-6.667 1.781-.534 3.798-.858 5.94-.91v7.577zm0-8.807c-2.26.055-4.39.403-6.286.986a22.822 22.822 0 01-.711-4.8h6.998v3.814zm0-5.045H7.362c.011-2.067.28-4.02.743-5.775 1.894.58 4.023.93 6.28.984v4.791zm0-6.02c-2.141-.053-4.157-.376-5.937-.91 1.235-3.729 3.413-6.321 5.938-6.668v7.577zm14.38 6.02h-4.967a23.876 23.876 0 00-.813-6.142c1.218-.453 2.32-1.006 3.267-1.64a13.689 13.689 0 012.514 7.782zM25.529 6.15a14.322 14.322 0 01-2.894 1.431c-.797-2.365-1.96-4.332-3.36-5.667a13.806 13.806 0 016.254 4.236zm-9.913-4.866c2.498.386 4.65 2.974 5.872 6.678-1.763.522-3.756.838-5.872.89V1.284zm0 8.798c2.231-.053 4.336-.395 6.214-.963.46 1.75.727 3.696.738 5.755h-6.952v-4.792zm0 6.022h6.926a22.926 22.926 0 01-.706 4.78c-1.88-.57-3.988-.912-6.218-.966l-.002-3.814zm0 12.612v-7.567c2.117.051 4.11.368 5.876.89-1.224 3.705-3.378 6.29-5.876 6.677zm3.659-.63c1.4-1.333 2.565-3.3 3.362-5.665 1.08.398 2.053.88 2.89 1.428a13.825 13.825 0 01-6.252 4.238zm6.977-5.175a15.716 15.716 0 00-3.268-1.64 23.64 23.64 0 00.788-5.166h4.948a13.652 13.652 0 01-2.468 6.806z"></path>
</svg>
