<svg width="600" height="350" viewBox="0 0 600 350" fill="none" xmlns="http://www.w3.org/2000/svg">
<path opacity="0.2" d="M569.796 332.9H30.1032C23.9704 332.9 19 328.682 19 323.478V26.421C19 21.2181 23.9713 17 30.1032 17H569.796C575.929 17 580.9 21.2181 580.9 26.421V323.478C580.9 328.682 575.929 332.9 569.796 332.9Z" fill="#44275D"/>
<path d="M558.631 321.95H30.368C24.3651 321.95 19.5 317.891 19.5 312.883V27.017C19.5 22.0094 24.366 17.9502 30.368 17.9502H558.631C564.634 17.9502 569.5 22.0094 569.5 27.017V312.883C569.5 317.891 564.634 321.95 558.631 321.95Z" fill="white"/>
<path d="M44.6618 36.657C44.3576 37.2117 44.0886 39.1082 43.9469 39.9594C43.8053 40.8106 42.7438 48.0335 42.6882 48.7492C42.6325 49.465 42.7824 49.9092 42.418 50.2577C42.0537 50.6062 41.3543 53.6852 41.0967 54.8363C40.839 55.9873 40.1812 59.0944 40.0838 59.8995C39.9864 60.7046 39.9342 61.0093 39.6005 61.5501C38.227 61.1065 38.1938 61.2153 38.1938 61.2153C38.2107 60.9934 37.9975 60.4245 38.345 59.9128C38.6926 59.4012 38.4761 59.6437 38.7354 59.0473C38.9948 58.4508 40.6679 50.633 40.7076 49.7244C40.7473 48.8158 40.5866 48.9372 40.8331 48.606C41.0796 48.2748 41.9894 44.88 42.1955 43.1784C42.4016 41.4768 42.827 35.6499 42.8828 35.068L45.0027 34.8678C44.9331 35.4607 44.9659 36.1037 44.6618 36.657Z" fill="#45B48E"/>
<path d="M48.8683 51.5717C47.4291 52.9049 44.9246 53.8369 42.8649 53.8083C44.1882 52.3783 46.8393 51.273 48.8683 51.5717Z" fill="#1A4033"/>
<path d="M47.2618 53.9369C46.0538 54.4331 44.2231 54.3725 42.8723 53.7881C44.0237 53.1926 45.9853 53.1788 47.2618 53.9369Z" fill="#1A4033"/>
<path d="M45.6289 56.0953C44.4361 56.8589 42.3593 57.2258 40.6496 56.9763C41.7442 56.1295 43.9369 55.6575 45.6289 56.0953Z" fill="#1A4033"/>
<path d="M44.1951 48.8081C44.1122 50.3071 42.5264 54.2996 41.1017 55.7397C41.0366 54.2877 42.6051 50.1275 44.1951 48.8081Z" fill="#1A4033"/>
<path d="M39.7192 58.2863C40.7618 55.7032 42.6545 53.5286 45.0984 52.1061C42.7347 53.5926 40.9422 55.8036 40.0045 58.3895L39.7177 58.2862L39.7192 58.2863Z" fill="#45B48E"/>
<path d="M34.6992 31.9043C35.8778 33.6506 38.4526 35.2849 40.8757 35.8233C39.8688 34.0101 37.1872 32.1593 34.6992 31.9043Z" fill="#1A4033"/>
<path d="M35.0578 34.5507C36.4427 35.5073 38.8678 36.0309 40.8759 35.8239C39.6079 34.7821 37.0411 34.1238 35.0578 34.5507Z" fill="#1A4033"/>
<path d="M41.3294 28.655C40.9362 30.353 41.092 35.2796 41.8789 37.308C42.3812 35.7061 42.2996 30.6025 41.3294 28.655Z" fill="#1A4033"/>
<path d="M42.7819 41.3455C42.3594 37.9806 40.7364 34.839 38.1699 32.418C40.8373 34.7917 42.576 37.9183 43.1111 41.3031L42.7755 41.342L42.7819 41.3455Z" fill="#45B48E"/>
<path opacity="0.3" d="M39.7247 61.8089L37.9959 61.1466C37.9959 61.1466 37.947 60.5465 38.2206 60.2573L40.0229 60.8833C40.0229 60.8833 39.9091 61.5749 39.7247 61.8089Z" fill="white"/>
<path opacity="0.3" d="M40.4406 49.1514C40.4988 49.1554 42.4988 50.6402 42.522 50.6058C42.5453 50.5714 42.7882 50.4498 42.7672 49.4346L40.6043 48.4886C40.549 48.5336 40.5043 48.5942 40.4746 48.6644C40.4448 48.7346 40.4311 48.812 40.4347 48.8891L40.4406 49.1514Z" fill="white"/>
<path opacity="0.2" d="M44.6543 36.6663C44.3424 37.2235 44.0692 39.1299 43.9249 39.9854C43.7807 40.8409 42.7643 48.0415 42.7083 48.761C42.6523 49.4806 42.7447 49.9871 42.3706 50.3369C41.9966 50.6867 41.2827 53.7813 41.0198 54.9381C40.7569 56.095 40.1512 59.2165 40.0524 60.0258C39.9904 60.8443 39.7658 61.3374 39.5998 61.5503C38.9239 61.2805 39.0537 61.451 38.928 61.3499C38.8023 61.2487 38.7258 60.5397 39.0823 60.0258C39.4388 59.5119 39.2153 59.7538 39.4823 59.1561C39.7493 58.5585 41.4533 50.6993 41.4925 49.7859C41.5318 48.8725 41.3669 48.9928 41.6213 48.6603C41.8757 48.3278 42.8038 44.916 43.0113 43.2055C43.2188 41.4949 43.7735 35.5771 43.8298 34.9921L45.0018 34.868C44.9312 35.464 44.9661 36.1105 44.6543 36.6663Z" fill="black"/>
<path d="M34.3386 59.0342C35.0379 58.9478 35.5828 58.5961 36.213 58.3349C34.7962 57.9725 33.3195 58.2123 31.8885 58.5819C31.4225 58.7027 30.9597 58.8325 30.5 58.9712L32.8826 59.0584C33.3648 59.0956 33.8525 59.0875 34.3386 59.0342Z" fill="#399676"/>
<path opacity="0.2" d="M34.3386 59.0342C35.0379 58.9478 35.5828 58.5961 36.213 58.3349C34.7962 57.9725 33.3195 58.2123 31.8885 58.5819C31.4225 58.7027 30.9597 58.8325 30.5 58.9712L32.8826 59.0584C33.3648 59.0956 33.8525 59.0875 34.3386 59.0342Z" fill="black"/>
<path d="M34.2459 56.9187C34.5699 57.1084 34.901 57.2782 35.217 57.4856C35.625 57.755 36.0062 58.0673 36.3543 58.4174C36.7155 58.7733 37.0147 59.181 37.3765 59.5516C37.6632 59.8415 37.9784 60.0987 38.3166 60.3188C38.3585 60.3412 38.395 60.3736 38.423 60.4133C38.4427 60.4457 38.4555 60.482 38.4604 60.5196C38.5166 60.7862 38.589 61.0321 38.6682 61.2906C38.1429 60.7435 37.7365 60.4134 37.0595 59.6832C36.7166 59.3058 36.4265 58.9374 36.1041 58.5578C35.8555 58.2749 35.5851 58.0135 35.2959 57.7766C34.9588 57.4894 34.6078 57.2096 34.2463 56.9534C34.2317 56.9386 34.2276 56.9002 34.2459 56.9187Z" fill="#399676"/>
<path d="M34.3759 56.8716C33.9665 56.6162 33.5357 56.4007 33.0891 56.228L30.6582 55.2051L32.3196 56.6563C32.6784 56.9945 33.0735 57.2889 33.4969 57.5334C33.8174 57.6983 34.158 57.8156 34.5083 57.8818C34.6395 57.9084 34.7487 57.924 34.8868 57.9576C34.942 57.9734 35.3485 57.9876 35.3544 58.0043C35.0556 57.5975 34.8012 57.1634 34.3759 56.8716Z" fill="#1A4033"/>
<path d="M35.3998 56.1949C35.12 55.7442 34.7789 55.3311 34.3844 54.9652C33.9448 54.5191 33.5096 54.0646 33.0664 53.6152C33.4498 54.3873 33.681 55.2129 34.0403 55.9729C34.3996 56.733 34.9283 57.4743 35.7257 57.8738C35.6958 57.5918 35.7106 57.3099 35.6785 57.0355C35.6677 56.7332 35.5716 56.4433 35.3998 56.1949Z" fill="#399676"/>
<path opacity="0.4" d="M35.3998 56.1949C35.12 55.7442 34.7789 55.3311 34.3844 54.9652C33.9448 54.5191 33.5096 54.0646 33.0664 53.6152C33.4498 54.3873 33.681 55.2129 34.0403 55.9729C34.3996 56.733 34.9283 57.4743 35.7257 57.8738C35.6958 57.5918 35.7106 57.3099 35.6785 57.0355C35.6677 56.7332 35.5716 56.4433 35.3998 56.1949Z" fill="#1A4033"/>
<path d="M34.5513 58.2876C34.0601 58.4521 33.5899 58.6746 33.1453 58.953C32.6262 59.2805 32.0982 59.595 31.5772 59.9232C32.4128 59.8058 33.2911 59.892 34.1328 59.7982C34.9745 59.7044 35.8042 59.4058 36.3189 58.6362C36.0258 58.5497 35.7384 58.4098 35.4522 58.3176C35.1417 58.2187 34.8342 58.2084 34.5513 58.2876Z" fill="#1A4033"/>
<path d="M38.0298 61.5611C38.0263 61.5176 38.0275 61.4741 38.0332 61.4313C38.0477 61.3124 38.0377 61.1903 38.0039 61.0734L33.6197 46.8048C33.5873 46.723 33.5456 46.6451 33.4957 46.573C33.4482 46.5171 33.4121 46.4519 33.3896 46.3815C33.3672 46.3111 33.359 46.2373 33.3655 46.1647L34.8464 45.69C34.8939 45.7456 34.9303 45.8105 34.9534 45.8806C34.9764 45.9506 34.9856 46.0243 34.9804 46.0969C34.9828 46.1845 34.9958 46.2719 35.019 46.3571L39.6702 60.5407C39.7121 60.6554 39.7768 60.7602 39.8599 60.848C39.8899 60.8798 39.9164 60.9149 39.939 60.9527C39.9822 61.0511 39.9944 61.1602 39.9737 61.2634C39.9529 61.3666 39.9004 61.4584 39.824 61.5247C39.655 61.7113 39.4404 61.8458 39.2016 61.9148C38.969 61.9981 38.7174 62.0166 38.4704 61.9685C38.3667 61.9593 38.2672 61.9143 38.1875 61.8406C38.1078 61.7669 38.0524 61.6686 38.0298 61.5611Z" fill="#399676"/>
<path opacity="0.2" d="M38.0298 61.5611C38.0263 61.5176 38.0275 61.4741 38.0332 61.4313C38.0477 61.3124 38.0377 61.1903 38.0039 61.0734L33.6197 46.8048C33.5873 46.723 33.5456 46.6451 33.4957 46.573C33.4482 46.5171 33.4121 46.4519 33.3896 46.3815C33.3672 46.3111 33.359 46.2373 33.3655 46.1647L34.8464 45.69C34.8939 45.7456 34.9303 45.8105 34.9534 45.8806C34.9764 45.9506 34.9856 46.0243 34.9804 46.0969C34.9828 46.1845 34.9958 46.2719 35.019 46.3571L39.6702 60.5407C39.7121 60.6554 39.7768 60.7602 39.8599 60.848C39.8899 60.8798 39.9164 60.9149 39.939 60.9527C39.9822 61.0511 39.9944 61.1602 39.9737 61.2634C39.9529 61.3666 39.9004 61.4584 39.824 61.5247C39.655 61.7113 39.4404 61.8458 39.2016 61.9148C38.969 61.9981 38.7174 62.0166 38.4704 61.9685C38.3667 61.9593 38.2672 61.9143 38.1875 61.8406C38.1078 61.7669 38.0524 61.6686 38.0298 61.5611Z" fill="white"/>
<path opacity="0.1" d="M34.9524 46.0408C34.954 46.1291 34.9665 46.2171 34.9895 46.3028L39.6367 60.5489C39.6787 60.6641 39.7443 60.7691 39.829 60.8567C39.8596 60.8884 39.8865 60.9236 39.9094 60.9615C39.9529 61.0602 39.9644 61.17 39.942 61.2742C39.9196 61.3785 39.8646 61.4715 39.7853 61.5391C39.6094 61.7288 39.3871 61.8665 39.1405 61.9384C39.0743 61.9592 39.0068 61.9761 38.9386 61.989C39.0775 61.9518 39.2088 61.8908 39.3272 61.8086C39.4174 61.744 39.4886 61.6552 39.5332 61.5515C39.5514 61.4982 39.5567 61.4407 39.5487 61.3841C39.5406 61.3275 39.5195 61.2734 39.4871 61.2263C39.4332 61.143 39.3736 61.0637 39.3088 60.989C39.1609 60.7671 39.0484 60.5229 38.9758 60.266C38.3861 58.5254 35.3488 48.821 34.7564 47.0792C34.6993 46.934 34.662 46.7818 34.6456 46.627C34.6392 46.5305 34.6498 46.432 34.635 46.3364C34.595 46.1619 34.5158 45.9985 34.4038 45.8594C34.3958 45.8452 34.391 45.8294 34.3897 45.8131C34.3884 45.7969 34.3907 45.7807 34.3963 45.7656L34.8235 45.6279C34.8715 45.6844 34.9078 45.7504 34.93 45.8215C34.9522 45.8926 34.9598 45.9673 34.9524 46.0408Z" fill="black"/>
<path d="M37.1163 57.2049C37.0462 56.5462 36.8768 55.9108 36.6114 55.3116C36.5366 55.0991 36.4618 54.8866 36.3687 54.6785C36.3131 55.0447 36.2136 55.3101 36.159 55.7435C36.1075 56.1293 36.0444 56.5383 36.0303 56.9257C35.9996 57.6445 36.1375 58.4793 36.5919 59.0527C36.9531 58.453 37.1334 57.8177 37.1163 57.2049Z" fill="#1A4033"/>
<path d="M50.796 44.8822C50.612 44.8822 50.452 44.8142 50.316 44.6782C50.18 44.5422 50.112 44.3822 50.112 44.1982V43.8742C50.112 43.6902 50.18 43.5302 50.316 43.3942C50.452 43.2582 50.612 43.1902 50.796 43.1902H56.148C56.332 43.1902 56.492 43.2582 56.628 43.3942C56.764 43.5302 56.832 43.6902 56.832 43.8742V44.1982C56.832 44.3822 56.764 44.5422 56.628 44.6782C56.492 44.8142 56.332 44.8822 56.148 44.8822H54.612C54.548 44.8822 54.516 44.9142 54.516 44.9782V51.2662C54.516 51.4502 54.448 51.6102 54.312 51.7462C54.176 51.8822 54.016 51.9502 53.832 51.9502H53.112C52.928 51.9502 52.768 51.8822 52.632 51.7462C52.496 51.6102 52.428 51.4502 52.428 51.2662V44.9782C52.428 44.9142 52.396 44.8822 52.332 44.8822H50.796ZM59.5837 52.0702C58.8797 52.0702 58.3677 51.8742 58.0477 51.4822C57.7357 51.0902 57.5797 50.4182 57.5797 49.4662V46.3942C57.5797 46.2102 57.6477 46.0502 57.7837 45.9142C57.9197 45.7782 58.0797 45.7102 58.2637 45.7102H58.7917C58.9757 45.7102 59.1357 45.7782 59.2717 45.9142C59.4077 46.0502 59.4757 46.2102 59.4757 46.3942V49.3342C59.4757 49.7982 59.5357 50.1182 59.6557 50.2942C59.7837 50.4622 59.9997 50.5462 60.3037 50.5462C60.5837 50.5462 60.8397 50.4342 61.0717 50.2102C61.3037 49.9782 61.4197 49.7302 61.4197 49.4662V46.3942C61.4197 46.2102 61.4877 46.0502 61.6237 45.9142C61.7597 45.7782 61.9197 45.7102 62.1037 45.7102H62.6797C62.8637 45.7102 63.0237 45.7782 63.1597 45.9142C63.2957 46.0502 63.3637 46.2102 63.3637 46.3942V51.2662C63.3637 51.4502 63.2957 51.6102 63.1597 51.7462C63.0237 51.8822 62.8637 51.9502 62.6797 51.9502H62.1877C61.9957 51.9502 61.8317 51.8862 61.6957 51.7582C61.5677 51.6222 61.4997 51.4582 61.4917 51.2662V51.1702C61.4917 51.1622 61.4877 51.1582 61.4797 51.1582L61.4557 51.1822C60.9357 51.7742 60.3117 52.0702 59.5837 52.0702ZM65.6242 51.9502C65.4402 51.9502 65.2802 51.8822 65.1442 51.7462C65.0162 51.6102 64.9522 51.4502 64.9522 51.2662V46.3942C64.9522 46.2102 65.0162 46.0502 65.1442 45.9142C65.2802 45.7782 65.4402 45.7102 65.6242 45.7102H66.1162C66.3082 45.7102 66.4682 45.7782 66.5962 45.9142C66.7322 46.0422 66.8042 46.2022 66.8122 46.3942L66.8242 46.4902C66.8242 46.4982 66.8282 46.5022 66.8362 46.5022L66.8602 46.4782C67.3802 45.8862 68.0042 45.5902 68.7322 45.5902C69.4602 45.5902 69.9842 45.7982 70.3042 46.2142C70.6242 46.6222 70.7842 47.3222 70.7842 48.3142V51.2662C70.7842 51.4502 70.7162 51.6102 70.5802 51.7462C70.4522 51.8822 70.2962 51.9502 70.1122 51.9502H69.5842C69.4002 51.9502 69.2402 51.8822 69.1042 51.7462C68.9682 51.6102 68.9002 51.4502 68.9002 51.2662V48.3742C68.9002 47.8942 68.8362 47.5662 68.7082 47.3902C68.5802 47.2062 68.3482 47.1142 68.0122 47.1142C67.7322 47.1142 67.4722 47.2302 67.2322 47.4622C67.0002 47.6862 66.8842 47.9302 66.8842 48.1942V51.2662C66.8842 51.4502 66.8162 51.6102 66.6802 51.7462C66.5522 51.8822 66.3962 51.9502 66.2122 51.9502H65.6242ZM74.9875 47.0302C74.2275 47.0302 73.8475 47.5902 73.8475 48.7102C73.8475 49.2702 73.9475 49.6902 74.1475 49.9702C74.3555 50.2502 74.6355 50.3902 74.9875 50.3902C75.2995 50.3902 75.5675 50.2862 75.7915 50.0782C76.0155 49.8622 76.1275 49.6142 76.1275 49.3342V48.1702C76.1275 47.8502 76.0155 47.5822 75.7915 47.3662C75.5675 47.1422 75.2995 47.0302 74.9875 47.0302ZM74.3515 51.8302C73.6555 51.8302 73.0795 51.5542 72.6235 51.0022C72.1755 50.4422 71.9515 49.6782 71.9515 48.7102C71.9515 47.7182 72.1675 46.9502 72.5995 46.4062C73.0315 45.8622 73.6155 45.5902 74.3515 45.5902C75.0555 45.5902 75.6595 45.8862 76.1635 46.4782L76.1875 46.5022C76.1955 46.5022 76.1995 46.4982 76.1995 46.4902V46.3942C76.2075 46.2022 76.2795 46.0422 76.4155 45.9142C76.5515 45.7782 76.7155 45.7102 76.9075 45.7102H77.3515C77.5355 45.7102 77.6955 45.7782 77.8315 45.9142C77.9675 46.0502 78.0355 46.2102 78.0355 46.3942V51.4102C78.0355 52.4902 77.7355 53.3102 77.1355 53.8702C76.5435 54.4302 75.6835 54.7102 74.5555 54.7102C74.0755 54.7102 73.6435 54.6782 73.2595 54.6142C73.0675 54.5822 72.9075 54.4862 72.7795 54.3262C72.6515 54.1662 72.5875 53.9862 72.5875 53.7862V53.5462C72.5875 53.3862 72.6555 53.2582 72.7915 53.1622C72.9275 53.0662 73.0755 53.0382 73.2355 53.0782C73.6675 53.1822 74.0795 53.2342 74.4715 53.2342C75.0475 53.2342 75.4675 53.0942 75.7315 52.8142C75.9955 52.5422 76.1275 52.0822 76.1275 51.4342V51.0982C76.1275 51.0902 76.1235 51.0862 76.1155 51.0862C76.1075 51.0862 76.0995 51.0902 76.0915 51.0982C75.6355 51.5862 75.0555 51.8302 74.3515 51.8302ZM80.296 51.9502C80.112 51.9502 79.952 51.8822 79.816 51.7462C79.688 51.6102 79.624 51.4502 79.624 51.2662V46.3942C79.624 46.2102 79.688 46.0502 79.816 45.9142C79.952 45.7782 80.112 45.7102 80.296 45.7102H80.788C80.98 45.7102 81.14 45.7782 81.268 45.9142C81.404 46.0422 81.476 46.2022 81.484 46.3942L81.496 46.4902C81.496 46.4982 81.5 46.5022 81.508 46.5022L81.532 46.4782C82.052 45.8862 82.676 45.5902 83.404 45.5902C84.132 45.5902 84.656 45.7982 84.976 46.2142C85.296 46.6222 85.456 47.3222 85.456 48.3142V51.2662C85.456 51.4502 85.388 51.6102 85.252 51.7462C85.124 51.8822 84.968 51.9502 84.784 51.9502H84.256C84.072 51.9502 83.912 51.8822 83.776 51.7462C83.64 51.6102 83.572 51.4502 83.572 51.2662V48.3742C83.572 47.8942 83.508 47.5662 83.38 47.3902C83.252 47.2062 83.02 47.1142 82.684 47.1142C82.404 47.1142 82.144 47.2302 81.904 47.4622C81.672 47.6862 81.556 47.9302 81.556 48.1942V51.2662C81.556 51.4502 81.488 51.6102 81.352 51.7462C81.224 51.8822 81.068 51.9502 80.884 51.9502H80.296ZM89.6594 46.8982C89.2994 46.8982 89.0274 46.9942 88.8434 47.1862C88.6594 47.3702 88.5434 47.6902 88.4954 48.1462C88.4954 48.2102 88.5234 48.2422 88.5794 48.2422H90.6074C90.6794 48.2422 90.7154 48.2062 90.7154 48.1342C90.6834 47.3102 90.3314 46.8982 89.6594 46.8982ZM89.9594 52.0702C88.8714 52.0702 88.0314 51.7942 87.4394 51.2422C86.8554 50.6902 86.5634 49.8862 86.5634 48.8302C86.5634 47.7822 86.8234 46.9822 87.3434 46.4302C87.8714 45.8702 88.6314 45.5902 89.6234 45.5902C91.5274 45.5902 92.4954 46.6302 92.5274 48.7102C92.5274 48.9022 92.4514 49.0662 92.2994 49.2022C92.1554 49.3302 91.9874 49.3942 91.7954 49.3942H88.5914C88.5114 49.3942 88.4794 49.4302 88.4954 49.5022C88.5594 49.9422 88.7274 50.2582 88.9994 50.4502C89.2794 50.6342 89.6954 50.7262 90.2474 50.7262C90.6074 50.7262 90.9954 50.6742 91.4114 50.5702C91.5794 50.5302 91.7274 50.5622 91.8554 50.6662C91.9914 50.7702 92.0594 50.9062 92.0594 51.0742V51.0982C92.0594 51.2982 91.9954 51.4822 91.8674 51.6502C91.7474 51.8102 91.5914 51.9062 91.3994 51.9382C90.9354 52.0262 90.4554 52.0702 89.9594 52.0702Z" fill="black"/>
<path opacity="0.86" d="M248.688 284.71L434.216 284.19C450.093 284.19 475.272 277.87 484.935 265.998C505.617 240.587 519.607 175.901 450.151 150.78C358.335 117.572 406.593 55.7764 325.745 55.7764C243.605 55.7764 266.726 103.118 238.629 105.444C226.663 106.434 210.437 106.37 194.497 105.875C169.137 105.088 149.215 125.782 153.267 148.865C154.436 155.527 154.714 161.626 153.394 166.085C147.753 185.144 109.264 176.115 101.536 222.077C96.0118 254.936 122.302 284.71 152.261 284.71C182.394 284.71 248.688 284.71 248.688 284.71Z" fill="#BFE9DB"/>
<path d="M121.781 168.366C130.609 163.037 133.446 151.561 128.118 142.733C122.79 133.905 111.313 131.067 102.485 136.396C93.6568 141.724 90.8195 153.2 96.1478 162.029C101.476 170.857 112.952 173.694 121.781 168.366Z" fill="#BFE9DB"/>
<path d="M482.909 107.138C488.861 90.2202 479.972 71.6805 463.055 65.7281C446.137 59.7757 427.597 68.6646 421.645 85.5821C415.693 102.5 424.582 121.039 441.499 126.992C458.416 132.944 476.956 124.055 482.909 107.138Z" fill="#BFE9DB"/>
<path d="M431.151 95.3974C430.487 91.1584 429.069 87.2544 427.072 83.7764C426.185 82.2334 423.955 82.2194 422.999 83.7214L417.9 91.7374L423.791 95.4924C424.278 95.8024 424.421 96.4494 424.111 96.9354C423.801 97.4224 423.154 97.5654 422.668 97.2554L416.779 93.5024L414.463 97.1434L420.348 100.894C420.835 101.204 420.978 101.851 420.668 102.337C420.358 102.824 419.711 102.967 419.225 102.657L413.341 98.9074L411.554 101.716L417.435 105.465C417.922 105.775 418.065 106.422 417.755 106.908C417.445 107.395 416.798 107.538 416.312 107.228L410.433 103.481L408.337 106.776C406.834 109.138 404.627 111.017 401.979 111.925C398.416 113.146 394.633 112.689 391.518 110.707L364.768 93.6933L365.89 91.9294L384.71 103.899L392.431 91.7614C392.215 91.7764 391.993 91.7284 391.797 91.6034L385.041 87.2964C384.554 86.9864 384.411 86.3394 384.721 85.8534C385.031 85.3664 385.678 85.2234 386.164 85.5334L392.92 89.8394C393.116 89.9644 393.253 90.1444 393.33 90.3454L395.337 87.1904C395.123 87.2044 394.904 87.1554 394.71 87.0314L387.954 82.7254C387.467 82.4154 387.324 81.7684 387.634 81.2824C387.944 80.7954 388.591 80.6524 389.077 80.9624L395.833 85.2684C396.027 85.3914 396.163 85.5694 396.241 85.7684L398.772 81.7894C398.561 81.8014 398.344 81.7524 398.152 81.6294L391.396 77.3234C390.909 77.0134 390.766 76.3664 391.076 75.8804C391.386 75.3934 392.033 75.2504 392.519 75.5604L399.275 79.8664C399.466 79.9884 399.602 80.1624 399.681 80.3584L406.631 69.4314C407.029 68.8064 406.693 67.9784 405.974 67.7984C400.551 66.4344 394.698 66.3984 388.869 67.9784C372.053 72.5374 361.368 89.4924 364.503 106.631C365.258 110.759 366.725 114.561 368.749 117.944C368.198 118.567 367.686 119.241 367.225 119.965L310.116 209.564C305.626 216.609 307.006 226.069 313.629 231.161C321.195 236.979 331.936 234.967 336.952 227.097L394.256 137.193C394.845 136.269 395.327 135.307 395.706 134.322C399.478 134.549 403.365 134.151 407.237 133.027C423.438 128.324 433.763 112.066 431.151 95.3974Z" fill="#5BE9B9"/>
<path d="M271.945 151.986L257 149.495C255.541 149.252 254.31 148.273 253.744 146.907L251.236 140.854C250.67 139.487 250.848 137.925 251.708 136.721L260.514 124.392C261.733 122.686 261.539 120.349 260.057 118.867L252.894 111.704C251.412 110.222 249.075 110.028 247.369 111.247L235.04 120.053C233.836 120.913 232.274 121.092 230.907 120.525L224.854 118.018C223.487 117.452 222.509 116.221 222.265 114.762L219.774 99.8174C219.429 97.7494 217.64 96.2334 215.544 96.2334H205.414C203.318 96.2334 201.529 97.7494 201.184 99.8164L198.693 114.761C198.45 116.221 197.471 117.452 196.104 118.018L190.051 120.525C188.684 121.091 187.121 120.913 185.917 120.053L173.588 111.247C171.882 110.029 169.546 110.222 168.063 111.704L160.9 118.867C159.418 120.349 159.224 122.686 160.443 124.392L169.249 136.721C170.109 137.925 170.288 139.488 169.721 140.855L167.214 146.908C166.648 148.275 165.417 149.254 163.957 149.497L149.013 151.988C146.945 152.333 145.43 154.122 145.43 156.218V166.347C145.43 168.443 146.946 170.232 149.013 170.577L163.455 172.984C165.013 173.244 166.33 174.332 166.801 175.84C167.478 178.008 168.304 180.108 169.28 182.123C169.946 183.497 169.756 185.132 168.869 186.374L160.443 198.171C159.225 199.877 159.418 202.213 160.9 203.696L168.063 210.859C169.545 212.341 171.882 212.535 173.588 211.316L185.098 203.094C186.372 202.184 188.059 202.01 189.45 202.73C191.57 203.827 193.785 204.762 196.083 205.522C197.561 206.011 198.613 207.328 198.869 208.864L201.183 222.747C201.528 224.815 203.317 226.33 205.413 226.33H215.543C217.639 226.33 219.429 224.814 219.773 222.746L222.087 208.864C222.343 207.328 223.395 206.011 224.873 205.522C227.171 204.763 229.386 203.828 231.506 202.73C232.897 202.01 234.578 202.181 235.853 203.091C238.804 205.199 244.077 208.965 247.378 211.323C249.084 212.541 251.411 212.341 252.893 210.859L260.056 203.696C261.538 202.214 261.732 199.877 260.513 198.171L252.087 186.374C251.2 185.132 251.011 183.496 251.676 182.123C252.652 180.108 253.478 178.007 254.155 175.839C254.626 174.331 255.943 173.243 257.501 172.983L271.943 170.576C274.011 170.231 275.526 168.442 275.526 166.346V156.217C275.529 154.12 274.013 152.331 271.945 151.986ZM210.481 189.438C194.93 189.438 182.324 176.832 182.324 161.28C182.324 145.728 194.93 133.122 210.481 133.122C226.032 133.122 238.639 145.729 238.639 161.28C238.639 176.831 226.032 189.438 210.481 189.438Z" fill="#5BE9B9"/>
<path d="M419.974 200.898L413.244 199.776C412.587 199.667 412.033 199.226 411.778 198.611L410.649 195.885C410.394 195.269 410.474 194.566 410.862 194.024L414.828 188.472C415.377 187.704 415.29 186.651 414.622 185.984L411.396 182.758C410.728 182.091 409.676 182.003 408.908 182.552L403.356 186.518C402.814 186.905 402.11 186.986 401.495 186.731L398.769 185.602C398.153 185.347 397.713 184.793 397.603 184.136L396.481 177.406C396.326 176.475 395.52 175.792 394.576 175.792H390.014C389.07 175.792 388.264 176.474 388.109 177.406L386.987 184.136C386.877 184.793 386.437 185.348 385.821 185.603L383.095 186.732C382.479 186.987 381.776 186.907 381.233 186.519L375.681 182.553C374.913 182.004 373.861 182.091 373.193 182.759L369.967 185.985C369.299 186.653 369.212 187.705 369.761 188.473L373.727 194.025C374.114 194.567 374.195 195.271 373.94 195.886L372.811 198.612C372.556 199.228 372.002 199.668 371.344 199.778L364.614 200.9C363.683 201.055 363 201.861 363 202.805V207.367C363 208.311 363.683 209.117 364.614 209.272L371.118 210.356C371.82 210.473 372.413 210.963 372.625 211.642C372.93 212.618 373.302 213.564 373.742 214.472C374.042 215.091 373.956 215.827 373.557 216.387L369.762 221.7C369.213 222.468 369.3 223.52 369.968 224.188L373.194 227.414C373.861 228.081 374.914 228.168 375.682 227.62L380.865 223.918C381.439 223.508 382.198 223.431 382.825 223.755C383.78 224.249 384.777 224.669 385.812 225.011C386.478 225.231 386.951 225.824 387.067 226.516L388.109 232.768C388.264 233.699 389.07 234.382 390.014 234.382H394.576C395.52 234.382 396.326 233.699 396.481 232.768L397.523 226.516C397.638 225.824 398.112 225.231 398.778 225.011C399.813 224.669 400.81 224.249 401.765 223.755C402.391 223.431 403.149 223.507 403.722 223.917C405.051 224.866 407.426 226.562 408.912 227.624C409.68 228.173 410.728 228.082 411.396 227.415L414.622 224.189C415.29 223.521 415.377 222.469 414.828 221.701L411.033 216.388C410.633 215.829 410.548 215.092 410.848 214.473C411.288 213.565 411.66 212.619 411.965 211.643C412.177 210.964 412.77 210.474 413.472 210.357L419.976 209.273C420.907 209.118 421.59 208.312 421.59 207.368V202.806C421.587 201.859 420.905 201.054 419.974 200.898ZM392.294 217.764C385.291 217.764 379.614 212.087 379.614 205.084C379.614 198.081 385.291 192.404 392.294 192.404C399.297 192.404 404.974 198.081 404.974 205.084C404.974 212.087 399.297 217.764 392.294 217.764Z" fill="#44029A"/>
<path d="M319.211 159.806C341.432 151.71 352.884 127.134 344.788 104.912C336.693 82.6908 312.116 71.2393 289.895 79.3347C267.673 87.4301 256.222 112.007 264.317 134.228C272.413 156.45 296.989 167.901 319.211 159.806Z" fill="#379575"/>
<path d="M304.549 153.951C323.547 153.951 338.947 138.551 338.947 119.553C338.947 100.556 323.547 85.1553 304.549 85.1553C285.552 85.1553 270.151 100.556 270.151 119.553C270.151 138.551 285.552 153.951 304.549 153.951Z" fill="#BFE9DB"/>
<path d="M303.245 126.654C302.924 126.63 302.604 126.542 302.303 126.391C301.398 125.933 300.863 124.984 300.939 123.973L302.7 100.73C302.772 99.775 303.606 99.059 304.561 99.131C305.516 99.203 306.232 100.037 306.16 100.992L304.576 121.898L317.915 110.438C318.641 109.814 319.737 109.897 320.361 110.623C320.985 111.35 320.903 112.445 320.176 113.07L305.06 126.057C304.546 126.497 303.892 126.703 303.245 126.654Z" fill="#379575"/>
<path d="M381.254 224.084H221.352V133.32C221.352 130.625 223.536 128.441 226.231 128.441H376.376C379.071 128.441 381.255 130.625 381.255 133.32L381.254 224.084Z" fill="#379575"/>
<path d="M374.202 216.786H228.404C227.948 216.786 227.578 216.416 227.578 215.96V135.917C227.578 135.461 227.948 135.091 228.404 135.091H374.202C374.658 135.091 375.028 135.461 375.028 135.917V215.961C375.027 216.416 374.658 216.786 374.202 216.786Z" fill="white"/>
<path d="M221.266 224.084H381.244L407.757 266.206C408.992 268.279 407.498 270.909 405.085 270.909H198.613C195.282 270.909 193.276 267.216 195.089 264.422L221.266 224.084Z" fill="#44029A"/>
<path d="M221.551 224.084H381.301L405.975 262.846C407.19 264.754 405.72 267.173 403.347 267.173H200.333C197.057 267.173 195.085 263.775 196.868 261.203L221.551 224.084Z" fill="#06573C"/>
<path d="M301.303 133.175C302.128 133.175 302.797 132.506 302.797 131.681C302.797 130.855 302.128 130.187 301.303 130.187C300.477 130.187 299.809 130.855 299.809 131.681C299.809 132.506 300.477 133.175 301.303 133.175Z" fill="#FAF4DA"/>
<path d="M338.197 264.184H264.407C262.593 264.184 261.274 262.463 261.746 260.711L263.749 253.272C264.073 252.069 265.164 251.232 266.41 251.232H334.764C335.839 251.232 336.816 251.857 337.267 252.833L340.7 260.272C341.543 262.1 340.209 264.184 338.197 264.184Z" fill="#379575"/>
<path d="M234.589 225.829H369.164C370.235 225.829 371.211 226.444 371.673 227.409L380.463 245.754C381.348 247.601 380.002 249.739 377.954 249.739H224.652C222.543 249.739 221.201 247.485 222.205 245.631L232.142 227.286C232.629 226.388 233.568 225.829 234.589 225.829Z" fill="#379575"/>
<path d="M226.973 229.841H375.633" stroke="#06573C" stroke-miterlimit="10" stroke-linecap="round"/>
<path d="M224.135 235.818H378.471" stroke="#06573C" stroke-miterlimit="10" stroke-linecap="round"/>
<path d="M221.297 243.291H379.89" stroke="#06573C" stroke-miterlimit="10" stroke-linecap="round"/>
<path d="M291.766 225.829V249.74" stroke="#06573C" stroke-miterlimit="10" stroke-linecap="round"/>
<path d="M305.955 225.829V249.74" stroke="#06573C" stroke-miterlimit="10" stroke-linecap="round"/>
<path d="M264.807 225.829L259.131 249.74" stroke="#06573C" stroke-miterlimit="10" stroke-linecap="round"/>
<path d="M278.996 225.829L276.158 249.74" stroke="#06573C" stroke-miterlimit="10" stroke-linecap="round"/>
<path d="M239.267 225.829L229.334 249.74" stroke="#06573C" stroke-miterlimit="10" stroke-linecap="round"/>
<path d="M252.036 225.829L244.941 249.74" stroke="#06573C" stroke-miterlimit="10" stroke-linecap="round"/>
<path d="M334.333 225.829L340.009 249.74" stroke="#06573C" stroke-miterlimit="10" stroke-linecap="round"/>
<path d="M320.144 225.829L322.982 249.74" stroke="#06573C" stroke-miterlimit="10" stroke-linecap="round"/>
<path d="M359.874 225.829L369.806 249.74" stroke="#06573C" stroke-miterlimit="10" stroke-linecap="round"/>
<path d="M347.104 225.829L354.198 249.74" stroke="#06573C" stroke-miterlimit="10" stroke-linecap="round"/>
<path opacity="0.86" d="M269.843 172.679H241.311C240.223 172.679 239.341 171.797 239.341 170.708V147.047C239.341 145.959 240.223 145.076 241.311 145.076H269.843C270.931 145.076 271.814 145.958 271.814 147.047V170.708C271.814 171.796 270.931 172.679 269.843 172.679Z" fill="#BFE9DB"/>
<path d="M363.744 210.022H295.162C294.821 210.022 294.544 209.746 294.544 209.404V145.693C294.544 145.352 294.82 145.075 295.162 145.075H363.744C364.085 145.075 364.362 145.352 364.362 145.693V209.404C364.362 209.746 364.085 210.022 363.744 210.022Z" fill="#BFE9DB"/>
<path d="M364.84 178.016V189.835C364.84 191.121 363.798 192.163 362.512 192.163H323.891C322.605 192.163 321.562 193.205 321.562 194.491V196.329C321.562 197.615 322.605 198.657 323.891 198.657H367.167C368.453 198.657 369.495 197.615 369.495 196.329V178.016C369.495 176.827 368.599 175.829 367.417 175.701C366.041 175.552 364.84 176.631 364.84 178.016Z" fill="#379575"/>
<path d="M314.705 195.809L323.887 186.627C324.241 186.273 324.846 186.524 324.846 187.024V204.681C324.846 205.171 324.263 205.426 323.903 205.094L314.721 196.619C314.487 196.403 314.48 196.035 314.705 195.809Z" fill="#379575"/>
<path d="M289.541 210.023H286.558C286.485 210.023 286.426 209.964 286.426 209.891V145.21C286.426 145.137 286.485 145.078 286.558 145.078H289.541C289.614 145.078 289.673 145.137 289.673 145.21V209.891C289.674 209.964 289.615 210.023 289.541 210.023Z" fill="#BFE9DB"/>
<path d="M281.291 182.421H239.606C239.46 182.421 239.341 182.303 239.341 182.156V179.438C239.341 179.292 239.459 179.173 239.606 179.173H281.291C281.437 179.173 281.556 179.292 281.556 179.438V182.156C281.556 182.302 281.437 182.421 281.291 182.421Z" fill="#BFE9DB"/>
<path d="M281.291 190.54H239.606C239.46 190.54 239.341 190.422 239.341 190.275V187.557C239.341 187.411 239.459 187.292 239.606 187.292H281.291C281.437 187.292 281.556 187.41 281.556 187.557V190.275C281.556 190.421 281.437 190.54 281.291 190.54Z" fill="#BFE9DB"/>
<path d="M281.291 198.657H239.606C239.46 198.657 239.341 198.539 239.341 198.392V195.674C239.341 195.528 239.459 195.409 239.606 195.409H281.291C281.437 195.409 281.556 195.527 281.556 195.674V198.392C281.556 198.538 281.437 198.657 281.291 198.657Z" fill="#BFE9DB"/>
<path d="M236.953 159.607V150.481C236.953 149.488 237.758 148.683 238.751 148.683H268.573C269.566 148.683 270.371 147.878 270.371 146.885V145.465C270.371 144.472 269.566 143.667 268.573 143.667H235.155C234.162 143.667 233.357 144.472 233.357 145.465V159.606C233.357 160.524 234.049 161.295 234.961 161.393C236.025 161.509 236.953 160.676 236.953 159.607Z" fill="#5BE9B9"/>
<path d="M275.667 145.869L268.577 152.959C268.304 153.232 267.837 153.039 267.837 152.652V139.018C267.837 138.64 268.287 138.443 268.565 138.699L275.655 145.244C275.836 145.411 275.841 145.695 275.667 145.869Z" fill="#5BE9B9"/>
<path opacity="0.74" d="M464.239 184.044H355.936C354.458 184.044 353.259 182.846 353.259 181.368V152.624C353.259 151.146 354.457 149.948 355.936 149.948H464.238C465.716 149.948 466.914 151.146 466.914 152.624V181.368C466.915 182.846 465.717 184.044 464.239 184.044Z" fill="#379575"/>
<path d="M459.367 179.173H351.065C349.587 179.173 348.389 177.975 348.389 176.497V147.753C348.389 146.275 349.587 145.077 351.065 145.077H459.367C460.845 145.077 462.044 146.275 462.044 147.753V176.497C462.044 177.975 460.846 179.173 459.367 179.173Z" fill="#5BE9B9"/>
<path d="M453.351 159.69H386.305C385.988 159.69 385.731 159.433 385.731 159.116V157.016C385.731 156.699 385.988 156.442 386.305 156.442H453.351C453.668 156.442 453.925 156.699 453.925 157.016V159.116C453.925 159.433 453.668 159.69 453.351 159.69Z" fill="#FAF4DA"/>
<path d="M453.351 169.431H386.305C385.988 169.431 385.731 169.174 385.731 168.857V166.757C385.731 166.44 385.988 166.183 386.305 166.183H453.351C453.668 166.183 453.925 166.44 453.925 166.757V168.857C453.925 169.175 453.668 169.431 453.351 169.431Z" fill="#FAF4DA"/>
<path d="M367.872 171.055C373.252 171.055 377.614 166.694 377.614 161.313C377.614 155.933 373.252 151.571 367.872 151.571C362.492 151.571 358.13 155.933 358.13 161.313C358.13 166.694 362.492 171.055 367.872 171.055Z" fill="#FAF4DA"/>
<path d="M240.675 213.27H196.261C195.064 213.27 194.085 212.291 194.085 211.094V168.361C194.085 167.164 195.064 166.185 196.261 166.185H240.675C241.872 166.185 242.852 167.164 242.852 168.361V211.094C242.852 212.29 241.872 213.27 240.675 213.27Z" fill="#5BE9B9"/>
<path opacity="0.74" d="M240.675 213.27H196.261C195.064 213.27 194.085 212.291 194.085 211.094V168.361C194.085 167.164 195.064 166.185 196.261 166.185H240.675C241.872 166.185 242.852 167.164 242.852 168.361V211.094C242.852 212.29 241.872 213.27 240.675 213.27Z" fill="#379575"/>
<path opacity="0.74" d="M243.922 216.517H199.508C198.311 216.517 197.332 215.538 197.332 214.341V171.608C197.332 170.411 198.311 169.432 199.508 169.432H243.922C245.119 169.432 246.099 170.411 246.099 171.608V214.341C246.099 215.538 245.119 216.517 243.922 216.517Z" fill="#379575"/>
<path d="M212.712 186.788H199.811C199.338 186.788 198.955 186.405 198.955 185.932V173.535C198.955 173.062 199.338 172.679 199.811 172.679H212.712C213.185 172.679 213.568 173.062 213.568 173.535V185.932C213.568 186.404 213.185 186.788 212.712 186.788Z" fill="white"/>
<path d="M217.279 177.55H238.386" stroke="white" stroke-miterlimit="10" stroke-linecap="round"/>
<path d="M217.279 183.232H238.386" stroke="white" stroke-miterlimit="10" stroke-linecap="round"/>
<path d="M238.498 205.963H200.119C199.957 205.963 199.825 205.831 199.825 205.669V193.268C199.825 193.105 199.957 192.974 200.119 192.974H238.498C238.661 192.974 238.792 193.106 238.792 193.268V205.669C238.792 205.832 238.661 205.963 238.498 205.963Z" stroke="white" stroke-width="0.75" stroke-miterlimit="10" stroke-linecap="round"/>
</svg>
