<svg width="40" height="40" viewBox="0 0 40 40" fill="none" xmlns="http://www.w3.org/2000/svg">
<path d="M38.75 10H26.7044C26.29 8.17625 24.8694 5 20 5C15.1306 5 13.71 8.17625 13.2956 10H1.25C0.56 10 0 10.56 0 11.25V33.75C0 34.44 0.56 35 1.25 35H38.75C39.44 35 40 34.44 40 33.75V11.25C40 10.56 39.44 10 38.75 10ZM20 7.5C22.7094 7.5 23.7375 8.9025 24.13 10H15.8675C16.2613 8.90813 17.2931 7.5 20 7.5ZM37.5 12.5V17.5H2.5V12.5H37.5ZM18.125 20H21.875V21.25H18.125V20ZM2.5 32.5V20H15.625V22.5C15.625 23.19 16.185 23.75 16.875 23.75H23.125C23.815 23.75 24.375 23.19 24.375 22.5V20H37.5V32.5H2.5Z" fill="black"/>
</svg>
