<svg width="50" height="50" viewBox="0 0 50 50" fill="none" xmlns="http://www.w3.org/2000/svg">
<path d="M25.0002 12.5002C36.0467 12.5002 45.0002 25.3574 45.0002 25.3574C45.0002 25.3574 36.0467 37.5002 25.0002 37.5002C13.9538 37.5002 5.00024 25.3574 5.00024 25.3574C5.00024 25.3574 13.9538 12.5002 25.0002 12.5002ZM25.0002 9.64307C12.6045 9.64307 3.05596 23.1495 2.65596 23.7245C1.95667 24.7288 1.97453 26.0674 2.70096 27.0531C3.10167 27.5966 12.6531 40.3574 25.0002 40.3574C37.3474 40.3574 46.8988 27.5966 47.3002 27.0531C48.0267 26.0674 48.0445 24.7288 47.3452 23.7245C46.9445 23.1495 37.396 9.64307 25.0002 9.64307Z" fill="#9e9e9e"/>
<path d="M19.9374 16.585C19.656 16.585 19.3888 16.4178 19.276 16.1407C19.1267 15.7757 19.3017 15.3585 19.6674 15.2093C20.2367 14.9771 20.8124 14.7778 21.3788 14.6193C21.7595 14.5135 22.1531 14.7335 22.2595 15.1135C22.366 15.4935 22.1445 15.8878 21.7652 15.9943C21.2495 16.1385 20.726 16.3193 20.2067 16.5314C20.1188 16.5678 20.0274 16.585 19.9374 16.585Z" fill="#9e9e9e"/>
<path d="M8.70549 26.0054C8.56478 26.0054 8.42263 25.9639 8.29835 25.8768C7.97478 25.6518 7.89478 25.2068 8.12049 24.8825C8.23978 24.7111 11.0905 20.6532 15.4769 17.5468C15.7998 17.3189 16.2448 17.3954 16.4733 17.7168C16.7012 18.0389 16.6248 18.4846 16.3033 18.7132C12.1191 21.6754 9.3212 25.6589 9.29335 25.6982C9.15335 25.8989 8.93192 26.0054 8.70549 26.0054Z" fill="#9e9e9e"/>
<path d="M25.0001 19.454C28.2601 19.454 30.9037 22.0968 30.9037 25.3575C30.9037 28.6182 28.2608 31.2611 25.0001 31.2611C21.7394 31.2611 19.0965 28.6182 19.0965 25.3575C19.0965 22.0968 21.7401 19.454 25.0001 19.454ZM25.0001 18.0254C20.9573 18.0254 17.668 21.314 17.668 25.3575C17.668 29.4011 20.9573 32.6897 25.0001 32.6897C29.043 32.6897 32.3323 29.4004 32.3323 25.3575C32.3323 21.3147 29.043 18.0254 25.0001 18.0254Z" fill="#9e9e9e"/>
<path d="M25.0007 27.6C26.2394 27.6 27.2435 26.5958 27.2435 25.3571C27.2435 24.1184 26.2394 23.1143 25.0007 23.1143C23.762 23.1143 22.7578 24.1184 22.7578 25.3571C22.7578 26.5958 23.762 27.6 25.0007 27.6Z" fill="#9e9e9e"/>
</svg>
