<svg width="70" height="70" viewBox="0 0 70 70" fill="none" xmlns="http://www.w3.org/2000/svg">
<g clip-path="url(#clip0_377_934)">
<path d="M55.8063 25.9748C55.0671 25.9748 54.3545 25.5693 53.9969 24.865C50.3361 17.6574 43.0568 13.18 34.9999 13.18C26.9431 13.18 19.6641 17.6574 16.003 24.8648C15.4959 25.8632 14.2752 26.2611 13.277 25.7543C12.2785 25.2472 11.8801 24.0264 12.3872 23.0279C16.7435 14.4523 25.408 9.1246 34.9999 9.1246C44.5919 9.1246 53.2565 14.4521 57.6127 23.0284C58.1198 24.0268 57.7215 25.2473 56.7229 25.7545C56.4288 25.9038 56.1151 25.9748 55.8063 25.9748Z" fill="black"/>
<path d="M57.9213 65.1532L53.25 64.4019L56.6198 43.4478L61.2911 44.1991C64.9028 44.78 67.3601 48.1789 66.7791 51.7906L65.5129 59.6649C64.9318 63.277 61.533 65.7341 57.9213 65.1532Z" fill="#6E07F3"/>
<path d="M67.2503 45.6705C65.8964 43.7977 63.8943 42.5642 61.6127 42.1974L58.9434 41.7681L59.1957 40.2C59.3735 39.0943 58.6212 38.0539 57.5157 37.876L46.705 36.1375C46.1736 36.0518 45.631 36.1811 45.1953 36.4962C44.7595 36.8114 44.4665 37.2865 44.3811 37.8175L39.863 65.9118C39.6851 67.0175 40.4374 68.0579 41.5429 68.2358L52.3536 69.9743C52.4609 69.9915 52.5685 70 52.6755 70C53.0994 70 53.5157 69.867 53.8634 69.6155C54.2991 69.3004 54.5921 68.8252 54.6775 68.2943L54.9298 66.7261L57.5991 67.1554C58.0558 67.2288 58.5207 67.2662 58.9805 67.2662C63.2472 67.2662 66.8359 64.2049 67.5142 59.9874L68.7807 52.1128C69.1478 49.8311 68.6042 47.5433 67.2503 45.6705ZM44.1889 64.5537L48.0629 40.4631L54.8697 41.5577L53.5279 49.9027L51.2479 64.0801V64.0806L50.9958 65.6482L44.1889 64.5537ZM64.7769 51.4689L63.5104 59.3435C63.15 61.5843 61.2451 63.2107 58.9805 63.2107C58.7355 63.2107 58.4873 63.1906 58.2427 63.1515L55.5734 62.7222L56.558 56.5999L58.2993 45.7721L60.9686 46.2014C62.1808 46.3962 63.2443 47.0516 63.9636 48.0465C64.683 49.0413 64.9718 50.2567 64.7769 51.4689Z" fill="black"/>
<path d="M12.0786 65.1532L16.7499 64.4019L13.3802 43.4481L8.7089 44.1994C5.0972 44.7803 2.63995 48.1791 3.22074 51.7908L4.48703 59.6652C5.06808 63.277 8.46691 65.7341 12.0786 65.1532Z" fill="#6E07F3"/>
<path d="M34.9997 0C15.9924 0 0.528809 15.4636 0.528809 34.4709C0.528809 38.4397 1.19709 42.3171 2.51273 46.0152C1.33326 47.8204 0.87416 49.9692 1.21883 52.1128L2.48539 59.9871C3.16365 64.2045 6.75252 67.2658 11.019 67.2659C11.019 67.2659 11.0191 67.2659 11.0194 67.2659C11.479 67.2659 11.9439 67.2286 12.4008 67.1552L15.0701 66.7259L15.3223 68.294C15.4076 68.8249 15.7005 69.3001 16.1365 69.6153C16.4843 69.8667 16.9005 69.9997 17.3243 69.9997C17.4313 69.9997 17.5392 69.9912 17.6463 69.974L28.4569 68.2355C29.5625 68.0576 30.3146 67.0172 30.1369 65.9116L27.5753 49.9834C27.3975 48.8778 26.3579 48.125 25.2514 48.3034C24.1457 48.4813 23.3937 49.5217 23.5714 50.6274L25.811 64.5535L19.0042 65.6481L18.7521 64.0805V64.0799L16.4721 49.9026L15.1302 41.5576L21.9371 40.463L22.2672 42.5165C22.4451 43.622 23.4847 44.3747 24.5912 44.1965C25.6968 44.0187 26.4489 42.9782 26.2712 41.8726L25.619 37.8172C25.5337 37.2862 25.2409 36.8111 24.8049 36.496C24.3691 36.1808 23.8257 36.0515 23.2951 36.1372L12.4845 37.8757C11.3788 38.0536 10.6267 39.094 10.8045 40.1997L11.0567 41.7679L8.3874 42.1971C7.47494 42.3437 6.60856 42.6312 5.80916 43.0407C4.99664 40.2719 4.58457 37.4001 4.58457 34.4709C4.58457 17.6997 18.229 4.05549 35 4.05549C51.771 4.05549 65.4154 17.6999 65.4154 34.4709C65.4154 35.5908 66.3232 36.4986 67.4431 36.4986C68.5629 36.4986 69.4707 35.5908 69.4707 34.4709C69.4705 15.4636 54.007 0 34.9997 0ZM9.03094 46.2014L11.7002 45.7721L13.4416 56.5999L14.4261 62.7222L11.7568 63.1515C11.5121 63.1909 11.264 63.2107 11.0191 63.2107C8.75463 63.2105 6.84959 61.584 6.4892 59.3433L5.22264 51.469C5.02781 50.2569 5.31656 49.0414 6.0357 48.0464C6.75484 47.0513 7.81879 46.3962 9.03094 46.2014Z" fill="black"/>
</g>
<defs>
<clipPath id="clip0_377_934">
<rect width="70" height="70" fill="white"/>
</clipPath>
</defs>
</svg>
