<svg width="140" height="115" viewBox="0 0 140 115" fill="none" xmlns="http://www.w3.org/2000/svg">
<path d="M113.42 113.513H5.77285C5.24514 113.516 4.72275 113.411 4.2398 113.207C3.75684 113.002 3.32418 112.702 2.97008 112.326C2.61598 111.949 2.34839 111.505 2.18481 111.023C2.02122 110.54 1.96533 110.03 2.02075 109.525L11.401 5.98781C11.5114 4.90732 12.0314 3.9037 12.8618 3.16826C13.6921 2.43282 14.7748 2.017 15.9035 2.00006H123.551C124.079 1.99725 124.601 2.10154 125.084 2.30611C125.567 2.51069 126 2.81096 126.354 3.1873C126.708 3.56364 126.976 4.00759 127.139 4.49016C127.303 4.97272 127.359 5.48305 127.303 5.98781L117.923 109.525C117.805 110.603 117.282 111.602 116.454 112.336C115.625 113.07 114.547 113.488 113.42 113.513Z" fill="#5BE9B9"/>
<path opacity="0.7" d="M113.42 113.513H5.77285C5.24514 113.516 4.72275 113.411 4.2398 113.207C3.75684 113.002 3.32418 112.702 2.97008 112.326C2.61598 111.949 2.34839 111.505 2.18481 111.023C2.02122 110.54 1.96533 110.03 2.02075 109.525L11.401 5.98781C11.5114 4.90732 12.0314 3.9037 12.8618 3.16826C13.6921 2.43282 14.7748 2.017 15.9035 2.00006H123.551C124.079 1.99725 124.601 2.10154 125.084 2.30611C125.567 2.51069 126 2.81096 126.354 3.1873C126.708 3.56364 126.976 4.00759 127.139 4.49016C127.303 4.97272 127.359 5.48305 127.303 5.98781L117.923 109.525C117.805 110.603 117.282 111.602 116.454 112.336C115.625 113.07 114.547 113.488 113.42 113.513Z" fill="white"/>
<path d="M17.5918 12.4837L9.37475 103.011C9.31933 103.516 9.37525 104.026 9.53883 104.509C9.70242 104.991 9.96998 105.435 10.3241 105.812C10.6782 106.188 11.1108 106.488 11.5938 106.693C12.0768 106.897 12.5991 107.002 13.1268 106.999H107.229C108.36 106.982 109.445 106.567 110.279 105.832C111.112 105.097 111.636 104.093 111.751 103.011L120.062 12.4837C120.117 11.9789 120.061 11.4686 119.897 10.986C119.734 10.5034 119.466 10.0595 119.112 9.68315C118.758 9.30681 118.325 9.00654 117.843 8.80196C117.36 8.59739 116.837 8.4931 116.309 8.4959H22.0944C20.9657 8.51285 19.883 8.92869 19.0526 9.66412C18.2222 10.3996 17.7023 11.4032 17.5918 12.4837Z" fill="#5BE9B9"/>
<path opacity="0.2" d="M17.5918 12.4837L9.37475 103.011C9.31933 103.516 9.37525 104.026 9.53883 104.509C9.70242 104.991 9.96998 105.435 10.3241 105.812C10.6782 106.188 11.1108 106.488 11.5938 106.693C12.0768 106.897 12.5991 107.002 13.1268 106.999H107.229C108.36 106.982 109.445 106.567 110.279 105.832C111.112 105.097 111.636 104.093 111.751 103.011L120.062 12.4837C120.117 11.9789 120.061 11.4686 119.897 10.986C119.734 10.5034 119.466 10.0595 119.112 9.68315C118.758 9.30681 118.325 9.00654 117.843 8.80196C117.36 8.59739 116.837 8.4931 116.309 8.4959H22.0944C20.9657 8.51285 19.883 8.92869 19.0526 9.66412C18.2222 10.3996 17.7023 11.4032 17.5918 12.4837Z" fill="white"/>
<path d="M112.257 78.9223L101.32 20.5675L95.429 21.163L86.7241 81.4665L112.257 78.9223Z" fill="#5BE9B9"/>
<path opacity="0.3" d="M112.257 78.9223L101.32 20.5675L95.429 21.163L86.7241 81.4665L112.257 78.9223Z" fill="black"/>
<path d="M92.5406 80.8891L12.771 88.8826L21.5509 28.5611L101.32 20.5675L92.5406 80.8891Z" fill="#5BE9B9"/>
<path opacity="0.9" d="M92.5406 80.8891L12.771 88.8826L21.5509 28.5611L101.32 20.5675L92.5406 80.8891Z" fill="white"/>
<path d="M70.7028 40.2718L25.3774 44.8189L26.2967 38.4313L71.6408 33.8842L70.7028 40.2718Z" fill="#5BE9B9"/>
<path d="M29.8805 69.359L21.6821 70.1709L22.8453 62.2315L31.0436 61.4015L29.8805 69.359Z" fill="#5BE9B9"/>
<path d="M28.2476 80.6184L20.0493 81.4484L21.1937 73.509L29.392 72.679L28.2476 80.6184Z" fill="#5BE9B9"/>
<path opacity="0.3" d="M29.8805 69.359L21.6821 70.1709L22.8453 62.2315L31.0436 61.4015L29.8805 69.359Z" fill="white"/>
<path opacity="0.3" d="M28.2476 80.6184L20.0493 81.4484L21.1937 73.509L29.392 72.679L28.2476 80.6184Z" fill="white"/>
<path d="M31.5313 58.0814L23.333 58.8934L24.4774 50.9539L32.6757 50.1239L31.5313 58.0814Z" fill="#5BE9B9"/>
<path d="M42.9376 56.9264L34.7393 57.7564L35.8836 49.817L44.082 48.9869L42.9376 56.9264Z" fill="#5BE9B9"/>
<path opacity="0.7" d="M31.5313 58.0814L23.333 58.8934L24.4774 50.9539L32.6757 50.1239L31.5313 58.0814Z" fill="white"/>
<path opacity="0.7" d="M42.9376 56.9264L34.7393 57.7564L35.8836 49.817L44.082 48.9869L42.9376 56.9264Z" fill="white"/>
<path d="M41.2872 68.2041L33.0889 69.0341L34.252 61.0767L42.4504 60.2646L41.2872 68.2041Z" fill="#5BE9B9"/>
<path d="M39.6544 79.4817L31.4561 80.2937L32.6004 72.3542L40.7988 71.5422L39.6544 79.4817Z" fill="#5BE9B9"/>
<path d="M54.3443 55.7896L46.146 56.6197L47.3091 48.6622L55.5075 47.8502L54.3443 55.7896Z" fill="#5BE9B9"/>
<path d="M52.7115 67.0672L44.5132 67.8792L45.6576 59.9398L53.8559 59.1278L52.7115 67.0672Z" fill="#5BE9B9"/>
<path d="M51.0611 78.3449L42.8628 79.1569L44.0259 71.2175L52.2243 70.3875L51.0611 78.3449Z" fill="#5BE9B9"/>
<path d="M65.7496 54.6528L57.5513 55.4648L58.7144 47.5253L66.9128 46.6953L65.7496 54.6528Z" fill="#5BE9B9"/>
<path d="M64.1182 65.9123L55.9199 66.7424L57.0831 58.8029L65.2626 57.9729L64.1182 65.9123Z" fill="#5BE9B9"/>
<path d="M62.4859 77.1899L54.2876 78.0199L55.432 70.0805L63.6303 69.2505L62.4859 77.1899Z" fill="#5BE9B9"/>
<path d="M77.1754 53.498L68.9771 54.328L70.1214 46.3886L78.3198 45.5586L77.1754 53.498Z" fill="#5BE9B9"/>
<path d="M75.525 64.7756L67.3267 65.6056L68.4898 57.6482L76.6882 56.8362L75.525 64.7756Z" fill="#5BE9B9"/>
<path d="M73.8922 76.0532L65.6938 76.8652L66.8382 68.9258L75.0366 68.1138L73.8922 76.0532Z" fill="#5BE9B9"/>
<path opacity="0.3" d="M41.2872 68.2041L33.0889 69.0341L34.252 61.0767L42.4504 60.2646L41.2872 68.2041Z" fill="white"/>
<path opacity="0.3" d="M39.6544 79.4817L31.4561 80.2937L32.6004 72.3542L40.7988 71.5422L39.6544 79.4817Z" fill="white"/>
<path opacity="0.3" d="M54.3443 55.7896L46.146 56.6197L47.3091 48.6622L55.5075 47.8502L54.3443 55.7896Z" fill="white"/>
<path opacity="0.3" d="M52.7115 67.0672L44.5132 67.8792L45.6576 59.9398L53.8559 59.1278L52.7115 67.0672Z" fill="white"/>
<path opacity="0.3" d="M51.0611 78.3449L42.8628 79.1569L44.0259 71.2175L52.2243 70.3875L51.0611 78.3449Z" fill="white"/>
<path opacity="0.3" d="M65.7496 54.6528L57.5513 55.4648L58.7144 47.5253L66.9128 46.6953L65.7496 54.6528Z" fill="white"/>
<path opacity="0.3" d="M64.1182 65.9123L55.9199 66.7424L57.0831 58.8029L65.2626 57.9729L64.1182 65.9123Z" fill="white"/>
<path opacity="0.3" d="M62.4859 77.1899L54.2876 78.0199L55.432 70.0805L63.6303 69.2505L62.4859 77.1899Z" fill="white"/>
<path opacity="0.3" d="M77.1754 53.498L68.9771 54.328L70.1214 46.3886L78.3198 45.5586L77.1754 53.498Z" fill="white"/>
<path opacity="0.3" d="M75.525 64.7756L67.3267 65.6056L68.4898 57.6482L76.6882 56.8362L75.525 64.7756Z" fill="white"/>
<path opacity="0.3" d="M73.8922 76.0532L65.6938 76.8652L66.8382 68.9258L75.0366 68.1138L73.8922 76.0532Z" fill="white"/>
<path d="M88.5821 52.3613L80.3838 53.1733L81.5469 45.2339L89.7265 44.4219L88.5821 52.3613Z" fill="#5BE9B9"/>
<path d="M86.9303 63.6388L78.7319 64.4508L79.8951 56.5113L88.0934 55.6993L86.9303 63.6388Z" fill="#5BE9B9"/>
<path opacity="0.2" d="M88.5821 52.3613L80.3838 53.1733L81.5469 45.2339L89.7265 44.4219L88.5821 52.3613Z" fill="black"/>
<path opacity="0.2" d="M86.9303 63.6388L78.7319 64.4508L79.8951 56.5113L88.0934 55.6993L86.9303 63.6388Z" fill="black"/>
<path d="M85.2989 74.9163L77.1006 75.7283L78.2637 67.7889L86.462 66.9589L85.2989 74.9163Z" fill="#5BE9B9"/>
<path opacity="0.7" d="M85.2989 74.9163L77.1006 75.7283L78.2637 67.7889L86.462 66.9589L85.2989 74.9163Z" fill="white"/>
<path d="M29.0551 30.7082C28.8558 30.731 28.6536 30.7132 28.462 30.6557C28.2703 30.5983 28.0934 30.5025 27.9429 30.3748C27.7924 30.247 27.6716 30.0901 27.5884 29.9144C27.5053 29.7386 27.4617 29.548 27.4604 29.3549V26.4678C27.4626 26.0554 27.6225 25.6582 27.9097 25.352C28.1969 25.0458 28.5913 24.8521 29.0176 24.8077C29.2169 24.7849 29.419 24.8028 29.6107 24.8602C29.8024 24.9177 29.9793 25.0134 30.1298 25.1412C30.2803 25.2689 30.4011 25.4258 30.4842 25.6016C30.5674 25.7773 30.611 25.968 30.6122 26.1611V29.0481C30.6101 29.4605 30.4501 29.8577 30.1629 30.1639C29.8757 30.4701 29.4814 30.6638 29.0551 30.7082Z" fill="#263238"/>
<path d="M37.9098 29.8242C37.7095 29.8469 37.5065 29.829 37.3139 29.7717C37.1212 29.7144 36.9432 29.6189 36.7912 29.4915C36.6392 29.364 36.5167 29.2073 36.4315 29.0315C36.3462 28.8558 36.3002 28.6648 36.2964 28.4709V25.5838C36.298 25.1742 36.4553 24.7793 36.7386 24.4735C37.022 24.1677 37.4118 23.9722 37.8347 23.9237C38.035 23.901 38.238 23.9189 38.4306 23.9762C38.6233 24.0335 38.8013 24.129 38.9533 24.2564C39.1053 24.3839 39.2278 24.5406 39.313 24.7164C39.3983 24.8921 39.4443 25.0831 39.4481 25.277V28.1641C39.4426 28.5726 39.2839 28.9655 39.0013 29.2704C38.7187 29.5754 38.3311 29.772 37.9098 29.8242Z" fill="#263238"/>
<path d="M46.7455 28.9399C46.5462 28.9627 46.3441 28.9449 46.1524 28.8874C45.9607 28.83 45.7838 28.7342 45.6333 28.6065C45.4828 28.4787 45.362 28.3218 45.2788 28.1461C45.1957 27.9703 45.1521 27.7797 45.1509 27.5866V24.6995C45.153 24.2871 45.3129 23.8899 45.6001 23.5837C45.8873 23.2775 46.2817 23.0838 46.708 23.0394C46.9073 23.0166 47.1094 23.0344 47.3011 23.0919C47.4928 23.1494 47.6697 23.2451 47.8202 23.3729C47.9707 23.5006 48.0915 23.6575 48.1747 23.8332C48.2578 24.009 48.3014 24.1997 48.3026 24.3927V27.2798C48.2749 27.6846 48.1061 28.0686 47.8236 28.3697C47.5411 28.6709 47.1613 28.8718 46.7455 28.9399Z" fill="#263238"/>
<path d="M55.6002 28.0378C55.4005 28.0663 55.1967 28.0531 55.0028 27.9991C54.8088 27.9451 54.6292 27.8516 54.4761 27.7249C54.3231 27.5983 54.2001 27.4414 54.1157 27.265C54.0313 27.0886 53.9873 26.8967 53.9868 26.7025V23.8155C54.0146 23.4107 54.1833 23.0267 54.4658 22.7255C54.7484 22.4243 55.1282 22.2235 55.5439 22.1554C55.7423 22.1297 55.944 22.145 56.1356 22.2003C56.3273 22.2556 56.5045 22.3496 56.6554 22.4759C56.8064 22.6023 56.9275 22.7582 57.0108 22.9332C57.0941 23.1082 57.1377 23.2982 57.1386 23.4907V26.3777C57.1411 26.7885 56.9852 27.1855 56.7011 27.4921C56.417 27.7987 56.0247 27.9932 55.6002 28.0378Z" fill="#263238"/>
<path d="M64.4369 27.1537C64.2386 27.1794 64.0369 27.1641 63.8452 27.1088C63.6536 27.0535 63.4763 26.9596 63.3254 26.8332C63.1745 26.7068 63.0534 26.551 62.97 26.376C62.8867 26.201 62.8432 26.0109 62.8423 25.8185V22.9314C62.8439 22.5218 63.0012 22.1269 63.2845 21.8211C63.5679 21.5153 63.9578 21.3198 64.3807 21.2714C64.5799 21.2459 64.7825 21.2612 64.9751 21.3164C65.1678 21.3715 65.3461 21.4652 65.4984 21.5912C65.6508 21.7173 65.7737 21.873 65.8591 22.048C65.9445 22.223 65.9905 22.4133 65.994 22.6066V25.4937C65.9879 25.9049 65.8266 26.3 65.5401 26.6054C65.2537 26.9108 64.8616 27.1057 64.4369 27.1537Z" fill="#263238"/>
<path d="M73.2921 26.2695C73.0924 26.298 72.8886 26.2848 72.6946 26.2308C72.5007 26.1768 72.321 26.0833 72.168 25.9566C72.0149 25.8299 71.892 25.6731 71.8076 25.4967C71.7232 25.3202 71.6792 25.1284 71.6787 24.9342V22.0471C71.6849 21.6359 71.8462 21.2408 72.1326 20.9354C72.4191 20.63 72.8111 20.4352 73.2358 20.3871C73.4341 20.3614 73.6358 20.3767 73.8275 20.432C74.0192 20.4873 74.1964 20.5812 74.3473 20.7076C74.4983 20.834 74.6194 20.9899 74.7027 21.1648C74.786 21.3398 74.8296 21.5299 74.8305 21.7223V24.6094C74.8289 25.019 74.6716 25.4139 74.3882 25.7197C74.1048 26.0255 73.715 26.221 73.2921 26.2695Z" fill="#263238"/>
<path d="M82.1281 25.3852C81.9288 25.4107 81.7263 25.3953 81.5336 25.3402C81.341 25.2851 81.1626 25.1914 81.0103 25.0653C80.8579 24.9392 80.735 24.7836 80.6496 24.6086C80.5642 24.4336 80.5182 24.2432 80.5147 24.0499V21.1629C80.5121 20.7521 80.668 20.3551 80.9522 20.0485C81.2363 19.7419 81.6285 19.5474 82.0531 19.5028C82.2523 19.4773 82.4549 19.4927 82.6475 19.5478C82.8401 19.6029 83.0185 19.6966 83.1708 19.8227C83.3232 19.9488 83.4461 20.1044 83.5315 20.2794C83.6169 20.4544 83.6629 20.6448 83.6665 20.8381V23.7251C83.6649 24.1347 83.5075 24.5296 83.2242 24.8354C82.9408 25.1412 82.551 25.3367 82.1281 25.3852Z" fill="#263238"/>
<path d="M90.9648 24.5012C90.767 24.5239 90.5664 24.5065 90.3761 24.4501C90.1857 24.3937 90.0097 24.2996 89.8595 24.1738C89.7092 24.048 89.5881 23.8933 89.5038 23.7197C89.4195 23.5461 89.374 23.3574 89.3701 23.1659V20.2788C89.3681 19.8653 89.5266 19.4659 89.8146 19.1589C90.1026 18.8518 90.4994 18.6592 90.9273 18.6188C91.1256 18.5931 91.3273 18.6084 91.519 18.6637C91.7106 18.719 91.8878 18.8129 92.0388 18.9393C92.1897 19.0657 92.3108 19.2215 92.3942 19.3965C92.4775 19.5715 92.521 19.7616 92.5219 19.954V22.8411C92.5198 23.2535 92.3598 23.6507 92.0726 23.9569C91.7854 24.2631 91.3911 24.4568 90.9648 24.5012Z" fill="#263238"/>
<path d="M29.0551 30.7084C28.8558 30.7313 28.6536 30.7134 28.462 30.656C28.2703 30.5985 28.0934 30.5028 27.9429 30.375C27.7924 30.2473 27.6716 30.0904 27.5884 29.9146C27.5053 29.7389 27.4617 29.5482 27.4604 29.3551V26.468C27.4626 26.0557 27.6225 25.6585 27.9097 25.3523C28.1969 25.0461 28.5913 24.8523 29.0176 24.808C29.2169 24.7851 29.419 24.803 29.6107 24.8605C29.8024 24.9179 29.9793 25.0137 30.1298 25.1414C30.2803 25.2692 30.4011 25.426 30.4842 25.6018C30.5674 25.7776 30.611 25.9682 30.6122 26.1613V29.0484C30.6101 29.4607 30.4501 29.8579 30.1629 30.1641C29.8757 30.4703 29.4814 30.6641 29.0551 30.7084Z" fill="white" fill-opacity="0.4"/>
<path d="M37.9098 29.8242C37.7095 29.8469 37.5065 29.829 37.3139 29.7717C37.1212 29.7144 36.9432 29.6189 36.7912 29.4915C36.6392 29.364 36.5167 29.2073 36.4315 29.0315C36.3462 28.8558 36.3002 28.6648 36.2964 28.4709V25.5838C36.298 25.1742 36.4553 24.7793 36.7386 24.4735C37.022 24.1677 37.4118 23.9722 37.8347 23.9237C38.035 23.901 38.238 23.9189 38.4306 23.9762C38.6233 24.0335 38.8013 24.129 38.9533 24.2564C39.1053 24.3839 39.2278 24.5406 39.313 24.7164C39.3983 24.8921 39.4443 25.0831 39.4481 25.277V28.1641C39.4426 28.5726 39.2839 28.9655 39.0013 29.2704C38.7187 29.5754 38.3311 29.772 37.9098 29.8242Z" fill="white" fill-opacity="0.4"/>
<path d="M46.7465 28.9399C46.5471 28.9627 46.345 28.9449 46.1534 28.8874C45.9617 28.83 45.7848 28.7342 45.6343 28.6065C45.4837 28.4787 45.363 28.3218 45.2798 28.1461C45.1967 27.9703 45.1531 27.7797 45.1519 27.5866V24.6995C45.154 24.2871 45.3139 23.8899 45.6011 23.5837C45.8883 23.2775 46.2827 23.0838 46.709 23.0394C46.9083 23.0166 47.1104 23.0344 47.3021 23.0919C47.4937 23.1494 47.6706 23.2451 47.8212 23.3729C47.9717 23.5006 48.0925 23.6575 48.1756 23.8332C48.2588 24.009 48.3024 24.1997 48.3036 24.3927V27.2798C48.2758 27.6846 48.1071 28.0686 47.8246 28.3697C47.5421 28.6709 47.1623 28.8718 46.7465 28.9399Z" fill="white" fill-opacity="0.4"/>
<path d="M55.6012 28.0377C55.4015 28.0662 55.1977 28.053 55.0037 27.999C54.8098 27.945 54.6302 27.8515 54.4771 27.7248C54.324 27.5981 54.2011 27.4413 54.1167 27.2649C54.0323 27.0884 53.9883 26.8966 53.9878 26.7024V23.8153C54.0156 23.4106 54.1843 23.0266 54.4668 22.7254C54.7493 22.4242 55.1291 22.2234 55.5449 22.1553C55.7432 22.1296 55.945 22.1449 56.1366 22.2002C56.3283 22.2555 56.5055 22.3494 56.6564 22.4758C56.8073 22.6022 56.9285 22.7581 57.0118 22.933C57.0951 23.108 57.1387 23.2981 57.1396 23.4905V26.3776C57.1421 26.7883 56.9862 27.1854 56.7021 27.492C56.4179 27.7986 56.0257 27.993 55.6012 28.0377Z" fill="white" fill-opacity="0.4"/>
<path d="M64.4369 27.1536C64.2386 27.1793 64.0369 27.164 63.8452 27.1087C63.6536 27.0534 63.4763 26.9595 63.3254 26.8331C63.1745 26.7067 63.0534 26.5508 62.97 26.3759C62.8867 26.2009 62.8432 26.0108 62.8423 25.8183V22.9313C62.8439 22.5217 63.0012 22.1268 63.2845 21.821C63.5679 21.5152 63.9578 21.3197 64.3807 21.2712C64.5799 21.2458 64.7825 21.2611 64.9751 21.3162C65.1678 21.3714 65.3461 21.465 65.4984 21.5911C65.6508 21.7172 65.7737 21.8729 65.8591 22.0478C65.9445 22.2228 65.9905 22.4132 65.994 22.6065V25.4936C65.9879 25.9048 65.8266 26.2999 65.5401 26.6053C65.2537 26.9107 64.8616 27.1055 64.4369 27.1536Z" fill="white" fill-opacity="0.4"/>
<path d="M73.2916 26.2695C73.0919 26.298 72.8881 26.2848 72.6941 26.2308C72.5002 26.1768 72.3206 26.0833 72.1675 25.9566C72.0144 25.8299 71.8915 25.6731 71.8071 25.4967C71.7227 25.3202 71.6787 25.1284 71.6782 24.9342V22.0471C71.6844 21.6359 71.8457 21.2408 72.1321 20.9354C72.4186 20.63 72.8106 20.4352 73.2353 20.3871C73.4336 20.3614 73.6354 20.3767 73.827 20.432C74.0187 20.4873 74.1959 20.5812 74.3468 20.7076C74.4978 20.834 74.6189 20.9899 74.7022 21.1648C74.7856 21.3398 74.8291 21.5299 74.83 21.7223V24.6094C74.8284 25.019 74.6711 25.4139 74.3877 25.7197C74.1044 26.0255 73.7145 26.221 73.2916 26.2695Z" fill="white" fill-opacity="0.4"/>
<path d="M82.1281 25.3854C81.9288 25.4109 81.7263 25.3956 81.5336 25.3404C81.341 25.2853 81.1626 25.1916 81.0103 25.0655C80.8579 24.9394 80.735 24.7838 80.6496 24.6088C80.5642 24.4338 80.5182 24.2435 80.5147 24.0502V21.1631C80.5121 20.7524 80.668 20.3553 80.9522 20.0487C81.2363 19.7421 81.6285 19.5477 82.0531 19.503C82.2523 19.4776 82.4549 19.4929 82.6475 19.548C82.8401 19.6032 83.0185 19.6969 83.1708 19.8229C83.3232 19.949 83.4461 20.1047 83.5315 20.2797C83.6169 20.4547 83.6629 20.645 83.6665 20.8383V23.7254C83.6649 24.135 83.5075 24.5299 83.2242 24.8357C82.9408 25.1414 82.551 25.337 82.1281 25.3854Z" fill="white" fill-opacity="0.4"/>
<path d="M90.9648 24.5012C90.767 24.5239 90.5664 24.5065 90.3761 24.4501C90.1857 24.3937 90.0097 24.2996 89.8595 24.1738C89.7092 24.048 89.5881 23.8933 89.5038 23.7197C89.4195 23.5461 89.374 23.3574 89.3701 23.1659V20.2788C89.3681 19.8653 89.5266 19.4659 89.8146 19.1589C90.1026 18.8518 90.4994 18.6592 90.9273 18.6188C91.1256 18.5931 91.3273 18.6084 91.519 18.6637C91.7106 18.719 91.8878 18.8129 92.0388 18.9393C92.1897 19.0657 92.3108 19.2215 92.3942 19.3965C92.4775 19.5715 92.521 19.7616 92.5219 19.954V22.8411C92.5198 23.2535 92.3598 23.6507 92.0726 23.9569C91.7854 24.2631 91.3911 24.4568 90.9648 24.5012Z" fill="white" fill-opacity="0.4"/>
<path d="M58.8272 59.7414C60.5321 59.4339 62.2815 59.4339 63.9863 59.7414C67.3445 60.7158 64.1364 64.2344 62.0165 64.9381C59.8966 65.6419 56.5572 65.1727 55.788 62.863C54.8875 60.1564 58.0768 58.2438 60.4781 57.8829C61.1348 57.8829 61.116 56.8363 60.4781 56.9265C57.589 57.3416 54.2309 59.4527 54.6999 62.6285C55.1502 65.5156 58.5833 66.6162 61.3411 66.0749C63.8175 65.6058 67.1756 63.2059 66.4064 60.4632C65.6373 57.7205 61.0034 58.4964 58.9022 58.6588C58.2644 58.6588 58.2831 59.6873 58.9022 59.6151L58.8272 59.7414Z" fill="#5BE9B9"/>
<path d="M58.8272 59.7414C60.5321 59.4339 62.2815 59.4339 63.9863 59.7414C67.3445 60.7158 64.1364 64.2344 62.0165 64.9381C59.8966 65.6419 56.5572 65.1727 55.788 62.863C54.8875 60.1564 58.0768 58.2438 60.4781 57.8829C61.1348 57.8829 61.116 56.8363 60.4781 56.9265C57.589 57.3416 54.2309 59.4527 54.6999 62.6285C55.1502 65.5156 58.5833 66.6162 61.3411 66.0749C63.8175 65.6058 67.1756 63.2059 66.4064 60.4632C65.6373 57.7205 61.0034 58.4964 58.9022 58.6588C58.2644 58.6588 58.2831 59.6873 58.9022 59.6151L58.8272 59.7414Z" fill="black" fill-opacity="0.3"/>
<path d="M118.298 78.8501L138.166 61.2931L121.506 43.7362L118.298 78.8501Z" fill="#5BE9B9"/>
<path opacity="0.7" d="M118.298 78.8501L138.166 61.2931L121.506 43.7362L118.298 78.8501Z" fill="white"/>
</svg>
