<svg width="140" height="120" viewBox="0 0 140 120" fill="none" xmlns="http://www.w3.org/2000/svg">
<path d="M124.781 117.233H17.1337C16.606 117.236 16.0836 117.131 15.6006 116.927C15.1177 116.722 14.685 116.422 14.3309 116.046C13.9768 115.669 13.7093 115.225 13.5457 114.743C13.3821 114.26 13.3262 113.75 13.3816 113.245L22.7618 9.70789C22.8805 8.62736 23.4056 7.62577 24.2382 6.89141C25.0708 6.15705 26.1536 5.74053 27.2831 5.72015H134.931C135.458 5.71734 135.981 5.82163 136.464 6.02621C136.947 6.23079 137.379 6.53104 137.733 6.90738C138.088 7.28372 138.355 7.72768 138.519 8.21025C138.682 8.69281 138.738 9.20313 138.683 9.70789L129.303 113.245C129.192 114.329 128.669 115.335 127.835 116.071C127.001 116.807 125.913 117.22 124.781 117.233Z" fill="#5BE9B9"/>
<path opacity="0.7" d="M124.781 117.233H17.1337C16.606 117.236 16.0836 117.131 15.6006 116.927C15.1177 116.722 14.685 116.422 14.3309 116.046C13.9768 115.669 13.7093 115.225 13.5457 114.743C13.3821 114.26 13.3262 113.75 13.3816 113.245L22.7618 9.70789C22.8805 8.62736 23.4056 7.62577 24.2382 6.89141C25.0708 6.15705 26.1536 5.74053 27.2831 5.72015H134.931C135.458 5.71734 135.981 5.82163 136.464 6.02621C136.947 6.23079 137.379 6.53104 137.733 6.90738C138.088 7.28372 138.355 7.72768 138.519 8.21025C138.682 8.69281 138.738 9.20313 138.683 9.70789L129.303 113.245C129.192 114.329 128.669 115.335 127.835 116.071C127.001 116.807 125.913 117.22 124.781 117.233Z" fill="white"/>
<path d="M28.8588 16.2038L20.698 106.731C20.6426 107.236 20.6985 107.746 20.8621 108.229C21.0257 108.711 21.2933 109.155 21.6474 109.532C22.0015 109.908 22.4341 110.208 22.917 110.413C23.4 110.617 23.9224 110.722 24.4501 110.719H118.571C119.7 110.702 120.783 110.286 121.613 109.551C122.444 108.815 122.964 107.812 123.074 106.731L131.31 16.2038C131.365 15.699 131.309 15.1887 131.146 14.7061C130.982 14.2235 130.715 13.7796 130.36 13.4033C130.006 13.0269 129.574 12.7266 129.091 12.5221C128.608 12.3175 128.085 12.2132 127.558 12.216H33.4552C32.3127 12.2188 31.2115 12.6274 30.3632 13.3635C29.5148 14.0995 28.9791 15.111 28.8588 16.2038Z" fill="#5BE9B9"/>
<path opacity="0.1" d="M28.8588 16.2038L20.698 106.731C20.6426 107.236 20.6985 107.746 20.8621 108.229C21.0257 108.711 21.2933 109.155 21.6474 109.532C22.0015 109.908 22.4341 110.208 22.917 110.413C23.4 110.617 23.9224 110.722 24.4501 110.719H118.571C119.7 110.702 120.783 110.286 121.613 109.551C122.444 108.815 122.964 107.812 123.074 106.731L131.31 16.2038C131.365 15.699 131.309 15.1887 131.146 14.7061C130.982 14.2235 130.715 13.7796 130.36 13.4033C130.006 13.0269 129.574 12.7266 129.091 12.5221C128.608 12.3175 128.085 12.2132 127.558 12.216H33.4552C32.3127 12.2188 31.2115 12.6274 30.3632 13.3635C29.5148 14.0995 28.9791 15.111 28.8588 16.2038Z" fill="black"/>
<path d="M83.2645 6.35161C83.2645 0.848148 77.2424 2.12929 69.8132 2.12929C62.3841 2.12929 56.362 0.848148 56.362 6.35161C56.3302 7.27918 56.538 8.19987 56.9669 9.03122C57.3958 9.86257 58.0324 10.5786 58.8196 11.1153H58.1255C49.9272 11.1153 43.2859 10.8807 43.2859 17.6653C43.3403 19.7338 43.9557 21.7528 45.0712 23.5221C46.1868 25.2913 47.7637 26.7495 49.6457 27.752C48.4353 28.3222 47.4106 29.2007 46.683 30.2918C45.9553 31.383 45.5525 32.6452 45.5184 33.9411C45.5184 37.9108 49.2705 38.2537 53.8481 38.2537H54.6173C53.4297 39.4085 52.6817 40.9148 52.4945 42.5291C52.3072 44.1434 52.6916 45.7713 53.5854 47.1494C53.2102 47.1494 52.835 47.1494 52.4411 47.1494C46.419 47.1494 41.56 50.3613 41.4287 54.3671H40.6595C30.4538 54.3671 22.1616 59.9247 22.1616 66.7814C22.1616 73.6382 30.4538 79.1778 40.6595 79.1778C50.8652 79.1778 59.1573 73.6202 59.1573 66.7814C59.1053 65.2769 58.7124 63.8015 58.006 62.4582C57.2996 61.1149 56.2967 59.9362 55.0675 59.0044C59.8702 58.824 63.4535 58.012 63.4535 54.5475C63.398 53.0117 62.7255 51.5563 61.5774 50.4876C63.2515 50.1274 64.7468 49.2264 65.8141 47.9347C66.8814 46.643 67.4564 45.0385 67.4433 43.3886C67.4301 41.7387 66.8296 40.1429 65.7418 38.8671C64.654 37.5913 63.1445 36.7125 61.4649 36.3771C61.918 35.688 62.1406 34.8819 62.1027 34.0674C62.0934 32.5478 61.544 31.077 60.5456 29.8992C67.562 28.9248 72.9275 23.8905 72.9275 17.7916C72.9822 17.0188 72.8741 16.2432 72.6098 15.5115C72.3454 14.7798 71.9303 14.1069 71.3892 13.5332C78.0304 13.1723 83.2645 11.4401 83.2645 6.35161Z" fill="#5BE9B9"/>
<path opacity="0.9" d="M83.2645 6.35161C83.2645 0.848148 77.2424 2.12929 69.8132 2.12929C62.3841 2.12929 56.362 0.848148 56.362 6.35161C56.3302 7.27918 56.538 8.19987 56.9669 9.03122C57.3958 9.86257 58.0324 10.5786 58.8196 11.1153H58.1255C49.9272 11.1153 43.2859 10.8807 43.2859 17.6653C43.3403 19.7338 43.9557 21.7528 45.0712 23.5221C46.1868 25.2913 47.7637 26.7495 49.6457 27.752C48.4353 28.3222 47.4106 29.2007 46.683 30.2918C45.9553 31.383 45.5525 32.6452 45.5184 33.9411C45.5184 37.9108 49.2705 38.2537 53.8481 38.2537H54.6173C53.4297 39.4085 52.6817 40.9148 52.4945 42.5291C52.3072 44.1434 52.6916 45.7713 53.5854 47.1494C53.2102 47.1494 52.835 47.1494 52.4411 47.1494C46.419 47.1494 41.56 50.3613 41.4287 54.3671H40.6595C30.4538 54.3671 22.1616 59.9247 22.1616 66.7814C22.1616 73.6382 30.4538 79.1778 40.6595 79.1778C50.8652 79.1778 59.1573 73.6202 59.1573 66.7814C59.1053 65.2769 58.7124 63.8015 58.006 62.4582C57.2996 61.1149 56.2967 59.9362 55.0675 59.0044C59.8702 58.824 63.4535 58.012 63.4535 54.5475C63.398 53.0117 62.7255 51.5563 61.5774 50.4876C63.2515 50.1274 64.7468 49.2264 65.8141 47.9347C66.8814 46.643 67.4564 45.0385 67.4433 43.3886C67.4301 41.7387 66.8296 40.1429 65.7418 38.8671C64.654 37.5913 63.1445 36.7125 61.4649 36.3771C61.918 35.688 62.1406 34.8819 62.1027 34.0674C62.0934 32.5478 61.544 31.077 60.5456 29.8992C67.562 28.9248 72.9275 23.8905 72.9275 17.7916C72.9822 17.0188 72.8741 16.2432 72.6098 15.5115C72.3454 14.7798 71.9303 14.1069 71.3892 13.5332C78.0304 13.1723 83.2645 11.4401 83.2645 6.35161Z" fill="white"/>
<path d="M59.0824 66.6552C59.0304 65.1507 58.6375 63.6753 57.9311 62.332C57.2247 60.9887 56.2219 59.81 54.9926 58.8782C59.7953 58.6978 63.3786 57.8858 63.3786 54.4213C63.3232 52.8855 62.6507 51.4301 61.5025 50.3614C61.8824 50.2827 62.2532 50.1679 62.6094 50.0186C56.0807 50.3073 50.9029 53.7356 50.9029 57.958C50.9236 58.7143 51.1089 59.4581 51.4469 60.1413C46.6067 61.26 43.1548 64.1651 43.1548 67.6296C43.1548 71.5632 47.6386 74.8473 53.5481 75.4608C55.1521 74.5437 56.4962 73.2604 57.4615 71.7245C58.4269 70.1886 58.9836 68.4474 59.0824 66.6552Z" fill="#5BE9B9"/>
<path d="M64.8044 37.8749C61.6714 39.3184 59.6265 41.6461 59.6265 44.2986C59.7118 45.4089 60.0777 46.4823 60.6924 47.4257C61.307 48.3691 62.1518 49.1538 63.1534 49.7118C64.2673 49.1904 65.2297 48.4119 65.9546 47.4456C66.6796 46.4794 67.1445 45.3556 67.308 44.1745C67.4715 42.9934 67.3284 41.7918 66.8915 40.6768C66.4547 39.5619 65.7376 38.5682 64.8044 37.7847V37.8749Z" fill="#5BE9B9"/>
<path d="M59.0824 66.6552C59.0304 65.1507 58.6375 63.6753 57.9311 62.332C57.2247 60.9887 56.2219 59.81 54.9926 58.8782C59.7953 58.6978 63.3786 57.8858 63.3786 54.4213C63.3232 52.8855 62.6507 51.4301 61.5025 50.3614C61.8824 50.2827 62.2532 50.1679 62.6094 50.0186C56.0807 50.3073 50.9029 53.7356 50.9029 57.958C50.9236 58.7143 51.1089 59.4581 51.4469 60.1413C46.6067 61.26 43.1548 64.1651 43.1548 67.6296C43.1548 71.5632 47.6386 74.8473 53.5481 75.4608C55.1521 74.5437 56.4962 73.2604 57.4615 71.7245C58.4269 70.1886 58.9836 68.4474 59.0824 66.6552Z" fill="#FAFAFA" fill-opacity="0.3"/>
<path d="M64.8044 37.8749C61.6714 39.3184 59.6265 41.6461 59.6265 44.2986C59.7118 45.4089 60.0777 46.4823 60.6924 47.4257C61.307 48.3691 62.1518 49.1538 63.1534 49.7118C64.2673 49.1904 65.2297 48.4119 65.9546 47.4456C66.6796 46.4794 67.1445 45.3556 67.308 44.1745C67.4715 42.9934 67.3284 41.7918 66.8915 40.6768C66.4547 39.5619 65.7376 38.5682 64.8044 37.7847V37.8749Z" fill="#FAFAFA" fill-opacity="0.3"/>
<path d="M62.5155 70.6429V86.5759C62.5155 97.7813 52.9852 101.192 41.3349 101.192C29.6846 101.192 20.1543 97.7813 20.1543 86.5759V70.6429C20.1543 69.4034 20.6662 68.2147 21.5775 67.3383C22.4887 66.4619 23.7246 65.9695 25.0133 65.9695H57.6565C58.2946 65.9695 58.9265 66.0903 59.516 66.3252C60.1055 66.5601 60.6411 66.9043 61.0923 67.3383C61.5435 67.7723 61.9015 68.2875 62.1456 68.8545C62.3898 69.4215 62.5155 70.0292 62.5155 70.6429Z" fill="#5BE9B9"/>
<path opacity="0.4" d="M62.5155 70.6429V86.5759C62.5155 97.7813 52.9852 101.192 41.3349 101.192C29.6846 101.192 20.1543 97.7813 20.1543 86.5759V70.6429C20.1543 69.4034 20.6662 68.2147 21.5775 67.3383C22.4887 66.4619 23.7246 65.9695 25.0133 65.9695H57.6565C58.2946 65.9695 58.9265 66.0903 59.516 66.3252C60.1055 66.5601 60.6411 66.9043 61.0923 67.3383C61.5435 67.7723 61.9015 68.2875 62.1456 68.8545C62.3898 69.4215 62.5155 70.0292 62.5155 70.6429Z" fill="white"/>
<path d="M68.6506 70.6429C66.6058 70.2984 64.5056 70.4158 62.516 70.9858V75.9118C63.9207 75.2016 65.533 74.9665 67.0935 75.2442C70.6768 75.8577 71.521 78.5643 70.9582 81.6318C70.3954 84.6993 68.5944 86.9368 65.0111 86.3233C64.1275 86.1672 63.2815 85.8552 62.516 85.403V86.5218C62.525 87.8086 62.3802 89.0921 62.0845 90.3471C62.9587 90.7056 63.8708 90.9719 64.8048 91.1411C71.446 92.2959 74.729 88.1277 75.7984 82.4618C76.8677 76.796 75.2731 71.8158 68.6506 70.6429Z" fill="#5BE9B9"/>
<path opacity="0.2" d="M68.6506 70.6429C66.6058 70.2984 64.5056 70.4158 62.516 70.9858V75.9118C63.9207 75.2016 65.533 74.9665 67.0935 75.2442C70.6768 75.8577 71.521 78.5643 70.9582 81.6318C70.3954 84.6993 68.5944 86.9368 65.0111 86.3233C64.1275 86.1672 63.2815 85.8552 62.516 85.403V86.5218C62.525 87.8086 62.3802 89.0921 62.0845 90.3471C62.9587 90.7056 63.8708 90.9719 64.8048 91.1411C71.446 92.2959 74.729 88.1277 75.7984 82.4618C76.8677 76.796 75.2731 71.8158 68.6506 70.6429Z" fill="white"/>
<path d="M133.43 92.8553C133.43 91.5201 115.045 90.8524 96.6785 90.8524C78.312 90.8524 59.9268 91.5201 59.9268 92.8553V94.6597C59.9268 97.3122 76.3797 101.21 96.6785 101.21C116.977 101.21 133.43 97.3122 133.43 94.6597V92.8553Z" fill="#5BE9B9"/>
<path opacity="0.2" d="M133.43 92.8553C133.43 91.5201 115.045 90.8524 96.6785 90.8524C78.312 90.8524 59.9268 91.5201 59.9268 92.8553V94.6597C59.9268 97.3122 76.3797 101.21 96.6785 101.21C116.977 101.21 133.43 97.3122 133.43 94.6597V92.8553Z" fill="white"/>
<path d="M133.43 92.8553C133.43 95.5078 116.977 97.6551 96.6785 97.6551C76.3797 97.6551 59.9268 95.5078 59.9268 92.8553C59.9268 91.5201 78.2933 90.8524 96.6785 90.8524C115.064 90.8524 133.43 91.5201 133.43 92.8553Z" fill="#5BE9B9"/>
<path opacity="0.8" d="M133.43 92.8553C133.43 95.5078 116.977 97.6551 96.6785 97.6551C76.3797 97.6551 59.9268 95.5078 59.9268 92.8553C59.9268 91.5201 78.2933 90.8524 96.6785 90.8524C115.064 90.8524 133.43 91.5201 133.43 92.8553Z" fill="white"/>
<path opacity="0.7" d="M109.529 95.5799C109.529 96.7167 103.732 97.655 96.6027 97.655C89.4737 97.655 83.6768 96.7167 83.6768 95.5799C83.6768 94.4432 89.455 93.4868 96.6027 93.4868C103.75 93.4868 109.529 94.4251 109.529 95.5799Z" fill="white"/>
<path d="M128.178 60.8991C127.766 60.5886 127.289 60.3679 126.78 60.2526C126.271 60.1373 125.741 60.13 125.229 60.2314C124.716 60.3327 124.233 60.5401 123.813 60.8393C123.392 61.1385 123.044 61.5222 122.793 61.9637L122.043 63.1005C121.479 63.103 120.923 63.2276 120.417 63.465C119.91 63.7024 119.466 64.0465 119.116 64.4719C118.328 65.3921 117.672 66.1139 117.034 66.7635C116.522 66.4144 115.906 66.236 115.28 66.2555C114.653 66.2751 114.05 66.4915 113.563 66.8717C111.922 68.2253 110.199 69.4845 108.404 70.6429C107.837 70.1418 107.132 69.8088 106.373 69.684C105.614 69.5591 104.834 69.6478 104.127 69.9392C101.279 71.279 98.2748 72.2847 95.1778 72.9346C94.4538 73.1181 93.8 73.4981 93.2944 74.0292C92.7888 74.5603 92.4527 75.2201 92.3262 75.9299C90.8629 76.0381 89.2683 76.0923 87.3735 76.1103C86.7426 76.116 86.1314 76.3228 85.6358 76.6983C85.1402 77.0738 84.788 77.5968 84.6344 78.1854C83.7152 78.0771 82.7584 77.9147 81.5202 77.7162C80.9649 77.6147 80.3931 77.6316 79.8453 77.7656C79.2975 77.8997 78.787 78.1477 78.3497 78.4922L77.0177 78.0771C76.5306 77.8932 76.0074 77.8142 75.4851 77.8456C74.9628 77.877 74.454 78.0181 73.9945 78.2588C73.5349 78.4996 73.1358 78.8343 72.8251 79.2393C72.5144 79.6444 72.2998 80.1099 72.1962 80.6033C72.0234 81.7611 72.2829 82.9403 72.9287 83.9314C73.5744 84.9225 74.5646 85.6613 75.7232 86.0166L76.7738 86.3594C77.0621 87.3161 77.6191 88.1777 78.3837 88.8494C79.1484 89.5212 80.0909 89.977 81.1075 90.1667C82.7959 90.4554 84.1091 90.6539 85.3849 90.7982C85.5529 91.7287 86.0573 92.5721 86.8091 93.1796C87.5608 93.787 88.5116 94.1195 89.4934 94.1184C91.6509 94.1184 93.4894 94.1184 95.1215 93.956C95.7433 94.6423 96.5432 95.1576 97.4397 95.4493C98.3362 95.7409 99.2972 95.7985 100.224 95.616C105.376 94.6914 110.354 93.0246 114.989 90.672C115.811 90.2757 116.51 89.6788 117.017 88.941C117.524 88.2032 117.821 87.3504 117.878 86.4677C119.997 85.082 122.033 83.5819 123.975 81.9747C124.728 81.3671 125.233 80.5231 125.401 79.592C125.569 78.6608 125.39 77.7024 124.894 76.8862C125.776 75.984 126.639 75.0818 127.727 73.7465C128.378 72.9723 128.794 72.0406 128.93 71.0537C129.065 70.0669 128.915 69.0631 128.496 68.1528L129.078 67.2326C129.732 66.2452 130 65.0668 129.835 63.9071C129.67 62.7473 129.083 61.6814 128.178 60.8991Z" fill="#5BE9B9"/>
<path opacity="0.4" d="M128.178 60.8991C127.766 60.5886 127.289 60.3679 126.78 60.2526C126.271 60.1373 125.741 60.13 125.229 60.2314C124.716 60.3327 124.233 60.5401 123.813 60.8393C123.392 61.1385 123.044 61.5222 122.793 61.9637L122.043 63.1005C121.479 63.103 120.923 63.2276 120.417 63.465C119.91 63.7024 119.466 64.0465 119.116 64.4719C118.328 65.3921 117.672 66.1139 117.034 66.7635C116.522 66.4144 115.906 66.236 115.28 66.2555C114.653 66.2751 114.05 66.4915 113.563 66.8717C111.922 68.2253 110.199 69.4845 108.404 70.6429C107.837 70.1418 107.132 69.8088 106.373 69.684C105.614 69.5591 104.834 69.6478 104.127 69.9392C101.279 71.279 98.2748 72.2847 95.1778 72.9346C94.4538 73.1181 93.8 73.4981 93.2944 74.0292C92.7888 74.5603 92.4527 75.2201 92.3262 75.9299C90.8629 76.0381 89.2683 76.0923 87.3735 76.1103C86.7426 76.116 86.1314 76.3228 85.6358 76.6983C85.1402 77.0738 84.788 77.5968 84.6344 78.1854C83.7152 78.0771 82.7584 77.9147 81.5202 77.7162C80.9649 77.6147 80.3931 77.6316 79.8453 77.7656C79.2975 77.8997 78.787 78.1477 78.3497 78.4922L77.0177 78.0771C76.5306 77.8932 76.0074 77.8142 75.4851 77.8456C74.9628 77.877 74.454 78.0181 73.9945 78.2588C73.5349 78.4996 73.1358 78.8343 72.8251 79.2393C72.5144 79.6444 72.2998 80.1099 72.1962 80.6033C72.0234 81.7611 72.2829 82.9403 72.9287 83.9314C73.5744 84.9225 74.5646 85.6613 75.7232 86.0166L76.7738 86.3594C77.0621 87.3161 77.6191 88.1777 78.3837 88.8494C79.1484 89.5212 80.0909 89.977 81.1075 90.1667C82.7959 90.4554 84.1091 90.6539 85.3849 90.7982C85.5529 91.7287 86.0573 92.5721 86.8091 93.1796C87.5608 93.787 88.5116 94.1195 89.4934 94.1184C91.6509 94.1184 93.4894 94.1184 95.1215 93.956C95.7433 94.6423 96.5432 95.1576 97.4397 95.4493C98.3362 95.7409 99.2972 95.7985 100.224 95.616C105.376 94.6914 110.354 93.0246 114.989 90.672C115.811 90.2757 116.51 89.6788 117.017 88.941C117.524 88.2032 117.821 87.3504 117.878 86.4677C119.997 85.082 122.033 83.5819 123.975 81.9747C124.728 81.3671 125.233 80.5231 125.401 79.592C125.569 78.6608 125.39 77.7024 124.894 76.8862C125.776 75.984 126.639 75.0818 127.727 73.7465C128.378 72.9723 128.794 72.0406 128.93 71.0537C129.065 70.0669 128.915 69.0631 128.496 68.1528L129.078 67.2326C129.732 66.2452 130 65.0668 129.835 63.9071C129.67 62.7473 129.083 61.6814 128.178 60.8991Z" fill="white"/>
<path opacity="0.1" d="M92.9636 78.2936C92.9636 78.2936 90.8061 89.4809 94.0329 90.4373C97.2597 91.3936 92.9636 78.2936 92.9636 78.2936Z" fill="black"/>
<path opacity="0.1" d="M85.1406 80.1342C85.1406 80.1342 83.2646 87.8751 85.5909 88.4345C87.9172 88.9938 85.1406 80.1342 85.1406 80.1342Z" fill="black"/>
<path opacity="0.1" d="M77.8048 79.4846C77.8048 79.4846 76.5291 84.5911 77.8048 85.2588C79.0805 85.9264 77.8048 79.4846 77.8048 79.4846Z" fill="black"/>
<path opacity="0.1" d="M110.261 73.0426C110.261 73.0426 119.398 80.2602 117.578 82.9849C115.758 85.7096 110.261 73.0426 110.261 73.0426Z" fill="black"/>
<path opacity="0.1" d="M118.384 67.792C118.384 67.792 125.063 72.4835 123.599 74.3962C122.136 76.3088 118.384 67.792 118.384 67.792Z" fill="black"/>
<path opacity="0.1" d="M123.468 62.7937C123.468 62.7937 127.877 65.8973 127.352 67.2145C126.826 68.5318 123.468 62.7937 123.468 62.7937Z" fill="black"/>
<path d="M129.04 73.1872C128.764 72.7592 128.395 72.3942 127.957 72.1176C127.52 71.841 127.025 71.6594 126.507 71.5856C125.989 71.5117 125.461 71.5473 124.958 71.6899C124.456 71.8325 123.993 72.0787 123.599 72.4113L122.493 73.2414C121.961 73.057 121.393 72.9904 120.831 73.0466C120.269 73.1029 119.728 73.2804 119.247 73.5661C118.178 74.1435 117.371 74.6127 116.47 75.0277C116.119 74.5252 115.604 74.1495 115.006 73.96C114.408 73.7705 113.762 73.7779 113.169 73.9812C111.153 74.7082 109.092 75.3109 106.996 75.7856C106.644 75.1296 106.103 74.5851 105.438 74.2171C104.772 73.8491 104.011 73.6733 103.244 73.7105C100.086 74.0415 96.8972 73.993 93.7515 73.5661C93.0136 73.5028 92.272 73.6381 91.6094 73.9567C90.9469 74.2754 90.3894 74.7648 89.9994 75.3705C88.5736 74.9916 87.0727 74.5225 85.2905 73.909C84.6975 73.7057 84.0509 73.6983 83.453 73.8878C82.8551 74.0773 82.3399 74.453 81.9887 74.9555C81.1445 74.5405 80.2814 74.0714 79.2121 73.494C78.7315 73.2083 78.19 73.0307 77.628 72.9744C77.066 72.9182 76.498 72.9848 75.9665 73.1692L74.8597 72.3391C74.4666 72.0066 74.0028 71.7604 73.5007 71.6178C72.9986 71.4752 72.4702 71.4396 71.9523 71.5134C71.4344 71.5873 70.9395 71.7688 70.502 72.0454C70.0645 72.322 69.695 72.687 69.4191 73.115C68.84 74.1518 68.6599 75.3519 68.9104 76.5038C69.1609 77.6558 69.8261 78.6858 70.7887 79.4124L71.6704 80.062C71.5969 81.0563 71.8102 82.0509 72.2868 82.936C72.7635 83.8211 73.4851 84.5625 74.3719 85.0783C75.854 85.9083 77.0171 86.5399 78.124 87.0992C77.9589 88.0266 78.1369 88.9803 78.627 89.7946C79.1171 90.6088 79.8884 91.2321 80.8068 91.5561C82.8329 92.2599 84.5588 92.8192 86.191 93.3606C86.5296 94.2114 87.097 94.9606 87.8354 95.5312C88.5738 96.1019 89.4565 96.4737 90.3933 96.6085C95.5667 97.4442 100.842 97.5233 106.04 96.8431C106.95 96.7438 107.817 96.4166 108.554 95.8942C109.292 95.3717 109.874 94.6723 110.242 93.8658C112.727 93.2528 115.175 92.512 117.577 91.6464C118.496 91.3223 119.267 90.699 119.757 89.8848C120.247 89.0705 120.425 88.1168 120.26 87.1895C121.404 86.6301 122.568 85.9986 124.012 85.1685C124.899 84.6527 125.621 83.9114 126.097 83.0262C126.574 82.1411 126.787 81.1466 126.714 80.1523L127.595 79.5027C128.575 78.7852 129.258 77.7565 129.523 76.5999C129.787 75.4433 129.616 74.2339 129.04 73.1872Z" fill="#5BE9B9"/>
<path opacity="0.6" d="M129.04 73.1872C128.764 72.7592 128.395 72.3942 127.957 72.1176C127.52 71.841 127.025 71.6594 126.507 71.5856C125.989 71.5117 125.461 71.5473 124.958 71.6899C124.456 71.8325 123.993 72.0787 123.599 72.4113L122.493 73.2414C121.961 73.057 121.393 72.9904 120.831 73.0466C120.269 73.1029 119.728 73.2804 119.247 73.5661C118.178 74.1435 117.371 74.6127 116.47 75.0277C116.119 74.5252 115.604 74.1495 115.006 73.96C114.408 73.7705 113.762 73.7779 113.169 73.9812C111.153 74.7082 109.092 75.3109 106.996 75.7856C106.644 75.1296 106.103 74.5851 105.438 74.2171C104.772 73.8491 104.011 73.6733 103.244 73.7105C100.086 74.0415 96.8972 73.993 93.7515 73.5661C93.0136 73.5028 92.272 73.6381 91.6094 73.9567C90.9469 74.2754 90.3894 74.7648 89.9994 75.3705C88.5736 74.9916 87.0727 74.5225 85.2905 73.909C84.6975 73.7057 84.0509 73.6983 83.453 73.8878C82.8551 74.0773 82.3399 74.453 81.9887 74.9555C81.1445 74.5405 80.2814 74.0714 79.2121 73.494C78.7315 73.2083 78.19 73.0307 77.628 72.9744C77.066 72.9182 76.498 72.9848 75.9665 73.1692L74.8597 72.3391C74.4666 72.0066 74.0028 71.7604 73.5007 71.6178C72.9986 71.4752 72.4702 71.4396 71.9523 71.5134C71.4344 71.5873 70.9395 71.7688 70.502 72.0454C70.0645 72.322 69.695 72.687 69.4191 73.115C68.84 74.1518 68.6599 75.3519 68.9104 76.5038C69.1609 77.6558 69.8261 78.6858 70.7887 79.4124L71.6704 80.062C71.5969 81.0563 71.8102 82.0509 72.2868 82.936C72.7635 83.8211 73.4851 84.5625 74.3719 85.0783C75.854 85.9083 77.0171 86.5399 78.124 87.0992C77.9589 88.0266 78.1369 88.9803 78.627 89.7946C79.1171 90.6088 79.8884 91.2321 80.8068 91.5561C82.8329 92.2599 84.5588 92.8192 86.191 93.3606C86.5296 94.2114 87.097 94.9606 87.8354 95.5312C88.5738 96.1019 89.4565 96.4737 90.3933 96.6085C95.5667 97.4442 100.842 97.5233 106.04 96.8431C106.95 96.7438 107.817 96.4166 108.554 95.8942C109.292 95.3717 109.874 94.6723 110.242 93.8658C112.727 93.2528 115.175 92.512 117.577 91.6464C118.496 91.3223 119.267 90.699 119.757 89.8848C120.247 89.0705 120.425 88.1168 120.26 87.1895C121.404 86.6301 122.568 85.9986 124.012 85.1685C124.899 84.6527 125.621 83.9114 126.097 83.0262C126.574 82.1411 126.787 81.1466 126.714 80.1523L127.595 79.5027C128.575 78.7852 129.258 77.7565 129.523 76.5999C129.787 75.4433 129.616 74.2339 129.04 73.1872Z" fill="white"/>
<path opacity="0.1" d="M89.7369 77.8606C89.7369 77.8606 83.7335 87.6586 86.4351 89.6073C89.1366 91.5561 89.7369 77.8606 89.7369 77.8606Z" fill="black"/>
<path opacity="0.1" d="M81.6509 77.0125C81.6509 77.0125 77.0546 83.6346 79.1183 84.9519C81.1819 86.2691 81.6509 77.0125 81.6509 77.0125Z" fill="black"/>
<path opacity="0.1" d="M75.1034 73.999C75.1034 73.999 72.0642 78.3837 73.0397 79.4123C74.0153 80.4408 75.1034 73.999 75.1034 73.999Z" fill="black"/>
<path opacity="0.1" d="M107.879 78.6907C107.879 78.6907 113.882 88.4886 111.2 90.4374C108.517 92.3862 107.879 78.6907 107.879 78.6907Z" fill="black"/>
<path opacity="0.1" d="M117.39 76.4352C117.39 76.4352 121.986 83.0393 119.922 84.3566C117.859 85.6738 117.39 76.4352 117.39 76.4352Z" fill="black"/>
<path opacity="0.1" d="M123.937 73.4218C123.937 73.4218 126.976 77.7884 126.019 78.835C125.063 79.8816 123.937 73.4218 123.937 73.4218Z" fill="black"/>
<path d="M118.328 28.2031L86.585 24.9913C85.4732 24.8801 84.361 25.1976 83.4923 25.8742C82.6236 26.5507 82.0693 27.531 81.9511 28.6001L79.5123 50.6139C79.4525 51.1438 79.5024 51.6799 79.6589 52.1912C79.8154 52.7025 80.0755 53.179 80.4242 53.5933C80.7729 54.0075 81.2034 54.3513 81.6909 54.6049C82.1783 54.8585 82.7131 55.0168 83.2644 55.0708L90.7686 55.8287L98.2728 64.8507L107.653 57.6331L115.157 58.391C116.269 58.5021 117.381 58.1846 118.25 57.508C119.119 56.8315 119.673 55.8512 119.791 54.7821L122.192 32.7683C122.268 32.2216 122.227 31.6659 122.071 31.1352C121.915 30.6046 121.648 30.1102 121.286 29.6826C120.924 29.2549 120.474 28.9031 119.966 28.6486C119.457 28.3942 118.9 28.2426 118.328 28.2031Z" fill="#5BE9B9"/>
<path opacity="0.8" d="M118.328 28.2031L86.585 24.9913C85.4732 24.8801 84.361 25.1976 83.4923 25.8742C82.6236 26.5507 82.0693 27.531 81.9511 28.6001L79.5123 50.6139C79.4525 51.1438 79.5024 51.6799 79.6589 52.1912C79.8154 52.7025 80.0755 53.179 80.4242 53.5933C80.7729 54.0075 81.2034 54.3513 81.6909 54.6049C82.1783 54.8585 82.7131 55.0168 83.2644 55.0708L90.7686 55.8287L98.2728 64.8507L107.653 57.6331L115.157 58.391C116.269 58.5021 117.381 58.1846 118.25 57.508C119.119 56.8315 119.673 55.8512 119.791 54.7821L122.192 32.7683C122.268 32.2216 122.227 31.6659 122.071 31.1352C121.915 30.6046 121.648 30.1102 121.286 29.6826C120.924 29.2549 120.474 28.9031 119.966 28.6486C119.457 28.3942 118.9 28.2426 118.328 28.2031Z" fill="white"/>
<path d="M112.719 37.1349C111.824 36.0839 110.533 35.4149 109.129 35.273C107.724 35.1311 106.317 35.5278 105.215 36.3771L101.05 39.625L97.6916 35.6192C97.2494 35.0944 96.704 34.6584 96.0866 34.3363C95.4692 34.0141 94.7918 33.8121 94.0933 33.7417C93.3947 33.6714 92.6886 33.734 92.0152 33.9261C91.3418 34.1182 90.7143 34.436 90.1686 34.8614C89.6229 35.2867 89.1697 35.8113 88.8347 36.4051C88.4998 36.9989 88.2898 37.6504 88.2166 38.3223C88.1434 38.9942 88.2086 39.6733 88.4083 40.321C88.6081 40.9687 88.9385 41.5722 89.3807 42.0971L96.1157 50.0906C96.5561 50.6151 97.0998 51.0509 97.7156 51.3729C98.3314 51.6949 99.0072 51.8969 99.7043 51.9673C100.401 52.0377 101.106 51.9751 101.778 51.7831C102.45 51.5912 103.076 51.2735 103.62 50.8485L111.95 44.3706C112.494 43.9442 112.946 43.4187 113.279 42.8242C113.613 42.2297 113.821 41.5779 113.892 40.906C113.964 40.2341 113.897 39.5552 113.696 38.9082C113.494 38.2611 113.162 37.6586 112.719 37.1349Z" fill="#5BE9B9"/>
<path d="M20.8486 44.4427L1 61.9997L17.6593 79.5567L20.8486 44.4427Z" fill="#5BE9B9"/>
<path opacity="0.7" d="M20.8486 44.4427L1 61.9997L17.6593 79.5567L20.8486 44.4427Z" fill="white"/>
</svg>
