<svg width="130" height="150" viewBox="0 0 130 150" fill="none" xmlns="http://www.w3.org/2000/svg">
<path d="M102.294 148.867H12.9564C12.4287 148.87 11.9063 148.766 11.4234 148.561C10.9404 148.356 10.5078 148.056 10.1537 147.68C9.79958 147.304 9.53198 146.86 9.3684 146.377C9.20482 145.894 9.14892 145.384 9.20434 144.879L17.0275 58.9531C17.1375 57.8709 17.6568 56.8652 18.4868 56.1268C19.3167 55.3884 20.3996 54.9687 21.53 54.9473H110.867C111.397 54.9442 111.921 55.049 112.405 55.2547C112.89 55.4603 113.323 55.7623 113.678 56.1406C114.032 56.519 114.299 56.9652 114.462 57.4499C114.624 57.9347 114.678 58.447 114.619 58.9531L106.815 144.879C106.696 145.96 106.171 146.962 105.339 147.696C104.506 148.43 103.423 148.847 102.294 148.867Z" fill="#5BE9B9"/>
<path opacity="0.7" d="M102.294 148.867H12.9564C12.4287 148.87 11.9063 148.766 11.4234 148.561C10.9404 148.356 10.5078 148.056 10.1537 147.68C9.79958 147.304 9.53198 146.86 9.3684 146.377C9.20482 145.894 9.14892 145.384 9.20434 144.879L17.0275 58.9531C17.1375 57.8709 17.6568 56.8652 18.4868 56.1268C19.3167 55.3884 20.3996 54.9687 21.53 54.9473H110.867C111.397 54.9442 111.921 55.049 112.405 55.2547C112.89 55.4603 113.323 55.7623 113.678 56.1406C114.032 56.519 114.299 56.9652 114.462 57.4499C114.624 57.9347 114.678 58.447 114.619 58.9531L106.815 144.879C106.696 145.96 106.171 146.962 105.339 147.696C104.506 148.43 103.423 148.847 102.294 148.867Z" fill="white"/>
<path d="M22.2418 63.7891L15.3004 140.026C15.2524 140.453 15.2996 140.886 15.4387 141.294C15.5779 141.703 15.8059 142.079 16.1075 142.396C16.4092 142.713 16.7776 142.965 17.1883 143.135C17.599 143.305 18.0427 143.389 18.4897 143.382H97.7527C98.6964 143.36 99.599 143.006 100.29 142.388C100.981 141.769 101.413 140.929 101.505 140.026L108.446 63.7891C108.494 63.3615 108.447 62.929 108.308 62.5203C108.169 62.1116 107.941 61.7361 107.639 61.4186C107.337 61.1012 106.969 60.8492 106.558 60.6792C106.148 60.5092 105.704 60.4252 105.257 60.4328H26.0314C25.0825 60.4502 24.173 60.8012 23.4747 61.4196C22.7765 62.0379 22.3379 62.8809 22.2418 63.7891Z" fill="#5BE9B9"/>
<path opacity="0.1" d="M22.2418 63.7891L15.3004 140.026C15.2524 140.453 15.2996 140.886 15.4387 141.294C15.5779 141.703 15.8059 142.079 16.1075 142.396C16.4092 142.713 16.7776 142.965 17.1883 143.135C17.599 143.305 18.0427 143.389 18.4897 143.382H97.7527C98.6964 143.36 99.599 143.006 100.29 142.388C100.981 141.769 101.413 140.929 101.505 140.026L108.446 63.7891C108.494 63.3615 108.447 62.929 108.308 62.5203C108.169 62.1116 107.941 61.7361 107.639 61.4186C107.337 61.1012 106.969 60.8492 106.558 60.6792C106.148 60.5092 105.704 60.4252 105.257 60.4328H26.0314C25.0825 60.4502 24.173 60.8012 23.4747 61.4196C22.7765 62.0379 22.3379 62.8809 22.2418 63.7891Z" fill="black"/>
<path d="M108.804 115.215L128.652 97.6579L111.993 80.101L108.804 115.215Z" fill="#5BE9B9"/>
<path opacity="0.7" d="M108.804 115.215L128.652 97.6579L111.993 80.101L108.804 115.215Z" fill="white"/>
<path d="M81.8067 47.423H9.74768C8.15377 47.423 6.62486 48.0307 5.49603 49.1131C4.3672 50.1954 3.73055 51.664 3.72559 53.1971V122.541C3.72559 125.103 10.9109 132.014 13.5748 132.014H85.6714C87.2653 132.009 88.7922 131.397 89.9175 130.311C91.0428 129.225 91.6747 127.755 91.6747 126.222V56.8961C91.6747 54.4061 84.4894 47.423 81.8067 47.423Z" fill="#5BE9B9"/>
<path opacity="0.3" d="M81.8067 47.423H9.74768C8.15377 47.423 6.62486 48.0307 5.49603 49.1131C4.3672 50.1954 3.73055 51.664 3.72559 53.1971V122.541C3.72559 125.103 10.9109 132.014 13.5748 132.014H85.6714C87.2653 132.009 88.7922 131.397 89.9175 130.311C91.0428 129.225 91.6747 127.755 91.6747 126.222V56.8961C91.6747 54.4061 84.4894 47.423 81.8067 47.423Z" fill="black"/>
<path d="M79.7059 45.6187H8.3973C4.86416 45.6187 2 48.3735 2 51.7717V120.357C2 123.756 4.86416 126.511 8.3973 126.511H79.7059C83.2391 126.511 86.1032 123.756 86.1032 120.357V51.7717C86.1032 48.3735 83.2391 45.6187 79.7059 45.6187Z" fill="#5BE9B9"/>
<path opacity="0.7" d="M79.7059 45.6187H8.3973C4.86416 45.6187 2 48.3735 2 51.7717V120.357C2 123.756 4.86416 126.511 8.3973 126.511H79.7059C83.2391 126.511 86.1032 123.756 86.1032 120.357V51.7717C86.1032 48.3735 83.2391 45.6187 79.7059 45.6187Z" fill="white"/>
<path d="M73.204 94.3565C77.0026 78.8769 67.035 63.3664 50.9408 59.7129C34.8467 56.0594 18.7204 65.6463 14.9219 81.1259C11.1233 96.6056 21.0908 112.116 37.185 115.77C53.2792 119.423 69.4054 109.836 73.204 94.3565Z" fill="#263238"/>
<path opacity="0.5" d="M73.204 94.3565C77.0026 78.8769 67.035 63.3664 50.9408 59.7129C34.8467 56.0594 18.7204 65.6463 14.9219 81.1259C11.1233 96.6056 21.0908 112.116 37.185 115.77C53.2792 119.423 69.4054 109.836 73.204 94.3565Z" fill="black"/>
<path d="M44.0609 113.158C60.5972 113.158 74.0026 100.264 74.0026 84.3595C74.0026 68.4545 60.5972 55.561 44.0609 55.561C27.5245 55.561 14.1191 68.4545 14.1191 84.3595C14.1191 100.264 27.5245 113.158 44.0609 113.158Z" fill="#263238"/>
<path d="M71.0762 72.0353C68.1517 66.0291 63.134 61.1967 56.8932 58.376L44.6802 83.764L71.0762 72.0353Z" fill="#263238"/>
<path d="M17.0459 96.7017C19.964 102.714 24.9927 107.544 31.2476 110.343L43.4419 84.973L17.0459 96.7017Z" fill="#263238"/>
<path opacity="0.5" d="M71.0762 72.0353C68.1517 66.0291 63.134 61.1967 56.8932 58.376L44.6802 83.764L71.0762 72.0353Z" fill="white"/>
<path opacity="0.5" d="M17.0459 96.7017C19.964 102.714 24.9927 107.544 31.2476 110.343L43.4419 84.973L17.0459 96.7017Z" fill="white"/>
<path d="M53.535 84.3596C53.535 86.1618 52.9794 87.9236 51.9383 89.4221C50.8973 90.9206 49.4177 92.0886 47.6865 92.7783C45.9554 93.4679 44.0505 93.6484 42.2127 93.2968C40.3749 92.9452 38.6868 92.0774 37.3618 90.803C36.0368 89.5286 35.1345 87.9049 34.769 86.1373C34.4034 84.3697 34.591 82.5375 35.3081 80.8725C36.0251 79.2074 37.2395 77.7843 38.7975 76.783C40.3555 75.7818 42.1872 75.2473 44.061 75.2473C45.3086 75.2352 46.5462 75.4627 47.7013 75.9164C48.8564 76.3701 49.9058 77.0408 50.7881 77.8894C51.6703 78.7379 52.3677 79.7473 52.8394 80.8583C53.3111 81.9693 53.5475 83.1596 53.535 84.3596Z" fill="#5BE9B9"/>
<path d="M45.8248 82.6632C45.8248 82.2133 45.639 81.7819 45.3083 81.4638C44.9776 81.1458 44.529 80.967 44.0613 80.967C43.5936 80.967 43.1451 81.1458 42.8144 81.4638C42.4836 81.7819 42.2979 82.2133 42.2979 82.6632V84.3593C42.2979 84.8092 42.4836 85.2406 42.8144 85.5587C43.1451 85.8768 43.5936 86.0555 44.0613 86.0555C44.529 86.0555 44.9776 85.8768 45.3083 85.5587C45.639 85.2406 45.8248 84.8092 45.8248 84.3593V82.6632Z" fill="#263238"/>
<path d="M44.0613 84.3593C45.0353 84.3593 45.8248 83.6 45.8248 82.6632C45.8248 81.7264 45.0353 80.967 44.0613 80.967C43.0874 80.967 42.2979 81.7264 42.2979 82.6632C42.2979 83.6 43.0874 84.3593 44.0613 84.3593Z" fill="white"/>
<path d="M10.0666 117.976C9.74317 117.976 9.43303 117.852 9.20434 117.632C8.97565 117.412 8.84717 117.114 8.84717 116.803V105.976C8.84717 105.665 8.97565 105.367 9.20434 105.147C9.43303 104.927 9.74317 104.803 10.0666 104.803C10.3867 104.808 10.6921 104.934 10.9168 105.153C11.1414 105.373 11.2673 105.668 11.2673 105.976V116.803C11.2673 117.111 11.1414 117.406 10.9168 117.626C10.6921 117.845 10.3867 117.971 10.0666 117.976Z" fill="#5BE9B9"/>
<path opacity="0.5" d="M10.0666 117.976C9.74317 117.976 9.43303 117.852 9.20434 117.632C8.97565 117.412 8.84717 117.114 8.84717 116.803V105.976C8.84717 105.665 8.97565 105.367 9.20434 105.147C9.43303 104.927 9.74317 104.803 10.0666 104.803C10.3867 104.808 10.6921 104.934 10.9168 105.153C11.1414 105.373 11.2673 105.668 11.2673 105.976V116.803C11.2673 117.111 11.1414 117.406 10.9168 117.626C10.6921 117.845 10.3867 117.971 10.0666 117.976Z" fill="black"/>
<path d="M12.9183 107.672H7.19638C6.03593 107.672 5.09521 108.577 5.09521 109.693C5.09521 110.809 6.03593 111.714 7.19638 111.714H12.9183C14.0788 111.714 15.0195 110.809 15.0195 109.693C15.0195 108.577 14.0788 107.672 12.9183 107.672Z" fill="#5BE9B9"/>
<path opacity="0.3" d="M12.9183 107.672H7.19638C6.03593 107.672 5.09521 108.577 5.09521 109.693C5.09521 110.809 6.03593 111.714 7.19638 111.714H12.9183C14.0788 111.714 15.0195 110.809 15.0195 109.693C15.0195 108.577 14.0788 107.672 12.9183 107.672Z" fill="white"/>
<path d="M78.0549 53.1251C77.3135 53.1251 76.6025 53.4084 76.0783 53.9126C75.5541 54.4168 75.2595 55.1006 75.2595 55.8137V64.3125C75.2627 64.7959 75.4022 65.2694 75.6633 65.6825C75.9243 66.0956 76.297 66.4329 76.7416 66.6582V106.229H74.6029C73.8616 106.229 73.1506 106.512 72.6264 107.016C72.1021 107.521 71.8076 108.205 71.8076 108.918V114.331C71.8076 115.044 72.1021 115.728 72.6264 116.232C73.1506 116.736 73.8616 117.019 74.6029 117.019H76.7416C76.7802 117.331 76.9362 117.618 77.1799 117.826C77.4237 118.034 77.7383 118.149 78.0643 118.149C78.3902 118.149 78.7048 118.034 78.9485 117.826C79.1923 117.618 79.3483 117.331 79.3869 117.019V66.6582C79.8267 66.429 80.1945 66.0903 80.4519 65.6777C80.7093 65.2651 80.8468 64.7936 80.8502 64.3125V55.8137C80.8502 55.1006 80.5557 54.4168 80.0314 53.9126C79.5072 53.4084 78.7962 53.1251 78.0549 53.1251Z" fill="#5BE9B9"/>
<path opacity="0.5" d="M78.0549 53.1251C77.3135 53.1251 76.6025 53.4084 76.0783 53.9126C75.5541 54.4168 75.2595 55.1006 75.2595 55.8137V64.3125C75.2627 64.7959 75.4022 65.2694 75.6633 65.6825C75.9243 66.0956 76.297 66.4329 76.7416 66.6582V106.229H74.6029C73.8616 106.229 73.1506 106.512 72.6264 107.016C72.1021 107.521 71.8076 108.205 71.8076 108.918V114.331C71.8076 115.044 72.1021 115.728 72.6264 116.232C73.1506 116.736 73.8616 117.019 74.6029 117.019H76.7416C76.7802 117.331 76.9362 117.618 77.1799 117.826C77.4237 118.034 77.7383 118.149 78.0643 118.149C78.3902 118.149 78.7048 118.034 78.9485 117.826C79.1923 117.618 79.3483 117.331 79.3869 117.019V66.6582C79.8267 66.429 80.1945 66.0903 80.4519 65.6777C80.7093 65.2651 80.8468 64.7936 80.8502 64.3125V55.8137C80.8502 55.1006 80.5557 54.4168 80.0314 53.9126C79.5072 53.4084 78.7962 53.1251 78.0549 53.1251Z" fill="black"/>
<path d="M71.4909 32.0487C71.4884 31.9739 71.4658 31.901 71.4252 31.8371C71.3847 31.7732 71.3276 31.7205 71.2596 31.6842C71.1915 31.6478 71.1149 31.6291 71.0371 31.6297C70.9592 31.6304 70.8829 31.6504 70.8156 31.6879C67.2886 33.4923 65.3 24.5965 61.6417 27.5377C61.5863 27.5822 61.5411 27.6373 61.5088 27.6993C61.4765 27.7614 61.4579 27.8293 61.4541 27.8986V28.4038V45.9788C60.4351 45.3933 59.2637 45.0991 58.0772 45.1307C54.8691 45.1307 51.8112 46.8089 51.2484 48.8839C50.6855 50.959 52.7867 52.6371 55.976 52.6371C59.1653 52.6371 62.242 50.959 62.8048 48.8839C62.8719 48.6489 62.9035 48.4058 62.8986 48.1621V32.139C65.9566 31.7961 67.9264 39.2484 71.3221 36.5237C71.3749 36.4783 71.4172 36.4226 71.4463 36.3605C71.4754 36.2983 71.4906 36.231 71.4909 36.1628V32.0487Z" fill="#5BE9B9"/>
<path opacity="0.2" d="M71.4909 32.0487C71.4884 31.9739 71.4658 31.901 71.4252 31.8371C71.3847 31.7732 71.3276 31.7205 71.2596 31.6842C71.1915 31.6478 71.1149 31.6291 71.0371 31.6297C70.9592 31.6304 70.8829 31.6504 70.8156 31.6879C67.2886 33.4923 65.3 24.5965 61.6417 27.5377C61.5863 27.5822 61.5411 27.6373 61.5088 27.6993C61.4765 27.7614 61.4579 27.8293 61.4541 27.8986V28.4038V45.9788C60.4351 45.3933 59.2637 45.0991 58.0772 45.1307C54.8691 45.1307 51.8112 46.8089 51.2484 48.8839C50.6855 50.959 52.7867 52.6371 55.976 52.6371C59.1653 52.6371 62.242 50.959 62.8048 48.8839C62.8719 48.6489 62.9035 48.4058 62.8986 48.1621V32.139C65.9566 31.7961 67.9264 39.2484 71.3221 36.5237C71.3749 36.4783 71.4172 36.4226 71.4463 36.3605C71.4754 36.2983 71.4906 36.231 71.4909 36.1628V32.0487Z" fill="black"/>
<path d="M94.2903 16.2465C94.2892 16.1836 94.2711 16.1221 94.2378 16.0681C94.2044 16.014 94.157 15.9693 94.1001 15.9383C94.0432 15.9073 93.9789 15.8911 93.9136 15.8914C93.8482 15.8916 93.784 15.9083 93.7274 15.9397C90.7633 17.4915 89.0748 9.96714 85.9981 12.4392C85.9521 12.4773 85.9149 12.5243 85.889 12.5771C85.8632 12.63 85.8492 12.6875 85.848 12.7459V13.1609V27.9752C84.9903 27.4738 83.9996 27.2231 82.9965 27.2534C80.3137 27.2534 77.7248 28.6789 77.237 30.4111C76.7492 32.1434 78.5502 33.5869 81.233 33.5869C83.9157 33.5869 86.5047 32.1614 86.9924 30.4111C87.0199 30.2075 87.0199 30.0013 86.9924 29.7976V16.3187C89.5626 16.03 91.2135 22.3093 94.0839 20.0177C94.1275 19.9787 94.1618 19.9311 94.1845 19.8782C94.2071 19.8252 94.2176 19.7682 94.2152 19.711L94.2903 16.2465Z" fill="#5BE9B9"/>
<path opacity="0.3" d="M94.2903 16.2465C94.2892 16.1836 94.2711 16.1221 94.2378 16.0681C94.2044 16.014 94.157 15.9693 94.1001 15.9383C94.0432 15.9073 93.9789 15.8911 93.9136 15.8914C93.8482 15.8916 93.784 15.9083 93.7274 15.9397C90.7633 17.4915 89.0748 9.96714 85.9981 12.4392C85.9521 12.4773 85.9149 12.5243 85.889 12.5771C85.8632 12.63 85.8492 12.6875 85.848 12.7459V13.1609V27.9752C84.9903 27.4738 83.9996 27.2231 82.9965 27.2534C80.3137 27.2534 77.7248 28.6789 77.237 30.4111C76.7492 32.1434 78.5502 33.5869 81.233 33.5869C83.9157 33.5869 86.5047 32.1614 86.9924 30.4111C87.0199 30.2075 87.0199 30.0013 86.9924 29.7976V16.3187C89.5626 16.03 91.2135 22.3093 94.0839 20.0177C94.1275 19.9787 94.1618 19.9311 94.1845 19.8782C94.2071 19.8252 94.2176 19.7682 94.2152 19.711L94.2903 16.2465Z" fill="black"/>
<path d="M108.647 31.3526C108.648 31.287 108.63 31.2224 108.596 31.1657C108.561 31.109 108.512 31.0624 108.452 31.0308C108.392 30.9993 108.324 30.984 108.256 30.9866C108.188 30.9893 108.122 31.0098 108.065 31.0458C105.045 32.6337 103.319 24.9469 100.167 27.437C100.121 27.4751 100.084 27.5221 100.058 27.575C100.032 27.6278 100.018 27.6854 100.017 27.7438V28.1768V43.2978C99.1402 42.7905 98.1316 42.5339 97.1089 42.558C94.3511 42.558 91.7247 44.0196 91.2369 45.7879C90.7491 47.5563 92.5501 49.0178 95.3079 49.0178C98.0657 49.0178 100.692 47.5743 101.18 45.7879C101.216 45.5849 101.216 45.3774 101.18 45.1744V31.4428C103.806 31.1361 105.495 37.5417 108.403 35.196C108.449 35.1579 108.486 35.1109 108.512 35.058C108.538 35.0052 108.552 34.9477 108.553 34.8893L108.647 31.3526Z" fill="#5BE9B9"/>
<path opacity="0.4" d="M108.647 31.3526C108.648 31.287 108.63 31.2224 108.596 31.1657C108.561 31.109 108.512 31.0624 108.452 31.0308C108.392 30.9993 108.324 30.984 108.256 30.9866C108.188 30.9893 108.122 31.0098 108.065 31.0458C105.045 32.6337 103.319 24.9469 100.167 27.437C100.121 27.4751 100.084 27.5221 100.058 27.575C100.032 27.6278 100.018 27.6854 100.017 27.7438V28.1768V43.2978C99.1402 42.7905 98.1316 42.5339 97.1089 42.558C94.3511 42.558 91.7247 44.0196 91.2369 45.7879C90.7491 47.5563 92.5501 49.0178 95.3079 49.0178C98.0657 49.0178 100.692 47.5743 101.18 45.7879C101.216 45.5849 101.216 45.3774 101.18 45.1744V31.4428C103.806 31.1361 105.495 37.5417 108.403 35.196C108.449 35.1579 108.486 35.1109 108.512 35.058C108.538 35.0052 108.552 34.9477 108.553 34.8893L108.647 31.3526Z" fill="black"/>
</svg>
