<svg width="150" height="100" viewBox="0 0 150 100" fill="none" xmlns="http://www.w3.org/2000/svg">
<path d="M136.751 96.3423H15.934C15.4063 96.3451 14.8839 96.2409 14.4009 96.0363C13.918 95.8317 13.4853 95.5314 13.1312 95.1551C12.7771 94.7788 12.5095 94.3348 12.3459 93.8522C12.1823 93.3697 12.1265 92.8594 12.1819 92.3546L19.2358 14.7648C19.3502 13.6858 19.8714 12.6844 20.7009 11.9497C21.5304 11.2151 22.6109 10.7979 23.7383 10.777H144.537C145.065 10.7742 145.587 10.8785 146.07 11.0831C146.553 11.2877 146.986 11.5879 147.34 11.9643C147.694 12.3406 147.962 12.7846 148.125 13.2671C148.289 13.7497 148.345 14.26 148.289 14.7648L141.235 92.3546C141.117 93.4291 140.598 94.4258 139.773 95.1594C138.948 95.8929 137.874 96.3133 136.751 96.3423Z" fill="#5BE9B9"/>
<path opacity="0.7" d="M136.751 96.3423H15.934C15.4063 96.3451 14.8839 96.2409 14.4009 96.0363C13.918 95.8317 13.4853 95.5314 13.1312 95.1551C12.7771 94.7788 12.5095 94.3348 12.3459 93.8522C12.1823 93.3697 12.1265 92.8594 12.1819 92.3546L19.2358 14.7648C19.3502 13.6858 19.8714 12.6844 20.7009 11.9497C21.5304 11.2151 22.6109 10.7979 23.7383 10.777H144.537C145.065 10.7742 145.587 10.8785 146.07 11.0831C146.553 11.2877 146.986 11.5879 147.34 11.9643C147.694 12.3406 147.962 12.7846 148.125 13.2671C148.289 13.7497 148.345 14.26 148.289 14.7648L141.235 92.3546C141.117 93.4291 140.598 94.4258 139.773 95.1594C138.948 95.8929 137.874 96.3133 136.751 96.3423Z" fill="white"/>
<path d="M25.8769 21.8201L20.1174 85.3174C20.062 85.8222 20.1179 86.3325 20.2815 86.8151C20.4451 87.2976 20.7127 87.7416 21.0668 88.1179C21.4209 88.4943 21.8535 88.7945 22.3365 88.9991C22.8194 89.2037 23.3418 89.308 23.8695 89.3052H130.054C131.181 89.2843 132.262 88.8672 133.091 88.1325C133.921 87.3978 134.442 86.3964 134.556 85.3174L140.335 21.8201C140.387 21.3167 140.329 20.8084 140.164 20.328C139.999 19.8476 139.731 19.4059 139.378 19.0316C139.024 18.6573 138.592 18.3587 138.111 18.1552C137.629 17.9517 137.108 17.8479 136.583 17.8504H30.3982C29.2704 17.8664 28.1877 18.279 27.3547 19.0104C26.5217 19.7418 25.996 20.7413 25.8769 21.8201Z" fill="#5BE9B9"/>
<path opacity="0.4" d="M25.8769 21.8201L20.1174 85.3174C20.062 85.8222 20.1179 86.3325 20.2815 86.8151C20.4451 87.2976 20.7127 87.7416 21.0668 88.1179C21.4209 88.4943 21.8535 88.7945 22.3365 88.9991C22.8194 89.2037 23.3418 89.308 23.8695 89.3052H130.054C131.181 89.2843 132.262 88.8672 133.091 88.1325C133.921 87.3978 134.442 86.3964 134.556 85.3174L140.335 21.8201C140.387 21.3167 140.329 20.8084 140.164 20.328C139.999 19.8476 139.731 19.4059 139.378 19.0316C139.024 18.6573 138.592 18.3587 138.111 18.1552C137.629 17.9517 137.108 17.8479 136.583 17.8504H30.3982C29.2704 17.8664 28.1877 18.279 27.3547 19.0104C26.5217 19.7418 25.996 20.7413 25.8769 21.8201Z" fill="white"/>
<path d="M85.6104 30.2286L86.7548 17.8503H82.3085L81.0516 31.7804L70.6958 67.4176H44.8251L50.6221 37.735L57.995 17.8503H53.3799L46.3447 36.7967L39.9849 69.204L33.3062 89.3051H37.9025L43.737 71.7121H69.4389L64.336 89.3051H68.8761L78.6503 55.6709H107.335L98.8553 89.3051H103.377L111.969 55.2198L137.877 49.0667L138.177 45.7466L109.943 52.4409H79.5883L85.1039 33.4766L116.134 31.4376L139.678 29.2362L139.978 26.0063L116.134 28.2257L85.6104 30.2286Z" fill="white"/>
<path d="M99.0613 36.3998H93.4519L87.8613 41.795V48.3269H104.652V41.795L99.0613 36.3998Z" fill="#5BE9B9"/>
<path opacity="0.3" d="M99.0613 36.3998H93.4519L87.8613 41.795V48.3269H104.652V41.795L99.0613 36.3998Z" fill="black"/>
<path d="M87.8613 41.795L93.4519 36.3998L99.0613 41.795V48.3269H87.8613V41.795Z" fill="#5BE9B9"/>
<path d="M96.2479 3C92.9342 3 89.7561 4.26611 87.4129 6.51981C85.0698 8.77351 83.7534 11.8302 83.7534 15.0174C83.7534 21.6396 96.2479 34.866 96.2479 34.866C96.2479 34.866 108.742 21.6576 108.742 15.0174C108.742 13.4393 108.419 11.8766 107.791 10.4185C107.163 8.96052 106.243 7.63573 105.083 6.51981C103.923 5.40389 102.545 4.51871 101.029 3.91478C99.5134 3.31085 97.8887 3 96.2479 3ZM96.2479 20.0156C95.2156 20.0156 94.2065 19.721 93.3484 19.169C92.4903 18.617 91.8219 17.8325 91.4277 16.9148C91.0335 15.9972 90.9314 14.9876 91.1341 14.0141C91.3369 13.0405 91.8355 12.1467 92.5667 11.4459C93.298 10.7451 94.2291 10.2688 95.242 10.0773C96.2549 9.88577 97.3041 9.98768 98.2568 10.3701C99.2094 10.7526 100.023 11.3983 100.593 12.2256C101.164 13.0529 101.467 14.0245 101.463 15.0174C101.463 15.6753 101.328 16.3267 101.066 16.9343C100.804 17.5419 100.419 18.0937 99.9346 18.5581C99.4501 19.0224 98.8749 19.3902 98.2423 19.6403C97.6096 19.8905 96.9319 20.018 96.2479 20.0156Z" fill="#5BE9B9"/>
<path d="M17.6969 50.7267L1 65.4868L14.9954 80.2469L17.6969 50.7267Z" fill="#5BE9B9"/>
<path opacity="0.7" d="M17.6969 50.7267L1 65.4868L14.9954 80.2469L17.6969 50.7267Z" fill="white"/>
</svg>
