<svg width="190" height="110" viewBox="0 0 190 110" fill="none" xmlns="http://www.w3.org/2000/svg">
<path d="M155.903 108.01H7.16964C6.44892 108.022 5.73386 107.886 5.0719 107.611C4.40994 107.337 3.81622 106.93 3.33011 106.418C2.84399 105.907 2.47661 105.301 2.25234 104.642C2.02807 103.983 1.95203 103.286 2.02927 102.597L10.6966 7.41393C10.8483 5.94721 11.5552 4.58525 12.6828 3.58715C13.8105 2.58905 15.2802 2.02444 16.8125 2.00069H165.564C166.285 1.98903 167 2.1249 167.662 2.39929C168.324 2.67368 168.918 3.08033 169.404 3.59225C169.89 4.10416 170.257 4.70964 170.482 5.36852C170.706 6.02741 170.782 6.72463 170.705 7.41393L162.037 102.597C161.881 104.065 161.171 105.427 160.04 106.425C158.909 107.423 157.437 107.987 155.903 108.01Z" fill="#5BE9B9"/>
<path opacity="0.7" d="M155.903 108.01H7.16964C6.44892 108.022 5.73386 107.886 5.0719 107.611C4.40994 107.337 3.81622 106.93 3.33011 106.418C2.84399 105.907 2.47661 105.301 2.25234 104.642C2.02807 103.983 1.95203 103.286 2.02927 102.597L10.6966 7.41393C10.8483 5.94721 11.5552 4.58525 12.6828 3.58715C13.8105 2.58905 15.2802 2.02444 16.8125 2.00069H165.564C166.285 1.98903 167 2.1249 167.662 2.39929C168.324 2.67368 168.918 3.08033 169.404 3.59225C169.89 4.10416 170.257 4.70964 170.482 5.36852C170.706 6.02741 170.782 6.72463 170.705 7.41393L162.037 102.597C161.881 104.065 161.171 105.427 160.04 106.425C158.909 107.423 157.437 107.987 155.903 108.01Z" fill="white"/>
<path d="M19.0076 15.5881L11.8411 94.2786C11.7721 94.9075 11.8425 95.5433 12.0476 96.1441C12.2527 96.7449 12.5879 97.2971 13.0311 97.7643C13.4742 98.2315 14.0153 98.603 14.6186 98.8544C15.2219 99.1057 15.8738 99.2313 16.5312 99.2227H148.136C149.542 99.2075 150.893 98.6951 151.931 97.7832C152.969 96.8713 153.621 95.6238 153.764 94.2786L160.874 15.5881C160.949 14.9596 160.884 14.3229 160.682 13.7208C160.48 13.1186 160.147 12.5649 159.705 12.0968C159.262 11.6286 158.721 11.2567 158.117 11.0062C157.513 10.7556 156.861 10.6321 156.203 10.644H24.5795C23.1773 10.6524 21.8289 11.1639 20.7983 12.0784C19.7677 12.9929 19.1291 14.2445 19.0076 15.5881Z" fill="#5BE9B9"/>
<path opacity="0.3" d="M19.0076 15.5881L11.8411 94.2786C11.7721 94.9075 11.8425 95.5433 12.0476 96.1441C12.2527 96.7449 12.5879 97.2971 13.0311 97.7643C13.4742 98.2315 14.0153 98.603 14.6186 98.8544C15.2219 99.1057 15.8738 99.2313 16.5312 99.2227H148.136C149.542 99.2075 150.893 98.6951 151.931 97.7832C152.969 96.8713 153.621 95.6238 153.764 94.2786L160.874 15.5881C160.949 14.9596 160.884 14.3229 160.682 13.7208C160.48 13.1186 160.147 12.5649 159.705 12.0968C159.262 11.6286 158.721 11.2567 158.117 11.0062C157.513 10.7556 156.861 10.6321 156.203 10.644H24.5795C23.1773 10.6524 21.8289 11.1639 20.7983 12.0784C19.7677 12.9929 19.1291 14.2445 19.0076 15.5881Z" fill="white"/>
<path d="M145.772 88.5044H142.527C142.15 88.5107 141.785 88.3806 141.503 88.14C141.222 87.8993 141.045 87.5656 141.007 87.2052L137.611 57.8293H144.253L147.573 86.5917C147.588 86.8317 147.553 87.0721 147.471 87.2989C147.388 87.5257 147.259 87.7344 147.091 87.9125C146.923 88.0907 146.72 88.2349 146.494 88.3365C146.267 88.4381 146.022 88.4952 145.772 88.5044Z" fill="#5BE9B9"/>
<path opacity="0.3" d="M145.772 88.5044H142.527C142.15 88.5107 141.785 88.3806 141.503 88.14C141.222 87.8993 141.045 87.5656 141.007 87.2052L137.611 57.8293H144.253L147.573 86.5917C147.588 86.8317 147.553 87.0721 147.471 87.2989C147.388 87.5257 147.259 87.7344 147.091 87.9125C146.923 88.0907 146.72 88.2349 146.494 88.3365C146.267 88.4381 146.022 88.4952 145.772 88.5044Z" fill="black"/>
<path d="M124.348 88.5043H24.9172C24.202 88.538 23.4895 88.3984 22.845 88.0984C22.2004 87.7985 21.6445 87.3477 21.2282 86.7874C20.8118 86.2272 20.5483 85.5753 20.4619 84.8917C20.3755 84.208 20.4689 83.5144 20.7336 82.8745L36.7925 28.9587C37.3029 27.3994 38.2938 26.0261 39.6339 25.0207C40.974 24.0153 42.6001 23.4253 44.2967 23.3289H143.727C144.442 23.2936 145.155 23.4323 145.8 23.7322C146.445 24.0322 147 24.4836 147.415 25.0448C147.831 25.606 148.092 26.2589 148.175 26.943C148.259 27.6271 148.161 28.3204 147.892 28.9587L131.852 82.8745C131.337 84.4312 130.345 85.8017 129.006 86.8064C127.666 87.8111 126.043 88.4029 124.348 88.5043Z" fill="#5BE9B9"/>
<path opacity="0.2" d="M124.348 88.5043H24.9172C24.202 88.538 23.4895 88.3984 22.845 88.0984C22.2004 87.7985 21.6445 87.3477 21.2282 86.7874C20.8118 86.2272 20.5483 85.5753 20.4619 84.8917C20.3755 84.208 20.4689 83.5144 20.7336 82.8745L36.7925 28.9587C37.3029 27.3994 38.2938 26.0261 39.6339 25.0207C40.974 24.0153 42.6001 23.4253 44.2967 23.3289H143.727C144.442 23.2936 145.155 23.4323 145.8 23.7322C146.445 24.0322 147 24.4836 147.415 25.0448C147.831 25.606 148.092 26.2589 148.175 26.943C148.259 27.6271 148.161 28.3204 147.892 28.9587L131.852 82.8745C131.337 84.4312 130.345 85.8017 129.006 86.8064C127.666 87.8111 126.043 88.4029 124.348 88.5043Z" fill="black"/>
<path d="M148.924 23.3289H143.765C144.481 23.2936 145.193 23.4323 145.838 23.7322C146.483 24.0322 147.038 24.4836 147.453 25.0448C147.869 25.606 148.13 26.2589 148.213 26.943C148.297 27.6271 148.199 28.3204 147.93 28.9587L131.89 82.8745C131.375 84.4312 130.383 85.8017 129.044 86.8064C127.704 87.8111 126.081 88.4029 124.386 88.5043H129.545C131.241 88.4079 132.868 87.8179 134.208 86.8125C135.548 85.8071 136.539 84.4338 137.049 82.8745L153.108 28.9587C153.373 28.3188 153.466 27.6252 153.38 26.9415C153.293 26.2579 153.03 25.606 152.613 25.0458C152.197 24.4855 151.641 24.0347 150.997 23.7347C150.352 23.4348 149.64 23.2952 148.924 23.3289Z" fill="#5BE9B9"/>
<path opacity="0.5" d="M148.924 23.3289H143.765C144.481 23.2936 145.193 23.4323 145.838 23.7322C146.483 24.0322 147.038 24.4836 147.453 25.0448C147.869 25.606 148.13 26.2589 148.213 26.943C148.297 27.6271 148.199 28.3204 147.93 28.9587L131.89 82.8745C131.375 84.4312 130.383 85.8017 129.044 86.8064C127.704 87.8111 126.081 88.4029 124.386 88.5043H129.545C131.241 88.4079 132.868 87.8179 134.208 86.8125C135.548 85.8071 136.539 84.4338 137.049 82.8745L153.108 28.9587C153.373 28.3188 153.466 27.6252 153.38 26.9415C153.293 26.2579 153.03 25.606 152.613 25.0458C152.197 24.4855 151.641 24.0347 150.997 23.7347C150.352 23.4348 149.64 23.2952 148.924 23.3289Z" fill="black"/>
<path d="M121.477 82.2971H31.5396L47.2608 29.5179H137.199L121.477 82.2971Z" fill="#5BE9B9"/>
<path d="M121.477 82.2971H31.5396L47.2608 29.5179H137.199L121.477 82.2971Z" fill="white" fill-opacity="0.2"/>
<path d="M164.795 55.0144L187.514 34.9313L168.453 14.8481L164.795 55.0144Z" fill="#5BE9B9"/>
<path opacity="0.7" d="M164.795 55.0144L187.514 34.9313L168.453 14.8481L164.795 55.0144Z" fill="white"/>
<path d="M50.1313 82.4415L72.5126 54.9964C74.6513 52.398 77.1652 52.398 78.1407 54.9964L88.4027 82.4415H50.1313Z" fill="#5BE9B9"/>
<path opacity="0.2" d="M50.1313 82.4415L72.5126 54.9964C74.6513 52.398 77.1652 52.398 78.1407 54.9964L88.4027 82.4415H50.1313Z" fill="black"/>
<path d="M72.5126 54.9965L50.1313 82.4416H69.9424C68.0664 80.9259 63.47 80.114 64.3143 76.6134C65.3086 72.0663 74.4449 73.6542 75.3829 69.3957C76.321 65.1373 69.7548 66.4365 70.8429 61.2037C71.686 58.3182 73.1001 55.6163 75.0077 53.2462C74.0151 53.5809 73.1472 54.1897 72.5126 54.9965Z" fill="#5BE9B9"/>
<path opacity="0.7" d="M72.5126 54.9965L50.1313 82.4416H69.9424C68.0664 80.9259 63.47 80.114 64.3143 76.6134C65.3086 72.0663 74.4449 73.6542 75.3829 69.3957C76.321 65.1373 69.7548 66.4365 70.8429 61.2037C71.686 58.3182 73.1001 55.6163 75.0077 53.2462C74.0151 53.5809 73.1472 54.1897 72.5126 54.9965Z" fill="white"/>
<path d="M83.4121 82.4416L102.773 68.7281C103.561 68.0905 104.557 67.741 105.587 67.741C106.617 67.741 107.613 68.0905 108.401 68.7281L121.702 82.4416H83.4121Z" fill="#5BE9B9"/>
<path opacity="0.2" d="M83.4121 82.4416L102.773 68.7281C103.561 68.0905 104.557 67.741 105.587 67.741C106.617 67.741 107.613 68.0905 108.401 68.7281L121.702 82.4416H83.4121Z" fill="black"/>
<path d="M102.773 68.7279L83.4121 82.4415H103.242C101.178 81.6836 96.4882 81.2686 96.8821 79.5364C97.3887 77.2628 106.675 78.0568 107.144 75.9275C107.613 73.7983 101.122 74.4479 101.704 71.8315C102.356 70.2252 103.493 68.8429 104.968 67.8618C104.176 67.982 103.424 68.2785 102.773 68.7279Z" fill="#5BE9B9"/>
<path opacity="0.7" d="M102.773 68.7279L83.4121 82.4415H103.242C101.178 81.6836 96.4882 81.2686 96.8821 79.5364C97.3887 77.2628 106.675 78.0568 107.144 75.9275C107.613 73.7983 101.122 74.4479 101.704 71.8315C102.356 70.2252 103.493 68.8429 104.968 67.8618C104.176 67.982 103.424 68.2785 102.773 68.7279Z" fill="white"/>
<path d="M31.5581 82.4416L52.1946 62.7735C54.0707 60.9691 56.6596 60.9691 57.8228 62.7735L69.792 82.4416H31.5581Z" fill="#5BE9B9"/>
<path opacity="0.2" d="M31.5581 82.4416L52.1946 62.7735C54.0707 60.9691 56.6596 60.9691 57.8228 62.7735L69.792 82.4416H31.5581Z" fill="black"/>
<path d="M52.326 62.7735L31.6895 82.4417H51.5005C49.6245 81.359 44.8781 80.7636 45.4221 78.2554C46.1538 75.0075 55.3652 76.1443 56.0406 73.0407C56.7159 69.9371 50.1498 70.9295 50.994 67.1763C51.7441 65.0105 53.032 63.0533 54.7461 61.4744C53.8257 61.6732 52.9851 62.1245 52.326 62.7735Z" fill="#5BE9B9"/>
<path opacity="0.7" d="M52.326 62.7735L31.6895 82.4417H51.5005C49.6245 81.359 44.8781 80.7636 45.4221 78.2554C46.1538 75.0075 55.3652 76.1443 56.0406 73.0407C56.7159 69.9371 50.1498 70.9295 50.994 67.1763C51.7441 65.0105 53.032 63.0533 54.7461 61.4744C53.8257 61.6732 52.9851 62.1245 52.326 62.7735Z" fill="white"/>
<path d="M45.5913 41.5354L19.3266 36.5011C18.9755 36.4327 18.6137 36.4318 18.2622 36.4983C17.9107 36.5648 17.5763 36.6974 17.2782 36.8885C16.9801 37.0797 16.7243 37.3255 16.5252 37.612C16.3262 37.8986 16.188 38.2201 16.1185 38.5581L15.7246 40.4527C15.5862 41.1343 15.7334 41.8409 16.1339 42.4187C16.5344 42.9966 17.1559 43.3989 17.8633 43.5383L44.1279 48.5726L62.0067 53.4986L70.6928 51.3875C70.9822 51.3201 71.2455 51.1742 71.4514 50.9673C71.6573 50.7603 71.7971 50.501 71.8544 50.2199C71.9117 49.9388 71.8839 49.6478 71.7744 49.3814C71.665 49.115 71.4784 48.8844 71.2368 48.7169L64.0703 43.5563L45.5913 41.5354Z" fill="#5BE9B9"/>
<path opacity="0.6" d="M45.5913 41.5354L19.3266 36.5011C18.9755 36.4327 18.6137 36.4318 18.2622 36.4983C17.9107 36.5648 17.5763 36.6974 17.2782 36.8885C16.9801 37.0797 16.7243 37.3255 16.5252 37.612C16.3262 37.8986 16.188 38.2201 16.1185 38.5581L15.7246 40.4527C15.5862 41.1343 15.7334 41.8409 16.1339 42.4187C16.5344 42.9966 17.1559 43.3989 17.8633 43.5383L44.1279 48.5726L62.0067 53.4986L70.6928 51.3875C70.9822 51.3201 71.2455 51.1742 71.4514 50.9673C71.6573 50.7603 71.7971 50.501 71.8544 50.2199C71.9117 49.9388 71.8839 49.6478 71.7744 49.3814C71.665 49.115 71.4784 48.8844 71.2368 48.7169L64.0703 43.5563L45.5913 41.5354Z" fill="black"/>
<path d="M58.6673 52.5784L60.6184 43.1774L49.1745 41.9324L47.5986 49.5289L58.6673 52.5784Z" fill="#5BE9B9"/>
<path d="M119.338 44.9818C118.782 47.2082 117.487 49.1997 115.649 50.655C113.811 52.1103 111.53 52.9502 109.151 53.0475C108.11 53.0888 107.074 52.892 106.127 52.4731C105.181 52.0541 104.351 51.4252 103.706 50.6378C103.062 49.8505 102.621 48.9272 102.419 47.944C102.218 46.9607 102.262 45.9455 102.548 44.9818C103.097 42.7535 104.387 40.7584 106.222 39.2995C108.057 37.8405 110.337 36.9974 112.716 36.898C113.759 36.8569 114.798 37.0543 115.747 37.4742C116.695 37.894 117.527 38.5243 118.173 39.3132C118.82 40.1022 119.262 41.0274 119.465 42.0128C119.667 42.9982 119.624 44.0157 119.338 44.9818Z" fill="#5BE9B9"/>
<path opacity="0.8" d="M119.338 44.9818C118.782 47.2082 117.487 49.1997 115.649 50.655C113.811 52.1103 111.53 52.9502 109.151 53.0475C108.11 53.0888 107.074 52.892 106.127 52.4731C105.181 52.0541 104.351 51.4252 103.706 50.6378C103.062 49.8505 102.621 48.9272 102.419 47.944C102.218 46.9607 102.262 45.9455 102.548 44.9818C103.097 42.7535 104.387 40.7584 106.222 39.2995C108.057 37.8405 110.337 36.9974 112.716 36.898C113.759 36.8569 114.798 37.0543 115.747 37.4742C116.695 37.894 117.527 38.5243 118.173 39.3132C118.82 40.1022 119.262 41.0274 119.465 42.0128C119.667 42.9982 119.624 44.0157 119.338 44.9818Z" fill="white"/>
</svg>
