<svg width="125" height="105" viewBox="0 0 125 105" fill="none" xmlns="http://www.w3.org/2000/svg">
<path d="M18.2784 12.6826L1 27.966L15.5019 43.2313L18.2784 12.6826Z" fill="#5BE9B9"/>
<path opacity="0.7" d="M18.2784 12.6826L1 27.966L15.5019 43.2313L18.2784 12.6826Z" fill="white"/>
<path d="M114.894 72.517H15.295C14.8578 72.5247 14.4239 72.4426 14.0222 72.2763C13.6206 72.11 13.2603 71.8632 12.9656 71.5524C12.6709 71.2417 12.4485 70.8741 12.3132 70.4741C12.1778 70.0742 12.1327 69.651 12.1808 69.233L17.9965 5.28454C18.081 4.38478 18.5134 3.54824 19.2081 2.9402C19.9028 2.33216 20.8093 1.99683 21.7486 2.00049H121.329C121.767 1.99281 122.2 2.07492 122.602 2.24124C123.004 2.40757 123.364 2.65433 123.659 2.96509C123.953 3.27585 124.176 3.64344 124.311 4.0434C124.446 4.44336 124.492 4.86648 124.443 5.28454L118.628 69.233C118.544 70.1296 118.114 70.9636 117.423 71.5712C116.732 72.1788 115.83 72.5162 114.894 72.517Z" fill="#5BE9B9"/>
<path opacity="0.7" d="M114.894 72.517H15.295C14.8578 72.5247 14.4239 72.4426 14.0222 72.2763C13.6206 72.11 13.2603 71.8632 12.9656 71.5524C12.6709 71.2417 12.4485 70.8741 12.3132 70.4741C12.1778 70.0742 12.1327 69.651 12.1808 69.233L17.9965 5.28454C18.081 4.38478 18.5134 3.54824 19.2081 2.9402C19.9028 2.33216 20.8093 1.99683 21.7486 2.00049H121.329C121.767 1.99281 122.2 2.07492 122.602 2.24124C123.004 2.40757 123.364 2.65433 123.659 2.96509C123.953 3.27585 124.176 3.64344 124.311 4.0434C124.446 4.44336 124.492 4.86648 124.443 5.28454L118.628 69.233C118.544 70.1296 118.114 70.9636 117.423 71.5712C116.732 72.1788 115.83 72.5162 114.894 72.517Z" fill="white"/>
<path d="M23.4931 11.0946L18.728 63.4226C18.6828 63.8416 18.7305 64.2651 18.8681 64.6651C19.0057 65.065 19.23 65.4323 19.5261 65.7427C19.8222 66.0531 20.1835 66.2996 20.586 66.4657C20.9885 66.6319 21.423 66.714 21.8609 66.7066H109.379C110.318 66.7103 111.224 66.375 111.919 65.7669C112.614 65.1589 113.046 64.3224 113.131 63.4226L117.896 11.0946C117.944 10.6765 117.899 10.2534 117.763 9.85346C117.628 9.4535 117.406 9.08591 117.111 8.77515C116.816 8.46439 116.456 8.21763 116.054 8.0513C115.653 7.88498 115.219 7.80287 114.782 7.81055H27.2077C26.2749 7.81588 25.3776 8.15526 24.6908 8.76243C24.004 9.3696 23.577 10.201 23.4931 11.0946Z" fill="#5BE9B9"/>
<path opacity="0.4" d="M23.4931 11.0946L18.728 63.4226C18.6828 63.8416 18.7305 64.2651 18.8681 64.6651C19.0057 65.065 19.23 65.4323 19.5261 65.7427C19.8222 66.0531 20.1835 66.2996 20.586 66.4657C20.9885 66.6319 21.423 66.714 21.8609 66.7066H109.379C110.318 66.7103 111.224 66.375 111.919 65.7669C112.614 65.1589 113.046 64.3224 113.131 63.4226L117.896 11.0946C117.944 10.6765 117.899 10.2534 117.763 9.85346C117.628 9.4535 117.406 9.08591 117.111 8.77515C116.816 8.46439 116.456 8.21763 116.054 8.0513C115.653 7.88498 115.219 7.80287 114.782 7.81055H27.2077C26.2749 7.81588 25.3776 8.15526 24.6908 8.76243C24.004 9.3696 23.577 10.201 23.4931 11.0946Z" fill="white"/>
<path d="M106.171 66.7247C105.699 59.5855 102.418 52.8869 96.9962 47.9902C91.574 43.0935 84.417 40.3661 76.9793 40.3622H68.1994C67.6398 40.3547 67.0921 40.2057 66.6113 39.9301C66.1305 39.6546 65.7336 39.2622 65.4604 38.7923C64.2034 36.7894 62.3837 35.0031 62.7214 33.0723C63.2279 30.1131 66.6048 28.4892 66.6048 25.548C66.5887 23.3614 65.7792 21.2489 64.316 19.5754C64.6913 18.1202 64.7551 16.6069 64.5036 15.1273C64.252 13.6477 63.6903 12.2326 62.8527 10.9683C61.2417 11.0273 59.6619 11.4132 58.2167 12.1004C56.7716 12.7876 55.4937 13.7607 54.4668 14.9561H53.3599H52.2717C51.2532 13.7696 49.9873 12.8017 48.5558 12.1148C47.1243 11.4279 45.559 11.0373 43.9609 10.9683C43.1232 12.2326 42.5615 13.6477 42.31 15.1273C42.0584 16.6069 42.1223 18.1202 42.4976 19.5754C41.0344 21.2489 40.2248 23.3614 40.2088 25.548C40.2088 28.6155 43.8483 30.2214 44.4487 33.325C46.4936 44.0071 39.4396 59.886 36.0439 66.7247H106.171Z" fill="#263238"/>
<path d="M106.753 66.6344C117.258 62.5925 113.619 85.4364 113.281 90.182C112.831 96.6959 112.85 103.444 121.123 103.95C123.656 104.094 123.637 100.341 121.123 100.16C114.294 99.7454 117.502 87.5295 117.784 83.253C118.14 78.1465 118.816 72.0837 116.377 67.302C115.518 65.3979 113.93 63.8853 111.942 63.0787C109.954 62.2722 107.719 62.2337 105.702 62.9714C103.376 63.8736 104.407 67.5366 106.753 66.5803V66.6344Z" fill="#263238"/>
<path d="M44.655 23.9962C45.0688 24.4735 45.5866 24.8576 46.1717 25.1211C46.7569 25.3847 47.3952 25.5212 48.0413 25.5212C48.6875 25.5212 49.3257 25.3847 49.9108 25.1211C50.496 24.8576 51.0138 24.4735 51.4276 23.9962C52.0467 23.3466 51.0524 22.3903 50.4333 23.0398C50.1511 23.3918 49.7887 23.6768 49.374 23.8729C48.9594 24.0691 48.5034 24.1711 48.0413 24.1711C47.5792 24.1711 47.1232 24.0691 46.7085 23.8729C46.2938 23.6768 45.9315 23.3918 45.6493 23.0398C45.0302 22.3903 44.0359 23.3646 44.655 23.9962Z" fill="white"/>
<path d="M55.5925 23.9962C56.0063 24.4735 56.524 24.8576 57.1092 25.1211C57.6943 25.3847 58.3326 25.5212 58.9788 25.5212C59.6249 25.5212 60.2632 25.3847 60.8483 25.1211C61.4335 24.8576 61.9513 24.4735 62.365 23.9962C62.9841 23.3466 61.9898 22.3903 61.3707 23.0398C61.0885 23.3918 60.7262 23.6768 60.3115 23.8729C59.8968 24.0691 59.4409 24.1711 58.9788 24.1711C58.5167 24.1711 58.0607 24.0691 57.646 23.8729C57.2313 23.6768 56.869 23.3918 56.5868 23.0398C55.9677 22.3903 54.9734 23.3646 55.5925 23.9962Z" fill="white"/>
<path d="M54.2418 66.7248H35.3312C34.7087 66.7248 34.0925 66.6065 33.5176 66.3769C32.9428 66.1473 32.4209 65.8107 31.9816 65.3865C31.5424 64.9624 31.1945 64.459 30.958 63.9052C30.7215 63.3514 30.6011 62.7582 30.6036 62.1595C30.6036 61.7193 30.7854 61.2971 31.1091 60.9857C31.4328 60.6744 31.8718 60.4995 32.3295 60.4995H57.2622C57.7199 60.4995 58.159 60.6744 58.4826 60.9857C58.8063 61.2971 58.9882 61.7193 58.9882 62.1595C58.9882 62.759 58.8654 63.3527 58.6269 63.9066C58.3883 64.4604 58.0387 64.9637 57.598 65.3876C57.1572 65.8116 56.634 66.1478 56.0581 66.3772C55.4822 66.6067 54.8651 66.7248 54.2418 66.7248Z" fill="#5BE9B9"/>
<path opacity="0.9" d="M54.2418 66.7248H35.3312C34.7087 66.7248 34.0925 66.6065 33.5176 66.3769C32.9428 66.1473 32.4209 65.8107 31.9816 65.3865C31.5424 64.9624 31.1945 64.459 30.958 63.9052C30.7215 63.3514 30.6011 62.7582 30.6036 62.1595C30.6036 61.7193 30.7854 61.2971 31.1091 60.9857C31.4328 60.6744 31.8718 60.4995 32.3295 60.4995H57.2622C57.7199 60.4995 58.159 60.6744 58.4826 60.9857C58.8063 61.2971 58.9882 61.7193 58.9882 62.1595C58.9882 62.759 58.8654 63.3527 58.6269 63.9066C58.3883 64.4604 58.0387 64.9637 57.598 65.3876C57.1572 65.8116 56.634 66.1478 56.0581 66.3772C55.4822 66.6067 54.8651 66.7248 54.2418 66.7248Z" fill="white"/>
</svg>
