<svg xmlns="http://www.w3.org/2000/svg" fill="none" viewBox="0 0 25 25" id="home">
  <g fill="#1A457B" clip-path="url(#clip0)">
    <path d="M20.602 10.341v11.647h-4.397v-5.037a.8.8 0 00-.8-.8H9.781a.8.8 0 00-.8.8v5.037h-4.37V10.341h-1.6v12.447a.8.8 0 00.8.8h5.97a.8.8 0 00.8-.8v-5.037h4.024v5.037a.8.8 0 00.8.8h5.997a.8.8 0 00.8-.8V10.341h-1.6z"></path>
    <path d="M24.747 12.476L13.153 1.628a.8.8 0 00-1.087-.005L.259 12.471a.799.799 0 101.081 1.178L12.603 3.301l11.052 10.342a.8.8 0 001.093-1.168z"></path>
  </g>
  <defs>
    <clipPath id="clip0">
      <path fill="#000" d="M0 0h25v25H0z"></path>
    </clipPath>
  </defs>
</svg>
