<svg width="0" height="0" class="hidden">
  <symbol id="simple-icon" width="111" height="50" viewBox="0 0 111 50" fill="none">
    <path d="M30.8113 10.5468V13.594M30.8113 35.5535V22.9359M30.8113 35.5535C29.0213 34.521 27.489 33.2501 26.0844 31.8355M30.8113 35.5535V47.5M5.96832 13.594C6.98864 13.9822 7.94456 14.4094 8.84416 14.8697M30.8113 22.9359V13.594M30.8113 22.9359C32.3515 22.5789 37.7164 20.5307 39 19.6585M58.2013 6.7987C57.2739 7.15365 56.3994 7.5409 55.5714 7.95408M30.8113 13.594L27.0438 10.5468M26.0844 31.8355C22.9675 32.8414 16.5292 34.152 15.711 31.3468M26.0844 31.8355C25.5544 31.3017 25.0426 30.7475 24.542 30.1779M24.542 30.1779C23.7412 27.1585 22.4318 20.8273 23.6007 19.6585M24.542 30.1779C22.2675 27.5901 20.224 24.685 17.7565 21.9397M17.7565 21.9397C18.1948 18.762 18.6331 12.2205 16.8799 11.4766M17.7565 21.9397C15.8571 23.2734 11.6786 25.4442 10.1591 23.4572M17.7565 21.9397C15.796 19.7586 13.5679 17.6783 10.7435 15.9383M10.7435 15.9383C11.2305 13.8179 11.7955 9.43119 10.1591 8.84678M10.7435 15.9383C10.1388 15.5657 9.50675 15.2087 8.84416 14.8697M8.84416 14.8697L3 17.7591M39 19.6585C41.8247 20.5092 48.6461 23.0812 51.3344 21.0393M39 19.6585C38.7078 16.2752 39.0032 10.6851 40.5227 9.86688M39 19.6585C41.38 18.0413 43.9916 17.0918 46.4755 14.6883M46.4755 14.6883C49.0691 15.224 54.3734 15.974 54.8409 14.6883M46.4755 14.6883C46.8524 14.3236 47.2378 13.9572 47.6341 13.5913M47.6341 13.5913C47.3091 11.0349 46.9513 5.68831 48.1201 4.75325M47.6341 13.5913C49.3022 12.0513 51.1618 10.5211 53.3799 9.1674M53.3799 9.1674L60.3929 10.8896M53.3799 9.1674C54.0736 8.74399 54.8024 8.33785 55.5714 7.95408M55.5714 7.95408V3" stroke="#A36B21" stroke-width="5" stroke-linecap="round" stroke-linejoin="round"/>
    <path d="M58.5 31.2236C58.5 32.8844 58.5 38.365 58.5 38.6972C58.5 49.4923 71.3337 49.4923 71.3337 38.6972C71.3337 38.365 71.3337 32.8844 71.3337 31.2236M77.7197 46.5859V31.2236L88.5 46.5859V31.2236M107.834 31.2237H101.417H95V47.0011H107.834V38.6972H101.674M36.7998 31.2236H44.5M52.2002 31.2236H44.5M44.5 31.2236V47.0011" stroke="#A36B21" stroke-width="5" stroke-linecap="round" stroke-linejoin="round"/>
  </symbol>

  <symbol id="noname-icon" width="310" height="310" viewBox="0 0 310 310" xmlns="http://www.w3.org/2000/svg">
    <path d="M16.4327 241.726C9.13449 228.833 5 213.975 5 197.156H100.893M16.4327 241.726C16.9075 233.06 34.4643 212.013 100.893 197.156M16.4327 241.726C25.4054 257.578 39.1601 270.46 55.8929 280.362M100.893 197.156H151.92M55.8929 280.362C53.3929 267.66 79.3036 233.237 202.946 197.156M55.8929 280.362C76.0226 292.274 100.462 299.875 126.071 303.146M202.946 197.156H305C305 207.653 303.413 217.38 300.47 226.339M202.946 197.156H151.92M126.071 303.146C198.626 312.416 280.566 286.939 300.47 226.339M126.071 303.146C149.123 280.02 216.275 232.282 300.47 226.339M151.92 197.156V136.669M151.92 5.00006V31.0805M151.92 31.0805L131 5.00006M151.92 31.0805V83.8746M151.92 136.669C144.797 134.271 135.594 130.509 126.071 125.596M151.92 136.669V83.8746M76.25 71.4056C77.0401 91.2306 96.1128 108.197 116.429 120.26M76.25 71.4056C76.1087 67.8594 75.618 64.502 74.8328 61.3243M76.25 71.4056C58.2143 75.1198 22.25 78.3033 22.6786 61.3243M16.4327 10.3873C18.8226 11.3855 22.7568 12.8706 27.5 14.9637M116.429 120.26C110.357 103.975 100.036 69.3894 107.321 61.3243M116.429 120.26C119.634 122.164 122.871 123.945 126.071 125.596M126.071 125.596C100.893 118.348 49.1429 107.133 43.5714 120.26M74.8328 61.3243C79.7062 45.9371 87.9909 14.2076 82.1429 10.3873M74.8328 61.3243C70.4386 43.5411 56.8192 31.3867 43.5714 23.2801M43.5714 23.2801C44.8214 16.6832 47.5 6.5 41.5 5M43.5714 23.2801C37.8943 19.8061 32.2854 17.0754 27.5 14.9637M27.5 14.9637C21.9643 15.1357 9.71429 19.2597 5 25.5001M151.92 83.8746C154.531 83.3519 157.95 82.4495 161.964 81.1211M300 15.864C297 12 282.765 14.5108 275.187 15.864M161.964 81.1211C163.304 66.1383 169.679 33.5943 184.464 23.2801M161.964 81.1211C163.489 80.6164 165.1 80.0502 166.786 79.4199M166.786 79.4199C177.143 87.8025 201.714 102.498 217.143 94.2212M166.786 79.4199C179.009 74.849 195.136 66.9099 210.714 54.6348M210.714 54.6348C209.286 39.7087 209.857 9.00774 223.571 5.61194M210.714 54.6348C212.872 52.9349 215.018 51.1518 217.143 49.283M217.143 49.283C219.313 47.3738 221.46 45.375 223.571 43.2841C236.09 30.8856 249.575 23.5451 261.607 19.4081M217.143 49.283C232.857 57.3105 267.179 70.9574 278.75 61.3243M261.607 19.4081L305 42.5M261.607 19.4081C266.417 17.7542 270.996 16.6123 275.187 15.864M275.187 15.864L278 5" stroke="#A36B21" stroke-width="10" stroke-linecap="round" stroke-linejoin="round"/>
  </symbol>

  <symbol id="chat" width="24" height="24" viewBox="0 0 24 24" fill="none" xmlns="http://www.w3.org/2000/svg">
    <path d="M12 20.25C16.97 20.25 21 16.556 21 12C21 7.444 16.97 3.75 12 3.75C7.03 3.75 3 7.444 3 12C3 14.104 3.859 16.023 5.273 17.48C5.705 17.927 6.013 18.52 5.859 19.121C5.69037 19.7782 5.37478 20.3885 4.936 20.906C5.28714 20.9691 5.64324 21.0005 6 21C7.282 21 8.47 20.598 9.445 19.913C10.255 20.133 11.113 20.25 12 20.25Z" stroke="white" stroke-width="1.5" stroke-linecap="round" stroke-linejoin="round"/>
  </symbol>

  <!-- #region -->
  <symbol id="facebook-logo" width="30" height="30" viewBox="0 0 30 30" fill="none" xmlns="http://www.w3.org/2000/svg">
    <path d="M6.27 5.24438H23.5556C24.1416 5.24438 24.6694 5.7722 24.6694 6.35813V23.6438C24.6694 24.2297 24.1416 24.7575 23.5556 24.7575H6.27C5.68406 24.7575 5.15625 24.2297 5.15625 23.6438V6.35813C5.15625 5.7722 5.68406 5.24438 6.27 5.24438ZM19.0134 16.2009H21.7087L21.8259 13.6228H19.0134V11.7188C19.0134 10.9866 19.1597 10.5759 20.0972 10.5759H21.7378L21.7969 8.17314C21.7969 8.17314 21.0647 8.05595 20.01 8.05595C17.4319 8.05595 16.2891 9.66751 16.2891 11.3963V13.6228H14.385V16.2009H16.2891V23.3494H19.0134V16.2009Z" fill="white"/>
  </symbol>

  <symbol id="github-logo" width="30" height="30" viewBox="0 0 30 30" fill="none" xmlns="http://www.w3.org/2000/svg">
    <g clip-path="url(#clip0_397_1335)">
    <path d="M14.9998 2.49997C12.0231 2.48874 9.14013 3.54015 6.86953 5.46505C4.59894 7.38994 3.0898 10.0619 2.61363 13.0003C2.13746 15.9387 2.72553 18.9506 4.27202 21.494C5.81851 24.0375 8.22191 25.9456 11.0498 26.875C11.6748 26.975 11.8748 26.5875 11.8748 26.25V24.1375C8.41231 24.8875 7.67481 22.5 7.67481 22.5C7.44137 21.7236 6.93531 21.0578 6.24981 20.625C5.11231 19.85 6.33731 19.875 6.33731 19.875C6.72969 19.9257 7.10551 20.0645 7.43669 20.281C7.76787 20.4974 8.04584 20.786 8.24981 21.125C8.59703 21.7424 9.17396 22.1977 9.85513 22.392C10.5363 22.5863 11.2666 22.5038 11.8873 22.1625C11.9443 21.5288 12.2232 20.9356 12.6748 20.4875C9.99981 20.2125 7.02481 19.1375 7.02481 14.375C6.98866 13.1268 7.43655 11.913 8.27481 10.9875C7.89423 9.91176 7.93895 8.7313 8.39981 7.68747C8.39981 7.68747 9.44981 7.34997 11.8373 8.93747C13.8843 8.38719 16.0403 8.38719 18.0873 8.93747C20.4748 7.32497 21.5248 7.68747 21.5248 7.68747C21.9857 8.7313 22.0304 9.91176 21.6498 10.9875C22.4881 11.913 22.936 13.1268 22.8998 14.375C22.8998 19.15 19.9748 20.2 17.1873 20.5125C17.4875 20.8142 17.7198 21.1767 17.8685 21.5755C18.0173 21.9743 18.0791 22.4003 18.0498 22.825V26.25C18.0498 26.5875 18.2498 26.9875 18.8873 26.875C21.71 25.9472 24.11 24.0442 25.6568 21.5073C27.2036 18.9704 27.7962 15.9655 27.3282 13.0312C26.8602 10.097 25.3624 7.42548 23.1031 5.49558C20.8439 3.56568 17.9711 2.50367 14.9998 2.49997Z" fill="white"/>
    </g>
    <defs>
    <clipPath id="clip0_397_1335">
    <rect width="30" height="30" fill="white"/>
    </clipPath>
    </defs>
  </symbol>

  <symbol id="instagram-logo" width="30" height="30" viewBox="0 0 30 30" fill="none" xmlns="http://www.w3.org/2000/svg">
    <path d="M22.7157 14.9657C22.8125 7.82772 19.9535 6.90387 13.4336 7.30025C8.94231 6.95381 7.17887 10.3558 7.1664 14.3789C6.92296 18.3177 8.13706 23.2959 13.0403 22.8777C19.1608 22.7684 22.9997 22.1473 22.7157 14.9657ZM12.0135 2.68103C19.0235 2.02872 27.1383 3.03372 27.2351 11.8071C27.4816 15.8458 27.6127 20.1748 25.6339 23.839C23.5272 27.422 20.016 27.2722 16.3643 27.3564C13.1526 27.4844 9.84118 27.7622 6.74506 26.7104C3.58962 25.618 2.73131 23.2366 2.79998 20.1217C2.69074 17.4407 2.5815 14.7659 2.62832 12.0818C2.78437 5.72097 5.56215 2.53434 12.0135 2.68103Z" fill="white"/>
    <path d="M14.8067 17.5032C11.3204 17.3596 12.2973 12.1255 15.4777 12.2909C18.5832 13.2242 18.0807 17.4252 14.8067 17.5032Z" fill="white"/>
    <path d="M15.7802 8.65483C20.7989 8.42699 21.3451 10.7709 21.3419 15.1904C21.3794 19.201 20.5867 21.0643 16.2702 21.2921C12.7558 21.7978 9.00113 21.932 8.7296 17.4033C8.45182 14.5974 8.03982 10.5587 11.0454 9.08864C12.5436 8.57993 14.2883 8.80152 15.7802 8.65483ZM14.7877 18.7703C19.9593 18.8265 20.2995 10.7179 14.8126 11.0893C10.3401 11.5262 9.88129 18.6205 14.7877 18.7703ZM18.7951 11.9757C20.131 12.1505 19.9437 10.1592 18.7265 10.2154C17.5467 10.2466 17.6872 11.9445 18.7951 11.9757Z" fill="white"/>
  </symbol>

  <symbol id="linkedin-logo" width="30" height="30" viewBox="0 0 30 30" fill="none" xmlns="http://www.w3.org/2000/svg">
    <path d="M23.4 4.99996H6.7125C6.49741 4.98989 6.28244 5.02233 6.0799 5.09544C5.87736 5.16855 5.69124 5.28089 5.53216 5.42601C5.3731 5.57115 5.24421 5.74624 5.1529 5.94124C5.06159 6.13625 5.00962 6.34735 5 6.56246V23.2875C5.0126 23.7376 5.19707 24.166 5.51554 24.4844C5.834 24.8029 6.2623 24.9874 6.7125 25H23.4C23.8376 24.9805 24.2502 24.7902 24.5494 24.4701C24.8485 24.15 25.0103 23.7255 25 23.2875V6.56246C25.0036 6.35309 24.9644 6.1452 24.8848 5.95153C24.8051 5.75786 24.6867 5.5825 24.5369 5.43619C24.3871 5.28989 24.209 5.17574 24.0135 5.10073C23.818 5.02571 23.6092 4.99143 23.4 4.99996ZM11.25 21.675H8.3375V12.7625H11.25V21.675ZM9.8625 11.4125C9.65926 11.4195 9.45675 11.3845 9.2677 11.3096C9.07864 11.2347 8.90711 11.1215 8.76391 10.9771C8.6207 10.8327 8.50889 10.6603 8.43551 10.4706C8.36213 10.2809 8.32876 10.0781 8.3375 9.87496C8.32851 9.66959 8.36255 9.46461 8.43744 9.27318C8.51232 9.08173 8.6264 8.90805 8.77234 8.76329C8.91829 8.61851 9.09288 8.50585 9.28491 8.43253C9.47696 8.35919 9.68221 8.32681 9.8875 8.33746C10.0907 8.33039 10.2933 8.3654 10.4823 8.44033C10.6714 8.51525 10.8429 8.62846 10.9861 8.77285C11.1293 8.91724 11.2411 9.08968 11.3145 9.27934C11.3879 9.469 11.4212 9.67179 11.4125 9.87496C11.4215 10.0803 11.3874 10.2853 11.3126 10.4768C11.2377 10.6682 11.1236 10.8419 10.9777 10.9866C10.8317 11.1314 10.6571 11.2441 10.4651 11.3174C10.273 11.3907 10.0678 11.4231 9.8625 11.4125ZM21.675 21.675H18.75V16.8C18.75 15.6375 18.3375 14.8375 17.3 14.8375C16.9777 14.8403 16.6641 14.9426 16.4024 15.1306C16.1405 15.3186 15.9432 15.583 15.8375 15.8875C15.7563 16.1158 15.7222 16.3581 15.7375 16.6V21.675H12.8625V12.7625H15.7375V14.0125C15.9931 13.5429 16.3735 13.1531 16.8368 12.8861C17.3 12.6193 17.828 12.4856 18.3625 12.5C20.25 12.5 21.675 13.75 21.675 16.4125V21.675Z" fill="white"/>
  </symbol>

  <symbol id="skype-logo" width="30" height="30" viewBox="0 0 30 30" fill="none" xmlns="http://www.w3.org/2000/svg">
    <path d="M25.2394 19.7006C25.14 18.4622 24.6619 17.6165 24.2185 17.0812C24.3694 16.41 24.4566 15.7143 24.4566 14.9972C24.4566 9.77528 20.2238 5.54246 15.0019 5.54246C14.2847 5.54246 13.5891 5.62965 12.9178 5.78059C12.4463 5.36903 11.1291 4.45309 8.93251 4.76246C6.13314 5.15621 4.49251 7.8909 4.68751 10.3125C4.79158 11.6053 5.30533 12.464 5.76376 12.9947C5.62099 13.6526 5.5484 14.3239 5.5472 14.9972C5.5472 20.219 9.78001 24.4528 15.0019 24.4528C15.6919 24.4528 16.3631 24.374 17.011 24.2343C17.4853 24.6468 18.8016 25.559 20.9944 25.2506C23.7928 24.8568 25.4344 22.1231 25.2394 19.7006ZM19.6725 19.4681C19.0256 20.1937 18.1688 20.9193 16.1128 21.1818C12.6703 21.6215 10.6931 19.9518 10.1653 19.439C9.63751 18.9262 9.55033 17.6475 10.1363 17.1834C10.9125 16.5684 11.5538 16.6725 12.7435 17.8865C14.2078 19.3809 16.5806 18.9768 16.9772 18.15C17.3138 17.4468 16.9041 16.905 16.1419 16.6856C15.3366 16.4531 12.345 15.704 11.821 15.4987C9.12751 14.4459 9.74064 11.8809 9.85783 11.4703C9.97501 11.0597 10.2853 9.28684 13.6519 8.75996C17.0194 8.23309 19.1006 9.87371 19.1006 9.87371C20.3306 10.8553 19.8478 12.1293 19.1738 12.4809C18.4997 12.8325 17.9288 12.7153 17.0063 11.8659C16.0838 11.0165 14.8388 11.1187 14.5453 11.1478C14.2519 11.1768 13.3444 11.25 13.125 11.8678C12.9056 12.4856 13.2863 12.8456 13.9894 13.125C15.3666 13.6715 17.1413 13.4212 19.1306 14.7656C21.255 16.2009 20.2735 18.794 19.6725 19.4681Z" fill="white"/>
  </symbol>
  <!-- #endregion -->

</svg>
