<svg width="415" height="162" viewBox="0 0 415 162" fill="none" xmlns="http://www.w3.org/2000/svg">
<path d="M96.7578 132.721H0.0234375V134.615H96.7578V132.721Z" fill="url(#paint0_linear_1768_675)"/>
<path d="M206.21 0.0297852H238.75C238.177 0.488522 237.566 0.897736 236.923 1.25302C236.237 1.63341 235.469 2.04365 234.626 2.4688L224.184 10.2781L155.143 100.559L105.172 112.597H104.381C104.669 111.6 104.775 110.559 104.694 109.524L104.858 108.778L108.506 43.1935L107.872 42.8131L55.8497 116.08L2.24661 130.043L0.00911114 130.297C-0.0953056 129.7 0.697766 122.229 2.38832 107.883C4.07888 93.5375 6.6172 72.2304 10.0033 43.9617L10.1599 42.2985L10.0033 41.5526L10.4732 39.755L10.6372 37.0699L9.8392 32.9676L8.41466 29.7678C7.98423 28.8188 7.39388 27.9509 6.66941 27.202C6.48577 26.9375 6.37749 26.6282 6.35616 26.3069H70.744C69.0923 27.4171 67.688 28.857 66.6195 30.536L66.1422 31.0507L50.8004 80.7035L50.957 81.4494L97.4224 27.1348L97.8998 26.4934H158.946L151.809 72.2304L203.353 10.7405L204.934 8.18218C206.147 5.64766 206.59 2.8135 206.21 0.0297852Z" fill="url(#paint1_linear_1768_675)"/>
<path d="M183.558 70.843L183.401 70.0972H205.127L195.618 106.093C194.878 108.458 194.768 110.975 195.297 113.395H172.273C173.6 112.304 174.627 110.892 175.257 109.293L184.453 74.9826C184.662 74.2717 184.662 73.5157 184.453 72.8047C184.26 72.1078 183.958 71.4458 183.558 70.843Z" fill="url(#paint2_linear_1768_675)"/>
<path d="M212.079 73.2748L211.289 69.5454H232.537L231.292 74.1698C232.873 71.2659 236.15 69.7741 241.122 69.6946L251.429 69.8214C258.619 69.5678 262.269 71.0198 262.378 74.1773C262.588 75.9438 262.588 77.7289 262.378 79.4954C262.094 81.7841 261.562 84.0351 260.79 86.2082L254.286 110.822L256.352 113.515L231.903 113.403C233.379 111.216 234.652 108.899 235.707 106.481L242.367 80.7335L242.532 79.4506C239.146 77.581 234.919 77.7525 229.852 79.9653L228.749 83.4261L221.924 109.532V111.068L222.722 113.38H199.393C200.903 112.071 202.049 110.393 202.719 108.51L212.079 73.2748Z" fill="url(#paint3_linear_1768_675)"/>
<path d="M345.031 70.843L344.874 70.0972H366.601L357.084 106.093C356.35 108.459 356.242 110.975 356.77 113.395H333.776C335.101 112.301 336.127 110.89 336.76 109.293L345.956 74.9826C346.165 74.2717 346.165 73.5157 345.956 72.8047C345.753 72.106 345.441 71.4439 345.031 70.843Z" fill="url(#paint4_linear_1768_675)"/>
<path d="M381.51 69.814C383.002 66.2239 383.424 63.407 382.778 61.3633H404.661C403.169 63.2429 402.174 66.0598 401.677 69.814H414.356L411.977 78.9137L399.604 79.0405L393.578 101.842L393.734 102.864C396.717 104.659 400.631 104.907 405.474 103.61L403.094 112.56L390.087 113.202C381.525 113.888 375.869 112.607 373.119 109.36L372.485 105.773L379.459 79.0032H369.935L372.314 69.7767L381.51 69.814Z" fill="url(#paint5_linear_1768_675)"/>
<path fill-rule="evenodd" clip-rule="evenodd" d="M275.385 78.4662L352.206 161.169L308.97 74.4086L343.002 36.9136L275.385 78.4662Z" fill="url(#paint6_linear_1768_675)"/>
<path fill-rule="evenodd" clip-rule="evenodd" d="M275.385 78.4659L374.052 1.27539L279.241 44.8493L239.906 1.27539L275.385 78.4659Z" fill="url(#paint7_linear_1768_675)"/>
<path fill-rule="evenodd" clip-rule="evenodd" d="M283.052 27.1051C285.732 27.1051 288.352 26.3102 290.581 24.8211C292.809 23.3319 294.546 21.2153 295.572 18.7389C296.598 16.2625 296.866 13.5375 296.343 10.9086C295.82 8.27963 294.53 5.86481 292.634 3.96946C290.739 2.0741 288.324 0.783341 285.696 0.260413C283.067 -0.262514 280.342 0.00587426 277.866 1.03163C275.39 2.05739 273.273 3.79446 271.784 6.02316C270.295 8.25186 269.5 10.8721 269.5 13.5525C269.499 15.3326 269.849 17.0953 270.53 18.74C271.21 20.3847 272.208 21.8791 273.467 23.1378C274.726 24.3965 276.22 25.3947 277.865 26.0754C279.509 26.7562 281.272 27.106 283.052 27.1051Z" fill="url(#paint8_linear_1768_675)"/>
<path d="M114.516 139.404H111.734L111.085 137.084H107.103L106.454 139.404H103.672L107.304 127.507H110.869L114.516 139.404ZM111.645 124.695C111.555 125.239 111.275 125.733 110.854 126.09C110.343 126.463 109.727 126.665 109.094 126.665C108.461 126.665 107.845 126.463 107.334 126.09C106.913 125.733 106.633 125.239 106.543 124.695L107.737 124.128C107.785 124.454 107.949 124.751 108.198 124.966C108.447 125.181 108.765 125.299 109.094 125.299C109.423 125.299 109.741 125.181 109.99 124.966C110.239 124.751 110.403 124.454 110.451 124.128L111.645 124.695ZM107.707 134.847H110.466L109.109 129.857L107.707 134.847Z" fill="url(#paint9_linear_1768_675)"/>
<path d="M120.199 131.58V139.404H117.641V127.507H120.907L124.816 135.712V127.507H127.374V139.404H124.07L120.199 131.58Z" fill="url(#paint10_linear_1768_675)"/>
<path d="M139.449 135.511C139.425 135.734 139.452 135.96 139.527 136.171C139.602 136.383 139.725 136.575 139.884 136.733C140.044 136.89 140.238 137.01 140.45 137.082C140.663 137.155 140.889 137.179 141.112 137.151C142.143 137.143 143.171 137.046 144.185 136.861L144.558 139.203C143.425 139.445 142.271 139.57 141.112 139.576C139.928 139.661 138.753 139.305 137.816 138.576C137.461 138.239 137.184 137.829 137.004 137.375C136.823 136.92 136.744 136.431 136.771 135.943V130.968C136.743 130.481 136.821 129.993 137.002 129.539C137.182 129.086 137.46 128.677 137.816 128.343C138.748 127.603 139.925 127.241 141.112 127.328C142.271 127.334 143.425 127.459 144.558 127.701L144.185 130.043C143.171 129.858 142.143 129.761 141.112 129.752C140.889 129.725 140.663 129.749 140.45 129.821C140.238 129.894 140.044 130.013 139.884 130.171C139.725 130.329 139.602 130.521 139.527 130.732C139.452 130.944 139.425 131.17 139.449 131.393V135.511Z" fill="url(#paint11_linear_1768_675)"/>
<path d="M154.657 139.404V134.616H150.808V139.404H148.131V127.507H150.808V132.244H154.657V127.507H157.334V139.404H154.657Z" fill="url(#paint12_linear_1768_675)"/>
<path d="M170.305 127.507V135.943C170.323 136.404 170.244 136.863 170.075 137.292C169.905 137.721 169.649 138.11 169.321 138.434C168.303 139.171 167.079 139.567 165.823 139.567C164.567 139.567 163.342 139.171 162.325 138.434C161.997 138.11 161.74 137.721 161.571 137.292C161.401 136.863 161.323 136.404 161.34 135.943V127.507H164.018V135.712C164.018 136.719 164.615 137.204 165.823 137.204C167.031 137.204 167.628 136.696 167.628 135.712V127.507H170.305Z" fill="url(#paint13_linear_1768_675)"/>
<path d="M184.184 139.404H181.395L180.753 137.084H176.763L176.122 139.404H173.34L176.965 127.507H180.574L184.184 139.404ZM180.343 126.687C179.8 126.447 179.269 126.178 178.755 125.881C178.236 126.176 177.704 126.445 177.159 126.687L176.465 125.575C177.211 125.083 177.957 124.524 178.755 123.89C179.553 124.524 180.313 125.083 181.037 125.575L180.343 126.687ZM177.36 134.846H180.09L178.74 129.857L177.36 134.846ZM180.239 124.113C180.6 123.858 180.942 123.577 181.261 123.27C181.361 123.132 181.411 122.964 181.402 122.793C181.402 122.465 181.164 122.293 180.694 122.293C180.522 122.293 180.321 122.293 180.105 122.331L179.359 122.443L179.165 121.234C179.704 121.115 180.254 121.05 180.806 121.04C181.365 120.984 181.924 121.147 182.364 121.495C182.509 121.665 182.618 121.862 182.686 122.075C182.754 122.287 182.779 122.511 182.76 122.733C182.789 123.135 182.701 123.537 182.506 123.89C182.063 124.377 181.562 124.807 181.014 125.172L180.239 124.113Z" fill="url(#paint14_linear_1768_675)"/>
<path d="M189.868 131.58V139.404H187.287V127.507H190.576L194.484 135.712V127.507H197.043V139.404H193.731L189.868 131.58Z" fill="url(#paint15_linear_1768_675)"/>
<path d="M213.719 138.703C213.078 139.285 211.9 139.575 210.184 139.575C208.867 139.607 207.559 139.353 206.351 138.83L206.791 136.764C207.339 136.934 207.897 137.071 208.461 137.174C209.042 137.277 209.631 137.33 210.221 137.33C210.684 137.38 211.151 137.292 211.564 137.077C211.683 136.94 211.772 136.78 211.825 136.606C211.878 136.433 211.893 136.25 211.87 136.07C211.922 135.695 211.826 135.315 211.601 135.011C211.06 134.721 210.472 134.529 209.863 134.444C208.439 134.131 207.529 133.743 207.134 133.288C206.738 132.833 206.567 131.968 206.567 130.67C206.516 130.204 206.567 129.733 206.715 129.289C206.863 128.845 207.105 128.438 207.425 128.096C208.021 127.589 209.11 127.351 210.706 127.351C211.918 127.355 213.125 127.487 214.309 127.746L214.048 129.984C212.955 129.777 211.848 129.662 210.736 129.64C210.328 129.603 209.918 129.677 209.55 129.857C209.442 129.972 209.361 130.111 209.313 130.262C209.265 130.413 209.252 130.573 209.274 130.729C209.274 131.296 209.364 131.647 209.535 131.796C210.06 132.057 210.62 132.238 211.199 132.333C212.735 132.698 213.705 133.124 214.1 133.608C214.316 133.9 214.454 134.241 214.503 134.6C214.565 135.095 214.59 135.594 214.577 136.092C214.619 136.563 214.565 137.037 214.417 137.486C214.27 137.935 214.032 138.349 213.719 138.703Z" fill="url(#paint16_linear_1768_675)"/>
<path d="M227.159 135.943C227.172 136.408 227.086 136.872 226.906 137.301C226.726 137.731 226.456 138.117 226.115 138.434C225.075 139.176 223.828 139.576 222.55 139.576C221.272 139.576 220.025 139.176 218.985 138.434C218.644 138.117 218.374 137.731 218.194 137.301C218.014 136.872 217.928 136.408 217.941 135.943V130.968C217.928 130.501 218.014 130.037 218.194 129.606C218.374 129.175 218.644 128.788 218.985 128.469C220.025 127.727 221.272 127.328 222.55 127.328C223.828 127.328 225.075 127.727 226.115 128.469C226.457 128.788 226.726 129.175 226.906 129.606C227.086 130.037 227.173 130.501 227.159 130.968V135.943ZM224.139 126.687C223.572 126.433 223.042 126.164 222.543 125.881C222.027 126.176 221.497 126.445 220.954 126.687L220.26 125.575C221.006 125.083 221.752 124.523 222.543 123.889C223.348 124.523 224.109 125.083 224.84 125.575L224.139 126.687ZM224.482 131.199C224.482 130.2 223.833 129.707 222.543 129.707C221.252 129.707 220.618 130.207 220.618 131.199V135.674C220.618 136.669 221.26 137.166 222.543 137.166C223.833 137.166 224.482 136.666 224.482 135.674V131.199ZM220.641 122.696C221.17 122.368 221.595 122.092 221.924 121.868C222.371 121.57 222.751 121.301 223.072 121.055L224.034 122.547C223.233 123.096 222.399 123.594 221.536 124.039L220.641 122.696Z" fill="url(#paint17_linear_1768_675)"/>
<path d="M233.529 131.58V139.404H230.993V127.507H234.275L238.183 135.712V127.507H240.741V139.404H237.437L233.529 131.58Z" fill="url(#paint18_linear_1768_675)"/>
<path d="M253.054 139.008C251.718 139.389 250.334 139.58 248.945 139.575C247.768 139.649 246.605 139.294 245.671 138.576C245.307 138.244 245.021 137.836 244.833 137.381C244.645 136.926 244.559 136.435 244.582 135.943V130.968C244.582 128.546 246.036 127.333 248.945 127.328C249.625 127.33 250.305 127.368 250.981 127.44C251.593 127.507 252.182 127.597 252.749 127.701L252.428 130.043C251.276 129.855 250.112 129.758 248.945 129.752C248.72 129.711 248.488 129.723 248.268 129.789C248.049 129.855 247.849 129.973 247.684 130.132C247.519 130.291 247.395 130.487 247.321 130.704C247.247 130.92 247.226 131.152 247.259 131.378V135.466C247.229 135.896 247.351 136.323 247.602 136.674C247.775 136.851 247.986 136.987 248.218 137.072C248.45 137.157 248.699 137.189 248.945 137.166C249.476 137.167 250.007 137.132 250.533 137.062V133.422H253.054V139.008Z" fill="url(#paint19_linear_1768_675)"/>
<path d="M265.017 135.51C264.993 135.734 265.02 135.96 265.095 136.171C265.171 136.383 265.293 136.575 265.453 136.732C265.613 136.89 265.806 137.01 266.019 137.082C266.231 137.155 266.458 137.178 266.681 137.151C267.711 137.143 268.739 137.046 269.753 136.86L270.126 139.202C268.994 139.445 267.839 139.57 266.681 139.575C265.496 139.661 264.322 139.305 263.384 138.576C263.031 138.238 262.754 137.828 262.574 137.374C262.394 136.919 262.314 136.431 262.34 135.943V130.968C262.306 130.479 262.381 129.988 262.557 129.531C262.734 129.073 263.008 128.66 263.362 128.32C264.294 127.58 265.471 127.218 266.658 127.306C267.817 127.311 268.971 127.436 270.104 127.679L269.731 130.021C268.717 129.835 267.689 129.738 266.658 129.73C266.435 129.703 266.209 129.726 265.996 129.799C265.784 129.871 265.59 129.991 265.43 130.149C265.271 130.307 265.148 130.498 265.073 130.71C264.998 130.922 264.971 131.147 264.995 131.371L265.017 135.51Z" fill="url(#paint20_linear_1768_675)"/>
<path d="M280.226 139.404V134.616H276.385V139.404H273.707V127.507H276.385V132.244H280.226V127.507H282.911V139.404H280.226Z" fill="url(#paint21_linear_1768_675)"/>
<path d="M296.858 139.404H294.076L293.434 137.084H289.466L288.825 139.404H286.043L289.668 127.507H293.196L296.858 139.404ZM293.024 126.687C292.48 126.448 291.949 126.179 291.435 125.881C290.917 126.176 290.385 126.445 289.839 126.687L289.138 125.575C289.884 125.083 290.63 124.523 291.435 123.889C292.233 124.523 292.994 125.083 293.718 125.575L293.024 126.687ZM289.213 122.696C289.742 122.368 290.167 122.092 290.496 121.868C290.943 121.57 291.323 121.301 291.644 121.055L292.606 122.547C291.804 123.094 290.97 123.592 290.108 124.039L289.213 122.696ZM290.056 134.846H292.785L291.435 129.856L290.056 134.846Z" fill="url(#paint22_linear_1768_675)"/>
<path d="M304.92 129.879V139.404H302.243V129.879H299.043V127.507H308.112V129.879H304.92Z" fill="url(#paint23_linear_1768_675)"/>
<defs>
<linearGradient id="paint0_linear_1768_675" x1="96.7578" y1="133.668" x2="0.0234375" y2="133.668" gradientUnits="userSpaceOnUse">
<stop stop-color="#F15A29"/>
<stop offset="1" stop-color="#ED1C24"/>
</linearGradient>
<linearGradient id="paint1_linear_1768_675" x1="119.38" y1="-4.97926e-05" x2="119.38" y2="130.274" gradientUnits="userSpaceOnUse">
<stop stop-color="#F9ED32"/>
<stop offset="1" stop-color="#ED1C24"/>
</linearGradient>
<linearGradient id="paint2_linear_1768_675" x1="188.689" y1="70.0748" x2="188.689" y2="113.373" gradientUnits="userSpaceOnUse">
<stop stop-color="#F9ED32"/>
<stop offset="1" stop-color="#ED1C24"/>
</linearGradient>
<linearGradient id="paint3_linear_1768_675" x1="230.949" y1="69.5603" x2="230.949" y2="113.5" gradientUnits="userSpaceOnUse">
<stop stop-color="#F9ED32"/>
<stop offset="1" stop-color="#ED1C24"/>
</linearGradient>
<linearGradient id="paint4_linear_1768_675" x1="350.185" y1="70.0748" x2="350.185" y2="113.373" gradientUnits="userSpaceOnUse">
<stop stop-color="#F9ED32"/>
<stop offset="1" stop-color="#ED1C24"/>
</linearGradient>
<linearGradient id="paint5_linear_1768_675" x1="392.138" y1="61.3633" x2="392.138" y2="113.418" gradientUnits="userSpaceOnUse">
<stop stop-color="#F9ED32"/>
<stop offset="1" stop-color="#ED1C24"/>
</linearGradient>
<linearGradient id="paint6_linear_1768_675" x1="352.206" y1="99.0374" x2="275.377" y2="99.0374" gradientUnits="userSpaceOnUse">
<stop stop-color="#F9ED32"/>
<stop offset="1" stop-color="#ED1C24"/>
</linearGradient>
<linearGradient id="paint7_linear_1768_675" x1="306.979" y1="1.27539" x2="306.979" y2="78.4659" gradientUnits="userSpaceOnUse">
<stop stop-color="#F9ED32"/>
<stop offset="1" stop-color="#ED1C24"/>
</linearGradient>
<linearGradient id="paint8_linear_1768_675" x1="283.052" y1="6.09679e-06" x2="283.052" y2="27.1051" gradientUnits="userSpaceOnUse">
<stop stop-color="#F9ED32"/>
<stop offset="1" stop-color="#ED1C24"/>
</linearGradient>
<linearGradient id="paint9_linear_1768_675" x1="109.094" y1="124.128" x2="109.094" y2="139.404" gradientUnits="userSpaceOnUse">
<stop stop-color="#F15A29"/>
<stop offset="1" stop-color="#ED1C24"/>
</linearGradient>
<linearGradient id="paint10_linear_1768_675" x1="122.518" y1="127.507" x2="122.518" y2="139.404" gradientUnits="userSpaceOnUse">
<stop stop-color="#F15A29"/>
<stop offset="1" stop-color="#ED1C24"/>
</linearGradient>
<linearGradient id="paint11_linear_1768_675" x1="140.665" y1="127.328" x2="140.665" y2="139.576" gradientUnits="userSpaceOnUse">
<stop stop-color="#F15A29"/>
<stop offset="1" stop-color="#ED1C24"/>
</linearGradient>
<linearGradient id="paint12_linear_1768_675" x1="152.733" y1="127.507" x2="152.733" y2="139.404" gradientUnits="userSpaceOnUse">
<stop stop-color="#F15A29"/>
<stop offset="1" stop-color="#ED1C24"/>
</linearGradient>
<linearGradient id="paint13_linear_1768_675" x1="165.823" y1="127.507" x2="165.823" y2="139.576" gradientUnits="userSpaceOnUse">
<stop stop-color="#F15A29"/>
<stop offset="1" stop-color="#ED1C24"/>
</linearGradient>
<linearGradient id="paint14_linear_1768_675" x1="178.762" y1="121.04" x2="178.762" y2="139.404" gradientUnits="userSpaceOnUse">
<stop stop-color="#F15A29"/>
<stop offset="1" stop-color="#ED1C24"/>
</linearGradient>
<linearGradient id="paint15_linear_1768_675" x1="192.187" y1="127.507" x2="192.187" y2="139.404" gradientUnits="userSpaceOnUse">
<stop stop-color="#F15A29"/>
<stop offset="1" stop-color="#ED1C24"/>
</linearGradient>
<linearGradient id="paint16_linear_1768_675" x1="210.445" y1="127.328" x2="210.445" y2="139.575" gradientUnits="userSpaceOnUse">
<stop stop-color="#F15A29"/>
<stop offset="1" stop-color="#ED1C24"/>
</linearGradient>
<linearGradient id="paint17_linear_1768_675" x1="222.55" y1="121.055" x2="222.55" y2="139.575" gradientUnits="userSpaceOnUse">
<stop stop-color="#F15A29"/>
<stop offset="1" stop-color="#ED1C24"/>
</linearGradient>
<linearGradient id="paint18_linear_1768_675" x1="235.871" y1="127.507" x2="235.871" y2="139.404" gradientUnits="userSpaceOnUse">
<stop stop-color="#F15A29"/>
<stop offset="1" stop-color="#ED1C24"/>
</linearGradient>
<linearGradient id="paint19_linear_1768_675" x1="248.818" y1="127.328" x2="248.818" y2="139.575" gradientUnits="userSpaceOnUse">
<stop stop-color="#F15A29"/>
<stop offset="1" stop-color="#ED1C24"/>
</linearGradient>
<linearGradient id="paint20_linear_1768_675" x1="266.233" y1="127.328" x2="266.233" y2="139.575" gradientUnits="userSpaceOnUse">
<stop stop-color="#F15A29"/>
<stop offset="1" stop-color="#ED1C24"/>
</linearGradient>
<linearGradient id="paint21_linear_1768_675" x1="278.309" y1="127.507" x2="278.309" y2="139.404" gradientUnits="userSpaceOnUse">
<stop stop-color="#F15A29"/>
<stop offset="1" stop-color="#ED1C24"/>
</linearGradient>
<linearGradient id="paint22_linear_1768_675" x1="291.443" y1="121.055" x2="291.443" y2="139.404" gradientUnits="userSpaceOnUse">
<stop stop-color="#F15A29"/>
<stop offset="1" stop-color="#ED1C24"/>
</linearGradient>
<linearGradient id="paint23_linear_1768_675" x1="303.578" y1="127.507" x2="303.578" y2="139.404" gradientUnits="userSpaceOnUse">
<stop stop-color="#F15A29"/>
<stop offset="1" stop-color="#ED1C24"/>
</linearGradient>
</defs>
</svg>
