<svg width="110" height="110" viewBox="0 0 110 110" fill="none" xmlns="http://www.w3.org/2000/svg">
<path d="M7.99445 62.2885C7.04619 60.8441 6.13081 59.2117 5.24833 57.3914C4.31509 55.6397 3.76529 53.8001 3.5989 51.8726C3.50113 49.9959 4.06119 48.2343 5.2791 46.5878C5.83731 45.8331 6.49842 45.1546 7.26245 44.5522C8.07722 43.8812 8.97094 43.5339 9.9436 43.5104C9.80922 43.8355 9.60624 44.11 9.33465 44.3336C9.13166 44.608 8.9033 44.9168 8.64957 45.2598C7.02569 47.4551 6.62211 49.6509 7.43882 51.8472C8.25553 54.0434 9.62435 55.852 11.5453 57.2729C13.7406 58.8967 16.1704 59.8449 18.8347 60.1174C21.5676 60.4406 24.144 60.3297 26.5639 59.7845L27.0967 59.0642L27.1996 59.1403L28.426 58.7738C29.3658 58.9382 30.1937 58.9669 30.9098 58.8597L31.5188 58.0365C32.8345 58.2667 34.2756 58.112 35.8422 57.5726C37.5281 57.0153 38.9754 56.4937 40.1839 56.0078C40.7328 56.4137 41.3384 56.3841 42.001 55.9189C42.7143 55.3851 43.2574 54.9378 43.6305 54.5769C44.6539 54.4848 46.0847 54.0571 47.9229 53.294C49.8118 52.4623 51.6918 51.5708 53.5629 50.6197C55.4847 49.6 56.8873 48.7801 57.7707 48.1598L58.9477 48.0752C61.2906 46.1993 63.7198 44.4936 66.2356 42.958C68.8021 41.3537 71.3 39.6987 73.7292 37.993L70.1275 35.3288C69.3728 34.7706 68.5585 34.2213 67.6845 33.6809C66.8791 33.1913 66.0065 32.8643 65.0667 32.6999L63.908 31.6835C63.049 30.8359 62.0124 30.2283 60.7982 29.8609C59.6526 29.5442 58.516 29.2872 57.3882 29.0899L57.0527 28.6825L56.5157 28.7629C52.4229 26.6908 47.8838 25.5091 42.8982 25.2179C37.9813 24.9774 33.3252 25.4606 28.93 26.6673L29.5023 28.046L31.5069 29.2103L31.5872 29.7474C30.9905 29.8367 30.3759 29.8066 29.7434 29.6572C29.1109 29.5078 28.5038 29.3241 27.9221 29.1061L27.6317 27.7768L26.5801 27.4765C26.6787 26.9127 26.8549 26.4592 27.1087 26.1162C28.0221 24.8813 29.6202 23.9406 31.9029 23.2939C34.2542 22.6981 36.1713 22.2587 37.6542 21.9758L38.111 21.3583C40.4143 21.2577 43.095 21.4362 46.1531 21.8938C49.3305 22.3336 52.5779 23.0374 55.8953 24.0053C59.2127 24.9732 62.3779 26.1469 65.3909 27.5264C68.4545 28.8373 71.0498 30.2794 73.1765 31.8525C73.6567 32.2077 74.0773 32.5719 74.4382 32.9449C74.8498 33.2494 75.2361 33.5882 75.5969 33.9613C76.0236 33.9585 76.4338 34.0496 76.8276 34.2347C77.2213 34.4199 77.5808 34.5796 77.906 34.714L77.4676 34.2305C78.6761 33.7446 79.6356 33.0214 80.346 32.061C80.534 32.0938 80.722 32.1267 80.9099 32.1596C81.1665 32.2433 81.3634 32.3358 81.5006 32.4373C82.2552 32.9955 83.1992 33.8 84.3326 34.8506C85.5346 35.952 86.4129 37.1323 86.9674 38.3916C87.6412 39.633 87.4782 40.7861 86.4783 41.8509C87.7461 42.5764 88.9631 43.3705 90.1294 44.2332C91.3464 45.0272 92.538 45.8556 93.7043 46.7183C95.7625 48.2407 97.7191 49.9003 99.5743 51.6971C101.498 53.5447 102.955 55.7367 103.944 58.2731L103.331 58.4564C103.03 59.2946 103.111 60.045 103.576 60.7076L103.276 61.7592L102.175 61.7409L101.75 63.1773C100.305 64.1256 99.1906 64.6279 98.4059 64.6843C97.6212 64.7407 96.4578 64.3047 94.9156 63.3763L94.4729 62.2528L89.8323 61.2083L89.8055 61.0293L90.9022 60.4076L90.9783 60.3047C90.313 60.3432 89.6387 60.3221 88.9555 60.2413C88.2723 60.1605 87.6309 59.9514 87.0313 59.614L86.8748 59.1799L87.4119 59.0995C89.0198 59.6521 90.5996 59.8123 92.1512 59.5801C93.7027 59.3479 95.2275 58.9368 96.7255 58.3465L97.7376 56.5478L95.9486 53.1548L96.0741 52.7699C95.3852 51.8358 94.5605 51.0135 93.6001 50.3031C92.6904 49.524 91.7553 48.7793 90.7948 48.0688C89.8343 47.3584 88.7978 46.7509 87.6851 46.2462C86.641 45.7923 85.6133 45.2445 84.6021 44.6026L84.4048 45.7304C84.1332 45.954 83.6154 46.3671 82.8513 46.9695C82.1381 47.5033 81.6099 47.6433 81.2669 47.3896L80.641 45.6529L80.4619 45.6797C79.7336 46.5208 78.8338 47.2351 77.7625 47.8224C76.7419 48.3412 75.7035 48.7406 74.6472 49.0207C73.4301 48.2266 72.3649 48.447 71.4515 49.6819L71.7644 50.5503L72.6328 50.2373L73.1205 50.4389L73.098 50.8998C72.0595 51.2993 71.139 51.4675 70.3365 51.4046C69.7876 50.9986 69.1552 50.8492 68.4391 50.9563C67.7916 51.1142 67.168 51.0245 66.5684 50.6871C65.8166 50.5556 65.1602 50.6538 64.5991 50.9818C64.1067 51.3605 63.3309 51.4766 62.2718 51.33L62.2225 51.612C61.7451 51.6834 60.8932 51.9024 59.6668 52.2689C58.5597 52.6176 57.4616 53.0259 56.3724 53.494C55.334 53.8934 54.6282 54.2736 54.2551 54.6344L54.4609 54.7867L54.3129 55.6325L53.6998 55.8157C53.088 56.2123 52.433 56.5239 51.7347 56.7504C51.1051 57.0276 50.4411 57.2795 49.7429 57.506L49.3538 56.7406L46.8249 57.5766L45.8353 58.9144L45.473 58.3279C44.8734 57.9906 44.2931 57.9859 43.7321 58.3139C43.2218 58.5733 42.7294 58.952 42.2548 59.4501C41.2643 59.3543 40.2319 59.3867 39.1578 59.5474C38.1344 59.6396 37.0766 59.7063 35.9846 59.7477L35.2502 60.9558L34.8386 60.6513C34.3462 61.03 33.5793 61.2058 32.538 61.1786C31.6161 61.1335 30.8225 61.1302 30.1571 61.1688L28.9575 61.7143L29.1676 62.5065L28.1427 62.3853C26.8656 62.8205 25.0335 63.2166 22.6465 63.5738C20.3281 63.9817 18.5364 64.0363 17.2715 63.7374C15.687 64.1576 14.134 64.1764 12.6125 63.7939C11.091 63.4115 9.55167 62.9097 7.99445 62.2885ZM68.2035 46.3242L69.3355 47.1615L69.819 46.7231L70.0206 46.2353C69.6268 46.0502 69.0211 46.0798 68.2035 46.3242ZM70.9285 48.0214L71.5417 47.8381L71.4881 47.48L71.2823 47.3278L70.8481 47.4843L70.9285 48.0214ZM67.1914 48.1229L67.4691 47.5323L66.8292 47.5365L67.1914 48.1229ZM66.13 50.2036L66.5149 50.3291L66.9984 49.8906L66.7658 49.5594L66.1032 50.0246L66.13 50.2036ZM33.4846 30.1956L34.2501 29.8065L34.4827 30.1378L34.1021 30.6523L33.4846 30.1956Z" fill="black"/>
<path fill-rule="evenodd" clip-rule="evenodd" d="M80.2324 66.5C76.2324 63 75.2287 57.9163 79.1987 57.001C81.3173 56.5125 80.7808 55.2102 79.1987 54.4547C79.0518 54.3845 79.1987 54.4547 77.2324 55L77.9038 54.6534L77.7324 54.5L78.2324 54.5L78.2848 54.2852L78.2324 54.1025C76.9126 53.7509 75.235 53.779 73.7292 54.6344C72.9647 55.0688 72.9708 55.6761 72.7324 56.5C72.6467 56.7964 72.1065 57.1624 72.081 57.5C72.0624 57.7476 72.7205 57.7325 72.7324 58L72.6523 58.3155L72.2324 58.5C72.2324 59 72.1166 58.8478 72.1367 59C72.1653 59.2162 72.2021 59.4375 72.2468 59.6634C72.3779 60.3259 72.5768 61.0281 72.8345 61.7592C73.9682 64.9755 76.2402 68.7526 78.8831 72.1812C78.9877 72.3169 79.6267 72.3654 79.7324 72.5C81.2951 74.4888 81.3344 76.4029 81.2188 78L81.2324 81.5L80.6767 80C79.2846 82.8537 75.5138 84.5866 72.0408 84.5866C66.1414 84.5866 66.8319 84.0866 65.3342 83.0866C65.3342 84.1116 65.4349 85.0847 65.6574 86L66.2324 85.5C66.5149 87.6538 66.132 87.7811 66.2324 88C66.3196 88.19 66.4136 88.0458 66.5149 88.2294C67.647 90.2829 69.6744 91.9339 72.9373 93.0866C74.6459 93.4998 76.431 93.7423 78.2324 93.4613C79.4837 93.2662 80.7429 92.8185 81.9898 92L79.7324 95L81.7324 93L81.7324 93.5L82.7324 91.4665C83.782 90.6457 84.82 89.5429 85.8342 88.0866C87.7742 85.3008 87.4237 81.1011 86.7324 78C86.6142 77.4695 87.0425 77.9418 86.8748 77.4196C85.5115 73.1759 82.6469 69.2922 80.4386 67.1456C80.2307 66.9435 80.4269 66.6702 80.2324 66.5ZM77.2324 90C76.0324 89.6 75.8991 90.1667 75.7324 91C75.7324 92 76.7324 93.118 76.7324 92C76.7324 91 78.7324 90.5 77.2324 90Z" fill="black"/>
<path fill-rule="evenodd" clip-rule="evenodd" d="M82.6135 55C83.9832 56.1492 85.2862 55.8159 85.8178 54.957C85.8473 54.9094 85.7903 54.9036 85.8178 54.8539C86.3671 53.8605 86.5381 52.5 87.2324 52.5C87.7324 52.5 87.7324 53 88.2324 53C88.3728 53 88.4457 52.8677 88.4637 52.6704L88.2324 52.5L88.4637 52.4517C88.4247 51.9318 88.1347 51.2011 87.7324 51C87.427 50.8473 87.1461 50.7808 86.8992 50.7863C86.8417 50.7875 86.8566 50.663 86.6324 50.7C86.517 50.7191 86.541 50.7863 86.5704 50.8414C86.1883 50.9685 85.9301 51.3058 85.8503 51.7699C85.7048 52.6152 85.5577 54.5 84.2324 54.5C83.786 54.5 83.2826 53.8856 83.1324 53.2C83.1256 53.1686 83.0604 53.2349 83.0554 53.2028C82.9846 52.7575 83.0902 52.2501 83.5082 51.7699C84.303 50.8568 83.6151 50.6002 82.9358 50.9L82.7324 51.5L82.7868 50.975C82.5743 51.0958 82.3736 51.2719 82.2324 51.5C82.0311 51.8253 81.9464 52.3349 81.9019 52.8802C81.8791 53.1595 81.8834 53.449 81.9301 53.73L82.161 53.73L82.2324 54L81.9697 53.9246C82.0687 54.3309 82.2671 54.7093 82.6135 55ZM86.8992 51.3047C86.7398 51.5484 86.6375 51.3711 86.5704 51.2695C86.4704 51.0742 86.6324 51 86.7324 51C86.9301 51 87.0984 51 86.8992 51.3047Z" fill="black"/>
<path d="M46.8249 62C49.3588 61.7383 56.4668 60.9484 59.6668 57.5766C63.6668 53.3618 67.9112 53.3174 67.1668 57.0766C66.5713 60.0839 65.5853 62.3296 65.1668 63.0766C64.0772 64.1568 62.1949 65.7692 63.3821 63.5766C64.8661 60.8358 66.1668 53.5886 63.6668 56.5826C61.1668 59.5766 59.1668 61.0766 59.1668 62.5766C59.1668 64.0766 57.7324 64.5 57.7324 62.5C57.7324 62.1007 57.3102 61.0812 56.7324 61C54.4161 60.6746 51.7347 62 46.8249 62Z" fill="black"/>
<g clip-path="url(#clip0_1420_626)">
<path d="M66.971 82.7946C66.9733 82.8175 66.9779 82.8381 66.9779 82.861C66.987 83.108 67.0214 83.3505 67.0992 83.5862C67.2022 83.9019 67.3671 84.181 67.5937 84.4235C67.6991 84.5379 67.8319 84.6019 67.9738 84.6546C67.9853 84.6591 67.9967 84.6591 68.0082 84.6614C68.0723 84.6637 68.1387 84.666 68.2028 84.666C70.2176 84.666 72.2346 84.666 74.2494 84.666C74.27 84.666 74.2906 84.666 74.309 84.6614C74.3456 84.6546 74.3593 84.634 74.3593 84.5951C74.3593 84.563 74.357 84.5287 74.357 84.4967C74.3548 84.0986 74.4166 83.712 74.5746 83.3437C74.6844 83.0874 74.8127 82.8427 74.9729 82.6139C75.1904 82.3005 75.4308 82.0053 75.685 81.7194C75.8681 81.5135 76.0513 81.3099 76.2345 81.104C76.4611 80.8477 76.6786 80.5846 76.8732 80.3033C77.0587 80.0333 77.2419 79.7633 77.393 79.4728C77.409 79.4408 77.425 79.4087 77.4433 79.3744C77.4868 79.3721 77.5326 79.3859 77.5761 79.395C77.8829 79.4591 78.1714 79.578 78.4485 79.7222C78.5446 79.7725 78.6385 79.8297 78.7324 79.8823C78.7461 79.8892 78.7575 79.896 78.7713 79.9006C78.7896 79.9075 78.8056 79.9006 78.8171 79.8846C78.8262 79.8686 78.8262 79.8503 78.8125 79.8366C78.8056 79.8297 78.7965 79.8228 78.7873 79.816C78.4416 79.6032 78.0775 79.4293 77.6792 79.3287C77.6219 79.3149 77.5624 79.3035 77.5029 79.2921C77.496 79.2898 77.4891 79.2875 77.4777 79.2852C77.4914 79.244 77.5075 79.2074 77.5212 79.1685C77.5281 79.1662 77.5326 79.1662 77.5372 79.1662C77.6883 79.164 77.8371 79.1662 77.9883 79.18C78.4668 79.2234 78.9109 79.3699 79.3368 79.5872C79.3574 79.5986 79.378 79.6101 79.4009 79.6215C79.4123 79.6261 79.4238 79.6307 79.4352 79.6307C79.4513 79.6329 79.465 79.6261 79.4719 79.6101C79.4787 79.5941 79.4787 79.578 79.4673 79.5666C79.4581 79.5574 79.4444 79.5483 79.4307 79.5414C79.1193 79.3744 78.7919 79.2486 78.4485 79.1685C78.1714 79.1045 77.8898 79.0793 77.6059 79.0816C77.5899 79.0816 77.5738 79.0816 77.5532 79.0816C77.5899 79.0221 77.5693 78.9626 77.5647 78.9032C77.5647 78.8963 77.5624 78.8894 77.5624 78.8826C77.5624 78.8803 77.5647 78.878 77.567 78.8711C77.6357 78.8528 77.7044 78.8322 77.7753 78.8162C77.9333 78.7773 78.0936 78.743 78.2561 78.7201C78.3798 78.7041 78.5057 78.6973 78.6293 78.6995C78.6911 78.7018 78.753 78.7064 78.8171 78.7087C78.8308 78.7087 78.8468 78.711 78.8606 78.7087C78.8789 78.7064 78.8926 78.6927 78.8926 78.6744C78.8949 78.6538 78.8858 78.6401 78.8674 78.6332C78.856 78.6286 78.8445 78.6263 78.8331 78.6263C78.6637 78.6126 78.4942 78.6126 78.3225 78.6286C78.073 78.6538 77.8303 78.7133 77.5899 78.7773C77.5761 78.7796 77.5647 78.7842 77.5487 78.7888C77.5418 78.7499 77.5349 78.711 77.5258 78.6744C77.4937 78.5257 77.4594 78.3793 77.4319 78.2306C77.4021 78.0727 77.3792 77.9148 77.3541 77.7547C77.3243 77.5694 77.3014 77.3818 77.2419 77.2011C77.1686 76.9769 77.0724 76.7618 76.919 76.5788C76.832 76.4759 76.7382 76.3798 76.6306 76.2974C76.5779 76.2585 76.5413 76.2585 76.5001 76.3088C76.4543 76.366 76.4108 76.4278 76.3718 76.4919C76.2528 76.6795 76.1566 76.8762 76.0856 77.0867C76.0834 77.0935 76.0811 77.0981 76.0765 77.1073C76.0284 77.105 75.9826 77.0981 75.9345 77.0981C75.8292 77.0958 75.7216 77.0935 75.6163 77.0981C75.3164 77.1073 75.0279 77.1759 74.7371 77.24C74.7028 77.2468 74.6822 77.2377 74.6593 77.2148C74.6089 77.1599 74.5585 77.1027 74.5036 77.0478C74.4303 76.9723 74.3548 76.9014 74.2792 76.8282C74.2174 76.7687 74.1556 76.7069 74.0892 76.6497C74.0388 76.604 73.9839 76.5628 73.9289 76.5239C73.8625 76.4759 73.8144 76.4804 73.7457 76.5491C73.7366 76.5582 73.7274 76.5697 73.7206 76.5811C73.6313 76.7184 73.542 76.8556 73.4756 77.0043C73.4046 77.1622 73.3588 77.3269 73.329 77.4962C73.3039 77.6335 73.281 77.7707 73.2558 77.908C73.2535 77.9263 73.242 77.9423 73.2329 77.9583C73.1459 78.1002 73.0337 78.2191 72.9123 78.3312C72.8276 78.409 72.7338 78.4753 72.6422 78.5394C72.3858 78.7201 72.1156 78.8757 71.8317 79.0084C71.6004 79.1159 71.36 79.2074 71.1242 79.3081C70.8151 79.4385 70.4992 79.5574 70.1992 79.7062C69.984 79.8137 69.7803 79.9372 69.5948 80.0905C69.3521 80.2918 69.1598 80.5343 69.011 80.8111C68.8415 81.1246 68.7271 81.4609 68.6675 81.8132C68.6218 82.0923 68.608 82.3737 68.624 82.6551C68.6355 82.8884 68.663 83.1218 68.7065 83.3505C68.7271 83.4581 68.7545 83.5633 68.7912 83.6662C68.7958 83.6777 68.8003 83.6914 68.8026 83.7051C68.798 83.7074 68.7935 83.7097 68.7912 83.7097C68.679 83.7051 68.5668 83.7028 68.4569 83.6914C68.3562 83.68 68.2577 83.6571 68.1638 83.6182C68.031 83.5656 67.9212 83.4809 67.8593 83.346C67.7792 83.1767 67.7197 83.0028 67.6922 82.8152C67.6739 82.6962 67.6624 82.5773 67.6601 82.4583C67.6533 82.2112 67.6968 81.9733 67.7815 81.74C67.8433 81.5661 67.928 81.4014 68.0059 81.2344C68.1661 80.8821 68.3493 80.5389 68.5187 80.1912C68.679 79.8594 68.8003 79.514 68.8782 79.1548C68.9263 78.9329 68.9537 78.7087 68.9446 78.4822C68.9331 78.1665 68.8644 77.8645 68.7294 77.5785C68.6103 77.3246 68.4294 77.1324 68.173 77.0158C68.0677 76.9677 67.9578 76.9563 67.8456 76.9631C67.7494 76.97 67.6785 77.018 67.635 77.1073C67.5502 77.2789 67.5113 77.4596 67.5296 77.6518C67.5434 77.805 67.5846 77.9492 67.6418 78.0887C67.7243 78.29 67.7906 78.4982 67.8387 78.711C67.8868 78.9169 67.8983 79.1274 67.8891 79.3401C67.8754 79.5986 67.809 79.8434 67.7128 80.0813C67.6144 80.3238 67.509 80.5641 67.4083 80.8043C67.3121 81.0353 67.2137 81.2641 67.1381 81.502C67.074 81.7034 67.0328 81.907 67.0053 82.1152C66.987 82.2456 66.9733 82.376 66.9733 82.5086C66.9733 82.5224 66.9687 82.5361 66.9664 82.5521C66.971 82.6345 66.971 82.7145 66.971 82.7946ZM71.4241 84.5402C71.4219 84.5333 71.4219 84.5287 71.4219 84.5241C71.4219 84.4487 71.4196 84.3732 71.4196 84.2977C71.4196 84.2656 71.4013 84.245 71.3738 84.2405C71.3463 84.2359 71.3211 84.2588 71.3165 84.2885C71.3142 84.3022 71.3142 84.3183 71.3142 84.332C71.3142 84.3869 71.3165 84.4418 71.3165 84.4944C71.3165 84.5081 71.3165 84.5219 71.3165 84.5402C71.2936 84.5402 71.2753 84.5402 71.2593 84.5402C70.1901 84.5402 69.1186 84.5402 68.0494 84.5402C68.0356 84.5402 68.0196 84.5402 68.0059 84.5356C67.8868 84.4898 67.7723 84.4326 67.683 84.3388C67.4564 84.0986 67.2938 83.8172 67.1999 83.5015C67.1129 83.211 67.0878 82.9136 67.0923 82.6116C67.0946 82.4629 67.1084 82.3165 67.1267 82.1701C67.1542 81.9481 67.1977 81.7308 67.2686 81.518C67.3419 81.2938 67.4335 81.0788 67.5251 80.8615C67.6304 80.6098 67.7403 80.3582 67.841 80.1042C67.9532 79.8205 68.0219 79.5277 68.0196 79.2189C68.0173 79.0816 68.0127 78.942 67.9875 78.8071C67.9463 78.5852 67.8822 78.3724 67.8044 78.1619C67.7655 78.059 67.7265 77.9583 67.6945 77.8554C67.635 77.6472 67.635 77.439 67.722 77.2354C67.7357 77.2034 67.7517 77.1736 67.7678 77.1439C67.7746 77.1301 67.7861 77.121 67.8044 77.1256C67.8227 77.1279 67.8387 77.121 67.8548 77.1073C67.8639 77.1004 67.8776 77.0935 67.8891 77.0935C67.9647 77.0958 68.0402 77.0958 68.1066 77.1301C68.1684 77.1622 68.2325 77.1942 68.2898 77.2354C68.4455 77.3429 68.5508 77.4916 68.6286 77.6609C68.8164 78.0727 68.8644 78.5051 68.7958 78.9489C68.7408 79.3012 68.6401 79.6398 68.4935 79.9647C68.4203 80.1317 68.3401 80.2941 68.2577 80.4565C68.1112 80.7402 67.9784 81.0285 67.8387 81.3144C67.7746 81.4426 67.7197 81.5752 67.6693 81.7102C67.58 81.9481 67.5342 82.1929 67.5388 82.4469C67.5411 82.6047 67.5571 82.7626 67.5869 82.9182C67.6166 83.0806 67.6739 83.2361 67.7403 83.3871C67.7998 83.5221 67.8983 83.6251 68.0288 83.696C68.1661 83.7715 68.3172 83.8058 68.4706 83.8241C68.5874 83.8378 68.7042 83.8355 68.8209 83.8424C68.853 83.8447 68.885 83.8401 68.9148 83.8287C68.9606 83.8104 68.9743 83.7806 68.956 83.7349C68.94 83.6983 68.924 83.6617 68.9102 83.6251C68.8599 83.4809 68.8301 83.3345 68.8072 83.1835C68.798 83.1263 68.7912 83.0691 68.782 83.0051C68.8576 83.0051 68.8599 82.9456 68.8736 82.8953C68.8805 82.9204 68.885 82.9456 68.8896 82.9708C68.8942 82.9959 68.8965 83.0211 68.9034 83.0463C68.9079 83.0669 68.9125 83.0874 68.9217 83.1057C68.9469 83.1538 69.011 83.1538 69.0384 83.1057C69.0453 83.0943 69.0499 83.0783 69.0545 83.0646C69.0613 83.0371 69.0659 83.0097 69.0728 82.9822C69.0751 82.9753 69.0774 82.9662 69.0842 82.9525C69.0911 82.9959 69.0957 83.0325 69.1048 83.0691C69.114 83.1035 69.1369 83.1218 69.1667 83.1218C69.1964 83.1218 69.2216 83.1057 69.2331 83.0737C69.2399 83.0531 69.2445 83.0303 69.2491 83.0074C69.256 82.9776 69.2628 82.9479 69.2697 82.9113C69.2834 82.9387 69.2903 82.957 69.3017 82.9753C69.3178 83.0005 69.3407 83.0165 69.3704 83.0119C69.4025 83.0097 69.4208 82.9891 69.43 82.9616C69.4368 82.9433 69.4368 82.9227 69.4414 82.9021C69.446 82.8815 69.4437 82.8587 69.4529 82.8335C69.4712 82.8564 69.4826 82.8747 69.4986 82.8907C69.5215 82.9136 69.5444 82.9342 69.5719 82.9525C69.5994 82.9685 69.6337 82.9593 69.6498 82.9342C69.6658 82.909 69.6612 82.877 69.6383 82.8541C69.636 82.8518 69.6314 82.8495 69.6291 82.8472C69.604 82.8198 69.5765 82.7923 69.5536 82.7603C69.5307 82.7306 69.5147 82.6985 69.4941 82.6665C69.4826 82.6482 69.4689 82.6322 69.4551 82.6162C69.4139 82.5796 69.359 82.5933 69.3384 82.6459C69.3338 82.6551 69.3315 82.6665 69.3269 82.6779C69.2697 82.6116 69.2285 82.6162 69.1781 82.6962C69.1758 82.6779 69.1735 82.6642 69.169 82.6505C69.1621 82.6185 69.1575 82.5887 69.1483 82.5567C69.1392 82.5269 69.1117 82.5109 69.0842 82.5109C69.0568 82.5109 69.0316 82.5292 69.0224 82.559C69.0178 82.5727 69.0133 82.5864 69.011 82.6024C69.0041 82.6368 68.9995 82.6734 68.9949 82.7077C68.9927 82.7168 68.9904 82.7237 68.9881 82.7306C68.9812 82.7237 68.9789 82.7168 68.9789 82.7123C68.9652 82.6345 68.9537 82.559 68.94 82.4812C68.9377 82.4698 68.9354 82.4583 68.9308 82.4469C68.9148 82.408 68.8736 82.3965 68.837 82.4171C68.8301 82.4217 68.8232 82.4263 68.8141 82.4309C68.8141 82.4126 68.8141 82.3965 68.8141 82.3828C68.8187 82.3416 68.8209 82.2982 68.8255 82.257C68.8301 82.2089 68.8209 82.1884 68.7751 82.1701C68.7706 82.1678 68.7683 82.1655 68.766 82.1655C68.7591 82.0145 68.8461 81.5478 68.9034 81.422C68.9423 81.4243 68.9698 81.4014 68.9949 81.3762C69.0476 81.3213 69.1003 81.2664 69.1529 81.2115C69.1598 81.2046 69.1667 81.1978 69.1735 81.1932C69.1598 81.2389 69.1438 81.2824 69.1277 81.3259C69.1186 81.3488 69.1094 81.3739 69.1048 81.3968C69.098 81.438 69.1209 81.4677 69.1598 81.4723C69.1758 81.4746 69.185 81.4792 69.1964 81.4906C69.217 81.518 69.2468 81.5249 69.2788 81.5135C69.2995 81.5066 69.3201 81.4952 69.3384 81.4837C69.3865 81.4471 69.43 81.4082 69.4757 81.3693C69.4826 81.3625 69.4918 81.3579 69.5055 81.3465C69.4941 81.3762 69.4826 81.3991 69.4757 81.422C69.4689 81.4448 69.4597 81.47 69.4574 81.4952C69.4529 81.5478 69.4964 81.5798 69.5467 81.5615C69.5559 81.5592 69.565 81.5524 69.5742 81.5478C69.5765 81.5569 69.5788 81.5638 69.5811 81.5707C69.6017 81.6324 69.652 81.6507 69.7047 81.6118C69.7207 81.6004 69.7345 81.5867 69.7482 81.573C69.7619 81.5592 69.778 81.5501 69.8009 81.5478C69.8489 81.5455 69.8718 81.4929 69.8421 81.454C69.8238 81.4265 69.7848 81.4151 69.7505 81.4243C69.7413 81.4265 69.7322 81.4311 69.7184 81.4357C69.7322 81.3762 69.7207 81.3327 69.6566 81.3167C69.6612 81.3053 69.6635 81.2984 69.6681 81.2893C69.6795 81.2618 69.6933 81.2321 69.6978 81.2023C69.7093 81.1451 69.6658 81.104 69.6108 81.1177C69.5902 81.1223 69.5696 81.1314 69.5536 81.1451C69.5032 81.184 69.4574 81.2229 69.4094 81.2641C69.3887 81.2801 69.3704 81.2984 69.3498 81.3167C69.3498 81.3007 69.3544 81.2893 69.359 81.2778C69.3887 81.2161 69.4162 81.1543 69.4483 81.0948C69.4689 81.0559 69.4597 81.0102 69.4185 80.9942C69.4162 80.9919 69.4116 80.9896 69.4094 80.985C69.4231 80.9553 69.4368 80.9278 69.4506 80.9004C69.4551 80.8889 69.462 80.8775 69.4666 80.8638C69.4735 80.8363 69.4666 80.8134 69.4437 80.7974C69.4208 80.7814 69.3933 80.7814 69.3704 80.7997C69.359 80.8066 69.3498 80.818 69.3407 80.8271C69.2834 80.8889 69.2262 80.9507 69.169 81.0102C69.1621 81.017 69.1552 81.0216 69.1506 81.0285C69.1712 80.9827 69.1941 80.9392 69.2193 80.8981C69.2628 80.8226 69.3063 80.7448 69.3498 80.6693C69.375 80.6258 69.3727 80.6075 69.3407 80.5686C69.3384 80.5663 69.3407 80.5641 69.3384 80.5595C69.5742 80.2461 69.881 80.0173 70.2359 79.848C70.2084 79.8732 70.1786 79.896 70.1489 79.9189C70.1306 79.9326 70.11 79.9487 70.0939 79.9647C70.0733 79.9875 70.071 80.0196 70.0871 80.0425C70.1008 80.0653 70.1283 80.0768 70.1557 80.0676C70.1763 80.063 70.1992 80.0539 70.2198 80.0447C70.3 80.0081 70.3824 79.9715 70.4625 79.9326C70.4831 79.9235 70.5038 79.9166 70.5244 79.9098C70.5106 79.9304 70.4946 79.9441 70.4763 79.9578C70.4099 80.0127 70.3435 80.0699 70.2908 80.1385C70.2725 80.1614 70.2565 80.1889 70.245 80.2163C70.229 80.2667 70.2611 80.3101 70.3137 80.3124C70.3343 80.3124 70.3549 80.3101 70.3755 80.3078C70.4007 80.3627 70.4213 80.3742 70.4809 80.3673C70.506 80.365 70.5289 80.3582 70.561 80.3513C70.5427 80.3696 70.5312 80.381 70.5198 80.3948C70.4946 80.4245 70.4671 80.452 70.4488 80.4863C70.4167 80.5458 70.4511 80.6029 70.5198 80.6052C70.5381 80.6052 70.5564 80.6007 70.5747 80.6007C70.5839 80.6007 70.593 80.6007 70.5953 80.6007C70.5953 80.6396 70.593 80.6762 70.5953 80.7105C70.5976 80.7448 70.6205 80.77 70.6526 80.7722C70.6823 80.7745 70.7098 80.7517 70.7167 80.7173C70.719 80.7013 70.7213 80.6853 70.719 80.6693C70.719 80.6281 70.7304 80.5915 70.7602 80.5618C70.767 80.5549 70.7716 80.548 70.7762 80.5389C70.8014 80.4931 70.7739 80.4405 70.7213 80.4382C70.7075 80.4382 70.6915 80.4405 70.6778 80.4428C70.6663 80.4451 70.6549 80.4474 70.6365 80.452C70.6503 80.4359 70.6594 80.4268 70.6686 80.4176C70.6961 80.3856 70.7258 80.3536 70.751 80.3216C70.7716 80.2941 70.7785 80.2598 70.7579 80.2278C70.7373 80.1957 70.7052 80.1912 70.6686 80.1957C70.6572 80.198 70.648 80.198 70.6274 80.198C70.6457 80.182 70.6594 80.1706 70.6709 80.1614C70.7007 80.1362 70.7327 80.1111 70.7602 80.0813C70.7945 80.047 70.7854 79.9944 70.7442 79.9784C70.7213 79.9692 70.7007 79.9738 70.68 79.9853C70.6411 80.0081 70.6022 80.0333 70.5656 80.0562C70.5541 80.063 70.5404 80.0699 70.5289 80.0768C70.5358 80.063 70.5427 80.0562 70.5518 80.0493C70.6182 79.9967 70.6846 79.9441 70.751 79.8892C70.7716 79.8732 70.7922 79.8549 70.806 79.832C70.838 79.7862 70.8151 79.7336 70.7602 79.7222C70.7464 79.7199 70.7304 79.7222 70.7167 79.7245C70.6846 79.729 70.6549 79.7359 70.6251 79.7428C70.6251 79.7405 70.6228 79.7359 70.6228 79.7336C70.6732 79.7107 70.7235 79.6856 70.7739 79.6627C70.8037 79.649 70.822 79.6307 70.822 79.5963C70.822 79.5895 70.822 79.5826 70.822 79.5735C71.0349 79.4865 71.2501 79.3973 71.4654 79.3104C71.4676 79.3127 71.4676 79.3149 71.4699 79.3172C71.4585 79.3264 71.447 79.3378 71.4356 79.347C71.4173 79.363 71.3967 79.379 71.3806 79.3973C71.3555 79.4225 71.3463 79.4522 71.3623 79.4842C71.3784 79.5163 71.4058 79.5254 71.4379 79.5231C71.4654 79.5208 71.4928 79.5163 71.5203 79.5117C71.6096 79.4957 71.7012 79.4774 71.7905 79.4614C71.7836 79.4728 71.7722 79.482 71.7607 79.4888C71.7149 79.5208 71.6668 79.5552 71.621 79.5872C71.6096 79.5963 71.5982 79.6055 71.589 79.6169C71.573 79.6375 71.5661 79.6627 71.5798 79.6879C71.5936 79.713 71.6142 79.7267 71.6417 79.7245C71.6645 79.7222 71.6874 79.7176 71.708 79.7107C71.7722 79.6901 71.8363 79.6695 71.9004 79.649C71.9072 79.6467 71.9164 79.6467 71.9233 79.6444C71.9004 79.6695 71.8729 79.6879 71.8477 79.7062C71.8317 79.7199 71.8134 79.7336 71.8019 79.7496C71.7699 79.7954 71.7973 79.8503 71.8523 79.8549C71.866 79.8571 71.8821 79.8526 71.8958 79.8503C71.9256 79.8457 71.953 79.8388 71.9828 79.832C71.9668 79.848 71.9462 79.8571 71.9278 79.8686C71.8981 79.8846 71.8775 79.9075 71.8821 79.9441C71.8866 79.9807 71.9164 79.9967 71.9485 80.0058C71.9645 80.0104 71.9805 80.0127 71.9942 80.0173C72.0446 80.0333 72.0927 80.0516 72.1293 80.0905C72.1591 80.1202 72.1637 80.1454 72.1454 80.1843C72.1408 80.1934 72.1362 80.2003 72.1339 80.2095C72.1247 80.2369 72.1362 80.2644 72.1591 80.2781C72.182 80.2918 72.2095 80.2895 72.2301 80.2712C72.2392 80.2621 72.2484 80.2506 72.2552 80.2415C72.2965 80.1729 72.2896 80.0928 72.2415 80.0287C72.214 79.9921 72.1774 79.9647 72.1385 79.9418C72.127 79.9349 72.1156 79.9281 72.1018 79.9212C72.1202 79.9075 72.1362 79.896 72.1499 79.8823C72.1797 79.8549 72.2003 79.8228 72.1911 79.7816C72.1797 79.7359 72.1454 79.7199 72.1041 79.7084C72.0927 79.7062 72.0835 79.7039 72.0675 79.7016C72.095 79.6787 72.1202 79.6581 72.1408 79.6375C72.1568 79.6215 72.1728 79.6055 72.1843 79.5872C72.2117 79.5414 72.1889 79.4911 72.1362 79.4797C72.1179 79.4751 72.0973 79.4774 72.0767 79.4797C72.0469 79.482 72.0194 79.4888 71.9897 79.4934C72.0286 79.4614 72.0675 79.4362 72.1087 79.411C72.1225 79.4019 72.1362 79.3927 72.1454 79.3813C72.1637 79.363 72.166 79.3424 72.1591 79.3195C72.1499 79.2944 72.1316 79.2806 72.1041 79.2783C72.0904 79.2783 72.0744 79.2806 72.0606 79.2829C71.9233 79.3104 71.7836 79.3378 71.6462 79.363C71.6371 79.3653 71.6279 79.363 71.6188 79.363C71.7241 79.2829 71.8225 79.2006 71.9393 79.1434C71.9599 79.1319 71.9805 79.1205 71.9851 79.0976C71.9874 79.077 72.0011 79.0702 72.0171 79.061C72.2713 78.9306 72.5185 78.7865 72.7521 78.6218C72.8345 78.5646 72.9169 78.5051 72.9902 78.4365C73.1344 78.3061 73.2649 78.1642 73.3657 77.9949C73.3771 77.9766 73.384 77.956 73.3886 77.9354C73.4092 77.8165 73.4252 77.6975 73.4481 77.5785C73.471 77.4664 73.4939 77.3521 73.5259 77.2422C73.59 77.0272 73.7045 76.8373 73.8282 76.652C73.835 76.6406 73.8465 76.6337 73.8556 76.6223C73.874 76.6337 73.89 76.6429 73.9037 76.6543C73.9449 76.6863 73.9839 76.7184 74.0228 76.755C74.08 76.8076 74.135 76.8648 74.1945 76.9174C74.3479 77.0501 74.4807 77.2056 74.6181 77.3543C74.6409 77.3795 74.6593 77.3864 74.6913 77.3795C74.8424 77.3475 74.9912 77.3155 75.1424 77.2834C75.3003 77.2514 75.4583 77.2308 75.6209 77.2239C75.8224 77.2148 76.0215 77.2217 76.2207 77.256C76.3169 77.272 76.4108 77.2903 76.5001 77.3315C76.5069 77.3338 76.5138 77.3383 76.5229 77.3406C76.5504 77.3475 76.5779 77.336 76.5916 77.3132C76.6054 77.2903 76.6008 77.2605 76.5802 77.24C76.5687 77.2308 76.5573 77.2239 76.5436 77.2171C76.4794 77.1873 76.4108 77.169 76.3421 77.1553C76.2986 77.1462 76.2528 77.1393 76.2093 77.1301C76.2459 76.9677 76.4794 76.5239 76.5779 76.4232C76.6122 76.4438 76.7336 76.5582 76.7702 76.6063C76.7405 76.6085 76.7221 76.6223 76.713 76.6474C76.7061 76.6634 76.6992 76.6795 76.6947 76.6955C76.6786 76.7687 76.6626 76.8396 76.6489 76.9128C76.6443 76.938 76.642 76.9631 76.6443 76.9883C76.6466 77.0295 76.6786 77.0455 76.7153 77.0272C76.7244 77.0226 76.7336 77.018 76.7473 77.0089C76.745 77.0226 76.7427 77.0295 76.7427 77.0364C76.7405 77.0707 76.7634 77.0913 76.7977 77.0844C76.8046 77.0844 76.8114 77.0821 76.816 77.0798C76.8435 77.073 76.8687 77.0798 76.8893 77.1004C76.9374 77.1462 76.9534 77.1988 76.9465 77.2628C76.9419 77.2994 76.9213 77.3292 76.8847 77.3452C76.8732 77.3498 76.8618 77.3543 76.8526 77.3612C76.8366 77.3726 76.8297 77.3887 76.8366 77.407C76.8412 77.423 76.8549 77.4344 76.8732 77.4344C76.8893 77.4344 76.9076 77.4298 76.9236 77.423C76.9946 77.3887 77.0312 77.3292 77.0358 77.2514C77.0381 77.1942 77.0266 77.1393 76.9946 77.0913C76.9603 77.0409 76.9167 76.9997 76.8549 76.9906C76.8549 76.9609 76.8549 76.9311 76.8297 76.9128C76.8023 76.8922 76.7748 76.9037 76.7473 76.9105C76.7496 76.8419 76.7794 76.7206 76.816 76.6429C76.8183 76.6451 76.8206 76.6451 76.8229 76.6474C76.8275 76.6543 76.832 76.6589 76.8389 76.6657C76.99 76.8533 77.0862 77.0684 77.1526 77.2972C77.2052 77.4802 77.2258 77.6701 77.2579 77.8554C77.2831 78.0064 77.306 78.1596 77.3357 78.3106C77.3678 78.4731 77.4021 78.6355 77.4365 78.7979C77.4388 78.8094 77.4388 78.8208 77.4411 78.8322C77.4182 78.8391 77.3998 78.846 77.3815 78.8528C77.3472 78.8688 77.3106 78.8826 77.2762 78.9009C77.2579 78.91 77.2442 78.9283 77.2327 78.9443C77.2213 78.9603 77.2258 78.9786 77.2396 78.9924C77.2533 79.0061 77.2716 79.0061 77.2877 78.9992C77.2945 78.997 77.2991 78.9901 77.3037 78.9878C77.3472 78.9512 77.4021 78.9375 77.4548 78.9192C77.4754 78.9832 77.4548 79.0358 77.4365 79.0907C77.3724 79.093 77.3106 79.0953 77.2487 79.0999C77.2373 79.0999 77.2281 79.0999 77.2167 79.1022C77.1984 79.1068 77.1869 79.1205 77.1869 79.1388C77.1869 79.1594 77.1984 79.1754 77.219 79.1777C77.2327 79.18 77.2464 79.18 77.2579 79.18C77.306 79.18 77.3518 79.18 77.4067 79.18C77.393 79.2143 77.3815 79.2463 77.3678 79.2761C77.3243 79.2761 77.2854 79.2761 77.2487 79.2761C77.2258 79.2761 77.2029 79.2806 77.1823 79.2852C77.1617 79.2898 77.1503 79.3104 77.1526 79.331C77.1549 79.3493 77.1709 79.363 77.1915 79.363C77.2007 79.363 77.2098 79.3607 77.219 79.3607C77.2533 79.3607 77.2899 79.3607 77.3312 79.3607C77.322 79.3813 77.3151 79.395 77.3083 79.411C77.1938 79.6398 77.0518 79.8526 76.9099 80.063C76.6947 80.3879 76.4543 80.6945 76.1955 80.985C75.9803 81.2275 75.7651 81.47 75.5499 81.7125C75.3415 81.9481 75.1446 82.1906 74.9638 82.4469C74.8218 82.6482 74.689 82.8541 74.5837 83.0783C74.5082 83.2384 74.4326 83.4009 74.3822 83.5724C74.325 83.7669 74.2838 83.9637 74.27 84.165C74.2609 84.2862 74.2494 84.4052 74.2563 84.5264C74.2563 84.531 74.254 84.5333 74.254 84.5379C74.2151 84.5379 74.1739 84.5379 74.1304 84.5379C74.1327 84.467 74.135 84.4006 74.1372 84.3343C74.1395 84.3045 74.1281 84.2839 74.1006 84.2748C74.0754 84.2679 74.0502 84.2794 74.0388 84.3045C74.0319 84.3205 74.0274 84.3411 74.0274 84.3594C74.0251 84.3983 74.0274 84.4372 74.0274 84.4738C74.0274 84.4967 74.0251 84.5173 74.0228 84.5379C73.9907 84.5379 73.9655 84.5379 73.9381 84.5379C73.9381 84.5242 73.9358 84.5127 73.9358 84.5013C73.9358 84.4487 73.9358 84.3983 73.9381 84.3457C73.9381 84.316 73.922 84.2908 73.8946 84.2862C73.8694 84.2816 73.8442 84.2977 73.835 84.3274C73.8327 84.3388 73.8305 84.3503 73.8305 84.3617C73.8305 84.4052 73.8305 84.4464 73.8327 84.4898C73.8327 84.5058 73.8327 84.5219 73.8327 84.5379C73.1596 84.5379 72.4911 84.5379 71.8202 84.5379C71.8202 84.5219 71.8179 84.5104 71.8179 84.4967C71.8225 84.4326 71.8271 84.3686 71.834 84.3068C71.8592 84.0803 71.9416 83.8744 72.079 83.6937C72.2049 83.5267 72.3583 83.3871 72.5369 83.2773C72.5849 83.2476 72.633 83.2201 72.6788 83.1881C72.8711 83.0623 73.0772 82.9639 73.2924 82.8861C73.5008 82.8129 73.7137 82.7534 73.9243 82.6962C74.1556 82.6345 74.3799 82.5544 74.5883 82.4309C74.7394 82.3416 74.8653 82.225 74.9729 82.0877C75.108 81.9138 75.1561 81.7194 75.0966 81.502C75.0554 81.3533 74.9684 81.2412 74.8241 81.1772C74.7623 81.1497 74.6982 81.1474 74.6341 81.1657C74.4921 81.2046 74.4143 81.3053 74.4166 81.4426C74.4189 81.518 74.4555 81.5707 74.5196 81.6073C74.5883 81.6462 74.673 81.6118 74.7005 81.5386C74.7188 81.486 74.7028 81.4426 74.6707 81.4014C74.6547 81.3808 74.6272 81.3739 74.6066 81.3854C74.586 81.3945 74.5746 81.4197 74.5814 81.4471C74.586 81.4586 74.5952 81.47 74.5974 81.4837C74.5997 81.4929 74.602 81.5089 74.5952 81.5112C74.5883 81.5158 74.5723 81.5203 74.5631 81.5158C74.5379 81.502 74.5219 81.4814 74.5196 81.4517C74.515 81.3991 74.5288 81.3533 74.5677 81.3167C74.6249 81.2618 74.7188 81.2458 74.7898 81.2801C74.8104 81.2893 74.8287 81.3007 74.8493 81.3144C74.95 81.3831 74.9912 81.4837 75.0096 81.5981C75.0347 81.7468 74.9958 81.8841 74.9065 82.0053C74.8218 82.122 74.7257 82.225 74.6043 82.3027C74.4532 82.3988 74.2952 82.4835 74.1212 82.5338C73.9083 82.5956 73.6954 82.6551 73.4824 82.7191C73.2535 82.7877 73.0314 82.8678 72.8231 82.9868C72.704 83.0531 72.5895 83.1286 72.4728 83.1995C72.3285 83.2865 72.2026 83.3963 72.0881 83.5221C71.8431 83.7921 71.7264 84.1101 71.7149 84.4715C71.7149 84.4944 71.7149 84.5196 71.7149 84.5425C71.6806 84.5425 71.6508 84.5425 71.621 84.5425C71.621 84.4692 71.621 84.4006 71.621 84.3297C71.621 84.2977 71.6119 84.2771 71.5821 84.2679C71.5569 84.2611 71.5318 84.2748 71.5203 84.3C71.5134 84.316 71.5111 84.3366 71.5111 84.3549C71.5111 84.4029 71.5111 84.4532 71.5111 84.5013C71.5111 84.515 71.5111 84.5264 71.5111 84.5402C71.4676 84.5402 71.447 84.5402 71.4241 84.5402Z" fill="black"/>
<path d="M75.1128 78.2968C75.1128 78.3975 75.1219 78.4981 75.1425 78.5988C75.1517 78.6446 75.1654 78.688 75.2021 78.7223C75.2364 78.7521 75.2684 78.7521 75.2913 78.7132C75.3119 78.6743 75.3303 78.6331 75.3394 78.5919C75.3715 78.4776 75.3783 78.3586 75.3669 78.2396C75.36 78.1756 75.3509 78.1115 75.3371 78.0475C75.3303 78.0154 75.3165 77.9834 75.3028 77.956C75.2868 77.9262 75.2639 77.8988 75.2249 77.9033C75.186 77.9079 75.1677 77.9376 75.1585 77.9697C75.1448 78.0177 75.1311 78.0681 75.1242 78.1161C75.1173 78.1733 75.115 78.2351 75.1128 78.2968Z" fill="black"/>
<path d="M76.4289 79.1318C76.4655 79.189 76.5136 79.2324 76.5777 79.2553C76.5915 79.2599 76.6052 79.2622 76.6212 79.2622C76.6418 79.2622 76.6556 79.2462 76.6579 79.2279C76.6601 79.2096 76.651 79.1936 76.6327 79.1867C76.6235 79.1821 76.6144 79.1821 76.6052 79.1775C76.5045 79.1409 76.4816 79.0677 76.477 78.9831C76.477 78.9762 76.4793 78.9671 76.4861 78.9625C76.5434 78.9076 76.5594 78.839 76.5731 78.7657C76.5869 78.6857 76.5869 78.688 76.5136 78.6628C76.4289 78.6331 76.3419 78.6353 76.2549 78.6651C76.248 78.6674 76.2412 78.6719 76.2343 78.6742C76.1793 78.704 76.1679 78.7543 76.2114 78.7978C76.2595 78.8458 76.3098 78.8916 76.3625 78.935C76.3854 78.9533 76.39 78.9716 76.3854 78.9991C76.3648 79.086 76.3213 79.1547 76.2412 79.2004C76.1519 79.2507 76.0466 79.2256 75.9893 79.1386C75.9824 79.1295 75.9779 79.1181 75.971 79.1089C75.9573 79.0929 75.9389 79.0883 75.9206 79.0952C75.9023 79.1043 75.8932 79.1226 75.8977 79.1455C75.9 79.1524 75.9023 79.1615 75.9069 79.1684C75.971 79.2942 76.1313 79.3468 76.2595 79.2851C76.319 79.2553 76.3694 79.2141 76.406 79.1592C76.4106 79.1524 76.4175 79.1432 76.422 79.1364C76.4243 79.1341 76.4266 79.1318 76.4289 79.1318ZM76.4884 78.7383C76.4907 78.7795 76.477 78.8138 76.4632 78.8481C76.4495 78.8778 76.4335 78.8824 76.4083 78.8618C76.3694 78.8275 76.3305 78.7932 76.2915 78.7589C76.287 78.7543 76.2847 78.7497 76.2801 78.7406C76.3533 78.72 76.4197 78.72 76.4884 78.7383Z" fill="black"/>
<path d="M75.2156 79.4888C75.1584 79.5025 75.1012 79.5139 75.0462 79.5322C74.8264 79.6032 74.6318 79.7198 74.4464 79.8571C74.1991 80.0401 73.9999 80.2643 73.8282 80.516C73.8236 80.5228 73.819 80.5297 73.8167 80.5366C73.8076 80.5571 73.8122 80.58 73.8282 80.5892C73.8442 80.6006 73.8694 80.5983 73.8854 80.58C73.8946 80.5709 73.9015 80.5594 73.9083 80.548C74.032 80.3718 74.167 80.2071 74.3273 80.063C74.5265 79.8868 74.744 79.7404 74.9936 79.6398C75.0623 79.6123 75.1332 79.5871 75.2065 79.578C75.2134 79.578 75.2225 79.5757 75.2294 79.5734C75.2569 79.5666 75.2706 79.5505 75.2683 79.5254C75.266 79.5025 75.2477 79.4933 75.2156 79.4888Z" fill="black"/>
<path d="M74.8154 79.2256C74.4835 79.2234 74.1652 79.2966 73.8538 79.4087C73.7302 79.4521 73.6111 79.5047 73.4967 79.5665C73.4829 79.5734 73.4715 79.5802 73.46 79.5894C73.444 79.6031 73.4394 79.6237 73.4486 79.6397C73.4577 79.6557 73.4761 79.6649 73.4967 79.658C73.5081 79.6534 73.5218 79.6466 73.5333 79.642C73.8195 79.491 74.1217 79.3926 74.44 79.34C74.6437 79.3057 74.8498 79.3057 75.0558 79.3194C75.081 79.3217 75.1062 79.3217 75.1314 79.3194C75.1612 79.3171 75.1749 79.2988 75.1726 79.276C75.1703 79.2531 75.1543 79.2394 75.1245 79.2371C75.0215 79.2348 74.9185 79.2302 74.8154 79.2256Z" fill="black"/>
<path d="M76.8575 78.0888C76.8621 78.1963 76.8758 78.329 76.8987 78.4594C76.9056 78.4937 76.9125 78.5281 76.9193 78.5601C76.9262 78.5967 76.9537 78.6127 76.9834 78.6241C77.0041 78.631 77.0224 78.6264 77.0384 78.6127C77.0567 78.5944 77.0727 78.5761 77.0773 78.5486C77.0911 78.4869 77.0956 78.4228 77.0911 78.3588C77.0819 78.2284 77.0636 78.098 77.0361 77.9698C77.0292 77.9355 77.0132 77.9012 76.9995 77.8692C76.988 77.844 76.9674 77.828 76.9399 77.8303C76.9125 77.8326 76.8942 77.8509 76.885 77.876C76.8621 77.9355 76.8552 77.9996 76.8575 78.0888Z" fill="black"/>
<path d="M74.318 78.9121C74.0753 78.9144 73.8555 78.9487 73.638 79.0036C73.5899 79.0151 73.5418 79.0288 73.496 79.0402C73.4846 79.0425 73.4731 79.0471 73.4617 79.0494C73.4342 79.0585 73.4228 79.0791 73.4296 79.102C73.4365 79.1249 73.4571 79.1363 73.4869 79.1294C73.5579 79.1111 73.6311 79.0906 73.7021 79.0745C73.9059 79.0265 74.1142 78.9945 74.3248 78.9968C74.5446 78.999 74.7599 79.0356 74.9705 79.1043C74.9888 79.1111 75.0048 79.1157 75.0232 79.1203C75.0323 79.1226 75.0415 79.1249 75.0506 79.1226C75.0689 79.1203 75.085 79.1043 75.0896 79.086C75.0918 79.0677 75.0804 79.0494 75.0621 79.0425C75.0438 79.0356 75.0254 79.0334 75.0094 79.0265C74.8904 78.9876 74.769 78.9579 74.6477 78.9373C74.5309 78.9235 74.4164 78.9167 74.318 78.9121Z" fill="black"/>
<path d="M73.9422 77.1441C73.9514 77.1578 73.9605 77.1692 73.9697 77.183C73.9811 77.199 73.9971 77.2081 74.0178 77.2013C74.0384 77.1944 74.0475 77.1784 74.0452 77.1555C74.0452 77.1441 74.0406 77.1349 74.0384 77.1235C74.0155 77.032 73.9811 76.9473 73.9399 76.8627C73.9193 76.8215 73.8987 76.7803 73.8781 76.7391C73.8644 76.714 73.8437 76.7071 73.8231 76.7163C73.8025 76.7254 73.7957 76.7483 73.8025 76.7735C73.8048 76.7826 73.8117 76.7918 73.8163 76.8032C73.8415 76.8535 73.8666 76.9062 73.8918 76.9565C73.901 76.9771 73.9101 76.9977 73.9193 77.0205C73.9101 77.0205 73.9033 77.0228 73.8987 77.0228C73.8552 77.0251 73.83 77.0526 73.8346 77.096C73.8369 77.1235 73.846 77.1509 73.8529 77.1807C73.8415 77.1807 73.8323 77.1807 73.8209 77.1807C73.7659 77.183 73.7316 77.2127 73.7178 77.2653C73.7087 77.3065 73.711 77.3477 73.7178 77.3889C73.7361 77.5124 73.7842 77.6176 73.8827 77.6977C73.9193 77.7252 73.9559 77.748 74.0017 77.7618C74.0109 77.7641 74.0223 77.7663 74.0338 77.7686C74.0544 77.7686 74.0704 77.7572 74.075 77.7389C74.0796 77.7206 74.0704 77.7046 74.0544 77.6954C74.0498 77.6909 74.0429 77.6909 74.0361 77.6886C73.9033 77.6405 73.8323 77.5421 73.8071 77.4072C73.8002 77.3751 73.798 77.3408 73.8002 77.3088C73.8002 77.2722 73.814 77.2653 73.8506 77.2745C73.8689 77.2791 73.885 77.2859 73.9033 77.2928C73.9239 77.2974 73.9422 77.2996 73.9582 77.2813C73.9743 77.2653 73.972 77.2447 73.9651 77.2242C73.9559 77.2013 73.9468 77.1784 73.9353 77.1555C73.9376 77.1464 73.9399 77.1464 73.9422 77.1441Z" fill="black"/>
</g>
<defs>
<clipPath id="clip0_1420_626">
<rect width="13" height="9" fill="white" transform="matrix(-1 0 0 1 80 76)"/>
</clipPath>
</defs>
</svg>
