<svg width="100" height="50" viewBox="0 0 150 100" fill="none" xmlns="http://www.w3.org/2000/svg">
<path d="M128.992 75.8191C130.205 77.517 131.422 79.1856 132.642 80.825C132.963 80.0292 133.305 79.0284 133.669 77.8224C134.033 76.6165 134.377 75.3195 134.701 73.9316C135.057 72.5174 135.387 71.0709 135.691 69.592C136.053 68.1192 136.361 66.7444 136.614 65.4675C136.899 64.1644 137.124 63.0178 137.287 62.0277C137.509 61.0439 137.658 60.3337 137.734 59.8973C133.565 54.748 129.247 50.042 124.777 45.7794C120.335 41.5492 115.963 37.7709 111.662 34.4444C107.393 31.0917 103.316 28.1738 99.4295 25.6909C95.5695 23.2403 92.1413 21.1908 89.1449 19.5422C86.1748 17.9259 83.7536 16.723 81.8815 15.9334C80.0417 15.1176 78.9591 14.7073 78.6337 14.7027C77.8333 14.7073 76.9096 14.7582 75.8625 14.8553C74.8739 14.9586 73.8823 15.0912 72.8877 15.2531C71.9516 15.4212 71.1003 15.6279 70.3338 15.873C69.5998 16.092 69.0708 16.3326 68.7469 16.5947C68.6174 16.6996 68.5496 16.7813 68.5434 16.8399C68.511 16.8662 68.5079 16.8955 68.5341 16.9278C68.3773 17.3161 68.2187 17.7018 68.0584 18.085C69.3255 18.4676 71.1234 19.4598 75.1707 21.8482C79.3746 24.1276 83.2376 26.5488 86.7598 29.1119C90.2821 31.6751 93.61 34.3955 96.7436 37.2732C99.8772 40.1509 102.875 43.1921 105.737 46.3967C108.632 49.5751 111.521 52.9456 114.405 56.508C116.659 59.2932 118.646 61.8131 120.364 64.0677C122.108 66.3548 123.678 68.4606 125.075 70.3852C126.473 72.3099 127.778 74.1211 128.992 75.8191Z" fill="#006CFF"/>
<path d="M66.4681 34.4413C69.5108 30.5844 72.4117 26.3867 75.1707 21.8482C71.1234 19.4598 69.3255 18.4676 68.0584 18.085C66.2124 22.4974 64.1387 26.5723 61.8371 30.3098C59.3357 34.3717 56.6954 38.0636 53.9164 41.3854C51.1636 44.7395 48.3406 47.7752 45.4475 50.4924C42.5868 53.1834 39.8286 55.6038 37.173 57.7535C34.8412 59.641 32.6675 61.2934 30.6519 62.7106C28.6363 64.1278 26.8211 65.3291 25.2065 66.3145C23.6504 67.3061 22.308 68.098 21.1791 68.6901C20.512 69.0631 18.0783 70.5814 16.2324 71.7329C15.1168 72.4289 14.216 72.9908 14.0498 73.085C15.5701 73.1131 19.3226 72.1846 25.5094 70.6539L26.5088 70.4067C27.6376 69.8145 28.9346 69.0326 30.3997 68.0611C31.638 67.2731 33.1386 66.246 34.9013 64.98C36.6963 63.6877 38.7112 62.1371 40.9458 60.3282C43.31 58.4144 45.9 56.1837 48.7161 53.6361C51.5321 51.0885 54.4275 48.2086 57.4024 44.9964C60.4035 41.8165 63.4254 38.2981 66.4681 34.4413Z" fill="#008C00"/>
<path d="M41.8733 65.4474C36.5806 67.3194 31.4591 68.9725 26.5088 70.4067L25.5094 70.6539C19.3226 72.1846 15.5701 73.1131 14.0498 73.085C14.0229 73.2547 14.0064 73.3852 13.9895 73.5198C13.9512 73.8242 13.9103 74.1492 13.7392 74.994C13.5187 76.2447 13.2889 77.5833 13.0498 79.0098C12.7784 80.4625 12.51 81.8859 12.2447 83.28C12.2068 83.4791 12.1748 83.8128 12.1313 84.2652C12.1082 84.5057 12.0819 84.7798 12.0498 85.085C13.1665 84.8307 15.2252 84.4017 17.5238 83.9227C20.5355 83.2951 23.9591 82.5816 26.2148 82.063C30.2182 81.181 34.6211 80.1632 39.4234 79.0098C44.2257 77.8563 49.2616 76.5942 54.5311 75.2233C59.8331 73.8262 65.0533 72.3612 70.1918 70.8284C75.3565 69.328 80.2898 67.7736 84.9919 66.1652C89.6939 64.5568 93.8786 62.9384 97.5459 61.31C97.7356 60.3523 97.9006 59.0661 98.041 57.4515C98.2399 55.843 98.4057 54.1274 98.5384 52.3046C98.6711 50.4818 98.7713 48.6851 98.8392 46.9148C98.9333 45.1768 98.9835 43.7156 98.9897 42.5312C98.308 42.8149 96.7242 43.5073 94.2382 44.6084C91.7847 45.6832 88.698 47.0025 84.9783 48.5662C81.2848 50.1622 77.0848 51.9271 72.3781 53.8609C67.6714 55.7947 62.7403 57.7493 57.5849 59.7247C52.4618 61.6739 47.2246 63.5814 41.8733 65.4474Z" fill="#D10000"/>
<g clip-path="url(#clip0_1341_8205)">
<path d="M14.971 79.7946C14.9733 79.8175 14.9779 79.8381 14.9779 79.861C14.987 80.108 15.0214 80.3505 15.0992 80.5862C15.2022 80.9019 15.3671 81.181 15.5937 81.4235C15.6991 81.5379 15.8319 81.6019 15.9738 81.6546C15.9853 81.6591 15.9967 81.6591 16.0082 81.6614C16.0723 81.6637 16.1387 81.666 16.2028 81.666C18.2176 81.666 20.2346 81.666 22.2494 81.666C22.27 81.666 22.2906 81.666 22.309 81.6614C22.3456 81.6546 22.3593 81.634 22.3593 81.5951C22.3593 81.563 22.357 81.5287 22.357 81.4967C22.3548 81.0986 22.4166 80.712 22.5746 80.3437C22.6844 80.0874 22.8127 79.8427 22.9729 79.6139C23.1904 79.3005 23.4308 79.0053 23.685 78.7194C23.8681 78.5135 24.0513 78.3099 24.2345 78.104C24.4611 77.8477 24.6786 77.5846 24.8732 77.3033C25.0587 77.0333 25.2419 76.7633 25.393 76.4728C25.409 76.4408 25.425 76.4087 25.4433 76.3744C25.4868 76.3721 25.5326 76.3859 25.5761 76.395C25.8829 76.4591 26.1714 76.578 26.4485 76.7222C26.5446 76.7725 26.6385 76.8297 26.7324 76.8823C26.7461 76.8892 26.7575 76.896 26.7713 76.9006C26.7896 76.9075 26.8056 76.9006 26.8171 76.8846C26.8262 76.8686 26.8262 76.8503 26.8125 76.8366C26.8056 76.8297 26.7965 76.8228 26.7873 76.816C26.4416 76.6032 26.0775 76.4293 25.6792 76.3287C25.6219 76.3149 25.5624 76.3035 25.5029 76.2921C25.496 76.2898 25.4891 76.2875 25.4777 76.2852C25.4914 76.244 25.5075 76.2074 25.5212 76.1685C25.5281 76.1662 25.5326 76.1662 25.5372 76.1662C25.6883 76.164 25.8371 76.1662 25.9883 76.18C26.4668 76.2234 26.9109 76.3699 27.3368 76.5872C27.3574 76.5986 27.378 76.6101 27.4009 76.6215C27.4123 76.6261 27.4238 76.6307 27.4352 76.6307C27.4513 76.6329 27.465 76.6261 27.4719 76.6101C27.4787 76.5941 27.4787 76.578 27.4673 76.5666C27.4581 76.5574 27.4444 76.5483 27.4307 76.5414C27.1193 76.3744 26.7919 76.2486 26.4485 76.1685C26.1714 76.1045 25.8898 76.0793 25.6059 76.0816C25.5899 76.0816 25.5738 76.0816 25.5532 76.0816C25.5899 76.0221 25.5693 75.9626 25.5647 75.9032C25.5647 75.8963 25.5624 75.8894 25.5624 75.8826C25.5624 75.8803 25.5647 75.878 25.567 75.8711C25.6357 75.8528 25.7044 75.8322 25.7753 75.8162C25.9333 75.7773 26.0936 75.743 26.2561 75.7201C26.3798 75.7041 26.5057 75.6973 26.6293 75.6995C26.6911 75.7018 26.753 75.7064 26.8171 75.7087C26.8308 75.7087 26.8468 75.711 26.8606 75.7087C26.8789 75.7064 26.8926 75.6927 26.8926 75.6744C26.8949 75.6538 26.8858 75.6401 26.8674 75.6332C26.856 75.6286 26.8445 75.6263 26.8331 75.6263C26.6637 75.6126 26.4942 75.6126 26.3225 75.6286C26.073 75.6538 25.8303 75.7133 25.5899 75.7773C25.5761 75.7796 25.5647 75.7842 25.5487 75.7888C25.5418 75.7499 25.5349 75.711 25.5258 75.6744C25.4937 75.5257 25.4594 75.3793 25.4319 75.2306C25.4021 75.0727 25.3792 74.9148 25.3541 74.7547C25.3243 74.5694 25.3014 74.3818 25.2419 74.2011C25.1686 73.9769 25.0724 73.7618 24.919 73.5788C24.832 73.4759 24.7382 73.3798 24.6306 73.2974C24.5779 73.2585 24.5413 73.2585 24.5001 73.3088C24.4543 73.366 24.4108 73.4278 24.3718 73.4919C24.2528 73.6795 24.1566 73.8762 24.0856 74.0867C24.0834 74.0935 24.0811 74.0981 24.0765 74.1073C24.0284 74.105 23.9826 74.0981 23.9345 74.0981C23.8292 74.0958 23.7216 74.0935 23.6163 74.0981C23.3164 74.1073 23.0279 74.1759 22.7371 74.24C22.7028 74.2468 22.6822 74.2377 22.6593 74.2148C22.6089 74.1599 22.5585 74.1027 22.5036 74.0478C22.4303 73.9723 22.3548 73.9014 22.2792 73.8282C22.2174 73.7687 22.1556 73.7069 22.0892 73.6497C22.0388 73.604 21.9839 73.5628 21.9289 73.5239C21.8625 73.4759 21.8144 73.4804 21.7457 73.5491C21.7366 73.5582 21.7274 73.5697 21.7206 73.5811C21.6313 73.7184 21.542 73.8556 21.4756 74.0043C21.4046 74.1622 21.3588 74.3269 21.329 74.4962C21.3039 74.6335 21.281 74.7707 21.2558 74.908C21.2535 74.9263 21.242 74.9423 21.2329 74.9583C21.1459 75.1002 21.0337 75.2191 20.9123 75.3312C20.8276 75.409 20.7338 75.4753 20.6422 75.5394C20.3858 75.7201 20.1156 75.8757 19.8317 76.0084C19.6004 76.1159 19.36 76.2074 19.1242 76.3081C18.8151 76.4385 18.4992 76.5574 18.1992 76.7062C17.984 76.8137 17.7803 76.9372 17.5948 77.0905C17.3521 77.2918 17.1598 77.5343 17.011 77.8111C16.8415 78.1246 16.7271 78.4609 16.6675 78.8132C16.6218 79.0923 16.608 79.3737 16.624 79.6551C16.6355 79.8884 16.663 80.1218 16.7065 80.3505C16.7271 80.4581 16.7545 80.5633 16.7912 80.6662C16.7958 80.6777 16.8003 80.6914 16.8026 80.7051C16.798 80.7074 16.7935 80.7097 16.7912 80.7097C16.679 80.7051 16.5668 80.7028 16.4569 80.6914C16.3562 80.68 16.2577 80.6571 16.1638 80.6182C16.031 80.5656 15.9212 80.4809 15.8593 80.346C15.7792 80.1767 15.7197 80.0028 15.6922 79.8152C15.6739 79.6962 15.6624 79.5773 15.6601 79.4583C15.6533 79.2112 15.6968 78.9733 15.7815 78.74C15.8433 78.5661 15.928 78.4014 16.0059 78.2344C16.1661 77.8821 16.3493 77.5389 16.5187 77.1912C16.679 76.8594 16.8003 76.514 16.8782 76.1548C16.9263 75.9329 16.9537 75.7087 16.9446 75.4822C16.9331 75.1665 16.8644 74.8645 16.7294 74.5785C16.6103 74.3246 16.4294 74.1324 16.173 74.0158C16.0677 73.9677 15.9578 73.9563 15.8456 73.9631C15.7494 73.97 15.6785 74.018 15.635 74.1073C15.5502 74.2789 15.5113 74.4596 15.5296 74.6518C15.5434 74.805 15.5846 74.9492 15.6418 75.0887C15.7243 75.29 15.7906 75.4982 15.8387 75.711C15.8868 75.9169 15.8983 76.1274 15.8891 76.3401C15.8754 76.5986 15.809 76.8434 15.7128 77.0813C15.6144 77.3238 15.509 77.5641 15.4083 77.8043C15.3121 78.0353 15.2137 78.2641 15.1381 78.502C15.074 78.7034 15.0328 78.907 15.0053 79.1152C14.987 79.2456 14.9733 79.376 14.9733 79.5086C14.9733 79.5224 14.9687 79.5361 14.9664 79.5521C14.971 79.6345 14.971 79.7145 14.971 79.7946ZM19.4241 81.5402C19.4219 81.5333 19.4219 81.5287 19.4219 81.5241C19.4219 81.4487 19.4196 81.3732 19.4196 81.2977C19.4196 81.2656 19.4013 81.245 19.3738 81.2405C19.3463 81.2359 19.3211 81.2588 19.3165 81.2885C19.3142 81.3022 19.3142 81.3183 19.3142 81.332C19.3142 81.3869 19.3165 81.4418 19.3165 81.4944C19.3165 81.5081 19.3165 81.5219 19.3165 81.5402C19.2936 81.5402 19.2753 81.5402 19.2593 81.5402C18.1901 81.5402 17.1186 81.5402 16.0494 81.5402C16.0356 81.5402 16.0196 81.5402 16.0059 81.5356C15.8868 81.4898 15.7723 81.4326 15.683 81.3388C15.4564 81.0986 15.2938 80.8172 15.1999 80.5015C15.1129 80.211 15.0878 79.9136 15.0923 79.6116C15.0946 79.4629 15.1084 79.3165 15.1267 79.1701C15.1542 78.9481 15.1977 78.7308 15.2686 78.518C15.3419 78.2938 15.4335 78.0788 15.5251 77.8615C15.6304 77.6098 15.7403 77.3582 15.841 77.1042C15.9532 76.8205 16.0219 76.5277 16.0196 76.2189C16.0173 76.0816 16.0127 75.942 15.9875 75.8071C15.9463 75.5852 15.8822 75.3724 15.8044 75.1619C15.7655 75.059 15.7265 74.9583 15.6945 74.8554C15.635 74.6472 15.635 74.439 15.722 74.2354C15.7357 74.2034 15.7517 74.1736 15.7678 74.1439C15.7746 74.1301 15.7861 74.121 15.8044 74.1256C15.8227 74.1279 15.8387 74.121 15.8548 74.1073C15.8639 74.1004 15.8776 74.0935 15.8891 74.0935C15.9647 74.0958 16.0402 74.0958 16.1066 74.1301C16.1684 74.1622 16.2325 74.1942 16.2898 74.2354C16.4455 74.3429 16.5508 74.4916 16.6286 74.6609C16.8164 75.0727 16.8644 75.5051 16.7958 75.9489C16.7408 76.3012 16.6401 76.6398 16.4935 76.9647C16.4203 77.1317 16.3401 77.2941 16.2577 77.4565C16.1112 77.7402 15.9784 78.0285 15.8387 78.3144C15.7746 78.4426 15.7197 78.5752 15.6693 78.7102C15.58 78.9481 15.5342 79.1929 15.5388 79.4469C15.5411 79.6047 15.5571 79.7626 15.5869 79.9182C15.6166 80.0806 15.6739 80.2361 15.7403 80.3871C15.7998 80.5221 15.8983 80.6251 16.0288 80.696C16.1661 80.7715 16.3172 80.8058 16.4706 80.8241C16.5874 80.8378 16.7042 80.8355 16.8209 80.8424C16.853 80.8447 16.885 80.8401 16.9148 80.8287C16.9606 80.8104 16.9743 80.7806 16.956 80.7349C16.94 80.6983 16.924 80.6617 16.9102 80.6251C16.8599 80.4809 16.8301 80.3345 16.8072 80.1835C16.798 80.1263 16.7912 80.0691 16.782 80.0051C16.8576 80.0051 16.8599 79.9456 16.8736 79.8953C16.8805 79.9204 16.885 79.9456 16.8896 79.9708C16.8942 79.9959 16.8965 80.0211 16.9034 80.0463C16.9079 80.0669 16.9125 80.0874 16.9217 80.1057C16.9469 80.1538 17.011 80.1538 17.0384 80.1057C17.0453 80.0943 17.0499 80.0783 17.0545 80.0646C17.0613 80.0371 17.0659 80.0097 17.0728 79.9822C17.0751 79.9753 17.0774 79.9662 17.0842 79.9525C17.0911 79.9959 17.0957 80.0325 17.1048 80.0691C17.114 80.1035 17.1369 80.1218 17.1667 80.1218C17.1964 80.1218 17.2216 80.1057 17.2331 80.0737C17.2399 80.0531 17.2445 80.0303 17.2491 80.0074C17.256 79.9776 17.2628 79.9479 17.2697 79.9113C17.2834 79.9387 17.2903 79.957 17.3017 79.9753C17.3178 80.0005 17.3407 80.0165 17.3704 80.0119C17.4025 80.0097 17.4208 79.9891 17.43 79.9616C17.4368 79.9433 17.4368 79.9227 17.4414 79.9021C17.446 79.8815 17.4437 79.8587 17.4529 79.8335C17.4712 79.8564 17.4826 79.8747 17.4986 79.8907C17.5215 79.9136 17.5444 79.9342 17.5719 79.9525C17.5994 79.9685 17.6337 79.9593 17.6498 79.9342C17.6658 79.909 17.6612 79.877 17.6383 79.8541C17.636 79.8518 17.6314 79.8495 17.6291 79.8472C17.604 79.8198 17.5765 79.7923 17.5536 79.7603C17.5307 79.7306 17.5147 79.6985 17.4941 79.6665C17.4826 79.6482 17.4689 79.6322 17.4551 79.6162C17.4139 79.5796 17.359 79.5933 17.3384 79.6459C17.3338 79.6551 17.3315 79.6665 17.3269 79.6779C17.2697 79.6116 17.2285 79.6162 17.1781 79.6962C17.1758 79.6779 17.1735 79.6642 17.169 79.6505C17.1621 79.6185 17.1575 79.5887 17.1483 79.5567C17.1392 79.5269 17.1117 79.5109 17.0842 79.5109C17.0568 79.5109 17.0316 79.5292 17.0224 79.559C17.0178 79.5727 17.0133 79.5864 17.011 79.6024C17.0041 79.6368 16.9995 79.6734 16.9949 79.7077C16.9927 79.7168 16.9904 79.7237 16.9881 79.7306C16.9812 79.7237 16.9789 79.7168 16.9789 79.7123C16.9652 79.6345 16.9537 79.559 16.94 79.4812C16.9377 79.4698 16.9354 79.4583 16.9308 79.4469C16.9148 79.408 16.8736 79.3965 16.837 79.4171C16.8301 79.4217 16.8232 79.4263 16.8141 79.4309C16.8141 79.4126 16.8141 79.3965 16.8141 79.3828C16.8187 79.3416 16.8209 79.2982 16.8255 79.257C16.8301 79.2089 16.8209 79.1884 16.7751 79.1701C16.7706 79.1678 16.7683 79.1655 16.766 79.1655C16.7591 79.0145 16.8461 78.5478 16.9034 78.422C16.9423 78.4243 16.9698 78.4014 16.9949 78.3762C17.0476 78.3213 17.1003 78.2664 17.1529 78.2115C17.1598 78.2046 17.1667 78.1978 17.1735 78.1932C17.1598 78.2389 17.1438 78.2824 17.1277 78.3259C17.1186 78.3488 17.1094 78.3739 17.1048 78.3968C17.098 78.438 17.1209 78.4677 17.1598 78.4723C17.1758 78.4746 17.185 78.4792 17.1964 78.4906C17.217 78.518 17.2468 78.5249 17.2788 78.5135C17.2995 78.5066 17.3201 78.4952 17.3384 78.4837C17.3865 78.4471 17.43 78.4082 17.4757 78.3693C17.4826 78.3625 17.4918 78.3579 17.5055 78.3465C17.4941 78.3762 17.4826 78.3991 17.4757 78.422C17.4689 78.4448 17.4597 78.47 17.4574 78.4952C17.4529 78.5478 17.4964 78.5798 17.5467 78.5615C17.5559 78.5592 17.565 78.5524 17.5742 78.5478C17.5765 78.5569 17.5788 78.5638 17.5811 78.5707C17.6017 78.6324 17.652 78.6507 17.7047 78.6118C17.7207 78.6004 17.7345 78.5867 17.7482 78.573C17.7619 78.5592 17.778 78.5501 17.8009 78.5478C17.8489 78.5455 17.8718 78.4929 17.8421 78.454C17.8238 78.4265 17.7848 78.4151 17.7505 78.4243C17.7413 78.4265 17.7322 78.4311 17.7184 78.4357C17.7322 78.3762 17.7207 78.3327 17.6566 78.3167C17.6612 78.3053 17.6635 78.2984 17.6681 78.2893C17.6795 78.2618 17.6933 78.2321 17.6978 78.2023C17.7093 78.1451 17.6658 78.104 17.6108 78.1177C17.5902 78.1223 17.5696 78.1314 17.5536 78.1451C17.5032 78.184 17.4574 78.2229 17.4094 78.2641C17.3887 78.2801 17.3704 78.2984 17.3498 78.3167C17.3498 78.3007 17.3544 78.2893 17.359 78.2778C17.3887 78.2161 17.4162 78.1543 17.4483 78.0948C17.4689 78.0559 17.4597 78.0102 17.4185 77.9942C17.4162 77.9919 17.4116 77.9896 17.4094 77.985C17.4231 77.9553 17.4368 77.9278 17.4506 77.9004C17.4551 77.8889 17.462 77.8775 17.4666 77.8638C17.4735 77.8363 17.4666 77.8134 17.4437 77.7974C17.4208 77.7814 17.3933 77.7814 17.3704 77.7997C17.359 77.8066 17.3498 77.818 17.3407 77.8271C17.2834 77.8889 17.2262 77.9507 17.169 78.0102C17.1621 78.017 17.1552 78.0216 17.1506 78.0285C17.1712 77.9827 17.1941 77.9392 17.2193 77.8981C17.2628 77.8226 17.3063 77.7448 17.3498 77.6693C17.375 77.6258 17.3727 77.6075 17.3407 77.5686C17.3384 77.5663 17.3407 77.5641 17.3384 77.5595C17.5742 77.2461 17.881 77.0173 18.2359 76.848C18.2084 76.8732 18.1786 76.896 18.1489 76.9189C18.1306 76.9326 18.11 76.9487 18.0939 76.9647C18.0733 76.9875 18.071 77.0196 18.0871 77.0425C18.1008 77.0653 18.1283 77.0768 18.1557 77.0676C18.1763 77.063 18.1992 77.0539 18.2198 77.0447C18.3 77.0081 18.3824 76.9715 18.4625 76.9326C18.4831 76.9235 18.5038 76.9166 18.5244 76.9098C18.5106 76.9304 18.4946 76.9441 18.4763 76.9578C18.4099 77.0127 18.3435 77.0699 18.2908 77.1385C18.2725 77.1614 18.2565 77.1889 18.245 77.2163C18.229 77.2667 18.2611 77.3101 18.3137 77.3124C18.3343 77.3124 18.3549 77.3101 18.3755 77.3078C18.4007 77.3627 18.4213 77.3742 18.4809 77.3673C18.506 77.365 18.5289 77.3582 18.561 77.3513C18.5427 77.3696 18.5312 77.381 18.5198 77.3948C18.4946 77.4245 18.4671 77.452 18.4488 77.4863C18.4167 77.5458 18.4511 77.6029 18.5198 77.6052C18.5381 77.6052 18.5564 77.6007 18.5747 77.6007C18.5839 77.6007 18.593 77.6007 18.5953 77.6007C18.5953 77.6396 18.593 77.6762 18.5953 77.7105C18.5976 77.7448 18.6205 77.77 18.6526 77.7722C18.6823 77.7745 18.7098 77.7517 18.7167 77.7173C18.719 77.7013 18.7213 77.6853 18.719 77.6693C18.719 77.6281 18.7304 77.5915 18.7602 77.5618C18.767 77.5549 18.7716 77.548 18.7762 77.5389C18.8014 77.4931 18.7739 77.4405 18.7213 77.4382C18.7075 77.4382 18.6915 77.4405 18.6778 77.4428C18.6663 77.4451 18.6549 77.4474 18.6365 77.452C18.6503 77.4359 18.6594 77.4268 18.6686 77.4176C18.6961 77.3856 18.7258 77.3536 18.751 77.3216C18.7716 77.2941 18.7785 77.2598 18.7579 77.2278C18.7373 77.1957 18.7052 77.1912 18.6686 77.1957C18.6572 77.198 18.648 77.198 18.6274 77.198C18.6457 77.182 18.6594 77.1706 18.6709 77.1614C18.7007 77.1362 18.7327 77.1111 18.7602 77.0813C18.7945 77.047 18.7854 76.9944 18.7442 76.9784C18.7213 76.9692 18.7007 76.9738 18.68 76.9853C18.6411 77.0081 18.6022 77.0333 18.5656 77.0562C18.5541 77.063 18.5404 77.0699 18.5289 77.0768C18.5358 77.063 18.5427 77.0562 18.5518 77.0493C18.6182 76.9967 18.6846 76.9441 18.751 76.8892C18.7716 76.8732 18.7922 76.8549 18.806 76.832C18.838 76.7862 18.8151 76.7336 18.7602 76.7222C18.7464 76.7199 18.7304 76.7222 18.7167 76.7245C18.6846 76.729 18.6549 76.7359 18.6251 76.7428C18.6251 76.7405 18.6228 76.7359 18.6228 76.7336C18.6732 76.7107 18.7235 76.6856 18.7739 76.6627C18.8037 76.649 18.822 76.6307 18.822 76.5963C18.822 76.5895 18.822 76.5826 18.822 76.5735C19.0349 76.4865 19.2501 76.3973 19.4654 76.3104C19.4676 76.3127 19.4676 76.3149 19.4699 76.3172C19.4585 76.3264 19.447 76.3378 19.4356 76.347C19.4173 76.363 19.3967 76.379 19.3806 76.3973C19.3555 76.4225 19.3463 76.4522 19.3623 76.4842C19.3784 76.5163 19.4058 76.5254 19.4379 76.5231C19.4654 76.5208 19.4928 76.5163 19.5203 76.5117C19.6096 76.4957 19.7012 76.4774 19.7905 76.4614C19.7836 76.4728 19.7722 76.482 19.7607 76.4888C19.7149 76.5208 19.6668 76.5552 19.621 76.5872C19.6096 76.5963 19.5982 76.6055 19.589 76.6169C19.573 76.6375 19.5661 76.6627 19.5798 76.6879C19.5936 76.713 19.6142 76.7267 19.6417 76.7245C19.6645 76.7222 19.6874 76.7176 19.708 76.7107C19.7722 76.6901 19.8363 76.6695 19.9004 76.649C19.9072 76.6467 19.9164 76.6467 19.9233 76.6444C19.9004 76.6695 19.8729 76.6879 19.8477 76.7062C19.8317 76.7199 19.8134 76.7336 19.8019 76.7496C19.7699 76.7954 19.7973 76.8503 19.8523 76.8549C19.866 76.8571 19.8821 76.8526 19.8958 76.8503C19.9256 76.8457 19.953 76.8388 19.9828 76.832C19.9668 76.848 19.9462 76.8571 19.9278 76.8686C19.8981 76.8846 19.8775 76.9075 19.8821 76.9441C19.8866 76.9807 19.9164 76.9967 19.9485 77.0058C19.9645 77.0104 19.9805 77.0127 19.9942 77.0173C20.0446 77.0333 20.0927 77.0516 20.1293 77.0905C20.1591 77.1202 20.1637 77.1454 20.1454 77.1843C20.1408 77.1934 20.1362 77.2003 20.1339 77.2095C20.1247 77.2369 20.1362 77.2644 20.1591 77.2781C20.182 77.2918 20.2095 77.2895 20.2301 77.2712C20.2392 77.2621 20.2484 77.2506 20.2552 77.2415C20.2965 77.1729 20.2896 77.0928 20.2415 77.0287C20.214 76.9921 20.1774 76.9647 20.1385 76.9418C20.127 76.9349 20.1156 76.9281 20.1018 76.9212C20.1202 76.9075 20.1362 76.896 20.1499 76.8823C20.1797 76.8549 20.2003 76.8228 20.1911 76.7816C20.1797 76.7359 20.1454 76.7199 20.1041 76.7084C20.0927 76.7062 20.0835 76.7039 20.0675 76.7016C20.095 76.6787 20.1202 76.6581 20.1408 76.6375C20.1568 76.6215 20.1728 76.6055 20.1843 76.5872C20.2117 76.5414 20.1889 76.4911 20.1362 76.4797C20.1179 76.4751 20.0973 76.4774 20.0767 76.4797C20.0469 76.482 20.0194 76.4888 19.9897 76.4934C20.0286 76.4614 20.0675 76.4362 20.1087 76.411C20.1225 76.4019 20.1362 76.3927 20.1454 76.3813C20.1637 76.363 20.166 76.3424 20.1591 76.3195C20.1499 76.2944 20.1316 76.2806 20.1041 76.2783C20.0904 76.2783 20.0744 76.2806 20.0606 76.2829C19.9233 76.3104 19.7836 76.3378 19.6462 76.363C19.6371 76.3653 19.6279 76.363 19.6188 76.363C19.7241 76.2829 19.8225 76.2006 19.9393 76.1434C19.9599 76.1319 19.9805 76.1205 19.9851 76.0976C19.9874 76.077 20.0011 76.0702 20.0171 76.061C20.2713 75.9306 20.5185 75.7865 20.7521 75.6218C20.8345 75.5646 20.9169 75.5051 20.9902 75.4365C21.1344 75.3061 21.2649 75.1642 21.3657 74.9949C21.3771 74.9766 21.384 74.956 21.3886 74.9354C21.4092 74.8165 21.4252 74.6975 21.4481 74.5785C21.471 74.4664 21.4939 74.3521 21.5259 74.2422C21.59 74.0272 21.7045 73.8373 21.8282 73.652C21.835 73.6406 21.8465 73.6337 21.8556 73.6223C21.874 73.6337 21.89 73.6429 21.9037 73.6543C21.9449 73.6863 21.9839 73.7184 22.0228 73.755C22.08 73.8076 22.135 73.8648 22.1945 73.9174C22.3479 74.0501 22.4807 74.2056 22.6181 74.3543C22.6409 74.3795 22.6593 74.3864 22.6913 74.3795C22.8424 74.3475 22.9912 74.3155 23.1424 74.2834C23.3003 74.2514 23.4583 74.2308 23.6209 74.2239C23.8224 74.2148 24.0215 74.2217 24.2207 74.256C24.3169 74.272 24.4108 74.2903 24.5001 74.3315C24.5069 74.3338 24.5138 74.3383 24.5229 74.3406C24.5504 74.3475 24.5779 74.336 24.5916 74.3132C24.6054 74.2903 24.6008 74.2605 24.5802 74.24C24.5687 74.2308 24.5573 74.2239 24.5436 74.2171C24.4794 74.1873 24.4108 74.169 24.3421 74.1553C24.2986 74.1462 24.2528 74.1393 24.2093 74.1301C24.2459 73.9677 24.4794 73.5239 24.5779 73.4232C24.6122 73.4438 24.7336 73.5582 24.7702 73.6063C24.7405 73.6085 24.7221 73.6223 24.713 73.6474C24.7061 73.6634 24.6992 73.6795 24.6947 73.6955C24.6786 73.7687 24.6626 73.8396 24.6489 73.9128C24.6443 73.938 24.642 73.9631 24.6443 73.9883C24.6466 74.0295 24.6786 74.0455 24.7153 74.0272C24.7244 74.0226 24.7336 74.018 24.7473 74.0089C24.745 74.0226 24.7427 74.0295 24.7427 74.0364C24.7405 74.0707 24.7634 74.0913 24.7977 74.0844C24.8046 74.0844 24.8114 74.0821 24.816 74.0798C24.8435 74.073 24.8687 74.0798 24.8893 74.1004C24.9374 74.1462 24.9534 74.1988 24.9465 74.2628C24.9419 74.2994 24.9213 74.3292 24.8847 74.3452C24.8732 74.3498 24.8618 74.3543 24.8526 74.3612C24.8366 74.3726 24.8297 74.3887 24.8366 74.407C24.8412 74.423 24.8549 74.4344 24.8732 74.4344C24.8893 74.4344 24.9076 74.4298 24.9236 74.423C24.9946 74.3887 25.0312 74.3292 25.0358 74.2514C25.0381 74.1942 25.0266 74.1393 24.9946 74.0913C24.9603 74.0409 24.9167 73.9997 24.8549 73.9906C24.8549 73.9609 24.8549 73.9311 24.8297 73.9128C24.8023 73.8922 24.7748 73.9037 24.7473 73.9105C24.7496 73.8419 24.7794 73.7206 24.816 73.6429C24.8183 73.6451 24.8206 73.6451 24.8229 73.6474C24.8275 73.6543 24.832 73.6589 24.8389 73.6657C24.99 73.8533 25.0862 74.0684 25.1526 74.2972C25.2052 74.4802 25.2258 74.6701 25.2579 74.8554C25.2831 75.0064 25.306 75.1596 25.3357 75.3106C25.3678 75.4731 25.4021 75.6355 25.4365 75.7979C25.4388 75.8094 25.4388 75.8208 25.4411 75.8322C25.4182 75.8391 25.3998 75.846 25.3815 75.8528C25.3472 75.8688 25.3106 75.8826 25.2762 75.9009C25.2579 75.91 25.2442 75.9283 25.2327 75.9443C25.2213 75.9603 25.2258 75.9786 25.2396 75.9924C25.2533 76.0061 25.2716 76.0061 25.2877 75.9992C25.2945 75.997 25.2991 75.9901 25.3037 75.9878C25.3472 75.9512 25.4021 75.9375 25.4548 75.9192C25.4754 75.9832 25.4548 76.0358 25.4365 76.0907C25.3724 76.093 25.3106 76.0953 25.2487 76.0999C25.2373 76.0999 25.2281 76.0999 25.2167 76.1022C25.1984 76.1068 25.1869 76.1205 25.1869 76.1388C25.1869 76.1594 25.1984 76.1754 25.219 76.1777C25.2327 76.18 25.2464 76.18 25.2579 76.18C25.306 76.18 25.3518 76.18 25.4067 76.18C25.393 76.2143 25.3815 76.2463 25.3678 76.2761C25.3243 76.2761 25.2854 76.2761 25.2487 76.2761C25.2258 76.2761 25.2029 76.2806 25.1823 76.2852C25.1617 76.2898 25.1503 76.3104 25.1526 76.331C25.1549 76.3493 25.1709 76.363 25.1915 76.363C25.2007 76.363 25.2098 76.3607 25.219 76.3607C25.2533 76.3607 25.2899 76.3607 25.3312 76.3607C25.322 76.3813 25.3151 76.395 25.3083 76.411C25.1938 76.6398 25.0518 76.8526 24.9099 77.063C24.6947 77.3879 24.4543 77.6945 24.1955 77.985C23.9803 78.2275 23.7651 78.47 23.5499 78.7125C23.3415 78.9481 23.1446 79.1906 22.9638 79.4469C22.8218 79.6482 22.689 79.8541 22.5837 80.0783C22.5082 80.2384 22.4326 80.4009 22.3822 80.5724C22.325 80.7669 22.2838 80.9637 22.27 81.165C22.2609 81.2862 22.2494 81.4052 22.2563 81.5264C22.2563 81.531 22.254 81.5333 22.254 81.5379C22.2151 81.5379 22.1739 81.5379 22.1304 81.5379C22.1327 81.467 22.135 81.4006 22.1372 81.3343C22.1395 81.3045 22.1281 81.2839 22.1006 81.2748C22.0754 81.2679 22.0502 81.2794 22.0388 81.3045C22.0319 81.3205 22.0274 81.3411 22.0274 81.3594C22.0251 81.3983 22.0274 81.4372 22.0274 81.4738C22.0274 81.4967 22.0251 81.5173 22.0228 81.5379C21.9907 81.5379 21.9655 81.5379 21.9381 81.5379C21.9381 81.5242 21.9358 81.5127 21.9358 81.5013C21.9358 81.4487 21.9358 81.3983 21.9381 81.3457C21.9381 81.316 21.922 81.2908 21.8946 81.2862C21.8694 81.2816 21.8442 81.2977 21.835 81.3274C21.8327 81.3388 21.8305 81.3503 21.8305 81.3617C21.8305 81.4052 21.8305 81.4464 21.8327 81.4898C21.8327 81.5058 21.8327 81.5219 21.8327 81.5379C21.1596 81.5379 20.4911 81.5379 19.8202 81.5379C19.8202 81.5219 19.8179 81.5104 19.8179 81.4967C19.8225 81.4326 19.8271 81.3686 19.834 81.3068C19.8592 81.0803 19.9416 80.8744 20.079 80.6937C20.2049 80.5267 20.3583 80.3871 20.5369 80.2773C20.5849 80.2476 20.633 80.2201 20.6788 80.1881C20.8711 80.0623 21.0772 79.9639 21.2924 79.8861C21.5008 79.8129 21.7137 79.7534 21.9243 79.6962C22.1556 79.6345 22.3799 79.5544 22.5883 79.4309C22.7394 79.3416 22.8653 79.225 22.9729 79.0877C23.108 78.9138 23.1561 78.7194 23.0966 78.502C23.0554 78.3533 22.9684 78.2412 22.8241 78.1772C22.7623 78.1497 22.6982 78.1474 22.6341 78.1657C22.4921 78.2046 22.4143 78.3053 22.4166 78.4426C22.4189 78.518 22.4555 78.5707 22.5196 78.6073C22.5883 78.6462 22.673 78.6118 22.7005 78.5386C22.7188 78.486 22.7028 78.4426 22.6707 78.4014C22.6547 78.3808 22.6272 78.3739 22.6066 78.3854C22.586 78.3945 22.5746 78.4197 22.5814 78.4471C22.586 78.4586 22.5952 78.47 22.5974 78.4837C22.5997 78.4929 22.602 78.5089 22.5952 78.5112C22.5883 78.5158 22.5723 78.5203 22.5631 78.5158C22.5379 78.502 22.5219 78.4814 22.5196 78.4517C22.515 78.3991 22.5288 78.3533 22.5677 78.3167C22.6249 78.2618 22.7188 78.2458 22.7898 78.2801C22.8104 78.2893 22.8287 78.3007 22.8493 78.3144C22.95 78.3831 22.9912 78.4837 23.0096 78.5981C23.0347 78.7468 22.9958 78.8841 22.9065 79.0053C22.8218 79.122 22.7257 79.225 22.6043 79.3027C22.4532 79.3988 22.2952 79.4835 22.1212 79.5338C21.9083 79.5956 21.6954 79.6551 21.4824 79.7191C21.2535 79.7877 21.0314 79.8678 20.8231 79.9868C20.704 80.0531 20.5895 80.1286 20.4728 80.1995C20.3285 80.2865 20.2026 80.3963 20.0881 80.5221C19.8431 80.7921 19.7264 81.1101 19.7149 81.4715C19.7149 81.4944 19.7149 81.5196 19.7149 81.5425C19.6806 81.5425 19.6508 81.5425 19.621 81.5425C19.621 81.4692 19.621 81.4006 19.621 81.3297C19.621 81.2977 19.6119 81.2771 19.5821 81.2679C19.5569 81.2611 19.5318 81.2748 19.5203 81.3C19.5134 81.316 19.5111 81.3366 19.5111 81.3549C19.5111 81.4029 19.5111 81.4532 19.5111 81.5013C19.5111 81.515 19.5111 81.5264 19.5111 81.5402C19.4676 81.5402 19.447 81.5402 19.4241 81.5402Z" fill="white"/>
<path d="M23.1128 75.2968C23.1128 75.3975 23.1219 75.4981 23.1425 75.5988C23.1517 75.6446 23.1654 75.688 23.2021 75.7223C23.2364 75.7521 23.2684 75.7521 23.2913 75.7132C23.3119 75.6743 23.3303 75.6331 23.3394 75.5919C23.3715 75.4776 23.3783 75.3586 23.3669 75.2396C23.36 75.1756 23.3509 75.1115 23.3371 75.0475C23.3303 75.0154 23.3165 74.9834 23.3028 74.956C23.2868 74.9262 23.2639 74.8988 23.2249 74.9033C23.186 74.9079 23.1677 74.9376 23.1585 74.9697C23.1448 75.0177 23.1311 75.0681 23.1242 75.1161C23.1173 75.1733 23.115 75.2351 23.1128 75.2968Z" fill="white"/>
<path d="M24.4289 76.132C24.4655 76.1892 24.5136 76.2327 24.5777 76.2556C24.5915 76.2601 24.6052 76.2624 24.6212 76.2624C24.6418 76.2624 24.6556 76.2464 24.6579 76.2281C24.6601 76.2098 24.651 76.1938 24.6327 76.1869C24.6235 76.1824 24.6144 76.1824 24.6052 76.1778C24.5045 76.1412 24.4816 76.068 24.477 75.9833C24.477 75.9765 24.4793 75.9673 24.4861 75.9627C24.5434 75.9078 24.5594 75.8392 24.5731 75.766C24.5869 75.6859 24.5869 75.6882 24.5136 75.663C24.4289 75.6333 24.3419 75.6356 24.2549 75.6653C24.248 75.6676 24.2412 75.6722 24.2343 75.6745C24.1793 75.7042 24.1679 75.7546 24.2114 75.798C24.2595 75.8461 24.3098 75.8918 24.3625 75.9353C24.3854 75.9536 24.39 75.9719 24.3854 75.9993C24.3648 76.0863 24.3213 76.1549 24.2412 76.2007C24.1519 76.251 24.0466 76.2258 23.9893 76.1389C23.9824 76.1297 23.9779 76.1183 23.971 76.1092C23.9573 76.0931 23.9389 76.0886 23.9206 76.0954C23.9023 76.1046 23.8932 76.1229 23.8977 76.1458C23.9 76.1526 23.9023 76.1618 23.9069 76.1686C23.971 76.2945 24.1313 76.3471 24.2595 76.2853C24.319 76.2556 24.3694 76.2144 24.406 76.1595C24.4106 76.1526 24.4175 76.1435 24.422 76.1366C24.4243 76.1343 24.4266 76.132 24.4289 76.132ZM24.4884 75.7385C24.4907 75.7797 24.477 75.814 24.4632 75.8483C24.4495 75.8781 24.4335 75.8827 24.4083 75.8621C24.3694 75.8278 24.3305 75.7934 24.2915 75.7591C24.287 75.7546 24.2847 75.75 24.2801 75.7408C24.3533 75.7202 24.4197 75.7202 24.4884 75.7385Z" fill="white"/>
<path d="M23.2156 76.4888C23.1584 76.5025 23.1012 76.5139 23.0462 76.5322C22.8264 76.6032 22.6318 76.7198 22.4464 76.8571C22.1991 77.0401 21.9999 77.2643 21.8282 77.516C21.8236 77.5228 21.819 77.5297 21.8167 77.5366C21.8076 77.5571 21.8122 77.58 21.8282 77.5892C21.8442 77.6006 21.8694 77.5983 21.8854 77.58C21.8946 77.5709 21.9015 77.5594 21.9083 77.548C22.032 77.3718 22.167 77.2071 22.3273 77.063C22.5265 76.8868 22.744 76.7404 22.9936 76.6398C23.0623 76.6123 23.1332 76.5871 23.2065 76.578C23.2134 76.578 23.2225 76.5757 23.2294 76.5734C23.2569 76.5666 23.2706 76.5505 23.2683 76.5254C23.266 76.5025 23.2477 76.4933 23.2156 76.4888Z" fill="white"/>
<path d="M22.8154 76.2256C22.4835 76.2234 22.1652 76.2966 21.8538 76.4087C21.7302 76.4521 21.6111 76.5047 21.4967 76.5665C21.4829 76.5734 21.4715 76.5802 21.46 76.5894C21.444 76.6031 21.4394 76.6237 21.4486 76.6397C21.4577 76.6557 21.4761 76.6649 21.4967 76.658C21.5081 76.6534 21.5218 76.6466 21.5333 76.642C21.8195 76.491 22.1217 76.3926 22.44 76.34C22.6437 76.3057 22.8498 76.3057 23.0558 76.3194C23.081 76.3217 23.1062 76.3217 23.1314 76.3194C23.1612 76.3171 23.1749 76.2988 23.1726 76.276C23.1703 76.2531 23.1543 76.2394 23.1245 76.2371C23.0215 76.2348 22.9185 76.2302 22.8154 76.2256Z" fill="white"/>
<path d="M24.8575 75.0888C24.8621 75.1963 24.8758 75.329 24.8987 75.4594C24.9056 75.4937 24.9125 75.5281 24.9193 75.5601C24.9262 75.5967 24.9537 75.6127 24.9834 75.6241C25.0041 75.631 25.0224 75.6264 25.0384 75.6127C25.0567 75.5944 25.0727 75.5761 25.0773 75.5486C25.0911 75.4869 25.0956 75.4228 25.0911 75.3588C25.0819 75.2284 25.0636 75.098 25.0361 74.9698C25.0292 74.9355 25.0132 74.9012 24.9995 74.8692C24.988 74.844 24.9674 74.828 24.9399 74.8303C24.9125 74.8326 24.8942 74.8509 24.885 74.876C24.8621 74.9355 24.8552 74.9996 24.8575 75.0888Z" fill="white"/>
<path d="M22.318 75.9124C22.0753 75.9146 21.8555 75.949 21.638 76.0039C21.5899 76.0153 21.5418 76.029 21.496 76.0405C21.4846 76.0428 21.4731 76.0473 21.4617 76.0496C21.4342 76.0588 21.4228 76.0794 21.4296 76.1022C21.4365 76.1251 21.4571 76.1366 21.4869 76.1297C21.5579 76.1114 21.6311 76.0908 21.7021 76.0748C21.9059 76.0267 22.1142 75.9947 22.3248 75.997C22.5446 75.9993 22.7599 76.0359 22.9705 76.1045C22.9888 76.1114 23.0048 76.116 23.0232 76.1205C23.0323 76.1228 23.0415 76.1251 23.0506 76.1228C23.0689 76.1205 23.085 76.1045 23.0896 76.0862C23.0918 76.0679 23.0804 76.0496 23.0621 76.0428C23.0438 76.0359 23.0254 76.0336 23.0094 76.0267C22.8904 75.9878 22.769 75.9581 22.6477 75.9375C22.5309 75.9238 22.4164 75.9169 22.318 75.9124Z" fill="white"/>
<path d="M21.9422 74.1438C21.9514 74.1576 21.9605 74.169 21.9697 74.1827C21.9811 74.1987 21.9971 74.2079 22.0178 74.201C22.0384 74.1942 22.0475 74.1782 22.0452 74.1553C22.0452 74.1438 22.0406 74.1347 22.0384 74.1232C22.0155 74.0317 21.9811 73.9471 21.9399 73.8624C21.9193 73.8213 21.8987 73.7801 21.8781 73.7389C21.8644 73.7137 21.8437 73.7069 21.8231 73.716C21.8025 73.7252 21.7957 73.7481 21.8025 73.7732C21.8048 73.7824 21.8117 73.7915 21.8163 73.803C21.8415 73.8533 21.8666 73.9059 21.8918 73.9562C21.901 73.9768 21.9101 73.9974 21.9193 74.0203C21.9101 74.0203 21.9033 74.0226 21.8987 74.0226C21.8552 74.0249 21.83 74.0523 21.8346 74.0958C21.8369 74.1232 21.846 74.1507 21.8529 74.1804C21.8415 74.1804 21.8323 74.1804 21.8209 74.1804C21.7659 74.1827 21.7316 74.2125 21.7178 74.2651C21.7087 74.3063 21.711 74.3474 21.7178 74.3886C21.7361 74.5122 21.7842 74.6174 21.8827 74.6975C21.9193 74.7249 21.9559 74.7478 22.0017 74.7615C22.0109 74.7638 22.0223 74.7661 22.0338 74.7684C22.0544 74.7684 22.0704 74.757 22.075 74.7387C22.0796 74.7203 22.0704 74.7043 22.0544 74.6952C22.0498 74.6906 22.0429 74.6906 22.0361 74.6883C21.9033 74.6403 21.8323 74.5419 21.8071 74.4069C21.8002 74.3749 21.798 74.3406 21.8002 74.3086C21.8002 74.272 21.814 74.2651 21.8506 74.2742C21.8689 74.2788 21.885 74.2857 21.9033 74.2925C21.9239 74.2971 21.9422 74.2994 21.9582 74.2811C21.9743 74.2651 21.972 74.2445 21.9651 74.2239C21.9559 74.201 21.9468 74.1782 21.9353 74.1553C21.9376 74.1461 21.9399 74.1461 21.9422 74.1438Z" fill="white"/>
</g>
<defs>
<clipPath id="clip0_1341_8205">
<rect width="13" height="9" fill="white" transform="matrix(-1 0 0 1 28 73)"/>
</clipPath>
</defs>
</svg>
