<svg width="518" height="435" viewBox="0 0 518 435" fill="none" xmlns="http://www.w3.org/2000/svg">
<path d="M75.4897 187.18C75.0897 185.49 74.0097 184.26 72.6597 183.33C65.1697 178.17 57.8997 172.75 51.3497 166.41C44.2597 159.55 38.2497 151.88 33.3797 143.27C29.7097 136.79 26.4397 130.16 24.2997 123.03C22.7197 117.75 21.5397 112.39 20.6597 106.93C19.4397 99.3499 18.9297 91.7499 19.2997 84.1099C19.6697 76.3599 20.5197 68.6499 23.9397 61.4999C24.1097 61.1499 24.2896 60.7899 24.5096 60.4699C24.9296 59.8799 25.3597 59.1799 26.2397 59.5299C27.0197 59.8399 27.1797 60.5399 27.1297 61.3299C26.9397 64.1599 26.9196 66.9899 27.0096 69.8199C27.1996 75.9099 28.5297 81.7899 29.9897 87.6599C32.5097 97.7499 36.3696 107.33 40.5096 116.84C44.8696 126.86 50.7396 135.79 58.6996 143.32C59.6796 144.24 60.6396 144.68 62.0096 144.68C72.6896 144.63 83.3597 144.69 94.0397 144.61C95.5597 144.6 96.4397 145.12 97.2597 146.32C104.51 156.98 111.83 167.6 119.06 178.27C120.4 180.24 122.08 181.61 124.17 182.72C133.07 187.45 141.6 192.75 149.36 199.25C156.06 204.86 159.85 211.99 161.64 220.46C163.06 227.16 163.22 233.9 163.14 240.68C163.13 241.86 163.4 242.85 164.06 243.81C173.82 258.01 183.58 272.22 193.31 286.45C194.09 287.59 194.6 287.7 195.43 286.49C205.78 271.33 216.16 256.2 226.53 241.06C228.65 237.97 230.72 234.84 232.94 231.82C233.85 230.58 233.77 229.65 232.95 228.45C222.43 213.17 211.93 197.88 201.43 182.58C193.13 170.49 184.82 158.4 176.52 146.3C176.27 145.93 175.79 145.6 175.98 145.1C176.22 144.45 176.87 144.68 177.36 144.66C178.22 144.63 179.07 144.65 179.93 144.65C233.11 144.65 286.29 144.65 339.47 144.66C340.16 144.66 341.11 144.28 341.49 144.97C341.89 145.68 341.01 146.23 340.62 146.8C327.02 166.67 313.4 186.52 299.78 206.38C294.79 213.65 289.83 220.94 284.76 228.14C283.71 229.63 283.73 230.56 284.79 232.08C295.98 248.26 307.06 264.5 318.18 280.73C319.48 282.63 320.82 284.51 322.08 286.43C322.8 287.53 323.29 287.78 324.17 286.49C333.81 272.36 343.5 258.27 353.19 244.17C353.95 243.07 354.39 242 354.35 240.54C354.18 233.1 354.54 225.68 356.3 218.4C358.5 209.31 363.74 202.35 371.15 196.75C378.63 191.1 386.61 186.3 394.85 181.89C396.41 181.06 397.36 179.81 398.28 178.46C405.62 167.78 412.97 157.11 420.25 146.39C421.13 145.1 422.05 144.6 423.62 144.61C434.1 144.68 444.58 144.61 455.05 144.69C456.8 144.7 458.01 144.1 459.22 142.94C467.05 135.46 472.78 126.59 477.09 116.71C480.58 108.71 483.92 100.66 486.32 92.2599C489.21 82.1799 491.43 71.9899 490.41 61.3799C490.33 60.5899 490.42 59.8599 491.18 59.5199C492.15 59.0799 492.65 59.8699 493.05 60.5299C494.48 62.8399 495.35 65.4099 495.99 68.0199C498.01 76.2499 498.75 84.6299 498.3 93.0799C497.86 101.35 496.82 109.55 494.72 117.61C489.46 137.78 478.94 154.73 463.64 168.78C458.35 173.64 452.7 178.06 446.67 181.96C444.87 183.13 443.47 184.63 442.12 186.23C441.85 186.55 441.55 187.19 441.69 187.44C441.95 187.91 442.44 187.61 442.87 187.37C453.08 181.71 463.4 176.23 473.14 169.76C479.15 165.77 483.82 160.4 488.35 154.92C495.15 146.69 501.36 138.04 506.52 128.67C509 124.17 511.15 119.54 512.47 114.57C512.79 113.38 512.73 112.09 512.81 110.85C512.87 109.86 513.1 108.89 514.21 108.77C515.36 108.65 515.63 109.56 515.9 110.54C518.04 118.16 517.31 125.72 516.04 133.4C514.36 143.52 511.48 153.22 507.12 162.47C500.89 175.68 492.08 186.47 479.24 194.04C464.32 202.83 448.95 210.58 432.95 217.15C429.37 218.62 425.79 220.09 422.13 221.31C418.51 222.52 415.46 224.28 413.78 227.87C413.58 228.3 412.8 228.61 413.3 229.17C413.69 229.61 414.32 229.3 414.79 229.13C421.9 226.61 429.18 224.62 436.41 222.49C444.83 220.01 453.23 217.44 461.69 215.09C469.48 212.93 476.81 209.81 483.45 205.2C491.87 199.36 499.47 192.58 506.29 184.93C507.65 183.41 509.02 181.9 510.32 180.32C510.93 179.58 511.6 179.1 512.52 179.5C513.49 179.92 513.43 180.79 513.27 181.7C509.67 202.03 498.24 217.05 481.6 228.57C472.84 234.64 463.37 239.28 453.2 242.4C446.81 244.37 440.29 245.83 433.62 246.68C426.52 247.59 419.42 248.59 412.38 249.88C406.9 250.88 401.55 252.49 396.36 254.56C396 254.7 395.61 254.87 395.33 255.13C394.61 255.78 393.37 256.59 393.8 257.42C394.28 258.37 395.39 257.35 396.22 257.14C401.32 255.83 406.46 254.76 411.74 254.57C418.67 254.33 425.53 254.73 432.38 255.93C435.86 256.54 439.45 256.19 443 255.62C455.47 253.62 466.65 248.44 477.34 241.99C477.68 241.79 478 241.55 478.34 241.36C479.08 240.94 479.87 240.37 480.69 241.11C481.46 241.81 481.16 242.69 480.81 243.49C479.27 246.99 477.48 250.35 475.21 253.43C466.63 265.13 455.05 272.47 441.27 276.49C434.65 278.42 427.84 279.08 420.97 278.15C418.71 277.85 416.47 277.2 414.3 276.5C410.18 275.16 405.93 274.88 401.67 274.63C395.4 274.26 389.21 275.16 383.02 275.94C381.99 276.07 380.92 276.27 380.06 276.94C379.75 277.17 379.41 277.54 379.59 277.94C379.8 278.4 380.26 278.2 380.62 278.08C385.93 276.29 391.16 277.46 396.35 278.64C403.45 280.26 410.28 282.9 417.44 284.25C421.16 284.95 424.94 284.82 428.66 284.38C432.23 283.96 435.84 283.55 439.28 282.34C439.95 282.11 440.8 281.98 441.28 282.69C441.86 283.53 441.62 284.47 441.22 285.33C439.61 288.79 437.25 291.69 434.33 294.12C428.98 298.58 422.82 301.31 415.88 301.74C409.43 302.13 403.61 300.03 398.39 296.17C391.53 291.09 383.9 288.04 375.29 287.55C373.48 287.45 372.27 287.89 371.4 289.49C370.82 290.56 370.06 291.54 369.22 292.8C370.95 292.77 372.09 291.89 373.37 291.53C377.21 290.45 380.64 291.54 384.05 292.98C387.8 294.56 391.16 296.86 393.84 299.84C397.27 303.66 401.59 305.01 406.4 305.58C410.81 306.1 415.21 306.04 419.61 305.59C420.61 305.49 421.7 305.32 422.23 306.41C422.77 307.51 421.7 308.06 421.1 308.68C415.43 314.6 408.41 317.83 400.32 318.35C394.79 318.7 390.18 316.26 386.22 312.39C380.56 306.86 374.52 301.8 367.57 297.89C366.24 297.14 365.67 297.32 365.25 298.58C364.58 300.63 363.94 302.69 363.38 304.77C362.47 308.15 361.16 311.36 359.64 314.5C359.05 315.72 359.31 315.96 360.61 315.86C365.79 315.47 369.03 317.98 370.25 323.14C371.01 326.38 371.51 329.7 373.55 332.53C374.42 333.74 373.47 334.47 372.34 334.83C365.27 337.08 359.38 333.32 358.52 325.95C358.27 323.8 357.38 321.77 357.74 319.41C356.62 319.6 356.42 320.36 356.05 320.91C353.24 325.1 349.87 328.77 345.74 331.71C345.11 332.16 344.5 332.78 343.65 332.73C341.93 332.62 341.05 333.71 340.2 334.95C335.45 341.9 330.68 348.84 325.93 355.79C325.3 356.71 324.62 357.61 324.06 358.58C323.35 359.82 322.86 359.59 322.15 358.54C314.59 347.45 307 336.39 299.41 325.32C287.87 308.5 276.33 291.69 264.79 274.88C263.15 272.49 261.47 270.13 259.9 267.7C258.99 266.3 258.47 266.41 257.55 267.75C247.4 282.64 237.2 297.51 227 312.37C217.32 326.47 207.62 340.56 197.94 354.66C197.05 355.96 196.15 357.26 195.3 358.6C194.7 359.55 194.28 359.83 193.5 358.68C188.15 350.78 182.73 342.93 177.38 335.03C176.48 333.71 175.57 332.76 173.79 332.68C172.29 332.61 171.26 331.35 170.14 330.46C166.46 327.52 163.39 324.02 160.91 320C160.78 319.79 160.59 319.62 160.19 319.15C159.81 321.26 159.47 323.08 159.16 324.91C158.75 327.32 158.2 329.66 156.84 331.75C155.35 334.02 153.3 335.2 150.56 335.14C148.72 335.1 146.86 335.23 145.05 334.77C143.88 334.47 142.97 333.83 143.94 332.55C146.05 329.76 146.4 326.37 147.29 323.17C147.72 321.64 148.25 320.16 149.18 318.87C151.02 316.27 153.75 315.61 156.68 315.87C158.46 316.03 158.41 315.71 157.73 314.28C155.53 309.65 153.88 304.82 152.74 299.81C152.21 297.46 151.42 297.16 149.4 298.27C142.54 302.06 136.73 307.22 131.06 312.53C127.85 315.53 124.37 317.73 119.87 318.21C114.55 318.78 109.73 317.24 105.06 315.05C101.64 313.45 98.6396 311.19 96.0496 308.43C95.5096 307.86 94.8597 307.25 95.3197 306.37C95.7497 305.57 96.5597 305.47 97.3897 305.56C102.85 306.15 108.3 306.18 113.72 305.17C117 304.56 120.03 303.55 122.44 301.03C125.97 297.34 129.98 294.29 134.81 292.41C139.06 290.76 143.23 290.53 147.35 292.77C147.5 292.85 147.71 292.82 148.28 292.88C147.15 290.93 146.08 289.27 144.73 287.82C144.25 287.3 143.53 287.44 142.86 287.48C134.01 287.97 126.08 290.99 119.01 296.26C114.16 299.88 108.71 301.9 102.69 301.78C96.5897 301.66 90.9597 299.68 85.9097 296.17C82.0197 293.46 78.6996 290.23 76.5896 285.91C76.3896 285.5 76.2397 285.06 76.0797 284.64C75.8097 283.94 75.6496 283.24 76.2896 282.63C76.9096 282.05 77.6296 282.2 78.3396 282.39C83.9496 283.94 89.6397 284.68 95.4797 284.65C100.44 284.63 105.04 283.08 109.72 281.81C116.18 280.06 122.5 277.77 129.26 277.32C131.84 277.15 134.38 277.12 136.84 278.05C137.2 278.19 137.64 278.37 137.84 277.86C138.01 277.42 137.71 277.03 137.37 276.88C136.53 276.52 135.66 276.11 134.77 275.99C130.21 275.34 125.64 274.82 121.04 274.61C113.61 274.26 106.4 275.37 99.2996 277.53C94.2196 279.08 88.9497 278.87 83.8297 278.06C69.1497 275.75 56.5396 269.3 46.3396 258.37C42.3096 254.05 39.1897 249.12 36.8197 243.72C36.4597 242.91 35.9096 241.97 36.8096 241.17C37.7896 240.3 38.6496 241.01 39.4796 241.54C47.4896 246.66 56.0096 250.76 65.0896 253.5C72.5496 255.75 80.1196 256.93 88.0296 255.51C96.6196 253.96 105.34 254.06 113.98 255.46C116.63 255.89 119.21 256.73 121.81 257.38C122.48 257.55 123.13 258.02 123.94 257.54C123.51 256.21 122.67 255.18 121.42 254.69C115.67 252.45 109.77 250.78 103.68 249.68C94.8796 248.09 85.9497 247.42 77.1897 245.66C55.5396 241.29 36.3397 232.14 21.1097 215.74C13.6097 207.67 8.27965 198.33 5.57965 187.55C5.12965 185.77 4.97965 183.93 4.36965 182.18C4.06965 181.33 3.75965 180.13 4.93965 179.55C6.08965 178.98 6.74965 179.85 7.40965 180.62C12.8997 187.12 18.9097 193.12 25.4097 198.62C34.5097 206.32 44.5396 212.14 56.1897 215.2C65.6897 217.7 75.0296 220.79 84.4697 223.51C90.6396 225.29 96.8197 227.04 102.88 229.16C103.3 229.31 103.85 229.53 104.18 229.14C104.56 228.68 103.98 228.34 103.81 227.94C101.93 223.28 97.5596 222.14 93.4697 220.59C73.3596 212.96 54.0396 203.78 35.7496 192.38C24.0996 185.12 16.4396 174.76 10.5296 162.77C7.55965 156.75 5.23965 150.46 3.63965 143.96C1.45965 135.08 -0.410348 126.11 0.329652 116.86C0.519652 114.5 1.18965 112.21 1.77965 109.92C1.96965 109.16 2.45965 108.74 3.16965 108.76C3.99965 108.78 4.47965 109.4 4.55965 110.19C5.68965 122.18 12.4697 131.61 18.8197 141.15C24.5097 149.71 30.9096 157.76 38.3596 164.9C42.9596 169.31 48.4296 172.49 53.8996 175.66C60.6696 179.58 67.5097 183.36 74.3297 187.19C74.5996 187.34 74.9597 187.34 75.2697 187.41C75.3897 187.5 75.5896 187.68 75.6196 187.66C75.9096 187.44 75.6697 187.31 75.4897 187.18ZM258.79 177.07C255.5 177.07 252.21 177.06 248.92 177.08C248.43 177.08 247.78 176.84 247.51 177.46C247.3 177.95 247.77 178.28 248.02 178.65C251.23 183.3 254.45 187.93 257.61 192.62C258.41 193.81 258.89 194.09 259.82 192.7C263 187.95 266.28 183.28 269.52 178.57C269.77 178.2 270.22 177.84 269.92 177.36C269.63 176.9 269.09 177.08 268.65 177.08C265.37 177.06 262.08 177.07 258.79 177.07Z" fill="#E2D500"/>
<path d="M259 97.57C230.07 97.57 201.14 97.56 172.21 97.6C170.27 97.6 169.65 96.96 169.43 95.02C168.62 88.04 167.82 81.05 166.56 74.13C166.04 71.29 165.41 68.48 164.67 65.69C164.32 64.37 163.97 63.28 162.02 63.84C160.18 64.37 158.12 62.88 157.17 60.85C156.39 59.18 156.91 57 158.42 55.65C159.87 54.36 162.15 54.07 163.73 54.98C165.78 56.17 166.86 58.18 166.09 60.28C165.55 61.76 166.18 62.27 167.17 62.93C173.69 67.21 180.55 70.76 188.22 72.45C191.45 73.17 194.85 73.3 198.04 72.51C202.31 71.45 204.09 67.83 204.97 63.91C206.48 57.15 206.15 50.31 205.26 43.49C205.06 41.99 204.89 40.49 204.74 38.98C204.62 37.83 204.25 37.2 202.88 36.93C199.24 36.24 197.17 32.85 197.99 29.38C198.73 26.3 201.97 24.49 205.44 25.22C209.53 26.09 211.23 31.46 208.36 34.83C207.52 35.82 207.59 36.45 208.28 37.35C213.64 44.38 219.21 51.22 226.08 56.85C228.77 59.06 231.64 60.99 235.16 61.8C237.31 62.3 239.06 61.76 240.64 60.41C244.11 57.45 245.96 53.41 247.68 49.35C251.3 40.81 253.8 31.91 255.77 22.86C256.13 21.19 256.58 19.55 257.04 17.9C257.45 16.45 257.29 15.51 255.66 14.79C252.65 13.46 251.04 9.77004 251.8 6.69004C252.55 3.66004 255.76 0.970039 258.77 0.840039C261.79 0.720039 265.19 3.25004 266 6.23004C266.96 9.78004 265.65 13.14 262.44 14.78C261.2 15.41 260.7 15.92 261.03 17.43C262.37 23.52 263.85 29.56 265.59 35.55C267.35 41.61 269.4 47.55 272.22 53.21C273.1 54.98 274.06 56.7 275.34 58.22C279.04 62.62 281.38 63.14 286.7 60.39C292.96 57.16 297.64 52 302.19 46.79C304.87 43.72 307.28 40.41 309.86 37.25C310.61 36.33 310.64 35.71 309.8 34.74C307.91 32.57 307.87 29.63 309.45 27.46C310.98 25.36 314.11 24.42 316.52 25.34C318.92 26.25 320.64 29.06 320.38 31.64C320.13 34.12 317.87 36.55 315.24 36.97C314.25 37.13 313.49 37.2 313.35 38.46C312.71 44.15 311.89 49.83 312.09 55.56C312.23 59.42 312.5 63.3 314.13 66.93C315.75 70.53 318.3 72.58 322.43 72.84C329.82 73.3 336.41 70.91 342.78 67.63C345.46 66.25 348.03 64.64 350.64 63.13C351.56 62.6 352.05 62.12 351.52 60.8C350.49 58.24 352.05 55.27 354.48 54.58C357.18 53.82 360 55.57 360.63 58.42C361.19 60.92 358.72 63.89 355.94 63.86C354.54 63.84 353.89 64.09 353.45 65.59C351.95 70.58 351.17 75.69 350.47 80.82C349.81 85.64 349.19 90.46 348.62 95.29C348.41 97.07 347.57 97.59 345.76 97.59C316.86 97.55 287.93 97.57 259 97.57Z" fill="#E2D500"/>
<path d="M258.81 101.16C287.73 101.16 316.65 101.16 345.58 101.16C348.14 101.16 348.15 101.16 348.11 103.79C348 111.09 347.86 118.4 347.78 125.7C347.76 127.73 347.89 129.77 348.02 131.81C348.11 133.2 347.52 133.76 346.17 133.64C345.84 133.61 345.51 133.63 345.18 133.63C287.6 133.63 230.02 133.63 172.44 133.63C169.51 133.63 169.53 133.63 169.52 130.78C169.5 121.69 169.52 112.6 169.39 103.51C169.36 101.56 169.97 101.11 171.84 101.11C200.84 101.17 229.83 101.16 258.81 101.16ZM242.72 118.47C242.81 119.52 242.83 120.58 243.02 121.6C243.66 125.02 246.14 127.51 249.2 127.93C251.97 128.31 254.86 126.54 256.21 123.51C257.7 120.15 257.62 116.7 256.23 113.36C255.17 110.81 253.08 109.2 250.33 109.04C247.74 108.89 245.7 110.21 244.29 112.45C243.1 114.31 242.7 116.32 242.72 118.47ZM231.6 109.15C230.4 108.92 229.19 109.25 228.02 109.73C226.56 110.33 225.39 111.3 224.97 112.87C224.59 114.28 225.28 115.35 226.51 115.95C227.58 116.48 228.68 116.21 229.27 115.17C230.01 113.87 228.94 113.32 228 112.77C227.11 112.25 227.15 111.57 227.99 111.12C229.37 110.38 230.87 110.08 232.31 110.97C233.68 111.82 233.85 113.17 233.57 114.62C233.34 115.83 232.63 116.78 231.77 117.62C230.26 119.09 228.74 120.54 227.23 122.01C226.02 123.19 225.28 124.66 224.9 126.28C224.76 126.88 224.59 127.71 225.53 127.87C226.33 128.01 226.37 127.3 226.57 126.73C227.29 124.62 227.73 124.47 229.57 125.65C230.23 126.07 230.83 126.6 231.51 127C235.29 129.23 239.15 127.09 239.32 122.71C239.34 122.25 239.47 121.71 238.86 121.58C238.4 121.48 238.18 121.89 238.04 122.28C237.29 124.29 235.72 124.63 233.86 124.27C232.17 123.94 230.48 123.75 228.77 124.08C228.44 124.14 228.07 124.26 227.86 123.96C227.59 123.58 227.82 123.2 228.07 122.89C229.05 121.7 230.33 120.9 231.68 120.2C233.31 119.35 235.02 118.61 236.54 117.6C239.72 115.49 239.46 111.83 236.05 110.09C234.71 109.4 233.24 109 231.6 109.15ZM287.93 117.49C287.94 117.49 287.94 117.49 287.93 117.49C287.94 115.38 287.95 113.27 287.94 111.17C287.93 109.26 287.27 108.76 285.51 109.5C283.98 110.14 282.47 110.74 280.78 110.74C280.33 110.74 279.7 110.8 279.7 111.35C279.69 112.15 280.44 111.94 280.9 111.95C282.8 111.96 283.39 112.97 283.34 114.74C283.26 117.5 283.32 120.27 283.32 123.04C283.32 125.67 283.08 125.94 280.52 126.34C280.09 126.41 279.46 126.31 279.52 126.97C279.58 127.61 280.2 127.46 280.63 127.46C283.86 127.47 287.09 127.47 290.31 127.46C290.81 127.46 291.62 127.6 291.64 126.99C291.67 126.18 290.81 126.36 290.27 126.35C288.62 126.29 287.91 125.44 287.93 123.83C287.95 121.7 287.93 119.6 287.93 117.49ZM270.22 117.29C270.23 115.25 270.24 113.21 270.22 111.17C270.21 109.26 269.51 108.74 267.8 109.52C266.34 110.19 264.9 110.74 263.28 110.74C262.86 110.74 262.2 110.67 262.23 111.32C262.26 111.97 262.94 111.79 263.34 111.83C265.22 112.03 265.86 113.03 265.77 114.9C265.63 117.72 265.69 120.56 265.75 123.39C265.79 125.21 265.15 126.31 263.19 126.34C262.76 126.35 262.1 126.26 262.1 126.88C262.09 127.69 262.84 127.45 263.31 127.46C266.47 127.48 269.63 127.47 272.79 127.46C273.23 127.46 273.86 127.53 273.92 126.96C273.99 126.29 273.31 126.37 272.9 126.36C270.8 126.32 270.23 125.02 270.22 123.22C270.22 121.23 270.22 119.26 270.22 117.29Z" fill="#E2D500"/>
<path d="M143.22 416.32C144.09 404.57 145.54 393.41 147.16 382.27C147.36 380.87 147.87 380.6 149.14 380.62C153.22 380.69 157.32 380.77 161.39 380.59C163.28 380.51 163.72 381.27 163.85 382.88C164.32 388.72 164.88 394.56 165.38 400.39C165.86 405.96 166.3 411.53 166.94 417.11C167.39 412.34 167.83 407.57 168.29 402.8C168.96 395.79 169.94 388.81 170.98 381.84C171.12 380.92 171.47 380.63 172.36 380.63C176.58 380.66 180.79 380.66 185.01 380.63C185.93 380.62 186.25 380.82 186.12 381.87C184.93 391.01 183.81 400.16 182.66 409.3C181.69 417.01 180.63 424.7 179.79 432.43C179.58 434.37 178.98 434.91 177.05 434.85C171.98 434.7 166.9 434.74 161.83 434.83C160.37 434.86 159.81 434.45 159.53 432.97C157.94 424.63 156.56 416.26 155.25 407.82C154.47 412.94 153.69 418.07 152.9 423.19C152.37 426.64 151.78 430.07 151.32 433.53C151.18 434.57 150.8 434.82 149.83 434.81C144.23 434.77 138.63 434.77 133.03 434.81C132.02 434.82 131.66 434.45 131.54 433.48C130.22 422.83 128.91 412.19 127.52 401.55C126.69 395.16 126.14 388.72 124.9 382.38C124.61 380.91 125.06 380.58 126.46 380.61C130.28 380.69 134.11 380.75 137.92 380.59C139.73 380.52 140.07 381.22 140.2 382.82C141.06 393.65 142.02 404.47 142.95 415.3C142.98 415.5 143.06 415.68 143.22 416.32Z" fill="#E2D500"/>
<path d="M300.91 408.21C300.47 411.17 300.03 414.13 299.58 417.08C298.74 422.61 297.87 428.13 297.08 433.66C296.94 434.64 296.5 434.8 295.66 434.8C290.06 434.78 284.46 434.76 278.86 434.81C277.75 434.82 277.43 434.43 277.29 433.37C275.65 420.18 273.97 406.99 272.29 393.81C271.8 389.96 271.36 386.1 270.77 382.27C270.56 380.88 270.97 380.59 272.26 380.61C276.15 380.68 280.04 380.72 283.92 380.59C285.46 380.54 285.82 381.17 285.92 382.49C286.35 388.27 286.81 394.04 287.29 399.81C287.68 404.44 288.11 409.07 288.53 413.75C289.49 413.55 289.21 412.89 289.25 412.45C290.12 402.48 291.43 392.57 292.79 382.66C293.02 380.97 293.62 380.54 295.26 380.59C299.34 380.72 303.43 380.68 307.51 380.6C308.79 380.58 309.35 380.85 309.47 382.27C310.21 391.32 311.04 400.36 311.84 409.41C312.03 411.6 312.21 413.79 312.81 415.97C313.1 412.82 313.41 409.68 313.68 406.53C314.39 398.4 315.43 390.31 316.66 382.24C316.81 381.23 316.98 380.57 318.3 380.6C322.38 380.69 326.47 380.66 330.55 380.61C331.7 380.6 332 380.93 331.85 382.09C329.76 398.27 327.73 414.46 325.66 430.64C325.13 434.78 325.09 434.78 321 434.78C316.45 434.78 311.91 434.74 307.36 434.81C306.08 434.83 305.58 434.5 305.32 433.16C303.7 424.91 302.38 416.6 300.91 408.21Z" fill="#E2D500"/>
<path d="M379.26 403.98C379.89 402.98 379.55 402.18 379.55 401.43C379.58 395.17 379.63 388.92 379.53 382.66C379.5 380.97 380.05 380.54 381.66 380.6C384.88 380.72 388.11 380.67 391.34 380.62C392.43 380.6 392.83 380.9 392.83 382.05C392.8 399.17 392.8 416.29 392.83 433.42C392.83 434.62 392.37 434.83 391.32 434.81C387.7 434.76 384.07 434.75 380.45 434.82C379.28 434.84 378.76 434.5 378.39 433.33C376.35 426.8 374.19 420.31 372.07 413.81C371.88 413.22 371.63 412.65 371.03 412.15C371.03 414.75 371.03 417.34 371.03 419.94C371.03 424.35 370.98 428.77 371.06 433.18C371.08 434.5 370.66 434.86 369.38 434.83C366.15 434.74 362.92 434.75 359.7 434.83C358.49 434.86 357.99 434.62 358 433.24C358.05 416.25 358.05 399.26 358 382.27C358 380.96 358.39 380.59 359.67 380.63C362.9 380.71 366.13 380.72 369.35 380.63C370.63 380.59 371.17 381.04 371.58 382.22C374.07 389.41 376.64 396.59 379.26 403.98Z" fill="#E2D500"/>
<path d="M234.3 403.66C234.3 396.7 234.37 389.73 234.25 382.77C234.22 381 234.71 380.52 236.44 380.6C239.53 380.75 242.63 380.68 245.72 380.62C246.83 380.6 247.36 380.79 247.36 382.1C247.32 399.22 247.32 416.34 247.35 433.45C247.35 434.49 247.04 434.82 246 434.8C242.25 434.75 238.49 434.72 234.74 434.81C233.53 434.84 233.36 434.12 233.1 433.3C230.89 426.48 228.66 419.67 226.44 412.86C226.34 412.57 226.23 412.28 226.1 411.92C225.35 412.5 225.68 413.21 225.68 413.8C225.65 420.19 225.62 426.57 225.7 432.96C225.72 434.46 225.3 434.87 223.82 434.82C220.66 434.71 217.5 434.73 214.34 434.81C213.1 434.84 212.63 434.56 212.63 433.2C212.67 416.21 212.67 399.23 212.63 382.24C212.63 380.92 213.05 380.56 214.33 380.6C217.55 380.68 220.79 380.72 224.01 380.59C225.43 380.53 225.92 381.12 226.34 382.34C228.63 388.99 231.01 395.61 233.36 402.24C233.53 402.72 233.73 403.2 233.92 403.68C234.04 403.68 234.17 403.67 234.3 403.66Z" fill="#E2D500"/>
<path d="M335.58 407.76C335.58 399.33 335.62 390.9 335.55 382.48C335.54 381 335.94 380.57 337.42 380.61C341.43 380.71 345.45 380.71 349.47 380.61C350.9 380.58 351.22 381.08 351.21 382.41C351.17 399.33 351.17 416.25 351.21 433.18C351.21 434.48 350.84 434.85 349.53 434.83C345.45 434.75 341.36 434.74 337.28 434.83C335.86 434.86 335.53 434.4 335.54 433.05C335.61 424.62 335.58 416.19 335.58 407.76Z" fill="#E2D500"/>
<path d="M205.83 407.85C205.83 416.21 205.8 424.57 205.86 432.94C205.87 434.38 205.56 434.88 204.03 434.84C199.95 434.73 195.86 434.77 191.78 434.82C190.67 434.84 190.32 434.53 190.32 433.39C190.35 416.27 190.35 399.15 190.32 382.03C190.32 380.86 190.75 380.6 191.82 380.62C195.97 380.67 200.12 380.7 204.27 380.61C205.68 380.58 205.86 381.18 205.85 382.37C205.81 390.87 205.83 399.36 205.83 407.85Z" fill="#E2D500"/>
<path d="M385.03 330.81C382.51 330.86 378.76 330.03 376.13 326.49C375.22 325.26 374.63 323.89 374.28 322.39C373.04 317.14 370.18 313.23 364.97 311.27C364.26 311.01 363.37 310.74 363.31 309.79C363.25 308.88 363.99 308.41 364.66 307.99C370.47 304.3 376.48 304.28 380.6 310.89C384.63 317.35 390.79 321.61 397.21 325.45C397.99 325.92 399.01 326.19 398.98 327.34C398.94 328.63 397.8 328.74 396.89 329.07C393.57 330.27 390.14 330.76 385.03 330.81Z" fill="#E2D500"/>
<path d="M130.7 330.77C127.05 330.78 123.52 330.13 120.08 328.91C119.33 328.65 118.72 328.37 118.57 327.57C118.4 326.63 119.04 326.14 119.76 325.73C124.59 322.99 129.07 319.8 132.97 315.82C134.78 313.98 136.27 311.9 137.72 309.79C142.03 303.47 148.93 304.98 153.59 308.59C154.68 309.43 154.34 310.32 153.23 310.91C152.48 311.3 151.63 311.52 150.89 311.92C146.94 314.02 144.48 317.34 143.4 321.6C141.87 327.65 138.31 330.62 132.09 330.77C131.63 330.78 131.16 330.77 130.7 330.77Z" fill="#E2D500"/>
<path d="M247.77 118.39C247.77 116.62 247.7 114.85 247.79 113.08C247.86 111.73 248.25 110.3 249.84 110.15C251.48 109.99 251.95 111.47 252.02 112.67C252.26 116.71 252.5 120.77 251.87 124.81C251.69 125.97 251.1 126.9 249.88 126.83C248.71 126.76 247.99 125.76 247.92 124.67C247.79 122.58 247.88 120.48 247.88 118.39C247.85 118.39 247.81 118.39 247.77 118.39Z" fill="#E2D500"/>
</svg>
