<svg width="40" height="40" viewBox="0 0 40 40" fill="none" xmlns="http://www.w3.org/2000/svg">
<path d="M1.05486 7.56249C0.734863 7.24249 0.578613 6.83624 0.578613 6.34374C0.578613 5.85124 0.734863 5.44499 1.05486 5.12499C1.37486 4.80499 1.78111 4.64874 2.27361 4.64874H37.9136C38.4061 4.64874 38.8124 4.80499 39.1324 5.12499C39.4524 5.44499 39.6086 5.85124 39.6086 6.34374C39.6086 6.83624 39.4524 7.24249 39.1324 7.56249C38.8124 7.88249 38.4061 8.03874 37.9136 8.03874H2.27361C1.78111 8.03874 1.37486 7.88249 1.05486 7.56249ZM39.1324 18.7037C39.4524 19.0237 39.6086 19.43 39.6086 19.9225C39.6086 20.415 39.4524 20.8212 39.1324 21.1412C38.8124 21.4612 38.4061 21.6175 37.9136 21.6175H2.27361C1.78111 21.6175 1.37486 21.4612 1.05486 21.1412C0.734863 20.8212 0.578613 20.415 0.578613 19.9225C0.578613 19.43 0.734863 19.0237 1.05486 18.7037C1.37486 18.3837 1.78111 18.2275 2.27361 18.2275H37.9136C38.4061 18.2275 38.8124 18.3837 39.1324 18.7037ZM39.1324 32.2737C39.4524 32.5937 39.6086 33 39.6086 33.4925C39.6086 33.985 39.4524 34.3912 39.1324 34.7112C38.8124 35.0312 38.4061 35.1875 37.9136 35.1875H2.27361C1.78111 35.1875 1.37486 35.0312 1.05486 34.7112C0.734863 34.3912 0.578613 33.985 0.578613 33.4925C0.578613 33 0.734863 32.5937 1.05486 32.2737C1.37486 31.9537 1.78111 31.7975 2.27361 31.7975H37.9136C38.4061 31.7975 38.8124 31.9612 39.1324 32.2737Z" fill="black"/>
</svg>
