<svg width="35" height="35" viewBox="0 0 35 35" fill="none" xmlns="http://www.w3.org/2000/svg">
<path d="M20.1546 20.6325L24.7809 25.2589L20.8567 29.1831L12.8832 26.034L5.48486 7.66595L6.33644 6.81437L17.7233 18.2012C17.4668 18.5352 17.3405 18.951 17.3679 19.3712C17.3954 19.7914 17.5747 20.1873 17.8725 20.4851C18.1702 20.7828 18.5661 20.9622 18.9863 20.9896C19.4065 21.0171 19.8224 20.8908 20.1563 20.6343L20.1546 20.6325ZM7.66594 5.4953L6.81958 6.34166L18.2255 17.7476C18.5581 17.5409 18.9509 17.4528 19.3399 17.4977C19.7289 17.5425 20.0914 17.7176 20.3683 17.9945C20.6452 18.2714 20.8203 18.6338 20.8651 19.0228C20.9099 19.4119 20.8218 19.8046 20.6151 20.1372L25.2588 24.7809L29.1831 20.8567L26.034 12.8832L7.66594 5.4953Z" fill="white" stroke="black" stroke-linecap="round" stroke-linejoin="round"/>
<path d="M29.7746 21.5032L21.5352 29.7427L24.321 32.5286L32.5605 24.2891L29.7746 21.5032Z" fill="black" stroke="black" stroke-linecap="round" stroke-linejoin="round"/>
<path d="M20.3598 18.0013C20.6364 18.2779 20.8116 18.6398 20.857 19.0284C20.9024 19.417 20.8154 19.8095 20.61 20.1424L25.2537 24.7861L29.1779 20.8619L26.0288 12.8884L20.716 10.749C20.4439 13.0311 20.0253 15.2933 19.463 17.5217C19.8034 17.5875 20.116 17.7547 20.3598 18.0013Z" fill="#5BE9B9" stroke="black" stroke-linecap="round" stroke-linejoin="round"/>
<path d="M20.857 29.1831L24.7812 25.2589L20.1548 20.6325C19.9244 20.8 19.6563 20.9084 19.3742 20.9481C19.0921 20.9878 18.8046 20.9576 18.5368 20.8602C17.7843 23.3506 16.9571 25.5682 16.2237 27.3444L20.857 29.1831Z" fill="#6E07F3" stroke="black" stroke-linecap="round" stroke-linejoin="round"/>
</svg>
