<svg width="500" height="400" viewBox="0 0 500 400" fill="none" xmlns="http://www.w3.org/2000/svg">
<path d="M67.7193 337.379C33.1983 314.656 16.0323 268.719 20.7763 226.275C22.8633 207.602 28.6793 189.312 28.2473 170.517C27.9783 158.829 25.2883 147.339 24.5793 135.671C21.8533 90.8465 50.3603 47.6215 88.9373 28.0865C127.514 8.55153 173.891 10.5625 213.917 26.5765C229.747 32.9095 245.122 41.3945 261.948 43.4855C290.193 46.9955 317.454 32.0575 345.769 29.2345C399.097 23.9185 450.341 65.0125 469.393 117.502C488.445 169.991 479.491 230.216 456.078 280.729C443.252 308.401 423.946 335.737 395.663 343.94C385.636 346.848 375.103 347.136 364.699 347.124C310.857 347.059 256.283 339.329 203.239 352.207C161.511 362.337 105.123 362 67.7193 337.379Z" fill="#F3F3FF"/>
<path d="M272.973 132.008L266.974 113.268L258.169 114.575C257.001 112.975 255.713 111.485 254.322 110.113L257.083 101.585L239.59 92.5751L234.148 99.9131C232.292 99.6191 230.405 99.4671 228.5 99.4631L224.334 91.3081L205.594 97.3071L206.938 106.366C205.39 107.475 203.942 108.695 202.602 110.012L193.911 107.198L184.901 124.691L192.101 130.03C191.766 131.955 191.582 133.916 191.56 135.897L183.633 139.947L189.632 158.687L198.196 157.416C199.392 159.131 200.725 160.725 202.172 162.19L199.524 170.37L217.017 179.38L222.038 172.61C224.14 172.981 226.285 173.171 228.452 173.168L232.273 180.648L251.013 174.649L249.78 166.341C251.546 165.085 253.182 163.684 254.678 162.162L262.697 164.758L271.707 147.265L264.801 142.143C265.128 140.11 265.287 138.038 265.265 135.947L272.973 132.008ZM234.945 156.728C223.672 160.337 211.605 154.122 207.997 142.849C204.388 131.576 210.603 119.509 221.876 115.901C233.149 112.292 245.215 118.507 248.824 129.78C252.433 141.053 246.218 153.119 234.945 156.728Z" fill="#D7D2FF"/>
<path d="M257.028 133.424L253.17 121.373L247.508 122.213C246.757 121.184 245.928 120.226 245.034 119.343L246.81 113.859L235.561 108.065L232.062 112.784C230.869 112.595 229.655 112.497 228.43 112.494L225.751 107.25L213.7 111.108L214.564 116.933C213.568 117.646 212.637 118.431 211.775 119.278L206.186 117.468L200.392 128.717L205.022 132.15C204.807 133.388 204.689 134.649 204.674 135.923L199.576 138.527L203.434 150.578L208.941 149.761C209.71 150.864 210.567 151.889 211.498 152.831L209.795 158.091L221.044 163.885L224.273 159.531C225.625 159.769 227.004 159.892 228.398 159.89L230.855 164.7L242.906 160.843L242.113 155.5C243.249 154.692 244.301 153.792 245.262 152.813L250.419 154.483L256.213 143.234L251.772 139.94C251.982 138.633 252.084 137.3 252.071 135.956L257.028 133.424ZM232.574 149.321C225.325 151.642 217.565 147.645 215.245 140.396C212.924 133.147 216.921 125.387 224.17 123.067C231.419 120.747 239.179 124.743 241.499 131.992C243.82 139.241 239.823 147 232.574 149.321Z" fill="#E8E6FC"/>
<path d="M194.078 162.016V129.346L179.493 126.955C178.455 123.834 177.173 120.826 175.669 117.952L184.352 105.865L161.251 82.7641L148.932 91.6131C146.146 90.2091 143.239 89.0131 140.229 88.0421L137.769 73.0381H105.099L102.639 88.0421C99.6301 89.0131 96.7221 90.2091 93.9361 91.6131L81.6171 82.7641L58.5161 105.864L67.1981 117.951C65.6941 120.826 64.4111 123.834 63.3741 126.954L48.7891 129.345V162.015L62.9741 164.34C63.9981 167.657 65.2981 170.853 66.8441 173.902L58.5161 185.497L81.6171 208.598L92.9831 200.434C96.1191 202.084 99.4151 203.471 102.843 204.563L105.099 218.325H137.769L140.025 204.563C143.453 203.471 146.749 202.084 149.884 200.434L161.25 208.598L184.351 185.497L176.023 173.902C177.569 170.853 178.869 167.657 179.893 164.34L194.078 162.016ZM121.434 181.856C101.781 181.856 85.8471 165.922 85.8471 146.269C85.8471 126.616 101.781 110.682 121.434 110.682C141.087 110.682 157.021 126.616 157.021 146.269C157.021 165.921 141.087 181.856 121.434 181.856Z" fill="#C3B7FC"/>
<path d="M121.434 191.691C96.0638 191.691 75.4238 171.051 75.4238 145.681C75.4238 120.311 96.0638 99.6709 121.434 99.6709C146.804 99.6709 167.444 120.311 167.444 145.681C167.445 171.051 146.805 191.691 121.434 191.691ZM121.434 114.687C104.344 114.687 90.4408 128.591 90.4408 145.68C90.4408 162.77 104.344 176.673 121.434 176.673C138.524 176.673 152.427 162.769 152.427 145.68C152.427 128.591 138.524 114.687 121.434 114.687Z" fill="#D7D2FF"/>
<path d="M428.337 168.737V144.097L417.337 142.294C416.554 139.94 415.587 137.672 414.453 135.503L421.001 126.386L403.578 108.963L394.287 115.637C392.186 114.578 389.993 113.676 387.723 112.944L385.868 101.628H361.228L359.373 112.944C357.103 113.676 354.91 114.578 352.809 115.637L343.518 108.963L326.095 126.386L332.643 135.503C331.509 137.671 330.541 139.94 329.759 142.294L318.759 144.097V168.737L329.457 170.491C330.229 172.993 331.209 175.403 332.376 177.703L326.095 186.448L343.518 203.871L352.09 197.713C354.455 198.958 356.941 200.004 359.526 200.827L361.228 211.206H385.868L387.569 200.827C390.155 200.003 392.64 198.958 395.005 197.713L403.577 203.871L421 186.448L414.719 177.703C415.885 175.403 416.865 172.993 417.638 170.491L428.337 168.737ZM373.548 183.701C358.726 183.701 346.708 171.683 346.708 156.861C346.708 142.039 358.726 130.021 373.548 130.021C388.37 130.021 400.388 142.039 400.388 156.861C400.388 171.683 388.37 183.701 373.548 183.701Z" fill="#D7D2FF"/>
<path d="M373.548 191.119C354.413 191.119 338.846 175.552 338.846 156.417C338.846 137.282 354.413 121.715 373.548 121.715C392.683 121.715 408.25 137.282 408.25 156.417C408.25 175.552 392.683 191.119 373.548 191.119ZM373.548 133.041C360.659 133.041 350.172 143.527 350.172 156.417C350.172 169.307 360.658 179.793 373.548 179.793C386.437 179.793 396.923 169.307 396.923 156.417C396.923 143.527 386.438 133.041 373.548 133.041Z" fill="#C3B7FC"/>
<path d="M93.1017 327.81C93.8897 329.264 94.7957 330.664 95.8257 332.007C103.731 342.278 118.956 346.127 130.759 340.968C131.525 340.637 132.274 340.269 133.008 339.856C134.193 339.191 135.296 338.46 136.321 337.659C146.185 330.031 148.884 316.685 147.326 303.67L147.324 303.665C147.1 301.823 146.796 299.992 146.412 298.184C144.733 290.226 141.563 282.733 137.612 277.146C137.186 276.541 136.746 275.948 136.29 275.363C135.369 274.172 134.39 273.012 133.395 271.874C130.214 268.256 126.756 264.829 123.722 261.163C122.914 260.192 122.137 259.202 121.405 258.184C119.628 255.732 118.1 253.127 117.012 250.263C115.195 245.488 114.757 240.389 114.344 235.272C114.183 233.297 114.024 231.328 113.797 229.364C113.552 227.278 113.222 225.218 112.717 223.187C111.601 218.71 109.644 214.513 107.205 210.582C106.429 209.324 105.599 208.091 104.725 206.891C103.766 205.56 102.756 204.26 101.718 202.998C96.7607 196.973 91.0377 191.59 84.7337 186.987C84.7307 186.982 84.7307 186.982 84.7307 186.982C83.6887 186.223 82.6287 185.484 81.5537 184.766L81.5507 184.761C78.2817 182.574 74.8717 180.589 71.3557 178.828C70.1127 178.199 68.8527 177.605 67.5837 177.034C63.0347 175.003 58.3297 173.33 53.5077 172.054C51.9057 171.635 50.1117 171.31 48.4277 171.352C48.3437 171.352 48.2587 171.352 48.1757 171.357C46.7097 171.422 45.6647 172.465 45.3867 173.691C45.1697 174.61 45.3777 175.62 46.1387 176.403C49.6507 180.02 52.5597 184.223 54.7287 188.772C55.3427 190.045 55.8987 191.346 56.3867 192.67C57.5717 195.848 58.4117 199.151 58.8657 202.507C59.0517 203.839 59.1747 205.175 59.2357 206.519C59.2367 206.577 59.2427 206.633 59.2427 206.691C59.5217 213.378 58.3957 220.264 57.7757 227.017C57.6297 228.547 57.5147 230.075 57.4517 231.587C57.1827 237.588 57.6747 243.416 60.3007 248.823C61.1897 250.654 62.2867 252.344 63.5167 253.94C64.7367 255.528 66.0917 257.029 67.4987 258.499C71.3687 262.543 75.6477 266.33 78.7397 270.977C81.0527 274.459 82.6187 278.256 83.7357 282.251C84.1467 283.721 84.5017 285.224 84.8057 286.743C85.7607 291.495 86.2677 296.433 86.7887 301.358C86.9377 302.779 87.0917 304.197 87.2567 305.611C87.9887 311.895 88.9637 318.056 91.1747 323.665C91.7257 325.083 92.3647 326.469 93.1017 327.81Z" fill="#5BE9B9"/>
<path d="M93.1017 327.811C97.3337 327.938 101.573 328.05 105.8 328.166L119.231 328.545C122.05 328.623 125.196 329.077 128.141 328.948C129.465 332.856 130.383 336.857 130.76 340.97C131.526 340.639 132.275 340.271 133.009 339.858C134.194 339.193 135.297 338.462 136.322 337.661C135.741 334.084 134.812 330.555 133.617 327.102C135.301 325.494 136.306 323.025 137.447 321.041C139.603 317.279 141.757 313.512 143.888 309.736C145.031 307.712 146.182 305.691 147.327 303.672L147.325 303.667C147.101 301.825 146.797 299.994 146.413 298.186C144.746 300.983 143.117 303.795 141.471 306.595C139.382 310.163 137.304 313.74 135.235 317.324C134.246 319.031 133.273 320.743 132.282 322.444C132.189 322.597 132.102 322.734 132.016 322.871C130.17 318.39 127.929 314.056 125.496 309.94C124.577 308.383 123.617 306.852 122.641 305.328C123.892 303.612 124.585 301.13 125.339 299.492C127.019 295.825 128.717 292.156 130.388 288.485C132.14 284.635 133.858 280.768 135.595 276.912C135.827 276.396 136.06 275.88 136.292 275.364C135.371 274.173 134.392 273.013 133.397 271.875C131.181 276.132 129.463 280.799 127.521 284.957C125.976 288.264 124.467 291.593 122.943 294.917C122.143 296.667 121.349 298.415 120.547 300.16C120.343 300.611 120.181 301.01 120.018 301.364C116.813 296.626 113.44 291.99 110.183 287.281C111.513 285.652 112.387 283.439 113.3 281.78C115.101 278.493 116.879 275.197 118.56 271.847C120.33 268.307 122.061 264.753 123.725 261.165C122.917 260.194 122.14 259.204 121.408 258.186C121.357 258.287 121.311 258.387 121.257 258.482C119.413 262.016 117.582 265.551 115.67 269.052C113.869 272.352 112.075 275.656 110.237 278.934C109.424 280.385 108.669 282.206 107.653 283.567C104.269 278.494 101.101 273.297 98.5117 267.744C97.3127 265.177 96.3167 262.583 95.4927 259.955C97.3647 258.046 98.9557 255.395 100.45 253.529C102.919 250.437 105.362 247.331 107.759 244.181C109.984 241.253 112.234 238.307 114.346 235.274C114.185 233.299 114.026 231.33 113.799 229.366C110.775 233.121 107.935 237.039 104.999 240.858C102.817 243.695 100.634 246.532 98.4107 249.336C97.2367 250.809 96.0607 252.276 94.8767 253.74C94.6357 254.038 94.3707 254.426 94.0917 254.84C93.2817 251.374 92.7237 247.832 92.3377 244.198C92.1487 242.432 91.9777 240.663 91.7957 238.899C92.7417 238.038 93.3547 236.789 93.9947 235.729C95.1067 233.894 96.1937 232.046 97.2587 230.18C99.1247 226.921 100.935 223.624 102.614 220.269C104.213 217.081 105.771 213.859 107.207 210.583C106.431 209.325 105.601 208.092 104.727 206.892C104.661 207.032 104.593 207.168 104.525 207.303C102.845 210.671 101.231 214.068 99.4627 217.399C97.7927 220.561 96.1057 223.712 94.3417 226.826C93.4647 228.378 92.5657 229.926 91.6487 231.463C91.4657 231.774 91.2747 232.154 91.0727 232.552C90.5817 228.817 89.9357 225.113 88.9077 221.454C87.1737 215.283 84.7007 209.344 81.5837 203.76C81.7057 203.373 81.8077 202.969 81.8937 202.546C82.5237 199.527 82.9967 196.463 83.4917 193.421C83.8287 191.369 84.3047 189.194 84.7337 186.989C84.7307 186.984 84.7307 186.984 84.7307 186.984C83.6887 186.225 82.6287 185.486 81.5537 184.768C81.2277 186.432 80.9427 188.084 80.6097 189.647C80.0457 192.297 79.4687 194.948 78.9337 197.604C78.8777 197.909 78.8247 198.447 78.7527 199.058C76.2877 195.256 73.5027 191.665 70.4437 188.316C71.1567 185.948 71.0587 182.859 71.2027 181.012C71.2567 180.305 71.3057 179.573 71.3557 178.829C70.1127 178.2 68.8527 177.606 67.5837 177.035C67.5687 177.9 67.5447 178.756 67.4827 179.604C67.3487 181.317 67.1797 183.026 66.9617 184.725C63.0257 180.906 58.7307 177.497 54.0417 174.62C52.2717 173.536 50.3877 172.401 48.4267 171.353C48.3427 171.353 48.2577 171.353 48.1747 171.358C46.7087 171.423 45.6637 172.466 45.3857 173.692C45.5467 173.774 45.6997 173.854 45.8507 173.941C48.9497 175.685 51.9207 177.65 54.7457 179.805C58.0757 182.354 61.2287 185.113 64.1677 188.088C61.0257 188.399 57.8777 188.595 54.7277 188.773C55.3417 190.046 55.8977 191.347 56.3857 192.671C58.5377 192.5 60.6857 192.306 62.8347 192.098C64.2417 191.962 65.9887 192.042 67.4467 191.603C68.4057 192.693 69.3407 193.8 70.2377 194.951C72.1327 197.362 73.8807 199.893 75.4767 202.518C75.3977 202.502 75.3157 202.494 75.2557 202.489C69.8577 202.101 64.3357 202.069 58.8657 202.507C59.0517 203.839 59.1747 205.175 59.2357 206.519C59.2367 206.577 59.2427 206.633 59.2427 206.691C60.7057 206.549 62.1787 206.442 63.6577 206.378C66.6767 206.24 69.7077 206.228 72.7237 206.339C74.2457 206.398 76.1607 206.817 77.8377 206.675C81.7817 214.139 84.4987 222.234 85.7077 230.615C85.9287 232.153 86.0997 233.693 86.2517 235.236C85.1617 234.928 84.0447 234.463 83.2617 234.242C81.3987 233.722 79.5347 233.201 77.6667 232.683C74.1207 231.696 70.5717 230.704 67.0257 229.717C63.9617 228.86 60.8777 227.916 57.7757 227.019C57.6297 228.549 57.5147 230.077 57.4517 231.589C61.4767 232.669 65.5277 233.653 69.4777 234.755C73.5847 235.902 77.6917 237.049 81.7957 238.191C83.1607 238.575 84.9137 239.309 86.6497 239.705C87.0277 244.331 87.3567 248.966 88.1857 253.542C88.4457 254.964 88.7557 256.37 89.1097 257.769C87.9977 257.555 86.8517 257.182 86.1187 257.042C84.3357 256.712 82.5477 256.398 80.7577 256.11C77.3557 255.551 73.9397 255.077 70.5187 254.676C68.2017 254.402 65.8687 254.148 63.5177 253.941C64.7377 255.529 66.0927 257.03 67.4997 258.5C69.4427 258.698 71.3907 258.92 73.3397 259.187C77.1197 259.703 80.8767 260.314 84.6237 261.014C86.3227 261.33 88.4417 262.085 90.4017 262.204C91.9777 266.991 94.0627 271.611 96.4827 276.039C98.0217 278.866 99.7487 281.692 101.589 284.525C95.7187 283.248 89.7317 282.511 83.7367 282.253C84.1477 283.723 84.5027 285.226 84.8067 286.745C85.4647 286.776 86.1247 286.813 86.7847 286.862C90.5677 287.143 94.3267 287.616 98.0647 288.268C100.167 288.628 102.639 289.468 104.946 289.552C108.007 294.031 111.233 298.545 114.333 303.137C111.477 303.005 108.585 302.668 105.77 302.511C102.078 302.3 98.3797 302.09 94.6877 301.879C92.0627 301.726 89.4277 301.538 86.7907 301.359C86.9397 302.78 87.0937 304.198 87.2587 305.612C90.5797 305.766 93.8997 305.888 97.1977 306.077C101.474 306.328 105.755 306.576 110.028 306.821C111.972 306.934 113.921 307.045 115.865 307.158C116.253 307.182 116.654 307.22 117.06 307.255C120.768 312.993 124.145 318.862 126.644 324.944C126.638 324.947 126.631 324.944 126.625 324.946C118.641 324.706 110.663 324.463 102.684 324.22C98.8927 324.106 95.0357 323.833 91.1757 323.666C91.7257 325.084 92.3647 326.47 93.1017 327.811Z" fill="#15B881"/>
<path d="M125.293 318.524C124.903 325.198 122.708 332.528 118.953 338.754C118.396 339.678 117.807 340.576 117.181 341.444C113.827 346.113 109.502 349.912 104.327 351.954C90.1358 357.55 74.0638 357.748 60.2928 350.797C57.1428 349.205 53.9088 346.561 52.5108 343.511C51.9898 342.378 51.7238 341.189 51.8078 339.979C51.8528 339.368 51.9878 338.752 52.2228 338.133C52.7858 336.655 53.8868 335.438 55.1018 334.423C57.7978 332.172 61.1838 330.758 64.6798 330.428C52.8148 329.15 40.2268 325.858 32.6198 316.662C31.3908 315.177 30.2948 313.415 29.8678 311.572C29.6348 310.582 29.5988 309.567 29.8388 308.558C29.8768 308.4 29.9218 308.242 29.9738 308.093C30.7928 305.6 33.2528 303.848 35.8258 303.2C38.5578 302.511 41.4278 302.833 44.2258 303.16C32.5338 298.063 23.6328 286.999 21.1558 274.485C20.4758 271.053 20.5038 267.061 22.0038 264.058C22.4908 263.076 23.1368 262.197 23.9638 261.482C24.3208 261.176 24.7078 260.896 25.1318 260.653C28.4838 258.719 32.7188 259.699 36.3478 261.042C45.3348 264.369 53.5948 269.643 60.3978 276.392C59.2518 273.11 58.9358 269.434 60.1328 266.171C61.3288 262.905 64.2058 260.158 67.6528 259.693C67.7328 259.684 67.8138 259.674 67.8948 259.667C69.2668 259.518 70.5958 259.717 71.8718 260.157C74.8918 261.204 77.6068 263.616 79.8738 266.011C86.9858 273.532 92.9978 282.092 97.6558 291.333C98.5268 288.957 99.4308 286.525 101.104 284.626C101.972 283.64 103.106 282.826 104.335 282.362C105.409 281.96 106.556 281.825 107.666 282.083C107.73 282.099 107.794 282.114 107.855 282.131C109.251 282.514 110.413 283.46 111.48 284.438C120.819 293 126.036 305.875 125.293 318.524Z" fill="#5BE9B9"/>
<path d="M105.428 331.84C109.837 334.334 114.347 336.65 118.954 338.754C122.478 340.365 126.058 341.852 129.7 343.201C131.624 343.913 130.711 346.974 128.781 346.258C124.853 344.801 120.986 343.193 117.182 341.443C112.052 339.09 107.041 336.48 102.153 333.652C98.805 336.241 95.202 338.464 91.348 340.224C79.272 345.736 65.312 346.99 52.511 343.512C51.99 342.379 51.724 341.19 51.808 339.98C67.743 344.796 85.779 341.856 99.197 331.905C90.04 326.387 81.347 320.143 73.033 313.423C59.08 318.425 43.33 317.639 29.867 311.573C29.634 310.583 29.598 309.568 29.838 308.559C29.876 308.401 29.921 308.243 29.973 308.094C42.397 314.075 56.93 315.141 70.129 311.045C66.037 307.646 62.033 304.141 58.117 300.554C45.486 288.988 33.684 276.571 22.002 264.059C22.489 263.077 23.135 262.198 23.962 261.483C29.869 267.808 35.801 274.106 41.854 280.292C53.015 291.691 64.615 302.721 77.129 312.629C79.164 303.322 77.575 293.507 76.232 284.205C74.972 275.464 72.329 267.162 67.893 259.668C69.265 259.519 70.594 259.718 71.87 260.158C72.704 261.671 73.477 263.22 74.181 264.804C77.894 273.162 79.227 281.966 80.34 290.969C81.318 298.894 81.892 306.97 79.89 314.783C81.177 315.775 82.471 316.76 83.78 317.724C89.854 322.212 96.152 326.421 102.665 330.247C104.495 326.516 105.905 322.596 106.885 318.554C109.793 306.575 108.861 293.775 104.332 282.362C105.406 281.96 106.553 281.825 107.663 282.083C107.945 282.824 108.212 283.573 108.467 284.324C113.692 299.789 112.619 317.191 105.428 331.84Z" fill="#B0EED9"/>
<path d="M406.512 331.453C405.64 332.922 404.647 334.331 403.53 335.676C394.954 345.96 379.08 349.32 367.102 343.516C366.324 343.144 365.566 342.734 364.825 342.277C363.628 341.543 362.519 340.743 361.493 339.875C351.618 331.601 349.37 317.713 351.504 304.34L351.507 304.335C351.813 302.443 352.2 300.564 352.669 298.713C354.724 290.564 358.299 282.957 362.604 277.348C363.068 276.741 363.546 276.146 364.04 275.561C365.04 274.368 366.096 273.211 367.169 272.076C370.6 268.469 374.308 265.071 377.588 261.409C378.461 260.44 379.304 259.448 380.101 258.427C382.035 255.967 383.718 253.34 384.956 250.426C387.025 245.57 387.683 240.323 388.316 235.057C388.562 233.025 388.805 230.998 389.119 228.98C389.456 226.836 389.88 224.723 390.484 222.646C391.817 218.069 394.007 213.815 396.684 209.855C397.536 208.588 398.443 207.348 399.394 206.144C400.438 204.809 401.533 203.508 402.656 202.247C408.017 196.227 414.144 190.901 420.838 186.403C420.841 186.398 420.841 186.398 420.841 186.398C421.948 185.656 423.071 184.937 424.211 184.239L424.214 184.234C427.677 182.108 431.278 180.196 434.98 178.52C436.289 177.921 437.613 177.358 438.947 176.82C443.726 174.907 448.651 173.369 453.681 172.248C455.352 171.88 457.217 171.617 458.954 171.728C459.041 171.731 459.129 171.734 459.213 171.743C460.724 171.869 461.76 172.988 461.998 174.266C462.186 175.223 461.93 176.258 461.112 177.036C457.34 180.628 454.167 184.851 451.743 189.459C451.057 190.749 450.432 192.069 449.874 193.417C448.522 196.65 447.522 200.026 446.918 203.472C446.672 204.84 446.492 206.214 446.374 207.599C446.371 207.659 446.362 207.716 446.359 207.776C445.801 214.668 446.685 221.823 447.053 228.82C447.142 230.405 447.198 231.988 447.203 233.551C447.238 239.757 446.495 245.755 443.565 251.231C442.574 253.085 441.373 254.786 440.038 256.384C438.715 257.975 437.255 259.469 435.743 260.93C431.584 264.949 427.013 268.685 423.633 273.358C421.105 276.859 419.335 280.716 418.02 284.796C417.536 286.297 417.109 287.834 416.734 289.39C415.556 294.258 414.833 299.335 414.096 304.398C413.885 305.859 413.669 307.317 413.441 308.77C412.431 315.229 411.176 321.55 408.666 327.251C408.043 328.694 407.327 330.098 406.512 331.453Z" fill="#5BE9B9"/>
<path d="M406.512 331.454C402.137 331.414 397.757 331.358 393.387 331.308L379.506 331.156C376.593 331.122 373.326 331.464 370.291 331.212C368.766 335.193 367.657 339.288 367.102 343.518C366.324 343.146 365.566 342.736 364.825 342.279C363.628 341.545 362.519 340.745 361.493 339.877C362.237 336.207 363.339 332.602 364.712 329.085C363.038 327.357 362.101 324.768 361.002 322.673C358.928 318.702 356.856 314.726 354.809 310.741C353.711 308.605 352.604 306.472 351.503 304.341L351.506 304.336C351.812 302.444 352.199 300.565 352.668 298.714C354.276 301.669 355.844 304.638 357.431 307.596C359.443 311.364 361.445 315.141 363.435 318.925C364.387 320.727 365.322 322.534 366.277 324.331C366.367 324.492 366.451 324.638 366.535 324.783C368.622 320.231 371.11 315.847 373.789 311.696C374.801 310.126 375.854 308.584 376.923 307.049C375.7 305.227 375.085 302.636 374.374 300.915C372.788 297.061 371.183 293.204 369.606 289.347C367.953 285.301 366.335 281.24 364.698 277.189C364.479 276.647 364.26 276.105 364.04 275.563C365.04 274.37 366.096 273.213 367.169 272.078C369.285 276.563 370.869 281.45 372.707 285.821C374.168 289.297 375.592 292.795 377.031 296.288C377.786 298.128 378.536 299.964 379.293 301.798C379.485 302.272 379.637 302.69 379.791 303.063C383.292 298.3 386.961 293.651 390.514 288.921C389.207 287.186 388.393 284.866 387.518 283.116C385.791 279.65 384.089 276.175 382.489 272.649C380.804 268.923 379.161 265.183 377.588 261.411C378.461 260.442 379.304 259.45 380.101 258.429C380.15 258.536 380.193 258.64 380.245 258.741C382.006 262.464 383.754 266.188 385.586 269.879C387.313 273.359 389.031 276.842 390.796 280.301C391.577 281.832 392.282 283.742 393.277 285.189C396.976 280.089 400.457 274.85 403.354 269.222C404.695 266.621 405.829 263.982 406.785 261.303C404.93 259.257 403.394 256.455 401.927 254.468C399.503 251.176 397.106 247.871 394.758 244.522C392.579 241.409 390.375 238.277 388.317 235.06C388.563 233.028 388.806 231.001 389.12 228.983C392.091 232.982 394.864 237.142 397.742 241.203C399.88 244.22 402.019 247.238 404.201 250.222C405.353 251.79 406.508 253.352 407.672 254.912C407.908 255.23 408.166 255.641 408.438 256.079C409.414 252.533 410.134 248.899 410.679 245.163C410.946 243.347 411.194 241.528 411.452 239.715C410.51 238.787 409.928 237.473 409.31 236.353C408.236 234.414 407.189 232.461 406.164 230.492C404.369 227.053 402.634 223.575 401.036 220.043C399.514 216.687 398.036 213.298 396.686 209.857C397.538 208.59 398.445 207.35 399.396 206.146C399.458 206.294 399.523 206.436 399.588 206.579C401.186 210.124 402.715 213.697 404.407 217.207C406.003 220.539 407.618 223.86 409.313 227.146C410.156 228.784 411.021 230.419 411.905 232.043C412.081 232.371 412.263 232.771 412.455 233.19C413.113 229.353 413.929 225.556 415.138 221.819C417.178 215.518 419.97 209.487 423.414 203.847C423.304 203.442 423.215 203.021 423.143 202.581C422.615 199.439 422.25 196.257 421.861 193.096C421.596 190.963 421.193 188.699 420.839 186.405C420.842 186.4 420.842 186.4 420.842 186.4C421.949 185.658 423.072 184.939 424.212 184.241C424.481 185.972 424.709 187.689 424.99 189.316C425.465 192.075 425.954 194.835 426.399 197.599C426.444 197.916 426.477 198.474 426.527 199.108C429.226 195.282 432.246 191.687 435.539 188.353C434.899 185.88 435.125 182.695 435.051 180.782C435.024 180.05 435.003 179.292 434.981 178.522C436.29 177.923 437.614 177.36 438.948 176.822C438.928 177.716 438.919 178.601 438.948 179.478C439.018 181.252 439.122 183.023 439.279 184.786C443.497 181.002 448.069 177.656 453.026 174.875C454.896 173.828 456.888 172.732 458.955 171.729C459.042 171.732 459.13 171.735 459.214 171.744C460.725 171.87 461.761 172.989 461.999 174.267C461.829 174.345 461.668 174.421 461.509 174.505C458.239 176.181 455.092 178.089 452.088 180.2C448.547 182.697 445.18 185.419 442.026 188.371C445.257 188.818 448.499 189.148 451.744 189.46C451.058 190.75 450.433 192.07 449.875 193.418C447.66 193.155 445.45 192.867 443.241 192.566C441.794 192.369 439.987 192.381 438.5 191.869C437.465 192.955 436.455 194.061 435.483 195.212C433.429 197.625 431.522 200.167 429.768 202.813C429.85 202.8 429.935 202.795 429.997 202.792C435.586 202.61 441.289 202.799 446.918 203.473C446.672 204.841 446.492 206.215 446.374 207.6C446.371 207.66 446.362 207.717 446.359 207.777C444.854 207.571 443.338 207.401 441.814 207.275C438.702 207.011 435.574 206.875 432.456 206.868C430.882 206.867 428.888 207.222 427.162 207.008C422.789 214.554 419.657 222.803 418.07 231.407C417.78 232.985 417.541 234.569 417.321 236.156C418.459 235.882 419.63 235.447 420.448 235.25C422.393 234.788 424.338 234.326 426.288 233.866C429.989 232.99 433.693 232.109 437.393 231.233C440.591 230.473 443.813 229.622 447.052 228.821C447.141 230.406 447.197 231.989 447.202 233.552C443.004 234.505 438.781 235.357 434.659 236.335C430.373 237.353 426.086 238.372 421.803 239.385C420.378 239.726 418.539 240.413 416.731 240.753C416.154 245.514 415.627 250.285 414.586 254.976C414.26 256.434 413.883 257.873 413.462 259.303C414.619 259.128 415.817 258.788 416.58 258.673C418.434 258.405 420.293 258.152 422.152 257.928C425.687 257.489 429.233 257.137 432.781 256.861C435.184 256.671 437.603 256.503 440.038 256.385C438.715 257.976 437.255 259.47 435.743 260.931C433.728 261.057 431.708 261.207 429.685 261.404C425.762 261.784 421.858 262.263 417.962 262.835C416.195 263.093 413.977 263.786 411.949 263.83C410.128 268.709 407.789 273.394 405.112 277.868C403.409 280.725 401.512 283.573 399.497 286.423C405.609 285.341 411.82 284.822 418.02 284.798C417.536 286.299 417.109 287.836 416.734 289.392C416.054 289.398 415.37 289.408 414.687 289.433C410.77 289.57 406.87 289.907 402.984 290.429C400.799 290.715 398.214 291.484 395.828 291.477C392.487 295.978 388.973 300.508 385.588 305.123C388.542 305.102 391.541 304.871 394.454 304.823C398.275 304.754 402.101 304.687 405.921 304.618C408.638 304.566 411.365 304.479 414.095 304.4C413.884 305.861 413.668 307.319 413.44 308.772C410.005 308.796 406.573 308.788 403.159 308.851C398.734 308.937 394.305 309.02 389.883 309.101C387.872 309.139 385.855 309.175 383.843 309.213C383.441 309.222 383.026 309.245 382.605 309.265C378.545 315.039 374.821 320.962 371.996 327.14C372.002 327.143 372.01 327.14 372.015 327.143C380.268 327.217 388.514 327.289 396.761 327.361C400.679 327.396 404.673 327.27 408.665 327.253C408.043 328.695 407.327 330.099 406.512 331.454Z" fill="#B0EED9"/>
<path d="M365.355 316.587C365.319 323.575 367.122 331.367 370.626 338.11C371.146 339.11 371.701 340.087 372.296 341.033C375.485 346.126 379.744 350.376 385.008 352.85C399.44 359.629 416.192 360.902 431.018 354.565C434.409 353.113 437.958 350.57 439.619 347.481C440.238 346.334 440.594 345.111 440.586 343.844C440.579 343.203 440.48 342.552 440.276 341.89C439.787 340.311 438.719 338.968 437.519 337.829C434.856 335.302 431.418 333.602 427.793 333.026C440.254 332.48 453.604 329.881 462.149 320.793C463.53 319.325 464.79 317.56 465.357 315.666C465.666 314.649 465.771 313.593 465.588 312.524C465.559 312.357 465.523 312.189 465.478 312.03C464.789 309.375 462.339 307.384 459.698 306.538C456.894 305.638 453.879 305.784 450.939 305.939C463.473 301.398 473.492 290.447 476.906 277.558C477.843 274.023 478.078 269.856 476.713 266.625C476.271 265.569 475.655 264.609 474.839 263.808C474.487 263.465 474.101 263.147 473.676 262.866C470.308 260.626 465.825 261.368 461.951 262.528C452.356 265.402 443.389 270.356 435.845 276.944C437.258 273.597 437.832 269.783 436.799 266.3C435.768 262.814 432.949 259.757 429.384 259.044C429.301 259.029 429.218 259.013 429.133 259.001C427.712 258.755 426.312 258.874 424.952 259.248C421.733 260.14 418.74 262.475 416.217 264.824C408.3 272.198 401.46 280.728 395.989 290.059C395.238 287.523 394.457 284.926 392.837 282.834C391.997 281.748 390.869 280.824 389.617 280.258C388.523 279.767 387.336 279.55 386.16 279.746C386.092 279.758 386.025 279.77 385.959 279.783C384.477 280.09 383.202 281 382.025 281.948C371.716 290.259 365.419 303.343 365.355 316.587Z" fill="#5BE9B9"/>
<path d="M385.194 331.796C380.429 334.105 375.572 336.221 370.626 338.11C366.843 339.557 363.01 340.87 359.122 342.036C357.068 342.651 357.817 345.905 359.878 345.286C364.073 344.027 368.213 342.606 372.297 341.033C377.804 338.918 383.205 336.529 388.491 333.903C391.812 336.825 395.422 339.384 399.326 341.475C411.557 348.026 426.036 350.26 439.62 347.481C440.239 346.334 440.595 345.111 440.587 343.844C423.645 347.811 405.026 343.547 391.689 332.277C401.607 327.129 411.09 321.192 420.208 314.734C434.431 320.877 450.912 321.103 465.359 315.668C465.668 314.651 465.773 313.595 465.59 312.526C465.561 312.359 465.525 312.191 465.48 312.032C452.123 317.447 436.893 317.595 423.396 312.446C427.89 309.172 432.299 305.781 436.622 302.299C450.565 291.072 463.7 278.903 476.716 266.626C476.274 265.57 475.658 264.61 474.842 263.809C468.261 270.015 461.655 276.191 454.93 282.242C442.532 293.392 429.699 304.128 415.988 313.633C414.483 303.79 416.792 293.657 418.809 284.043C420.704 275.008 424.011 266.524 429.136 259.001C427.715 258.755 426.315 258.874 424.955 259.248C423.985 260.771 423.075 262.335 422.236 263.941C417.808 272.413 415.834 281.509 414.076 290.826C412.53 299.028 411.395 307.414 412.966 315.697C411.557 316.646 410.142 317.588 408.713 318.507C402.079 322.785 395.231 326.758 388.183 330.317C386.521 326.303 385.311 322.121 384.556 317.84C382.318 305.152 384.139 291.861 389.62 280.257C388.526 279.766 387.339 279.549 386.163 279.745C385.82 280.499 385.492 281.262 385.176 282.029C378.7 297.814 378.665 316.037 385.194 331.796Z" fill="white"/>
<path d="M377.289 354.95H124.271C119.172 354.95 115.038 350.816 115.038 345.717V178.703C115.038 173.604 119.172 169.47 124.271 169.47H377.289C382.388 169.47 386.522 173.604 386.522 178.703V345.717C386.522 350.816 382.389 354.95 377.289 354.95Z" fill="#E9E9FF"/>
<path d="M371.497 183.977H130.063V348.733H371.497V183.977Z" fill="#363271"/>
<path d="M421.235 346.122V355.489C421.235 359.768 417.466 363.24 412.819 363.24H88.7412C84.0952 363.24 80.3252 359.769 80.3252 355.489V346.122C80.3252 341.843 84.0942 338.371 88.7412 338.371H412.819C417.466 338.371 421.235 341.842 421.235 346.122Z" fill="#C3B7FC"/>
<path d="M278.758 338.371V339.231C278.758 343.334 275.432 346.661 271.328 346.661H230.232C226.129 346.661 222.803 343.335 222.803 339.231V338.371H278.758Z" fill="#F1F1F1"/>
<path d="M206.17 259.545C203.658 259.545 198.743 259.975 191.425 260.836L178.617 252.118C178.617 250.396 181.989 243.508 188.734 231.454C195.55 219.327 200.896 211.148 204.771 206.914L222.529 208.636C220.807 222.126 219.731 235.149 219.301 247.706L226.189 248.351L224.682 259.652H219.085C219.085 267.832 219.265 274.721 219.623 280.317L206.708 279.241C206.349 274.147 206.17 267.581 206.17 259.545ZM194.654 248.351C198.241 247.849 202.116 247.598 206.277 247.598C206.78 238.127 207.641 229.265 208.861 221.014C202.762 231.561 198.026 240.674 194.654 248.351ZM256.581 219.722C254.069 219.722 252.024 222.843 250.446 229.086C248.867 235.328 248.078 241.678 248.078 248.136C248.078 254.522 248.795 259.294 250.23 262.451C251.737 265.608 253.746 267.187 256.258 267.187C258.195 267.187 259.989 264.711 261.639 259.76C263.361 254.737 264.222 249.105 264.222 242.862C264.222 227.436 261.675 219.722 256.581 219.722ZM234.086 249.966C234.086 243.149 234.911 236.62 236.562 230.377C238.284 224.063 240.903 218.753 244.418 214.448C247.934 210.071 252.096 207.883 256.903 207.883C261.711 207.883 265.765 209.497 269.066 212.726C275.165 218.825 278.214 228.871 278.214 242.862C278.214 248.961 277.138 254.845 274.985 260.514C272.833 266.11 270.07 270.595 266.698 273.967C263.325 277.34 259.845 279.026 256.258 279.026C249.369 279.026 243.952 276.371 240.006 271.061C236.059 265.751 234.086 258.72 234.086 249.966ZM310.435 259.545C307.924 259.545 303.009 259.975 295.69 260.836L282.882 252.118C282.882 250.396 286.255 243.508 293 231.454C299.816 219.327 305.162 211.148 309.036 206.914L326.795 208.636C325.073 222.126 323.997 235.149 323.566 247.706L330.454 248.351L328.948 259.652H323.351C323.351 267.832 323.53 274.721 323.889 280.317L310.974 279.241C310.615 274.147 310.435 267.581 310.435 259.545ZM298.919 248.351C302.507 247.849 306.381 247.598 310.543 247.598C311.045 238.127 311.906 229.265 313.126 221.014C307.027 231.561 302.291 240.674 298.919 248.351Z" fill="white"/>
<path d="M176.668 299.268C178.121 299.268 179.286 299.714 180.161 300.606C181.053 301.498 181.499 302.671 181.499 304.124C181.499 305.561 181.045 306.717 180.136 307.593C179.244 308.468 178.064 308.906 176.594 308.906H171.763C171.696 308.906 171.663 308.939 171.663 309.005V316.388C171.663 316.553 171.581 316.635 171.416 316.635H170.152C169.987 316.635 169.904 316.553 169.904 316.388V299.516C169.904 299.351 169.987 299.268 170.152 299.268H176.668ZM176.47 307.444C177.444 307.444 178.237 307.147 178.848 306.552C179.459 305.941 179.765 305.14 179.765 304.149C179.765 303.141 179.459 302.332 178.848 301.721C178.237 301.11 177.444 300.804 176.47 300.804H171.763C171.696 300.804 171.663 300.837 171.663 300.903V307.345C171.663 307.411 171.696 307.444 171.763 307.444H176.47ZM188.655 303.901C190.142 303.901 191.29 304.281 192.099 305.041C192.908 305.8 193.313 306.808 193.313 308.063V316.388C193.313 316.553 193.231 316.635 193.065 316.635H191.802C191.637 316.635 191.554 316.553 191.554 316.388V315.372C191.554 315.339 191.538 315.314 191.505 315.297C191.488 315.281 191.463 315.289 191.43 315.322C191.017 315.818 190.481 316.198 189.82 316.462C189.159 316.71 188.424 316.833 187.615 316.833C186.442 316.833 185.46 316.536 184.667 315.942C183.874 315.347 183.478 314.439 183.478 313.216C183.478 311.978 183.924 311.003 184.815 310.293C185.724 309.566 186.979 309.203 188.581 309.203H191.455C191.521 309.203 191.554 309.17 191.554 309.104V308.162C191.554 307.32 191.315 306.659 190.836 306.18C190.373 305.685 189.646 305.437 188.655 305.437C187.863 305.437 187.219 305.594 186.723 305.908C186.228 306.205 185.922 306.626 185.806 307.171C185.757 307.337 185.658 307.411 185.509 307.394L184.171 307.221C183.99 307.188 183.915 307.122 183.948 307.023C184.08 306.098 184.576 305.346 185.435 304.768C186.294 304.19 187.367 303.901 188.655 303.901ZM187.962 315.322C188.936 315.322 189.779 315.083 190.489 314.604C191.199 314.108 191.554 313.448 191.554 312.622V310.689C191.554 310.623 191.521 310.59 191.455 310.59H188.854C187.764 310.59 186.888 310.813 186.228 311.259C185.567 311.705 185.237 312.324 185.237 313.117C185.237 313.844 185.484 314.397 185.98 314.777C186.492 315.141 187.153 315.322 187.962 315.322ZM204.703 304.347C204.703 304.182 204.786 304.099 204.951 304.099H206.214C206.379 304.099 206.462 304.182 206.462 304.347V316.214C206.462 318.064 205.925 319.418 204.852 320.277C203.795 321.136 202.333 321.565 200.467 321.565C200.087 321.565 199.798 321.557 199.599 321.541C199.434 321.524 199.352 321.433 199.352 321.268L199.401 320.128C199.401 320.046 199.426 319.98 199.476 319.93C199.525 319.897 199.583 319.889 199.649 319.906L200.318 319.93C201.854 319.93 202.969 319.625 203.663 319.014C204.356 318.419 204.703 317.469 204.703 316.165V315.248C204.703 315.215 204.687 315.198 204.653 315.198C204.637 315.182 204.612 315.19 204.579 315.223C203.819 316.214 202.738 316.71 201.334 316.71C200.26 316.71 199.302 316.421 198.46 315.842C197.634 315.264 197.081 314.447 196.8 313.39C196.602 312.713 196.503 311.705 196.503 310.367C196.503 309.641 196.519 309.029 196.552 308.534C196.602 308.038 196.693 307.593 196.825 307.196C197.122 306.205 197.659 305.412 198.435 304.818C199.211 304.207 200.145 303.901 201.235 303.901C202.705 303.901 203.819 304.388 204.579 305.363C204.612 305.396 204.637 305.404 204.653 305.388C204.687 305.371 204.703 305.346 204.703 305.313V304.347ZM204.579 312.845C204.629 312.597 204.662 312.291 204.678 311.928C204.695 311.565 204.703 311.036 204.703 310.343C204.703 309.5 204.695 308.939 204.678 308.658C204.662 308.361 204.62 308.088 204.554 307.84C204.422 307.147 204.092 306.577 203.563 306.131C203.051 305.668 202.399 305.437 201.606 305.437C200.83 305.437 200.169 305.66 199.624 306.106C199.096 306.552 198.724 307.13 198.509 307.84C198.344 308.369 198.262 309.195 198.262 310.318C198.262 311.523 198.344 312.358 198.509 312.82C198.675 313.514 199.03 314.092 199.575 314.554C200.136 315 200.813 315.223 201.606 315.223C202.416 315.223 203.076 315 203.588 314.554C204.117 314.108 204.447 313.538 204.579 312.845ZM219.844 308.261C219.91 308.724 219.943 309.302 219.943 309.996V310.788C219.943 310.954 219.861 311.036 219.696 311.036H211.693C211.627 311.036 211.594 311.069 211.594 311.135C211.627 312.044 211.677 312.63 211.743 312.894C211.925 313.638 212.313 314.224 212.907 314.653C213.502 315.083 214.262 315.297 215.187 315.297C215.88 315.297 216.491 315.141 217.02 314.827C217.548 314.513 217.961 314.067 218.259 313.489C218.358 313.34 218.473 313.307 218.605 313.39L219.572 313.96C219.704 314.042 219.737 314.158 219.671 314.306C219.258 315.099 218.639 315.727 217.813 316.189C216.987 316.635 216.037 316.858 214.964 316.858C213.791 316.842 212.808 316.561 212.015 316.016C211.223 315.471 210.653 314.711 210.306 313.737C210.009 312.944 209.86 311.804 209.86 310.318C209.86 309.624 209.868 309.062 209.885 308.633C209.918 308.187 209.984 307.791 210.083 307.444C210.364 306.37 210.925 305.511 211.768 304.867C212.627 304.223 213.659 303.901 214.865 303.901C216.367 303.901 217.524 304.281 218.333 305.041C219.142 305.8 219.646 306.874 219.844 308.261ZM214.865 305.437C214.055 305.437 213.378 305.652 212.833 306.081C212.304 306.494 211.958 307.056 211.792 307.766C211.693 308.113 211.627 308.674 211.594 309.451C211.594 309.517 211.627 309.55 211.693 309.55H218.11C218.176 309.55 218.209 309.517 218.209 309.451C218.176 308.707 218.126 308.179 218.06 307.865C217.879 307.122 217.507 306.535 216.946 306.106C216.401 305.66 215.707 305.437 214.865 305.437ZM233.604 303.926C234.925 303.926 235.974 304.314 236.75 305.09C237.543 305.867 237.94 306.907 237.94 308.212V316.388C237.94 316.553 237.857 316.635 237.692 316.635H236.428C236.263 316.635 236.181 316.553 236.181 316.388V308.559C236.181 307.65 235.9 306.907 235.338 306.329C234.793 305.751 234.083 305.462 233.208 305.462C232.299 305.462 231.564 305.743 231.003 306.304C230.441 306.866 230.16 307.601 230.16 308.509V316.388C230.16 316.553 230.078 316.635 229.913 316.635H228.649C228.484 316.635 228.401 316.553 228.401 316.388V304.347C228.401 304.182 228.484 304.099 228.649 304.099H229.913C230.078 304.099 230.16 304.182 230.16 304.347V305.412C230.16 305.445 230.169 305.47 230.185 305.487C230.218 305.503 230.243 305.495 230.259 305.462C230.986 304.438 232.101 303.926 233.604 303.926ZM246.369 316.833C245.179 316.833 244.155 316.528 243.296 315.917C242.438 315.306 241.843 314.463 241.513 313.39C241.281 312.63 241.166 311.614 241.166 310.343C241.166 309.071 241.281 308.063 241.513 307.32C241.826 306.263 242.413 305.429 243.272 304.818C244.131 304.207 245.171 303.901 246.393 303.901C247.566 303.901 248.573 304.207 249.416 304.818C250.275 305.429 250.861 306.255 251.175 307.295C251.406 308.005 251.522 309.021 251.522 310.343C251.522 311.68 251.406 312.696 251.175 313.39C250.861 314.463 250.275 315.306 249.416 315.917C248.573 316.528 247.558 316.833 246.369 316.833ZM246.369 315.297C247.161 315.297 247.838 315.083 248.4 314.653C248.962 314.207 249.341 313.613 249.54 312.87C249.688 312.275 249.763 311.441 249.763 310.367C249.763 309.277 249.697 308.443 249.564 307.865C249.366 307.122 248.978 306.535 248.4 306.106C247.838 305.66 247.153 305.437 246.344 305.437C245.534 305.437 244.849 305.66 244.287 306.106C243.726 306.535 243.346 307.122 243.148 307.865C243.016 308.443 242.95 309.277 242.95 310.367C242.95 311.457 243.016 312.291 243.148 312.87C243.329 313.613 243.701 314.207 244.263 314.653C244.841 315.083 245.543 315.297 246.369 315.297ZM260.566 305.313C260.566 305.478 260.483 305.561 260.318 305.561H257.519C257.453 305.561 257.42 305.594 257.42 305.66V312.969C257.42 313.761 257.593 314.323 257.94 314.653C258.303 314.967 258.865 315.124 259.624 315.124H260.244C260.409 315.124 260.492 315.207 260.492 315.372V316.388C260.492 316.553 260.409 316.635 260.244 316.635C260.046 316.652 259.74 316.66 259.327 316.66C258.138 316.66 257.238 316.437 256.627 315.991C256.016 315.545 255.71 314.719 255.71 313.514V305.66C255.71 305.594 255.677 305.561 255.611 305.561H254.1C253.935 305.561 253.852 305.478 253.852 305.313V304.347C253.852 304.182 253.935 304.099 254.1 304.099H255.611C255.677 304.099 255.71 304.066 255.71 304V301.126C255.71 300.961 255.793 300.879 255.958 300.879H257.172C257.337 300.879 257.42 300.961 257.42 301.126V304C257.42 304.066 257.453 304.099 257.519 304.099H260.318C260.483 304.099 260.566 304.182 260.566 304.347V305.313ZM280.471 300.581C280.471 300.746 280.389 300.829 280.223 300.829H271.131C271.065 300.829 271.032 300.862 271.032 300.928V307.047C271.032 307.114 271.065 307.147 271.131 307.147H277.498C277.663 307.147 277.746 307.229 277.746 307.394V308.435C277.746 308.6 277.663 308.683 277.498 308.683H271.131C271.065 308.683 271.032 308.716 271.032 308.782V316.388C271.032 316.553 270.949 316.635 270.784 316.635H269.521C269.356 316.635 269.273 316.553 269.273 316.388V299.541C269.273 299.376 269.356 299.293 269.521 299.293H280.223C280.389 299.293 280.471 299.376 280.471 299.541V300.581ZM286.797 316.833C285.607 316.833 284.583 316.528 283.725 315.917C282.866 315.306 282.271 314.463 281.941 313.39C281.71 312.63 281.594 311.614 281.594 310.343C281.594 309.071 281.71 308.063 281.941 307.32C282.255 306.263 282.841 305.429 283.7 304.818C284.559 304.207 285.599 303.901 286.821 303.901C287.994 303.901 289.002 304.207 289.844 304.818C290.703 305.429 291.289 306.255 291.603 307.295C291.834 308.005 291.95 309.021 291.95 310.343C291.95 311.68 291.834 312.696 291.603 313.39C291.289 314.463 290.703 315.306 289.844 315.917C289.002 316.528 287.986 316.833 286.797 316.833ZM286.797 315.297C287.589 315.297 288.267 315.083 288.828 314.653C289.39 314.207 289.77 313.613 289.968 312.87C290.116 312.275 290.191 311.441 290.191 310.367C290.191 309.277 290.125 308.443 289.993 307.865C289.794 307.122 289.406 306.535 288.828 306.106C288.267 305.66 287.581 305.437 286.772 305.437C285.963 305.437 285.277 305.66 284.716 306.106C284.154 306.535 283.774 307.122 283.576 307.865C283.444 308.443 283.378 309.277 283.378 310.367C283.378 311.457 283.444 312.291 283.576 312.87C283.758 313.613 284.129 314.207 284.691 314.653C285.269 315.083 285.971 315.297 286.797 315.297ZM303.096 304.347C303.096 304.182 303.179 304.099 303.344 304.099H304.608C304.773 304.099 304.855 304.182 304.855 304.347V316.388C304.855 316.553 304.773 316.635 304.608 316.635H303.344C303.179 316.635 303.096 316.553 303.096 316.388V315.322C303.096 315.289 303.08 315.264 303.047 315.248C303.014 315.231 302.989 315.24 302.972 315.273C302.279 316.297 301.18 316.809 299.677 316.809C298.885 316.809 298.15 316.652 297.473 316.338C296.812 316.008 296.283 315.537 295.887 314.926C295.507 314.315 295.317 313.58 295.317 312.721V304.347C295.317 304.182 295.4 304.099 295.565 304.099H296.828C296.994 304.099 297.076 304.182 297.076 304.347V312.201C297.076 313.142 297.34 313.894 297.869 314.455C298.397 315 299.116 315.273 300.024 315.273C300.966 315.273 301.709 314.992 302.254 314.43C302.816 313.869 303.096 313.126 303.096 312.201V304.347ZM314 303.926C315.322 303.926 316.371 304.314 317.147 305.09C317.94 305.867 318.336 306.907 318.336 308.212V316.388C318.336 316.553 318.253 316.635 318.088 316.635H316.825C316.66 316.635 316.577 316.553 316.577 316.388V308.559C316.577 307.65 316.296 306.907 315.735 306.329C315.19 305.751 314.479 305.462 313.604 305.462C312.696 305.462 311.961 305.743 311.399 306.304C310.838 306.866 310.557 307.601 310.557 308.509V316.388C310.557 316.553 310.474 316.635 310.309 316.635H309.046C308.88 316.635 308.798 316.553 308.798 316.388V304.347C308.798 304.182 308.88 304.099 309.046 304.099H310.309C310.474 304.099 310.557 304.182 310.557 304.347V305.412C310.557 305.445 310.565 305.47 310.582 305.487C310.615 305.503 310.639 305.495 310.656 305.462C311.383 304.438 312.497 303.926 314 303.926ZM329.763 299.541C329.763 299.376 329.845 299.293 330.01 299.293H331.274C331.439 299.293 331.522 299.376 331.522 299.541V316.388C331.522 316.553 331.439 316.635 331.274 316.635H330.01C329.845 316.635 329.763 316.553 329.763 316.388V315.347C329.763 315.314 329.746 315.297 329.713 315.297C329.697 315.281 329.672 315.289 329.639 315.322C329.275 315.801 328.821 316.173 328.276 316.437C327.748 316.701 327.153 316.833 326.492 316.833C325.336 316.833 324.362 316.536 323.569 315.942C322.793 315.347 322.256 314.538 321.959 313.514C321.727 312.77 321.612 311.722 321.612 310.367C321.612 308.996 321.711 307.972 321.909 307.295C322.206 306.238 322.751 305.412 323.544 304.818C324.337 304.207 325.32 303.901 326.492 303.901C327.137 303.901 327.731 304.033 328.276 304.298C328.821 304.545 329.275 304.909 329.639 305.388C329.672 305.421 329.697 305.437 329.713 305.437C329.746 305.421 329.763 305.396 329.763 305.363V299.541ZM329.317 313.39C329.465 313.059 329.573 312.671 329.639 312.225C329.705 311.779 329.738 311.16 329.738 310.367C329.738 309.574 329.705 308.955 329.639 308.509C329.573 308.047 329.457 307.642 329.292 307.295C329.094 306.734 328.763 306.288 328.301 305.957C327.855 305.611 327.318 305.437 326.691 305.437C326.03 305.437 325.46 305.602 324.981 305.933C324.502 306.263 324.155 306.701 323.941 307.246C323.742 307.609 323.594 308.022 323.495 308.484C323.412 308.93 323.371 309.558 323.371 310.367C323.371 311.144 323.404 311.755 323.47 312.201C323.536 312.63 323.652 313.018 323.817 313.365C324.015 313.96 324.362 314.43 324.857 314.777C325.369 315.124 325.972 315.297 326.666 315.297C327.327 315.297 327.88 315.124 328.326 314.777C328.772 314.43 329.102 313.968 329.317 313.39Z" fill="white"/>
<path d="M398.272 294.987L388.407 300.122L397.254 317.119L407.12 311.984L398.272 294.987Z" fill="#514E92"/>
<g opacity="0.33">
<path d="M357.47 220.842L370.308 300.123C366.161 299.819 362.089 298.89 358.235 297.381L346.877 227.238C349.106 225.388 351.565 223.742 354.24 222.35C355.303 221.797 356.38 221.294 357.47 220.842Z" fill="white"/>
<path d="M389.833 221.146L400.921 289.626C398.382 291.911 395.516 293.914 392.345 295.564C389.219 297.191 385.982 298.379 382.703 299.147L369.539 217.85C376.518 217.215 383.505 218.385 389.833 221.146Z" fill="white"/>
</g>
<path d="M417.984 235.697C405.166 211.072 374.858 201.464 350.207 214.176C350.147 214.205 350.09 214.235 350.031 214.267C325.348 227.112 315.754 257.536 328.601 282.219C341.448 306.902 371.87 316.498 396.552 303.651C396.612 303.619 396.669 303.589 396.727 303.557C421.281 290.659 430.802 260.322 417.984 235.697ZM400.921 289.626C398.382 291.912 395.516 293.915 392.346 295.564C389.219 297.191 385.982 298.378 382.703 299.148C378.592 300.113 374.413 300.424 370.306 300.122C366.159 299.819 362.087 298.89 358.235 297.381C349.265 293.872 341.48 287.223 336.684 278.011C327.555 260.469 332.265 239.385 346.877 227.239C349.106 225.388 351.563 223.744 354.24 222.352C355.302 221.799 356.379 221.295 357.47 220.843C361.402 219.203 365.469 218.221 369.54 217.851C376.518 217.215 383.505 218.385 389.834 221.149C398.173 224.792 405.37 231.205 409.9 239.906C418.772 256.951 414.576 277.341 400.921 289.626Z" fill="#BE4867"/>
<path opacity="0.13" d="M391.117 292.778C391.059 292.81 391 292.839 390.943 292.869C372.215 302.618 349.127 295.336 339.38 276.609C329.633 257.879 336.913 234.794 355.643 225.047C355.7 225.017 355.76 224.985 355.817 224.958C374.515 215.344 397.488 222.637 407.205 241.308C416.922 259.977 409.716 282.979 391.117 292.778Z" fill="white"/>
<path d="M411.019 308.534L437.747 359.887C440.439 365.059 438.573 371.499 433.457 374.284C433.441 374.294 433.426 374.302 433.409 374.311C428.191 377.117 421.639 375.089 418.912 369.848L392.12 318.371C390.874 315.978 391.804 313.031 394.197 311.785L404.434 306.457C406.826 305.211 409.774 306.141 411.019 308.534Z" fill="#BE4867"/>
<path d="M339.38 276.608C349.128 295.337 372.214 302.617 390.942 292.87C391 292.84 391.059 292.809 391.116 292.777L396.727 303.557C396.669 303.589 396.611 303.619 396.553 303.65C371.87 316.497 341.447 306.902 328.6 282.219C315.753 257.536 325.348 227.113 350.031 214.266C350.089 214.236 350.148 214.205 350.207 214.176L355.818 224.956C355.759 224.985 355.701 225.015 355.642 225.046C336.913 234.794 329.632 257.88 339.38 276.608Z" fill="#CD6D86"/>
<path d="M394.197 311.785L399.494 309.028L433.458 374.283C433.442 374.293 433.427 374.301 433.41 374.31C428.192 377.116 421.64 375.088 418.913 369.847L392.121 318.37C390.874 315.978 391.804 313.03 394.197 311.785Z" fill="#CD6D86"/>
<path d="M409.9 239.905C405.37 231.204 398.173 224.79 389.834 221.148C383.505 218.385 376.518 217.214 369.54 217.85C365.469 218.22 361.402 219.203 357.47 220.842C356.38 221.294 355.303 221.798 354.24 222.351C351.563 223.743 349.106 225.388 346.877 227.238C332.265 239.384 327.555 260.468 336.684 278.01C341.481 287.223 349.266 293.871 358.235 297.38C362.087 298.889 366.159 299.818 370.306 300.121C374.412 300.423 378.591 300.113 382.703 299.147C385.982 298.377 389.219 297.191 392.346 295.563C395.516 293.913 398.382 291.911 400.921 289.625C414.576 277.341 418.772 256.951 409.9 239.905ZM391.117 292.778C391.059 292.81 391 292.839 390.943 292.869C372.215 302.618 349.127 295.336 339.38 276.609C329.633 257.879 336.913 234.794 355.643 225.047C355.7 225.017 355.76 224.985 355.817 224.958C374.515 215.344 397.488 222.637 407.205 241.308C416.922 259.977 409.716 282.979 391.117 292.778Z" fill="#B83D5D"/>
<path d="M146.42 256.119C144.653 253.055 142.352 250.081 141.744 246.889C139.868 237.037 145.522 223.148 134.266 216.926C128.899 213.96 121.837 214.392 116.595 217.42C112.439 219.821 109.607 223.921 109.117 228.729C108.777 232.064 108.791 240.368 109.092 243.706C109.603 249.394 108.356 249.465 105.412 254.324C103.385 257.669 101.151 261.741 102.786 265.732C103.662 267.87 105.686 269.496 107.963 269.89C110.01 270.244 112.346 269.72 114.011 270.963C115.542 272.106 116.006 274.21 117.571 275.353C119.715 276.919 123.662 277.366 126.242 277.318C129.225 277.263 132.287 276.217 134.29 274.005C137.52 270.438 138.117 270.697 142.782 269.89C145.058 269.496 147.083 267.87 147.959 265.732C149.386 262.246 148.162 259.14 146.42 256.119Z" fill="#4D4D96"/>
<path d="M120.629 357.125L120.178 372.783C120.172 373.009 120.164 373.243 120.156 373.488C120.112 374.525 120.007 375.723 119.603 376.97C118.978 378.897 116.298 382.455 114.803 383.815C113.499 385.001 111.203 386.003 109.398 385.29C109.057 385.155 108.735 384.96 108.437 384.693C105.935 382.439 108.96 378.897 110.801 376.315C111.305 375.61 111.718 374.977 111.907 374.46C112.427 373.045 112.554 356.892 112.65 356.895L120.629 357.125Z" fill="#F9E2CB"/>
<path d="M120.155 373.488C120.111 374.525 120.006 375.723 119.602 376.97C118.977 378.897 116.297 382.455 114.802 383.815C113.498 385.001 111.202 386.003 109.397 385.29C109.056 385.155 108.734 384.96 108.436 384.693C105.934 382.439 108.959 378.897 110.8 376.315C110.69 377.066 110.583 377.887 110.775 378.409C111.243 379.667 112.894 380.151 114.169 379.73C115.441 379.309 116.385 378.236 117.141 377.126C117.898 376.02 118.55 374.817 119.541 373.911C119.723 373.743 119.93 373.581 120.155 373.488Z" fill="#8690F1"/>
<path d="M133.358 357.125L133.809 372.783C133.814 373.009 133.823 373.243 133.831 373.488C133.875 374.525 133.98 375.723 134.384 376.97C135.009 378.897 137.69 382.455 139.184 383.815C140.488 385.001 142.784 386.003 144.589 385.29C144.93 385.155 145.252 384.96 145.55 384.693C148.052 382.439 145.027 378.897 143.186 376.315C142.682 375.61 142.27 374.977 142.08 374.46C141.56 373.045 141.433 356.892 141.337 356.895L133.358 357.125Z" fill="#F9E2CB"/>
<path d="M133.831 373.488C133.875 374.525 133.98 375.723 134.384 376.97C135.009 378.897 137.69 382.455 139.184 383.815C140.488 385.001 142.784 386.003 144.589 385.29C144.93 385.155 145.252 384.96 145.55 384.693C148.052 382.439 145.027 378.897 143.186 376.315C143.296 377.066 143.403 377.887 143.211 378.409C142.743 379.667 141.092 380.151 139.818 379.73C138.547 379.309 137.602 378.236 136.845 377.126C136.088 376.02 135.436 374.817 134.445 373.911C134.263 373.743 134.057 373.581 133.831 373.488Z" fill="#8690F1"/>
<path d="M142.634 291.805C133.887 292.166 118.796 292.669 116.919 292.683C113.96 292.705 111.632 292.653 109.791 292.746C109.703 294.015 109.62 295.284 109.538 296.55C109.274 300.612 104.069 367.314 105.041 368.55C105.924 369.667 116.199 369.973 122.804 369.824C122.943 366.488 124.369 318.893 124.794 303.912H127.485C128.67 322.797 129.321 350.436 130.516 369.161C137.083 368.693 147.553 368.192 147.586 367.477C148.051 357.428 143.463 314.756 142.634 291.805Z" fill="#BE4867"/>
<path d="M142.634 291.805C133.887 292.166 118.796 292.669 116.919 292.683C113.96 292.705 111.632 292.653 109.791 292.746C110.413 283.787 111.197 270.675 112.455 261.794C112.659 260.357 112.942 258.923 113.371 257.553C114.238 254.768 115.694 252.241 118.253 250.469C121.702 248.08 126.348 247.249 130.38 248.578C134.117 249.808 136.95 252.951 138.604 256.46C140.258 259.972 140.88 263.853 141.389 267.69C141.9 271.532 142.315 282.965 142.634 291.805Z" fill="white"/>
<path d="M140.225 280.758C130.733 282.072 121.134 282.299 111.591 281.436C110.479 281.335 109.535 282.478 109.542 283.516C109.551 284.723 110.507 285.464 111.622 285.565C121.165 286.428 130.764 286.201 140.256 284.887C141.36 284.734 142.314 284.026 142.305 282.807C142.297 281.803 141.337 280.604 140.225 280.758Z" fill="#DFDBFC"/>
<path d="M137.465 270.289C128.852 270.897 120.217 271.022 111.59 270.662C108.934 270.551 108.971 274.68 111.621 274.79C120.247 275.149 128.883 275.025 137.495 274.417C140.133 274.232 140.121 270.102 137.465 270.289Z" fill="#DFDBFC"/>
<path d="M136.108 260.15C132.882 261.211 129.34 260.78 126.001 260.686C122.388 260.584 118.776 260.482 115.163 260.381C112.505 260.306 112.54 264.434 115.194 264.509C118.987 264.616 122.781 264.723 126.574 264.83C130.128 264.93 133.802 265.253 137.236 264.123C139.75 263.296 138.642 259.317 136.108 260.15Z" fill="#DFDBFC"/>
<path d="M181.711 258.908C182.494 258.598 183.379 258.096 183.434 257.256C183.469 256.731 183.137 256.233 182.702 255.937C182.267 255.641 181.741 255.512 181.224 255.415C179.259 255.046 177.225 255.051 175.262 255.43C175.306 254.811 175.345 254.159 175.077 253.598C174.809 253.038 174.12 252.628 173.555 252.886C172.959 253.159 172.849 253.932 172.601 254.538C172.22 255.469 171.394 256.127 170.663 256.818C169.932 257.509 169.228 258.368 169.225 259.374C169.222 260.229 169.742 261.012 170.394 261.565C172.36 263.236 173.513 261.901 175.54 261.084C177.565 260.268 179.682 259.711 181.711 258.908Z" fill="#F9E2CB"/>
<path d="M175.411 261.285C174.547 260.192 173.482 259.268 172.337 258.48C171.382 257.825 170.375 257.258 169.343 256.732C165.591 261.416 161.257 265.682 156.446 269.423C155.188 270.4 153.606 271.517 152.461 271.465C150.895 271.396 149.194 269.145 147.887 267.188C145.046 262.936 142.502 257.785 139.242 253.741C138.626 252.977 131.174 246.662 130.874 249.542C130.631 251.881 131.784 267.117 132.233 274.034C133.131 287.868 134.03 301.701 134.928 315.535C135.056 317.505 135.981 338.493 136.421 338.515C140.807 338.735 145.211 338.666 149.585 338.306C146.169 317.033 144.641 295.567 143.432 274.104C145.347 276.345 148.154 278.663 152.09 278.836C152.244 278.844 152.398 278.847 152.55 278.847C156.155 278.847 159.076 276.967 161.47 275.104C166.686 271.047 171.392 266.434 175.477 261.367C175.453 261.337 175.431 261.31 175.411 261.285Z" fill="#8690F1"/>
<path d="M70.0878 259.183C69.3048 258.873 68.4198 258.371 68.3648 257.531C68.3298 257.006 68.6618 256.508 69.0968 256.212C69.5318 255.916 70.0578 255.787 70.5748 255.69C72.5398 255.321 74.5738 255.326 76.5368 255.705C76.4928 255.086 76.4538 254.434 76.7218 253.873C76.9898 253.313 77.6788 252.903 78.2438 253.161C78.8398 253.434 78.9498 254.207 79.1978 254.813C79.5788 255.744 80.4038 256.402 81.1358 257.093C81.8668 257.784 82.5708 258.643 82.5738 259.649C82.5768 260.504 82.0568 261.287 81.4048 261.84C79.4388 263.511 78.2848 262.176 76.2588 261.359C74.2348 260.543 72.1168 259.986 70.0878 259.183Z" fill="#F9E2CB"/>
<path d="M120.927 249.817C120.693 247.576 116.462 251.004 115.872 251.471C113.392 253.433 112.08 255.245 110.398 257.762L103.913 267.464C102.606 269.421 100.905 271.672 99.3392 271.741C98.1942 271.793 96.6112 270.676 95.3542 269.699C90.5432 265.959 86.2082 261.693 82.4572 257.008C81.4252 257.534 80.4182 258.101 79.4632 258.756C78.3182 259.543 77.2532 260.468 76.3892 261.561C76.3702 261.586 76.3482 261.613 76.3262 261.644C80.4102 266.711 85.1172 271.324 90.3332 275.381C92.7282 277.244 95.6482 279.124 99.2532 279.124C99.4042 279.124 99.5592 279.121 99.7132 279.113C103.648 278.94 106.455 276.622 108.371 274.381C107.162 295.844 105.634 317.311 102.218 338.583C106.592 338.942 110.996 339.012 115.382 338.792C115.821 338.77 116.746 317.782 116.875 315.812C117.773 301.978 118.672 288.145 119.57 274.311C120.017 267.392 121.17 252.157 120.927 249.817Z" fill="#8690F1"/>
<path d="M130.043 238.408V250.381C130.043 252.737 128.133 254.647 125.777 254.647C123.421 254.647 121.511 252.737 121.511 250.381V238.408H130.043Z" fill="#F9E2CB"/>
<path d="M130.043 240.676V248.936C128.227 249.486 126.36 249.883 124.47 249.844C123.496 249.825 122.475 249.684 121.511 249.39V242.036C121.995 241.805 122.505 241.62 123.011 241.466C125.278 240.775 127.676 240.505 130.043 240.676Z" fill="#F0CEB0"/>
<path d="M114.275 234.417C114.275 242.093 118.35 248.316 124.734 248.316C131.118 248.316 136.294 242.093 136.294 234.417C136.294 226.741 131.119 220.518 124.734 220.518C118.349 220.518 114.275 226.741 114.275 234.417Z" fill="#F9E2CB"/>
<path d="M133.356 235.715C132.827 237.933 133.836 240.074 135.61 240.497C137.384 240.92 139.252 239.466 139.781 237.248C140.31 235.03 139.302 232.889 137.528 232.466C135.753 232.042 133.885 233.497 133.356 235.715Z" fill="#F9E2CB"/>
<path d="M110.513 237.248C109.984 235.03 110.993 232.889 112.767 232.466C114.541 232.042 116.408 233.497 116.938 235.715C117.467 237.933 116.458 240.074 114.684 240.497C112.91 240.92 111.042 239.466 110.513 237.248Z" fill="#F9E2CB"/>
<path d="M116.386 220.257C114.056 221.903 112.041 224.288 111.246 227.228C111.01 228.1 110.891 229.07 111.228 229.9C111.685 231.024 112.891 231.585 113.999 231.523C115.107 231.461 116.138 230.896 117.106 230.294C119.142 229.028 121.07 227.547 122.855 225.876C122.249 227.086 121.645 228.611 122.322 229.773C123.164 231.217 125.157 230.789 126.543 230.023C127.965 229.239 129.308 228.278 130.538 227.163C130.288 228.52 131.626 229.619 132.858 229.818C134.453 230.075 136.163 229.434 137.23 228.09C138.296 226.745 138.647 224.721 138.03 223.065C137.553 221.785 136.581 220.816 135.564 220.014C129.369 215.13 122.558 215.895 116.386 220.257Z" fill="#4D4D96"/>
<path d="M129.765 231.406C127.58 231.406 125.798 233.08 125.582 235.209H123.947C123.732 233.079 121.949 231.406 119.764 231.406C117.434 231.406 115.538 233.302 115.538 235.632C115.538 237.962 117.434 239.858 119.764 239.858C121.949 239.858 123.731 238.184 123.947 236.055H125.582C125.798 238.184 127.58 239.858 129.765 239.858C132.095 239.858 133.991 237.962 133.991 235.632C133.991 233.301 132.095 231.406 129.765 231.406ZM119.765 239.012C117.901 239.012 116.384 237.496 116.384 235.631C116.384 233.767 117.901 232.25 119.765 232.25C121.629 232.25 123.145 233.767 123.145 235.631C123.145 237.496 121.629 239.012 119.765 239.012ZM129.765 239.012C127.901 239.012 126.384 237.496 126.384 235.631C126.384 233.767 127.901 232.25 129.765 232.25C131.629 232.25 133.145 233.767 133.145 235.631C133.146 237.496 131.629 239.012 129.765 239.012Z" fill="white"/>
</svg>
