<svg width="66" height="121" viewBox="0 0 66 121" fill="none" xmlns="http://www.w3.org/2000/svg">
<path d="M54.3225 4H10.941C7.10761 4 4 7.10345 4 10.9318V109.42C4 113.249 7.10761 116.352 10.941 116.352H54.3225C58.1559 116.352 61.2635 113.249 61.2635 109.42V10.9318C61.2635 7.10345 58.1559 4 54.3225 4Z" fill="white" stroke="black" stroke-width="8"/>
<path fill-rule="evenodd" clip-rule="evenodd" d="M61.2635 16.7082H4V99.687H61.2635V16.7082Z" fill="black" stroke="black" stroke-width="8"/>
<path d="M45.3572 9.19879H20.1959C19.557 9.19879 19.0391 9.71603 19.0391 10.3541C19.0391 10.9921 19.557 11.5094 20.1959 11.5094H45.3572C45.9961 11.5094 46.514 10.9921 46.514 10.3541C46.514 9.71603 45.9961 9.19879 45.3572 9.19879Z" fill="black"/>
<path d="M36.0447 107.803C36.0447 105.985 34.5686 104.51 32.7477 104.51C30.9268 104.51 29.4507 105.985 29.4507 107.803C29.4507 109.621 30.9268 111.096 32.7477 111.096C34.5686 111.096 36.0447 109.621 36.0447 107.803Z" fill="black"/>
<path d="M20.1956 62.3422C22.5915 62.3422 24.5337 60.4026 24.5337 58.0099C24.5337 55.6172 22.5915 53.6775 20.1956 53.6775C17.7997 53.6775 15.8574 55.6172 15.8574 58.0099C15.8574 60.4026 17.7997 62.3422 20.1956 62.3422Z" fill="#6E07F3" stroke="#6E07F3" stroke-width="8"/>
<path d="M49.4057 50.5005H31.4747C30.8358 50.5005 30.3179 51.0177 30.3179 51.6558C30.3179 52.2938 30.8358 52.8111 31.4747 52.8111H49.4057C50.0446 52.8111 50.5626 52.2938 50.5626 51.6558C50.5626 51.0177 50.0446 50.5005 49.4057 50.5005Z" fill="white"/>
<path d="M43.6215 56.8546H31.4747C30.8358 56.8546 30.3179 57.3718 30.3179 58.0099C30.3179 58.6479 30.8358 59.1652 31.4747 59.1652H43.6215C44.2604 59.1652 44.7784 58.6479 44.7784 58.0099C44.7784 57.3718 44.2604 56.8546 43.6215 56.8546Z" fill="white"/>
<path d="M37.8373 63.2087H31.4747C30.8358 63.2087 30.3179 63.726 30.3179 64.364C30.3179 65.0021 30.8358 65.5193 31.4747 65.5193H37.8373C38.4762 65.5193 38.9942 65.0021 38.9942 64.364C38.9942 63.726 38.4762 63.2087 37.8373 63.2087Z" fill="white"/>
</svg>
