<svg width="40" height="40" viewBox="0 0 40 40" fill="none" xmlns="http://www.w3.org/2000/svg">
<g clip-path="url(#clip0_867_680)">
<path d="M22.7369 9.89475C22.7369 10.2437 23.0196 10.5263 23.3684 10.5263C23.7173 10.5263 24 10.2436 24 9.89475C24 9.77866 24.0944 9.68421 24.2105 9.68421H27.579C27.6951 9.68421 27.7895 9.77858 27.7895 9.89475V13.2632C27.7895 13.3793 27.6952 13.4737 27.579 13.4737H24.2105C24.0945 13.4737 24 13.3794 24 13.2632V12.4211C24 12.0722 23.7173 11.7895 23.3684 11.7895C23.0195 11.7895 22.7369 12.0722 22.7369 12.4211V13.2632C22.7369 14.0758 23.398 14.7369 24.2105 14.7369H27.579C28.3916 14.7369 29.0527 14.0757 29.0527 13.2632V9.89475C29.0527 9.08218 28.3915 8.42108 27.579 8.42108H24.2105C23.398 8.421 22.7369 9.08218 22.7369 9.89475Z" fill="black"/>
<path d="M8.21054 11.3684C10.4161 11.3684 12.2105 9.57396 12.2105 7.36841C12.2105 5.16286 10.4161 3.36841 8.21054 3.36841C6.00499 3.36841 4.21054 5.16286 4.21054 7.36841C4.21054 9.57396 6.00499 11.3684 8.21054 11.3684ZM8.21054 4.63153C9.7196 4.63153 10.9474 5.85927 10.9474 7.36841C10.9474 8.87755 9.7196 10.1053 8.21054 10.1053C6.70148 10.1053 5.47367 8.87755 5.47367 7.36841C5.47367 5.85927 6.70148 4.63153 8.21054 4.63153Z" fill="black"/>
<path d="M33.4737 8.84208H36C36.8126 8.84208 37.4737 8.18091 37.4737 7.36841V4.84208C37.4737 4.0295 36.8125 3.36841 36 3.36841H33.4737C32.6611 3.36841 32 4.02958 32 4.84208V7.36841C32 8.18091 32.6612 8.84208 33.4737 8.84208ZM33.2631 4.84208C33.2631 4.72599 33.3575 4.63153 33.4737 4.63153H36C36.1161 4.63153 36.2105 4.72591 36.2105 4.84208V7.36841C36.2105 7.4845 36.1162 7.57896 36 7.57896H33.4737C33.3576 7.57896 33.2631 7.48458 33.2631 7.36841V4.84208Z" fill="black"/>
<path d="M20.8421 4.63156H22.5263C23.3389 4.63156 24 3.97039 24 3.15789V1.47367C24 0.661172 23.3388 0 22.5263 0H20.8421C20.0295 0 19.3684 0.661172 19.3684 1.47367V3.15789C19.3684 3.97047 20.0295 4.63156 20.8421 4.63156ZM20.6316 1.47367C20.6316 1.35758 20.7259 1.26312 20.8421 1.26312H22.5263C22.6424 1.26312 22.7369 1.3575 22.7369 1.47367V3.15789C22.7369 3.27398 22.6425 3.36844 22.5263 3.36844H20.8421C20.726 3.36844 20.6316 3.27406 20.6316 3.15789V1.47367Z" fill="black"/>
<path d="M39.3684 27.7895H37.4737V19.1579C37.4737 17.881 36.4348 16.8421 35.1579 16.8421H15.7895C14.5125 16.8421 13.4737 17.881 13.4737 19.1579V27.7895H11.4502C11.1831 27.5106 10.8555 27.2869 10.4846 27.1399C10.2789 26.0721 9.33742 25.2631 8.21047 25.2631H4.63156V20C4.63156 19.6511 4.34875 19.3684 4 19.3684C3.65125 19.3684 3.36844 19.6512 3.36844 20V25.8948C3.36844 26.2437 3.65125 26.5263 4 26.5263H8.21055C8.79102 26.5263 9.2632 26.9985 9.2632 27.579C9.2632 28.1595 8.79102 28.6316 8.21055 28.6316H2.31578C1.73531 28.6316 1.26312 28.1595 1.26312 27.579V18.3158C1.26312 15.8781 3.24633 13.8948 5.68414 13.8948H10.7368C12.0391 13.8948 13.2694 14.4654 14.112 15.4603C14.3374 15.7263 14.736 15.7596 15.0021 15.534C15.2683 15.3085 15.3013 14.9101 15.0759 14.6439C13.9927 13.3651 12.4112 12.6317 10.7367 12.6317H5.68422C2.54992 12.6316 0 15.1815 0 18.3158V27.5789C0 28.8558 1.03883 29.8947 2.31578 29.8947H5.06063C5.16852 31.3058 6.35117 32.421 7.78945 32.421H9.47367C10.9827 32.421 12.2105 31.1933 12.2105 29.6842C12.2105 29.4677 12.1853 29.2561 12.1372 29.0526H13.4737V34.3157C13.4737 35.5926 14.5125 36.6315 15.7895 36.6315H21.571L21.4957 38.7367H18.7368C18.388 38.7367 18.1052 39.0195 18.1052 39.3683C18.1052 39.7172 18.388 39.9999 18.7368 39.9999H22.1023C22.1046 39.9999 22.1068 39.9999 22.1087 39.9999H28.8385C28.8395 39.9999 28.8405 39.9999 28.8416 39.9999C28.8427 39.9999 28.8437 39.9999 28.8448 39.9999H32.2105C32.5594 39.9999 32.842 39.7172 32.842 39.3683C32.842 39.0194 32.5593 38.7367 32.2105 38.7367H29.4516L29.3762 36.6315H35.1579C36.4348 36.6315 37.4737 35.5926 37.4737 34.3157V29.0526H39.3684C39.7173 29.0526 40 28.7699 40 28.421C40 28.0722 39.7173 27.7895 39.3684 27.7895ZM9.47367 31.1579H7.78945C7.04828 31.1579 6.43328 30.608 6.33078 29.8948H8.21055C9.16406 29.8948 9.98477 29.3154 10.3394 28.4904C10.7128 28.7612 10.9473 29.2002 10.9473 29.6842C10.9473 30.4967 10.2863 31.1579 9.47367 31.1579ZM36.2105 34.3158C36.2105 34.8963 35.7384 35.3684 35.1579 35.3684H29.3312L29.1102 29.1806C29.0656 27.9284 28.049 26.9474 26.7959 26.9474C26.447 26.9474 26.1644 27.23 26.1644 27.5789C26.1644 27.9278 26.447 28.2105 26.7959 28.2105C27.3655 28.2105 27.8276 28.6563 27.8479 29.2256L28.1876 38.7368H22.7598L23.0995 29.2256C23.1198 28.6563 23.5819 28.2105 24.1514 28.2105C24.5003 28.2105 24.783 27.9277 24.783 27.5789C24.783 27.2301 24.5003 26.9474 24.1514 26.9474C22.8983 26.9474 21.8818 27.9282 21.8371 29.1806L21.6159 35.3684H15.7893C15.2088 35.3684 14.7366 34.8963 14.7366 34.3158V19.1579C14.7366 18.5774 15.2088 18.1052 15.7893 18.1052H35.1577C35.7382 18.1052 36.2104 18.5774 36.2104 19.1579L36.2105 34.3158Z" fill="black"/>
</g>
<defs>
<clipPath id="clip0_867_680">
<rect width="40" height="40" fill="white"/>
</clipPath>
</defs>
</svg>
