<svg width="40" height="40" viewBox="0 0 40 40" fill="none" xmlns="http://www.w3.org/2000/svg">
<path fill-rule="evenodd" clip-rule="evenodd" d="M16.5752 2.08331H23.4249C25.7042 2.08328 27.5414 2.08325 28.9864 2.27751C30.4865 2.47921 31.7495 2.9107 32.7529 3.9139C33.756 4.9171 34.1875 6.18021 34.3892 7.6804C34.5834 9.12535 34.5834 10.9625 34.5834 13.2419V26.7581C34.5834 29.0375 34.5834 30.8746 34.3892 32.3196C34.1875 33.8198 33.756 35.0828 32.7529 36.0861C31.7495 37.0893 30.4865 37.5208 28.9864 37.7225C27.5414 37.9166 25.7042 37.9166 23.4249 37.9166H16.5752C14.2959 37.9166 12.4587 37.9166 11.0138 37.7225C9.51359 37.5208 8.25047 37.0893 7.24727 36.0861C6.24407 35.0828 5.81259 33.8198 5.61089 32.3196C5.41662 30.8746 5.41665 29.0375 5.41669 26.7581V13.2419C5.41665 10.9625 5.41662 9.12535 5.61089 7.6804C5.81259 6.18021 6.24407 4.9171 7.24727 3.9139C8.25047 2.9107 9.51359 2.47921 11.0138 2.27751C12.4587 2.08325 14.2959 2.08328 16.5752 2.08331ZM10.4167 4.93376C9.76317 5.10806 9.34222 5.35448 9.01504 5.68166C8.55377 6.14293 8.25302 6.79056 8.0886 8.01351C7.91934 9.27243 7.91669 10.9409 7.91669 13.3333V26.5431C8.50375 26.133 9.1654 25.8208 9.8787 25.6296C10.0509 25.5835 10.2292 25.5473 10.4167 25.519V4.93376ZM12.9167 4.62798V25.4166C12.9344 25.4166 12.9522 25.4166 12.97 25.4166C13.0334 25.4166 13.0977 25.4166 13.163 25.4166H32.0834V13.3333C32.0834 10.9409 32.0807 9.27243 31.9115 8.01351C31.747 6.79056 31.4464 6.14293 30.985 5.68166C30.5237 5.2204 29.8762 4.91965 28.6532 4.75523C27.3942 4.58596 25.7257 4.58331 23.3334 4.58331H16.6667C15.1537 4.58331 13.9302 4.58438 12.9167 4.62798ZM32.082 27.9166H22.9167V32.5515C22.9167 32.566 22.9167 32.5808 22.9167 32.5963C22.917 32.7818 22.9174 33.046 22.8819 33.273C22.8385 33.5503 22.696 34.0856 22.1415 34.4113C21.6075 34.7248 21.0854 34.6083 20.837 34.5311C20.6207 34.4638 20.3834 34.3508 20.2064 34.2666C20.1924 34.26 20.1787 34.2535 20.1655 34.2471L18.3334 33.3768L16.5012 34.2471C16.488 34.2535 16.4743 34.2598 16.4603 34.2666C16.2834 34.3508 16.0461 34.4638 15.8297 34.5311C15.5814 34.6083 15.0592 34.7248 14.5252 34.4113C13.9708 34.0856 13.8281 33.5503 13.7848 33.273C13.7493 33.046 13.7497 32.7818 13.75 32.5963C13.75 32.5808 13.75 32.566 13.75 32.5515V27.9166H13.163C11.5326 27.9166 10.9626 27.9273 10.5258 28.0445C9.32689 28.3656 8.37115 29.2568 7.96129 30.4151C7.98662 31.0048 8.02634 31.5233 8.0886 31.9865C8.25302 33.2095 8.55377 33.857 9.01504 34.3183C9.4763 34.7796 10.1239 35.0803 11.3469 35.2448C12.6058 35.414 14.2743 35.4166 16.6667 35.4166H23.3334C25.7257 35.4166 27.3942 35.414 28.6532 35.2448C29.8762 35.0803 30.5237 34.7796 30.985 34.3183C31.4464 33.857 31.747 33.2095 31.9115 31.9865C32.0495 30.9593 32.0767 29.6596 32.082 27.9166ZM16.25 27.9166V31.5986L17.4989 31.0055C17.5019 31.004 17.5069 31.0015 17.5135 30.9981C17.5952 30.9563 17.9395 30.7803 18.3334 30.7803C18.7272 30.7803 19.0715 30.9563 19.1532 30.9981C19.1599 31.0015 19.1649 31.004 19.1679 31.0055L20.4167 31.5986V27.9166H16.25Z" fill="black"/>
</svg>
