<svg width="46" height="118" viewBox="0 0 46 118" fill="none" xmlns="http://www.w3.org/2000/svg">
<path d="M38.1473 9.81195C38.1473 9.81195 45.5433 10.781 45.9843 14.743C45.9843 14.743 46.0723 15.095 45.1033 14.39C45.1033 14.39 40.4363 15.095 39.3803 15.799C39.3803 15.799 38.6763 16.591 39.2043 17.384C39.2043 17.384 39.1823 17.583 39.2703 17.725C39.3583 17.868 39.5563 17.9559 39.9973 17.7359C39.9973 17.7359 39.8213 18.528 40.1733 18.264C40.5253 18 39.2923 18.969 39.0283 18.528C39.0283 18.528 39.3813 18.616 40.0853 19.145C40.0853 19.145 40.2613 19.673 39.2923 19.145C39.2923 19.145 38.9403 19.497 39.7323 20.113C39.7323 20.113 39.1163 20.025 38.4993 19.849C38.4993 19.849 38.1473 19.7609 39.1163 20.7299L38.3233 20.466C38.3233 20.466 38.5873 21.611 39.2043 21.963C39.2043 21.963 38.7643 22.139 38.2353 21.787C38.2353 21.787 37.1793 20.731 38.0593 22.139L37.3553 21.875C37.3553 21.875 37.4423 23.0199 37.8833 23.6349L37.4423 23.019C37.4423 23.019 36.7383 23.9869 37.0903 24.4279H36.6503C36.6503 24.4279 35.8573 26.0999 39.1153 30.327C39.1153 30.327 47.2163 45.0309 40.8763 55.7729C40.8763 55.7729 40.4353 59.735 38.5863 62.201C38.5863 62.201 34.1843 76.7289 27.1403 83.5099C27.1403 83.5099 24.1463 86.4149 25.4673 92.2269C25.4673 92.2269 26.3483 96.982 24.8513 102.97C24.8513 102.97 23.9713 114.152 20.8003 110.454C20.8003 110.454 20.0973 110.542 19.6563 112.126C19.6563 112.126 18.8643 114.063 18.6883 115.473C18.6883 115.473 17.8073 118.643 17.6313 115.914C17.6313 115.914 16.8383 113.625 16.9263 111.776C16.9263 111.776 17.0143 108.605 15.2533 107.637C15.2533 107.637 12.3473 100.681 15.8693 92.5809C15.8693 92.5809 16.3983 81.486 15.5173 78.405C15.5173 78.405 10.0583 72.329 9.08929 67.839C9.08929 67.839 8.59429 67.8879 8.38329 68.3589C8.31229 68.5149 8.27429 68.719 8.29629 68.983C8.38529 70.04 7.59329 66.6049 7.59329 66.6049C7.59329 66.6049 6.88829 68.365 7.68129 69.686L6.88829 68.365L6.36029 66.781L6.18429 68.718C6.18429 68.718 5.47929 69.7749 5.21529 67.2209C5.21529 67.2209 4.59929 66.957 4.33529 67.397L4.15929 65.988C4.15929 65.988 3.80729 65.636 3.45529 66.252C3.45529 66.252 2.13529 65.548 2.83829 64.403C2.83829 64.403 2.22229 63.611 1.60529 64.227C1.60529 64.227 0.901288 63.6979 1.51729 62.2899C1.51729 62.2899 3.54229 53.749 2.04529 47.674C2.04529 47.674 1.60529 47.058 0.81229 47.85L1.60529 47.057C1.60529 47.057 0.90129 46.793 0.28429 46.793L0.989288 46.089L0.196289 46.001L1.07729 45.384L0.461288 45.1199L1.34129 44.503L0.81229 43.71L2.13329 44.062C2.13329 44.062 1.86929 35.081 6.62329 30.238C6.62329 30.238 11.0263 26.099 10.6733 19.056C10.6733 19.056 8.12129 14.83 10.6733 11.924L9.88129 11.396L11.1143 10.867C11.1143 10.867 10.3223 10.339 9.44129 10.516L10.9383 9.72296C10.9383 9.72296 10.0573 9.54696 9.61829 9.81096L11.2033 9.01895L10.2353 8.57895C10.2353 8.57895 10.6743 8.13896 11.8193 7.25896C11.8193 7.25896 13.5803 4.70495 16.2223 4.08795C16.2223 4.08795 15.2533 3.20695 14.1973 3.73595C14.1973 3.73595 14.1963 2.85595 16.9263 2.94395C16.9263 2.94395 22.1213 0.302955 26.2593 1.62296C26.2593 1.62296 26.5233 1.09496 25.8193 0.566956C25.8193 0.566956 28.1083 -0.0500394 29.6053 0.918961L29.6933 0.126953C29.6933 0.126953 30.4853 0.47896 31.6303 1.44696C31.6303 1.44696 39.3803 2.94395 38.1473 9.81195Z" fill="#000"/>
</svg>
