<svg width="500" height="374" viewBox="0 0 500 374" fill="none" xmlns="http://www.w3.org/2000/svg">
<path opacity="0.3" d="M160.924 143.865H135.11C133.322 143.865 131.872 142.415 131.872 140.627C131.872 138.839 133.322 137.389 135.11 137.389H160.924C162.712 137.389 164.162 138.839 164.162 140.627C164.162 142.415 162.712 143.865 160.924 143.865Z" fill="white"/>
<path opacity="0.3" d="M160.874 109.902C160.874 108.114 159.424 106.664 157.636 106.664H131.822C130.034 106.664 128.584 108.114 128.584 109.902C128.584 111.69 130.034 113.14 131.822 113.14H133.83C134.813 113.14 135.61 113.937 135.61 114.919V114.967C135.61 115.95 134.813 116.746 133.83 116.746H128.946C127.158 116.746 125.708 118.196 125.708 119.984C125.708 121.772 127.158 123.222 128.946 123.222H154.76C156.548 123.222 157.998 121.772 157.998 119.984C157.998 118.196 156.548 116.746 154.76 116.746H151.752C150.769 116.746 149.972 115.949 149.972 114.967V114.919C149.972 113.936 150.769 113.14 151.752 113.14H157.636C159.425 113.14 160.874 111.691 160.874 109.902Z" fill="white"/>
<path d="M403.725 73.019C403.725 75.198 401.959 76.964 399.78 76.964" stroke="#FFEFB0" stroke-miterlimit="10" stroke-linecap="round" stroke-linejoin="round"/>
<path d="M403.726 73.019C403.726 75.198 405.492 76.964 407.671 76.964" stroke="#FFEFB0" stroke-miterlimit="10" stroke-linecap="round" stroke-linejoin="round"/>
<path d="M403.725 80.9352C403.725 78.7562 401.959 76.9902 399.78 76.9902" stroke="#FFEFB0" stroke-miterlimit="10" stroke-linecap="round" stroke-linejoin="round"/>
<path d="M403.726 80.9352C403.726 78.7562 405.492 76.9902 407.671 76.9902" stroke="#FFEFB0" stroke-miterlimit="10" stroke-linecap="round" stroke-linejoin="round"/>
<path d="M128.451 152.002C128.451 154.181 126.685 155.947 124.506 155.947" stroke="#FFEFB0" stroke-miterlimit="10" stroke-linecap="round" stroke-linejoin="round"/>
<path d="M128.451 152.002C128.451 154.181 130.217 155.947 132.396 155.947" stroke="#FFEFB0" stroke-miterlimit="10" stroke-linecap="round" stroke-linejoin="round"/>
<path d="M128.451 159.919C128.451 157.74 126.685 155.974 124.506 155.974" stroke="#FFEFB0" stroke-miterlimit="10" stroke-linecap="round" stroke-linejoin="round"/>
<path d="M128.451 159.919C128.451 157.74 130.217 155.974 132.396 155.974" stroke="#FFEFB0" stroke-miterlimit="10" stroke-linecap="round" stroke-linejoin="round"/>
<path d="M346.729 70.4219C346.729 72.6009 344.963 74.3669 342.784 74.3669" stroke="#FFEFB0" stroke-miterlimit="10" stroke-linecap="round" stroke-linejoin="round"/>
<path d="M346.729 70.4219C346.729 72.6009 348.495 74.3669 350.674 74.3669" stroke="#FFEFB0" stroke-miterlimit="10" stroke-linecap="round" stroke-linejoin="round"/>
<path d="M346.729 78.339C346.729 76.16 344.963 74.394 342.784 74.394" stroke="#FFEFB0" stroke-miterlimit="10" stroke-linecap="round" stroke-linejoin="round"/>
<path d="M346.729 78.339C346.729 76.16 348.495 74.394 350.674 74.394" stroke="#FFEFB0" stroke-miterlimit="10" stroke-linecap="round" stroke-linejoin="round"/>
<path d="M108.982 115.983C108.982 118.162 107.216 119.928 105.037 119.928" stroke="#FFEFB0" stroke-miterlimit="10" stroke-linecap="round" stroke-linejoin="round"/>
<path d="M108.982 115.983C108.982 118.162 110.748 119.928 112.927 119.928" stroke="#FFEFB0" stroke-miterlimit="10" stroke-linecap="round" stroke-linejoin="round"/>
<path d="M108.982 123.899C108.982 121.72 107.216 119.954 105.037 119.954" stroke="#FFEFB0" stroke-miterlimit="10" stroke-linecap="round" stroke-linejoin="round"/>
<path d="M108.982 123.899C108.982 121.72 110.748 119.954 112.927 119.954" stroke="#FFEFB0" stroke-miterlimit="10" stroke-linecap="round" stroke-linejoin="round"/>
<path d="M184.68 88.1128C184.68 90.2918 182.914 92.0578 180.735 92.0578" stroke="#FFEFB0" stroke-miterlimit="10" stroke-linecap="round" stroke-linejoin="round"/>
<path d="M184.681 88.1128C184.681 90.2918 186.447 92.0578 188.626 92.0578" stroke="#FFEFB0" stroke-miterlimit="10" stroke-linecap="round" stroke-linejoin="round"/>
<path d="M184.68 96.03C184.68 93.851 182.914 92.085 180.735 92.085" stroke="#FFEFB0" stroke-miterlimit="10" stroke-linecap="round" stroke-linejoin="round"/>
<path d="M184.681 96.03C184.681 93.851 186.447 92.085 188.626 92.085" stroke="#FFEFB0" stroke-miterlimit="10" stroke-linecap="round" stroke-linejoin="round"/>
<path d="M373.651 52.6309C373.651 54.8099 371.885 56.5759 369.706 56.5759" stroke="#FFEFB0" stroke-miterlimit="10" stroke-linecap="round" stroke-linejoin="round"/>
<path d="M373.651 52.6309C373.651 54.8099 375.417 56.5759 377.596 56.5759" stroke="#FFEFB0" stroke-miterlimit="10" stroke-linecap="round" stroke-linejoin="round"/>
<path d="M373.651 60.548C373.651 58.369 371.885 56.603 369.706 56.603" stroke="#FFEFB0" stroke-miterlimit="10" stroke-linecap="round" stroke-linejoin="round"/>
<path d="M373.651 60.548C373.651 58.369 375.417 56.603 377.596 56.603" stroke="#FFEFB0" stroke-miterlimit="10" stroke-linecap="round" stroke-linejoin="round"/>
<path d="M387.187 309.214C387.187 305.915 389.861 303.242 393.16 303.242H398.522C402.679 303.242 406.049 299.872 406.049 295.714C406.049 291.557 402.679 288.187 398.522 288.187H373.935C370.637 288.187 367.963 285.513 367.963 282.214C367.963 278.915 370.637 276.242 373.935 276.242H379.659C383.816 276.242 387.186 272.872 387.186 268.714C387.186 264.557 383.816 261.187 379.659 261.187H116.299C112.142 261.187 108.771 264.557 108.771 268.714C108.771 272.871 112.141 276.242 116.299 276.242H124.096C127.394 276.242 130.068 278.916 130.068 282.214C130.068 285.512 127.394 288.187 124.096 288.187H90.6784C86.5214 288.187 83.1504 291.557 83.1504 295.714C83.1504 299.871 86.5204 303.242 90.6784 303.242H146.743C150.042 303.242 152.715 305.916 152.715 309.214C152.715 312.512 150.041 315.187 146.743 315.187H110.91C106.753 315.187 103.382 318.557 103.382 322.714C103.382 326.871 106.752 330.242 110.91 330.242H414.44C418.597 330.242 421.968 326.872 421.968 322.714C421.968 318.557 418.598 315.187 414.44 315.187H393.16C389.861 315.186 387.187 312.512 387.187 309.214Z" fill="#624C8A"/>
<path d="M189.724 291.46H161.037C159.116 291.46 157.558 289.903 157.558 287.982C157.558 286.061 159.115 284.503 161.037 284.503H189.724C191.645 284.503 193.202 286.06 193.202 287.982C193.203 289.903 191.645 291.46 189.724 291.46Z" fill="#8F6FC9"/>
<path d="M206.987 291.46H202.763C200.842 291.46 199.284 289.903 199.284 287.981C199.284 286.06 200.841 284.503 202.763 284.503H206.987C208.908 284.503 210.465 286.06 210.465 287.981C210.466 289.903 208.908 291.46 206.987 291.46Z" fill="#8F6FC9"/>
<path d="M223.481 291.46H219.257C217.336 291.46 215.778 289.903 215.778 287.981C215.778 286.06 217.335 284.503 219.257 284.503H223.481C225.402 284.503 226.959 286.06 226.959 287.981C226.959 289.903 225.402 291.46 223.481 291.46Z" fill="#8F6FC9"/>
<path d="M189.724 317.476H161.037C159.116 317.476 157.558 315.919 157.558 313.998C157.558 312.077 159.115 310.519 161.037 310.519H189.724C191.645 310.519 193.202 312.076 193.202 313.998C193.203 315.918 191.645 317.476 189.724 317.476Z" fill="#8F6FC9"/>
<path d="M206.987 317.476H202.763C200.842 317.476 199.284 315.919 199.284 313.997C199.284 312.076 200.841 310.519 202.763 310.519H206.987C208.908 310.519 210.465 312.076 210.465 313.997C210.466 315.918 208.908 317.476 206.987 317.476Z" fill="#8F6FC9"/>
<path d="M223.481 317.476H219.257C217.336 317.476 215.778 315.919 215.778 313.997C215.778 312.076 217.335 310.519 219.257 310.519H223.481C225.402 310.519 226.959 312.076 226.959 313.997C226.959 315.918 225.402 317.476 223.481 317.476Z" fill="#8F6FC9"/>
<path d="M250.857 317.476H246.633C244.712 317.476 243.154 315.919 243.154 313.997C243.154 312.076 244.711 310.519 246.633 310.519H250.857C252.778 310.519 254.336 312.076 254.336 313.997C254.336 315.918 252.778 317.476 250.857 317.476Z" fill="#8F6FC9"/>
<path d="M199.022 304.468H170.335C168.414 304.468 166.857 302.911 166.857 300.99C166.857 299.069 168.414 297.511 170.335 297.511H199.022C200.943 297.511 202.5 299.068 202.5 300.99C202.501 302.911 200.943 304.468 199.022 304.468Z" fill="#8F6FC9"/>
<path d="M216.287 304.468H212.063C210.142 304.468 208.585 302.911 208.585 300.989C208.585 299.068 210.142 297.511 212.063 297.511H216.287C218.208 297.511 219.766 299.068 219.766 300.989C219.766 302.911 218.208 304.468 216.287 304.468Z" fill="#8F6FC9"/>
<path d="M232.78 304.468H228.556C226.635 304.468 225.078 302.911 225.078 300.989C225.078 299.068 226.635 297.511 228.556 297.511H232.78C234.701 297.511 236.258 299.068 236.258 300.989C236.258 302.911 234.701 304.468 232.78 304.468Z" fill="#8F6FC9"/>
<path opacity="0.46" d="M123.103 261.79C123.103 256.409 125.686 256.409 125.686 251.028C125.686 245.648 123.103 245.648 123.103 240.269C123.103 234.886 125.686 234.886 125.686 229.503C125.686 224.12 123.103 224.12 123.103 218.737" stroke="white" stroke-width="2.864" stroke-miterlimit="10" stroke-linecap="round" stroke-linejoin="round"/>
<path opacity="0.46" d="M131.765 243.485C131.765 237.298 134.735 237.298 134.735 231.111C134.735 224.926 131.765 224.926 131.765 218.741C131.765 212.552 134.735 212.552 134.735 206.363C134.735 200.174 131.765 200.174 131.765 193.985" stroke="white" stroke-width="2.864" stroke-miterlimit="10" stroke-linecap="round" stroke-linejoin="round"/>
<path d="M107.575 255.902V262.956C106.216 262.193 104.651 261.753 102.985 261.753C97.7943 261.753 93.5713 265.977 93.5713 271.168C93.5713 276.358 97.7943 280.582 102.985 280.582C104.652 280.582 106.216 280.142 107.575 279.379V295.398C107.575 296.694 108.626 297.745 109.922 297.745H124.394V255.901L107.575 255.902ZM107.575 275.832C106.392 276.996 104.772 277.717 102.985 277.717C99.3743 277.717 96.4353 274.779 96.4353 271.168C96.4353 267.557 99.3733 264.618 102.985 264.618C104.772 264.618 106.392 265.339 107.575 266.503V275.832Z" fill="#D5E6F0"/>
<path d="M124.395 255.902V297.746H140.945C142.241 297.746 143.292 296.695 143.292 295.399V255.903H124.395V255.902Z" fill="white"/>
<path opacity="0.3" d="M406.454 74.3808H380.64C378.851 74.3808 377.402 72.9308 377.402 71.1428C377.402 69.3548 378.852 67.9048 380.64 67.9048H406.454C408.242 67.9048 409.692 69.3548 409.692 71.1428C409.693 72.9308 408.243 74.3808 406.454 74.3808Z" fill="white"/>
<path opacity="0.3" d="M414.66 111.802H388.846C387.058 111.802 385.608 110.352 385.608 108.564C385.608 106.775 387.058 105.326 388.846 105.326H414.66C416.448 105.326 417.898 106.776 417.898 108.564C417.898 110.352 416.448 111.802 414.66 111.802Z" fill="white"/>
<path opacity="0.3" d="M347.222 90.2592H331.776C329.988 90.2592 328.538 88.8092 328.538 87.0212C328.538 85.2332 329.988 83.7832 331.776 83.7832H347.222C349.011 83.7832 350.46 85.2332 350.46 87.0212C350.46 88.8102 349.01 90.2592 347.222 90.2592Z" fill="white"/>
<path opacity="0.3" d="M112.255 143.865H96.8093C95.0213 143.865 93.5713 142.415 93.5713 140.627C93.5713 138.839 95.0213 137.389 96.8093 137.389H112.255C114.043 137.389 115.493 138.839 115.493 140.627C115.493 142.415 114.043 143.865 112.255 143.865Z" fill="white"/>
<path opacity="0.3" d="M393.239 87.03C393.239 85.242 391.789 83.792 390.001 83.792H364.187C362.399 83.792 360.949 85.242 360.949 87.03C360.949 88.818 362.399 90.268 364.187 90.268H366.195C367.178 90.268 367.974 91.065 367.974 92.048V92.096C367.974 93.079 367.177 93.875 366.195 93.875H361.311C359.523 93.875 358.073 95.325 358.073 97.113C358.073 98.901 359.523 100.351 361.311 100.351H387.125C388.913 100.351 390.363 98.901 390.363 97.113C390.363 95.325 388.913 93.875 387.125 93.875H384.117C383.134 93.875 382.337 93.078 382.337 92.096V92.048C382.337 91.065 383.134 90.268 384.117 90.268H390.001C391.789 90.268 393.239 88.818 393.239 87.03Z" fill="white"/>
<path d="M370.847 115.67H383.958C387.33 115.67 390.064 112.936 390.064 109.564C390.064 106.192 387.33 103.458 383.958 103.458H370.847C367.475 103.458 364.741 106.192 364.741 109.564C364.741 112.937 367.475 115.67 370.847 115.67Z" fill="#FFEFB0"/>
<path d="M378.851 109.259C382.055 109.259 384.652 106.662 384.652 103.458C384.652 100.254 382.055 97.6572 378.851 97.6572C375.647 97.6572 373.05 100.254 373.05 103.458C373.05 106.662 375.647 109.259 378.851 109.259Z" fill="#FFEFB0"/>
<path d="M372.548 106.426C374.422 106.426 375.94 104.907 375.94 103.034C375.94 101.161 374.422 99.6421 372.548 99.6421C370.675 99.6421 369.156 101.161 369.156 103.034C369.156 104.907 370.675 106.426 372.548 106.426Z" fill="#FFEFB0"/>
<path opacity="0.87" d="M174.662 63.2431C174.729 62.8981 174.766 62.5431 174.766 62.1781C174.766 59.1101 172.279 56.623 169.211 56.623C168.253 56.623 167.352 56.8661 166.566 57.2921C164.839 54.9201 162.048 53.373 158.89 53.373C153.643 53.373 149.39 57.626 149.39 62.873C149.39 62.896 149.393 62.9181 149.393 62.9411C144.404 63.5041 140.526 67.733 140.526 72.873C140.526 78.396 145.003 82.873 150.526 82.873H171.998C177.521 82.873 181.998 78.396 181.998 72.873C181.997 68.274 178.889 64.4101 174.662 63.2431Z" fill="#FFEFB0"/>
<path d="M157.324 72.4111L157.452 74.9821C157.53 76.3961 157.916 76.8081 158.816 76.8081H159.227V79.1231H157.786C156.192 79.1231 155.062 78.2231 154.932 76.2681L154.727 72.8231C154.65 71.6391 154.391 71.2791 153.312 71.2791V68.9651C154.393 68.9651 154.65 68.6051 154.727 67.4221L154.932 63.9761C155.061 62.0221 156.191 61.1221 157.786 61.1221H159.227V63.4361H158.816C157.916 63.4361 157.53 63.8471 157.452 65.2621L157.324 67.8341C157.273 68.7851 156.965 69.7881 155.654 70.1231C156.965 70.4561 157.273 71.4591 157.324 72.4111Z" fill="#8F6FC9"/>
<path d="M165.199 67.8341L165.071 65.2621C164.994 63.8481 164.608 63.4361 163.708 63.4361H163.297V61.1221H164.737C166.332 61.1221 167.463 62.0221 167.592 63.9761L167.798 67.4221C167.875 68.6051 168.132 68.9651 169.212 68.9651V71.2791C168.131 71.2791 167.875 71.6391 167.798 72.8231L167.592 76.2681C167.464 78.2221 166.332 79.1231 164.737 79.1231H163.297V76.8081H163.708C164.608 76.8081 164.994 76.3971 165.071 74.9821L165.199 72.4111C165.251 71.4591 165.559 70.4561 166.871 70.1221C165.559 69.7881 165.25 68.7851 165.199 67.8341Z" fill="#8F6FC9"/>
<path opacity="0.87" d="M286.342 70.1112C286.409 69.7662 286.447 69.4102 286.447 69.0462C286.447 65.9782 283.96 63.4912 280.892 63.4912C279.934 63.4912 279.033 63.7332 278.247 64.1602C276.52 61.7882 273.729 60.2412 270.571 60.2412C265.324 60.2412 261.071 64.4942 261.071 69.7412C261.071 69.7642 261.074 69.7862 261.075 69.8092C256.086 70.3722 252.207 74.6012 252.207 79.7412C252.207 85.2642 256.684 89.7412 262.207 89.7412H283.679C289.202 89.7412 293.679 85.2642 293.679 79.7412C293.678 75.1422 290.569 71.2792 286.342 70.1112Z" fill="#FFEFB0"/>
<path d="M273.88 65.7692C269.903 65.2512 266.26 68.0542 265.741 72.0312C265.282 75.5542 267.43 78.8132 270.691 79.8722L270.582 80.7122C270.547 80.9812 270.717 81.2272 270.97 81.2992L270.514 84.8022L270.353 84.7812C270.189 84.7602 270.043 84.8432 270.027 84.9672L268.808 94.3242C268.789 94.4682 268.928 94.6062 269.119 94.6302L269.056 94.6222L269.007 94.9962C268.994 95.0982 269.092 95.1962 269.227 95.2132L269.832 95.2922L270.437 95.3712C270.572 95.3892 270.692 95.3202 270.705 95.2172L270.754 94.8432L270.691 94.8352C270.881 94.8602 271.051 94.7632 271.07 94.6182L272.289 85.2612C272.305 85.1372 272.186 85.0192 272.022 84.9972L271.861 84.9762L272.317 81.4722C272.58 81.4682 272.808 81.2732 272.843 81.0052L272.944 80.2272C276.539 80.2302 279.665 77.5662 280.142 73.9052C280.66 69.9312 277.857 66.2872 273.88 65.7692ZM272.226 78.4622C271.154 78.3222 270.192 77.8852 269.417 77.2432C268.43 76.4282 267.742 75.2842 267.499 74.0042C267.391 73.4412 267.371 72.8522 267.449 72.2532C267.844 69.2202 270.624 67.0812 273.657 67.4772C274.256 67.5552 274.819 67.7262 275.336 67.9742C276.511 68.5362 277.44 69.4952 277.976 70.6572C278.398 71.5722 278.574 72.6122 278.435 73.6852C278.039 76.7182 275.26 78.8572 272.226 78.4622Z" fill="#8F6FC9"/>
<path opacity="0.87" d="M115.959 167.816C116.026 167.471 116.064 167.116 116.064 166.751C116.064 163.683 113.577 161.196 110.509 161.196C109.551 161.196 108.65 161.438 107.864 161.865C106.137 159.493 103.346 157.946 100.188 157.946C94.9412 157.946 90.6882 162.199 90.6882 167.446C90.6882 167.469 90.6912 167.491 90.6922 167.514C85.7032 168.077 81.8242 172.306 81.8242 177.445C81.8242 182.968 86.3012 187.445 91.8242 187.445H113.296C118.819 187.445 123.296 182.968 123.296 177.445C123.295 172.847 120.187 168.984 115.959 167.816Z" fill="#FFEFB0"/>
<path d="M108.033 180.992V178.805L114.235 176.59L108.033 174.375V172.187L117.059 175.51V177.669L108.033 180.992Z" fill="#8F6FC9"/>
<path d="M86.7598 177.67V175.511L95.7858 172.188V174.376L89.5838 176.591L95.7858 178.806V180.993L86.7598 177.67Z" fill="#8F6FC9"/>
<path d="M104.187 169.924H106.075L100.592 183.83H98.7051L104.187 169.924Z" fill="#8F6FC9"/>
<path d="M320.854 69.8221V67.6351L327.056 65.4201L320.854 63.2051V61.0171L329.88 64.3401V66.4991L320.854 69.8221Z" fill="#8F6FC9"/>
<path d="M299.582 66.5001V64.3411L308.608 61.0181V63.2061L302.406 65.4211L308.608 67.6361V69.8231L299.582 66.5001Z" fill="#8F6FC9"/>
<path d="M317.009 58.7539H318.897L313.414 72.6599H311.525L317.009 58.7539Z" fill="#8F6FC9"/>
<path d="M224.92 70.8831L227.003 72.9661C228.991 70.9771 232.139 70.8891 234.019 72.7691L234.569 72.2191L236.222 70.5661C234.733 69.0771 232.75 68.3591 230.739 68.3891C228.659 68.4211 226.548 69.2541 224.92 70.8831Z" fill="#80A880"/>
<path d="M226.603 64.253C224.76 64.92 223.013 65.989 221.52 67.482L223.603 69.565C225.151 68.017 227.052 67.053 229.017 66.667C232.092 66.062 235.325 66.881 237.616 69.172L239.819 66.969C236.326 63.477 231.162 62.603 226.603 64.253Z" fill="#80A880"/>
<path d="M228.381 74.3441L230.412 76.3751L232.561 74.2261C231.439 73.1051 229.568 73.1571 228.381 74.3441Z" fill="#80A880"/>
<path d="M90.6865 106.297L92.7695 108.38C94.7585 106.391 97.9055 106.303 99.7855 108.183L100.336 107.633L101.989 105.98C100.5 104.491 98.5165 103.773 96.5055 103.803C94.4255 103.836 92.3145 104.669 90.6865 106.297Z" fill="#8F6FC9"/>
<path d="M92.3691 99.668C90.5261 100.335 88.7791 101.404 87.2861 102.897L89.3691 104.98C90.9171 103.432 92.8181 102.468 94.7831 102.082C97.8581 101.477 101.091 102.296 103.382 104.587L105.585 102.384C102.092 98.892 96.9281 98.017 92.3691 99.668Z" fill="#8F6FC9"/>
<path d="M94.1475 109.758L96.1785 111.789L98.3275 109.64C97.2055 108.519 95.3345 108.572 94.1475 109.758Z" fill="#8F6FC9"/>
<path d="M184.27 61.639C183.994 61.639 183.77 61.415 183.77 61.139C183.77 60.626 183.785 60.116 183.814 59.612C183.83 59.336 184.072 59.125 184.341 59.141C184.617 59.157 184.828 59.393 184.812 59.668C184.784 60.154 184.77 60.645 184.77 61.139C184.77 61.415 184.546 61.639 184.27 61.639ZM184.66 57.161C184.631 57.161 184.602 57.159 184.573 57.154C184.301 57.106 184.119 56.847 184.167 56.575C184.256 56.071 184.359 55.572 184.477 55.077C184.54 54.808 184.81 54.639 185.079 54.706C185.347 54.769 185.514 55.039 185.45 55.308C185.338 55.783 185.238 56.264 185.153 56.749C185.109 56.99 184.898 57.161 184.66 57.161ZM185.826 52.82C185.769 52.82 185.711 52.81 185.654 52.79C185.395 52.695 185.261 52.408 185.356 52.148C185.532 51.668 185.722 51.194 185.924 50.728C186.033 50.475 186.326 50.358 186.582 50.469C186.835 50.579 186.952 50.873 186.841 51.127C186.646 51.576 186.464 52.031 186.295 52.492C186.222 52.694 186.03 52.82 185.826 52.82ZM187.738 48.752C187.653 48.752 187.566 48.73 187.487 48.684C187.248 48.545 187.168 48.239 187.306 48C187.563 47.559 187.832 47.125 188.115 46.701C188.267 46.47 188.577 46.407 188.808 46.562C189.038 46.715 189.1 47.025 188.947 47.255C188.676 47.663 188.417 48.079 188.17 48.503C188.078 48.663 187.91 48.752 187.738 48.752ZM190.332 45.081C190.218 45.081 190.103 45.042 190.009 44.963C189.799 44.784 189.772 44.469 189.95 44.258C190.28 43.869 190.62 43.49 190.972 43.121C191.163 42.921 191.48 42.914 191.679 43.104C191.879 43.294 191.887 43.611 191.696 43.811C191.358 44.166 191.031 44.531 190.714 44.905C190.615 45.021 190.474 45.081 190.332 45.081ZM227.74 43.215C227.614 43.215 227.489 43.168 227.392 43.074C227.039 42.733 226.678 42.402 226.306 42.082C226.096 41.902 226.073 41.586 226.253 41.377C226.433 41.167 226.749 41.143 226.958 41.324C227.344 41.656 227.721 42 228.087 42.355C228.285 42.547 228.291 42.864 228.099 43.062C228.001 43.164 227.87 43.215 227.74 43.215ZM193.525 41.918C193.382 41.918 193.239 41.856 193.14 41.737C192.964 41.525 192.993 41.21 193.205 41.033C193.597 40.708 193.997 40.393 194.408 40.091C194.631 39.927 194.944 39.974 195.107 40.196C195.271 40.418 195.224 40.731 195.002 40.895C194.607 41.186 194.221 41.489 193.844 41.802C193.75 41.88 193.637 41.918 193.525 41.918ZM224.249 40.382C224.153 40.382 224.056 40.354 223.97 40.297C223.564 40.023 223.15 39.76 222.728 39.509C222.491 39.368 222.412 39.061 222.554 38.824C222.695 38.587 223.003 38.508 223.239 38.65C223.678 38.911 224.109 39.184 224.53 39.468C224.759 39.623 224.819 39.933 224.665 40.162C224.568 40.305 224.41 40.382 224.249 40.382ZM197.217 39.357C197.043 39.357 196.875 39.267 196.783 39.105C196.646 38.865 196.729 38.56 196.969 38.423C197.411 38.17 197.862 37.93 198.319 37.704C198.567 37.58 198.865 37.683 198.989 37.931C199.112 38.178 199.01 38.478 198.762 38.601C198.322 38.819 197.889 39.049 197.465 39.292C197.386 39.336 197.301 39.357 197.217 39.357ZM220.32 38.201C220.252 38.201 220.183 38.187 220.117 38.158C219.67 37.959 219.216 37.773 218.756 37.6C218.497 37.503 218.367 37.214 218.463 36.956C218.56 36.697 218.848 36.568 219.107 36.664C219.586 36.844 220.058 37.037 220.523 37.244C220.775 37.356 220.889 37.652 220.777 37.904C220.694 38.09 220.512 38.201 220.32 38.201ZM201.299 37.481C201.093 37.481 200.901 37.353 200.828 37.149C200.735 36.889 200.87 36.603 201.131 36.51C201.61 36.339 202.094 36.182 202.586 36.039C202.851 35.959 203.129 36.114 203.206 36.379C203.283 36.644 203.131 36.922 202.866 36.999C202.394 37.136 201.928 37.287 201.468 37.451C201.411 37.471 201.354 37.481 201.299 37.481ZM216.068 36.744C216.028 36.744 215.988 36.74 215.948 36.729C215.474 36.612 214.995 36.509 214.51 36.419C214.239 36.369 214.059 36.108 214.109 35.837C214.159 35.566 214.417 35.384 214.691 35.436C215.195 35.529 215.694 35.637 216.186 35.758C216.454 35.824 216.618 36.095 216.552 36.363C216.497 36.591 216.293 36.744 216.068 36.744ZM205.647 36.353C205.407 36.353 205.195 36.18 205.154 35.936C205.109 35.664 205.292 35.406 205.565 35.36C206.065 35.277 206.57 35.207 207.08 35.153C207.352 35.127 207.6 35.322 207.63 35.597C207.659 35.871 207.461 36.118 207.186 36.147C206.696 36.199 206.211 36.266 205.73 36.347C205.702 36.351 205.674 36.353 205.647 36.353ZM211.626 36.056C211.615 36.056 211.604 36.055 211.593 36.055C211.106 36.023 210.615 36.005 210.122 36C209.846 35.998 209.624 35.772 209.626 35.496C209.628 35.222 209.852 35 210.126 35C210.128 35 210.13 35 210.13 35C210.643 35.004 211.152 35.023 211.658 35.057C211.934 35.075 212.142 35.313 212.124 35.589C212.107 35.854 211.887 36.056 211.626 36.056Z" fill="#8F6FC9"/>
<path d="M234.189 49.7849L230.493 40.1729L224.865 45.4118L234.189 49.7849Z" fill="#8F6FC9"/>
<path d="M362.083 193.622C362.504 193.88 362.929 194.125 363.358 194.355C363.601 194.485 363.692 194.789 363.561 195.032C363.434 195.27 363.128 195.367 362.884 195.235C362.439 194.995 361.997 194.742 361.559 194.474C361.323 194.329 361.25 194.022 361.394 193.786C361.54 193.551 361.847 193.478 362.083 193.622ZM366.025 195.593C366.483 195.774 366.944 195.941 367.408 196.093C367.671 196.179 367.813 196.462 367.727 196.724C367.643 196.988 367.358 197.129 367.096 197.043C366.613 196.884 366.134 196.711 365.657 196.523C365.4 196.421 365.274 196.131 365.376 195.874C365.387 195.847 365.4 195.821 365.415 195.796C365.54 195.593 365.796 195.503 366.025 195.593ZM370.251 196.844C370.733 196.941 371.216 197.024 371.7 197.093C371.974 197.132 372.164 197.385 372.125 197.658C372.086 197.934 371.833 198.123 371.56 198.083C371.056 198.012 370.553 197.926 370.052 197.825C369.781 197.77 369.606 197.506 369.661 197.235C369.673 197.176 369.695 197.121 369.725 197.073C369.832 196.899 370.039 196.801 370.251 196.844ZM374.631 197.332C375.121 197.343 375.612 197.34 376.101 197.323C376.377 197.313 376.609 197.528 376.619 197.804C376.63 198.081 376.415 198.313 376.138 198.322C375.628 198.341 375.118 198.344 374.608 198.332C374.332 198.326 374.114 198.097 374.12 197.82C374.122 197.729 374.149 197.644 374.193 197.571C374.283 197.424 374.446 197.328 374.631 197.332ZM379.029 197.047C379.514 196.973 379.996 196.885 380.475 196.782C380.745 196.724 381.011 196.896 381.068 197.166C381.126 197.435 380.954 197.701 380.684 197.759C380.186 197.866 379.684 197.958 379.18 198.035C378.907 198.077 378.652 197.889 378.61 197.616C378.592 197.494 378.619 197.376 378.678 197.279C378.752 197.159 378.877 197.07 379.029 197.047ZM400.152 166.146C400.421 166.086 400.689 166.256 400.748 166.526C400.859 167.023 400.955 167.524 401.036 168.027C401.081 168.3 400.895 168.557 400.622 168.6C400.349 168.644 400.093 168.459 400.049 168.186C399.971 167.702 399.878 167.221 399.772 166.742C399.743 166.61 399.768 166.479 399.834 166.372C399.902 166.261 400.014 166.177 400.152 166.146ZM383.309 196.002C383.773 195.845 384.233 195.674 384.688 195.49C384.944 195.386 385.236 195.51 385.339 195.766C385.443 196.022 385.32 196.313 385.063 196.417C384.59 196.608 384.113 196.785 383.631 196.949C383.369 197.038 383.085 196.898 382.997 196.637C382.947 196.49 382.969 196.336 383.044 196.214C383.103 196.117 383.194 196.041 383.309 196.002ZM400.827 170.59C401.103 170.578 401.336 170.792 401.348 171.068C401.37 171.576 401.378 172.086 401.37 172.596C401.367 172.872 401.139 173.093 400.863 173.089C400.587 173.085 400.367 172.858 400.37 172.582C400.377 172.091 400.369 171.6 400.348 171.111C400.344 171.008 400.371 170.91 400.421 170.828C400.506 170.692 400.654 170.598 400.827 170.59ZM387.343 194.229C387.772 193.994 388.195 193.746 388.61 193.485C388.844 193.338 389.153 193.409 389.3 193.642C389.447 193.877 389.378 194.185 389.143 194.332C388.711 194.603 388.27 194.861 387.824 195.107C387.582 195.24 387.278 195.151 387.145 194.909C387.055 194.746 387.067 194.555 387.157 194.407C387.202 194.334 387.264 194.272 387.343 194.229ZM400.718 175.084C400.992 175.121 401.184 175.372 401.148 175.646C401.081 176.15 400.999 176.654 400.902 177.156C400.848 177.427 400.588 177.605 400.316 177.552C400.045 177.499 399.868 177.237 399.92 176.966C400.013 176.483 400.092 176 400.156 175.514C400.166 175.442 400.19 175.377 400.225 175.319C400.326 175.155 400.516 175.058 400.718 175.084ZM391.005 191.78C391.385 191.474 391.758 191.155 392.122 190.825C392.326 190.639 392.642 190.655 392.828 190.859C393.014 191.063 393.001 191.381 392.794 191.565C392.416 191.909 392.028 192.24 391.632 192.559C391.417 192.732 391.102 192.698 390.929 192.483C390.793 192.314 390.785 192.083 390.892 191.908C390.921 191.861 390.959 191.817 391.005 191.78ZM399.822 179.491C400.085 179.575 400.23 179.856 400.146 180.119C399.992 180.602 399.823 181.084 399.639 181.562C399.54 181.823 399.25 181.948 398.993 181.849C398.735 181.75 398.607 181.46 398.706 181.203C398.883 180.743 399.046 180.281 399.194 179.816C399.206 179.777 399.224 179.74 399.244 179.706C399.362 179.514 399.599 179.419 399.822 179.491ZM394.177 188.725C394.497 188.358 394.808 187.979 395.108 187.589C395.277 187.37 395.59 187.33 395.809 187.498C396.028 187.667 396.065 187.98 395.9 188.199C395.587 188.605 395.264 188.999 394.931 189.381C394.75 189.589 394.434 189.611 394.226 189.43C394.039 189.267 394.003 188.996 394.128 188.792C394.142 188.769 394.158 188.746 394.177 188.725ZM398.166 183.67C398.41 183.799 398.504 184.101 398.375 184.346C398.139 184.794 397.889 185.238 397.624 185.678L397.622 185.682C397.478 185.916 397.173 185.99 396.938 185.849C396.701 185.707 396.625 185.399 396.767 185.163C397.021 184.74 397.263 184.312 397.49 183.88C397.495 183.87 397.501 183.861 397.506 183.851C397.644 183.628 397.932 183.547 398.166 183.67Z" fill="#8F6FC9"/>
<path d="M397.607 157.438L403.867 165.616L396.458 167.672L397.607 157.438Z" fill="#8F6FC9"/>
<path d="M355.233 86.2183C355.491 85.7973 355.736 85.3723 355.966 84.9433C356.096 84.7003 356.4 84.6093 356.643 84.7403C356.881 84.8673 356.978 85.1733 356.846 85.4173C356.606 85.8623 356.353 86.3043 356.085 86.7423C355.94 86.9783 355.633 87.0513 355.397 86.9073C355.162 86.7613 355.088 86.4543 355.233 86.2183ZM357.203 82.2763C357.384 81.8183 357.551 81.3573 357.703 80.8933C357.789 80.6303 358.072 80.4883 358.334 80.5743C358.598 80.6583 358.739 80.9433 358.653 81.2053C358.494 81.6883 358.321 82.1673 358.133 82.6443C358.031 82.9013 357.741 83.0273 357.484 82.9253C357.457 82.9143 357.431 82.9013 357.406 82.8863C357.203 82.7613 357.113 82.5053 357.203 82.2763ZM358.454 78.0503C358.551 77.5683 358.634 77.0853 358.703 76.6013C358.742 76.3273 358.995 76.1373 359.268 76.1763C359.544 76.2153 359.733 76.4683 359.693 76.7413C359.622 77.2443 359.536 77.7473 359.435 78.2483C359.38 78.5193 359.116 78.6943 358.846 78.6393C358.787 78.6273 358.732 78.6053 358.684 78.5753C358.509 78.4693 358.411 78.2613 358.454 78.0503ZM358.942 73.6703C358.953 73.1793 358.95 72.6893 358.933 72.2003C358.923 71.9243 359.138 71.6923 359.414 71.6823C359.691 71.6713 359.923 71.8863 359.932 72.1633C359.951 72.6733 359.954 73.1833 359.942 73.6933C359.935 73.9693 359.707 74.1873 359.43 74.1813C359.339 74.1793 359.253 74.1523 359.181 74.1083C359.034 74.0183 358.938 73.8553 358.942 73.6703ZM358.657 69.2723C358.583 68.7873 358.495 68.3053 358.392 67.8263C358.334 67.5563 358.506 67.2903 358.776 67.2333C359.045 67.1753 359.311 67.3473 359.369 67.6173C359.476 68.1153 359.568 68.6173 359.645 69.1213C359.687 69.3943 359.499 69.6493 359.226 69.6913C359.104 69.7093 358.986 69.6823 358.889 69.6233C358.769 69.5493 358.68 69.4243 358.657 69.2723ZM327.756 48.1493C327.696 47.8803 327.867 47.6123 328.136 47.5533C328.633 47.4423 329.134 47.3463 329.637 47.2653C329.91 47.2203 330.167 47.4063 330.21 47.6793C330.254 47.9523 330.069 48.2083 329.796 48.2523C329.312 48.3303 328.83 48.4233 328.352 48.5293C328.22 48.5583 328.089 48.5333 327.982 48.4673C327.871 48.3993 327.787 48.2873 327.756 48.1493ZM357.612 64.9923C357.455 64.5283 357.284 64.0683 357.1 63.6133C356.996 63.3573 357.12 63.0653 357.376 62.9623C357.632 62.8583 357.923 62.9823 358.027 63.2383C358.218 63.7113 358.395 64.1883 358.559 64.6703C358.648 64.9323 358.508 65.2163 358.246 65.3043C358.099 65.3543 357.945 65.3323 357.823 65.2563C357.727 65.1983 357.651 65.1073 357.612 64.9923ZM332.2 47.4743C332.188 47.1983 332.402 46.9653 332.678 46.9533C333.186 46.9313 333.696 46.9233 334.206 46.9313C334.481 46.9343 334.703 47.1633 334.699 47.4383C334.695 47.7143 334.468 47.9353 334.192 47.9313C333.701 47.9243 333.21 47.9323 332.721 47.9533C332.618 47.9573 332.52 47.9303 332.438 47.8803C332.302 47.7953 332.208 47.6463 332.2 47.4743ZM355.839 60.9583C355.604 60.5293 355.356 60.1063 355.095 59.6913C354.948 59.4573 355.019 59.1483 355.252 59.0023C355.487 58.8553 355.795 58.9243 355.942 59.1593C356.213 59.5913 356.472 60.0323 356.717 60.4783C356.85 60.7203 356.761 61.0243 356.519 61.1573C356.356 61.2463 356.165 61.2353 356.017 61.1453C355.944 61.0993 355.883 61.0373 355.839 60.9583ZM336.694 47.5833C336.731 47.3093 336.982 47.1173 337.256 47.1533C337.76 47.2203 338.264 47.3023 338.766 47.3993C339.037 47.4533 339.215 47.7133 339.162 47.9853C339.109 48.2563 338.847 48.4343 338.576 48.3813C338.094 48.2883 337.61 48.2093 337.124 48.1453C337.052 48.1353 336.987 48.1113 336.929 48.0763C336.766 47.9753 336.668 47.7853 336.694 47.5833ZM353.39 57.2963C353.084 56.9163 352.765 56.5433 352.435 56.1793C352.249 55.9753 352.265 55.6583 352.469 55.4733C352.673 55.2873 352.991 55.3003 353.175 55.5073C353.519 55.8853 353.85 56.2733 354.169 56.6693C354.342 56.8843 354.308 57.1993 354.093 57.3723C353.924 57.5083 353.693 57.5163 353.518 57.4093C353.471 57.3803 353.427 57.3423 353.39 57.2963ZM341.101 48.4783C341.185 48.2153 341.466 48.0703 341.729 48.1543C342.212 48.3083 342.694 48.4773 343.172 48.6613C343.433 48.7603 343.558 49.0503 343.459 49.3073C343.36 49.5653 343.07 49.6933 342.813 49.5943C342.353 49.4173 341.891 49.2553 341.426 49.1063C341.387 49.0943 341.35 49.0763 341.316 49.0563C341.124 48.9393 341.029 48.7023 341.101 48.4783ZM350.335 54.1243C349.968 53.8043 349.589 53.4933 349.199 53.1923C348.98 53.0233 348.94 52.7103 349.108 52.4913C349.277 52.2723 349.591 52.2353 349.809 52.4003C350.215 52.7133 350.609 53.0363 350.991 53.3693C351.199 53.5503 351.221 53.8663 351.04 54.0743C350.877 54.2613 350.606 54.2983 350.402 54.1723C350.379 54.1593 350.356 54.1433 350.335 54.1243ZM345.28 50.1353C345.409 49.8913 345.711 49.7973 345.956 49.9263C346.404 50.1623 346.848 50.4123 347.288 50.6773L347.292 50.6793C347.526 50.8233 347.6 51.1283 347.459 51.3633C347.317 51.6003 347.009 51.6763 346.773 51.5343C346.35 51.2803 345.922 51.0383 345.49 50.8113C345.48 50.8063 345.471 50.8003 345.461 50.7953C345.238 50.6573 345.157 50.3693 345.28 50.1353Z" fill="#8F6FC9"/>
<path d="M319.048 50.6941L327.226 44.4341L329.282 51.8431L319.048 50.6941Z" fill="#8F6FC9"/>
<path d="M112.472 225.58C112.617 225.816 112.543 226.123 112.307 226.268C111.87 226.536 111.428 226.79 110.982 227.029C110.738 227.16 110.432 227.063 110.305 226.826C110.174 226.583 110.265 226.279 110.508 226.149C110.937 225.918 111.363 225.674 111.783 225.416C112.02 225.27 112.328 225.344 112.472 225.58ZM108.452 227.589C108.467 227.614 108.48 227.639 108.491 227.667C108.592 227.924 108.466 228.214 108.21 228.316C107.734 228.504 107.254 228.677 106.771 228.836C106.509 228.923 106.224 228.781 106.14 228.517C106.054 228.255 106.196 227.972 106.459 227.886C106.923 227.733 107.384 227.567 107.842 227.386C108.071 227.295 108.327 227.386 108.452 227.589ZM104.142 228.865C104.172 228.914 104.194 228.968 104.206 229.027C104.261 229.298 104.086 229.562 103.815 229.616C103.314 229.717 102.811 229.803 102.308 229.874C102.035 229.914 101.782 229.725 101.743 229.449C101.704 229.176 101.894 228.922 102.168 228.884C102.652 228.815 103.135 228.733 103.617 228.635C103.828 228.594 104.035 228.692 104.142 228.865ZM99.6748 229.364C99.7198 229.437 99.7458 229.522 99.7478 229.613C99.7538 229.889 99.5348 230.118 99.2598 230.125C98.7488 230.137 98.2388 230.134 97.7298 230.115C97.4528 230.106 97.2378 229.875 97.2488 229.597C97.2588 229.321 97.4898 229.106 97.7668 229.116C98.2558 229.134 98.7458 229.137 99.2368 229.125C99.4208 229.12 99.5838 229.217 99.6748 229.364ZM95.1888 229.073C95.2488 229.17 95.2748 229.288 95.2568 229.41C95.2148 229.683 94.9598 229.87 94.6868 229.829C94.1828 229.752 93.6808 229.66 93.1828 229.553C92.9128 229.495 92.7408 229.228 92.7988 228.96C92.8568 228.69 93.1218 228.518 93.3918 228.576C93.8708 228.678 94.3528 228.766 94.8378 228.841C94.9898 228.863 95.1148 228.952 95.1888 229.073ZM74.0338 198.166C74.0998 198.273 74.1248 198.404 74.0958 198.536C73.9898 199.015 73.8968 199.496 73.8188 199.98C73.7748 200.253 73.5178 200.438 73.2458 200.394C72.9738 200.35 72.7868 200.094 72.8318 199.821C72.9128 199.318 73.0088 198.817 73.1198 198.32C73.1798 198.051 73.4468 197.88 73.7158 197.94C73.8538 197.969 73.9648 198.054 74.0338 198.166ZM90.8228 228.006C90.8978 228.128 90.9198 228.282 90.8708 228.429C90.7818 228.69 90.4978 228.83 90.2368 228.742C89.7548 228.578 89.2768 228.401 88.8048 228.21C88.5488 228.106 88.4248 227.814 88.5288 227.559C88.6328 227.303 88.9238 227.18 89.1798 227.283C89.6338 227.467 90.0938 227.638 90.5588 227.795C90.6728 227.833 90.7648 227.91 90.8228 228.006ZM73.4448 202.622C73.4948 202.704 73.5218 202.801 73.5178 202.905C73.4968 203.394 73.4888 203.885 73.4958 204.376C73.4998 204.652 73.2788 204.879 73.0028 204.883C72.7278 204.887 72.4988 204.666 72.4958 204.39C72.4888 203.88 72.4958 203.37 72.5178 202.862C72.5298 202.586 72.7628 202.372 73.0388 202.384C73.2128 202.391 73.3608 202.485 73.4448 202.622ZM86.7098 226.198C86.8008 226.346 86.8118 226.537 86.7218 226.7C86.5898 226.942 86.2848 227.031 86.0428 226.898C85.5968 226.653 85.1558 226.395 84.7238 226.123C84.4888 225.977 84.4198 225.669 84.5668 225.434C84.7128 225.2 85.0228 225.13 85.2558 225.277C85.6718 225.538 86.0938 225.786 86.5228 226.021C86.6028 226.065 86.6658 226.127 86.7098 226.198ZM73.6408 207.112C73.6768 207.17 73.7008 207.236 73.7098 207.307C73.7738 207.792 73.8528 208.276 73.9458 208.759C73.9988 209.03 73.8208 209.292 73.5498 209.345C73.2778 209.398 73.0178 209.22 72.9638 208.949C72.8668 208.447 72.7848 207.943 72.7178 207.439C72.6818 207.165 72.8738 206.914 73.1478 206.877C73.3508 206.85 73.5408 206.948 73.6408 207.112ZM82.9748 223.701C83.0828 223.876 83.0748 224.107 82.9378 224.276C82.7648 224.491 82.4498 224.525 82.2348 224.352C81.8388 224.033 81.4508 223.702 81.0728 223.358C80.8658 223.174 80.8528 222.856 81.0388 222.652C81.2248 222.448 81.5408 222.432 81.7448 222.618C82.1088 222.948 82.4808 223.267 82.8618 223.573C82.9088 223.61 82.9458 223.653 82.9748 223.701ZM74.6228 211.498C74.6438 211.532 74.6608 211.569 74.6728 211.608C74.8218 212.073 74.9838 212.535 75.1608 212.995C75.2598 213.253 75.1318 213.542 74.8738 213.641C74.6158 213.74 74.3268 213.615 74.2278 213.354C74.0438 212.876 73.8748 212.395 73.7208 211.911C73.6368 211.648 73.7818 211.367 74.0448 211.283C74.2688 211.212 74.5048 211.306 74.6228 211.498ZM79.7398 220.585C79.8648 220.789 79.8288 221.06 79.6418 221.223C79.4338 221.404 79.1178 221.383 78.9368 221.174C78.6038 220.791 78.2808 220.398 77.9678 219.992C77.8028 219.774 77.8398 219.46 78.0588 219.291C78.2778 219.123 78.5908 219.163 78.7598 219.382C79.0608 219.772 79.3708 220.151 79.6908 220.518C79.7088 220.538 79.7258 220.561 79.7398 220.585ZM76.3598 215.643C76.3658 215.653 76.3708 215.662 76.3768 215.672C76.6038 216.104 76.8448 216.531 77.0998 216.955C77.2418 217.191 77.1658 217.499 76.9288 217.641C76.6938 217.783 76.3888 217.708 76.2448 217.474L76.2428 217.47C75.9778 217.03 75.7278 216.586 75.4918 216.138C75.3628 215.893 75.4568 215.591 75.7008 215.462C75.9358 215.339 76.2228 215.42 76.3598 215.643Z" fill="#8F6FC9"/>
<path d="M76.26 189.231L70 197.408L77.409 199.465L76.26 189.231Z" fill="#8F6FC9"/>
<path d="M242.398 51.868C242.398 52.807 241.636 53.569 240.697 53.569C239.758 53.569 238.996 52.807 238.996 51.868C238.996 50.929 239.757 50.167 240.697 50.167C241.637 50.167 242.398 50.929 242.398 51.868Z" fill="#8F6FC9"/>
<path d="M247.721 53.569C248.66 53.569 249.422 52.8074 249.422 51.868C249.422 50.9286 248.66 50.167 247.721 50.167C246.781 50.167 246.02 50.9286 246.02 51.868C246.02 52.8074 246.781 53.569 247.721 53.569Z" fill="#8F6FC9"/>
<path d="M256.444 51.868C256.444 52.807 255.683 53.569 254.743 53.569C253.804 53.569 253.042 52.807 253.042 51.868C253.042 50.929 253.803 50.167 254.743 50.167C255.682 50.167 256.444 50.929 256.444 51.868Z" fill="#8F6FC9"/>
<path d="M261.766 53.569C262.706 53.569 263.467 52.8074 263.467 51.868C263.467 50.9286 262.706 50.167 261.766 50.167C260.827 50.167 260.065 50.9286 260.065 51.868C260.065 52.8074 260.827 53.569 261.766 53.569Z" fill="#8F6FC9"/>
<path d="M283.143 44.1178C284.083 44.1178 284.844 43.3563 284.844 42.4168C284.844 41.4774 284.083 40.7158 283.143 40.7158C282.204 40.7158 281.442 41.4774 281.442 42.4168C281.442 43.3563 282.204 44.1178 283.143 44.1178Z" fill="#80A880"/>
<path d="M290.167 44.1178C291.106 44.1178 291.868 43.3563 291.868 42.4168C291.868 41.4774 291.106 40.7158 290.167 40.7158C289.227 40.7158 288.466 41.4774 288.466 42.4168C288.466 43.3563 289.227 44.1178 290.167 44.1178Z" fill="#80A880"/>
<path d="M298.89 42.4168C298.89 43.3558 298.128 44.1178 297.189 44.1178C296.25 44.1178 295.488 43.3558 295.488 42.4168C295.488 41.4778 296.249 40.7158 297.189 40.7158C298.128 40.7158 298.89 41.4778 298.89 42.4168Z" fill="#80A880"/>
<path d="M304.213 44.1178C305.152 44.1178 305.914 43.3563 305.914 42.4168C305.914 41.4774 305.152 40.7158 304.213 40.7158C303.273 40.7158 302.512 41.4774 302.512 42.4168C302.512 43.3563 303.273 44.1178 304.213 44.1178Z" fill="#80A880"/>
<path d="M98.7409 204.254C98.7409 205.193 97.9799 205.955 97.0399 205.955C96.1009 205.955 95.3389 205.193 95.3389 204.254C95.3389 203.315 96.0999 202.553 97.0399 202.553C97.9799 202.553 98.7409 203.315 98.7409 204.254Z" fill="#8F6FC9"/>
<path d="M104.063 205.955C105.003 205.955 105.764 205.194 105.764 204.254C105.764 203.315 105.003 202.553 104.063 202.553C103.124 202.553 102.362 203.315 102.362 204.254C102.362 205.194 103.124 205.955 104.063 205.955Z" fill="#8F6FC9"/>
<path d="M111.086 205.955C112.025 205.955 112.787 205.194 112.787 204.254C112.787 203.315 112.025 202.553 111.086 202.553C110.146 202.553 109.385 203.315 109.385 204.254C109.385 205.194 110.146 205.955 111.086 205.955Z" fill="#8F6FC9"/>
<path d="M119.81 204.254C119.81 205.193 119.049 205.955 118.109 205.955C117.17 205.955 116.408 205.193 116.408 204.254C116.408 203.315 117.169 202.553 118.109 202.553C119.048 202.553 119.81 203.315 119.81 204.254Z" fill="#8F6FC9"/>
<path d="M76.2291 150.906C76.2291 151.845 75.4682 152.607 74.5282 152.607C73.5882 152.607 72.8271 151.845 72.8271 150.906C72.8271 149.967 73.5882 149.205 74.5282 149.205C75.4682 149.205 76.2291 149.966 76.2291 150.906Z" fill="#80A880"/>
<path d="M83.2526 150.906C83.2526 151.845 82.4906 152.607 81.5516 152.607C80.6126 152.607 79.8506 151.845 79.8506 150.906C79.8506 149.967 80.6116 149.205 81.5516 149.205C82.4916 149.205 83.2526 149.966 83.2526 150.906Z" fill="#80A880"/>
<path d="M88.5741 152.607C89.5135 152.607 90.275 151.846 90.275 150.906C90.275 149.967 89.5135 149.205 88.5741 149.205C87.6346 149.205 86.873 149.967 86.873 150.906C86.873 151.846 87.6346 152.607 88.5741 152.607Z" fill="#80A880"/>
<path d="M97.2975 150.906C97.2975 151.845 96.5365 152.607 95.5965 152.607C94.6575 152.607 93.8955 151.845 93.8955 150.906C93.8955 149.967 94.6565 149.205 95.5965 149.205C96.5365 149.205 97.2975 149.966 97.2975 150.906Z" fill="#80A880"/>
<path d="M370.767 176.59C370.767 177.529 370.005 178.291 369.066 178.291C368.127 178.291 367.365 177.53 367.365 176.59C367.365 175.651 368.126 174.889 369.066 174.889C370.006 174.889 370.767 175.65 370.767 176.59Z" fill="#80A880"/>
<path d="M377.791 176.59C377.791 177.529 377.029 178.291 376.09 178.291C375.151 178.291 374.389 177.53 374.389 176.59C374.389 175.651 375.15 174.889 376.09 174.889C377.029 174.889 377.791 175.65 377.791 176.59Z" fill="#80A880"/>
<path d="M384.812 176.59C384.812 177.529 384.051 178.291 383.111 178.291C382.172 178.291 381.41 177.53 381.41 176.59C381.41 175.651 382.171 174.889 383.111 174.889C384.051 174.889 384.812 175.65 384.812 176.59Z" fill="#80A880"/>
<path d="M391.836 176.59C391.836 177.529 391.074 178.291 390.135 178.291C389.196 178.291 388.434 177.53 388.434 176.59C388.434 175.651 389.196 174.889 390.135 174.889C391.074 174.889 391.836 175.65 391.836 176.59Z" fill="#80A880"/>
<path d="M364.818 167.127C364.818 168.066 364.057 168.828 363.117 168.828C362.177 168.828 361.416 168.067 361.416 167.127C361.416 166.188 362.178 165.426 363.117 165.426C364.056 165.426 364.818 166.188 364.818 167.127Z" fill="#FFEFB0"/>
<path d="M371.84 167.127C371.84 168.066 371.079 168.828 370.139 168.828C369.199 168.828 368.438 168.067 368.438 167.127C368.438 166.188 369.2 165.426 370.139 165.426C371.078 165.426 371.84 166.188 371.84 167.127Z" fill="#FFEFB0"/>
<path d="M378.863 167.127C378.863 168.066 378.101 168.828 377.162 168.828C376.223 168.828 375.461 168.067 375.461 167.127C375.461 166.188 376.222 165.426 377.162 165.426C378.102 165.426 378.863 166.188 378.863 167.127Z" fill="#FFEFB0"/>
<path d="M385.886 167.127C385.886 168.066 385.124 168.828 384.185 168.828C383.246 168.828 382.484 168.067 382.484 167.127C382.484 166.188 383.246 165.426 384.185 165.426C385.124 165.426 385.886 166.188 385.886 167.127Z" fill="#FFEFB0"/>
<path opacity="0.87" d="M419.503 133.664C419.57 133.319 419.607 132.964 419.607 132.599C419.607 129.531 417.12 127.044 414.052 127.044C413.094 127.044 412.193 127.286 411.407 127.713C409.68 125.341 406.889 123.794 403.731 123.794C398.484 123.794 394.231 128.047 394.231 133.294C394.231 133.317 394.234 133.339 394.235 133.362C389.246 133.925 385.368 138.154 385.368 143.294C385.368 148.817 389.845 153.294 395.368 153.294H416.84C422.363 153.294 426.84 148.817 426.84 143.294C426.839 138.695 423.731 134.831 419.503 133.664Z" fill="#FFEFB0"/>
<path d="M394.172 142.344C395.274 142.344 395.521 141.813 395.741 141.203H396.701V150.278H395.275V143.355H394.173V142.344H394.172Z" fill="#8F6FC9"/>
<path d="M398.306 143.381C398.306 141.929 399.071 141.099 400.471 141.099C401.871 141.099 402.636 141.929 402.636 143.381V148.1C402.636 149.552 401.871 150.382 400.471 150.382C399.071 150.382 398.306 149.552 398.306 148.1V143.381ZM399.733 148.19C399.733 148.838 400.018 149.085 400.472 149.085C400.926 149.085 401.211 148.838 401.211 148.19V143.29C401.211 142.642 400.926 142.395 400.472 142.395C400.018 142.395 399.733 142.641 399.733 143.29V148.19Z" fill="#8F6FC9"/>
<path d="M404.438 142.344C405.539 142.344 405.786 141.813 406.007 141.203H406.965V150.278H405.539V143.355H404.438V142.344Z" fill="#8F6FC9"/>
<path d="M408.572 143.381C408.572 141.929 409.337 141.099 410.737 141.099C412.137 141.099 412.902 141.929 412.902 143.381V148.1C412.902 149.552 412.137 150.382 410.737 150.382C409.336 150.382 408.572 149.552 408.572 148.1V143.381ZM409.998 148.19C409.998 148.838 410.283 149.085 410.737 149.085C411.191 149.085 411.476 148.838 411.476 148.19V143.29C411.476 142.642 411.191 142.395 410.737 142.395C410.283 142.395 409.998 142.641 409.998 143.29V148.19Z" fill="#8F6FC9"/>
<path d="M413.705 143.381C413.705 141.929 414.47 141.099 415.87 141.099C417.27 141.099 418.035 141.929 418.035 143.381V148.1C418.035 149.552 417.27 150.382 415.87 150.382C414.47 150.382 413.705 149.552 413.705 148.1V143.381ZM415.131 148.19C415.131 148.838 415.416 149.085 415.87 149.085C416.324 149.085 416.609 148.838 416.609 148.19V143.29C416.609 142.642 416.324 142.395 415.87 142.395C415.416 142.395 415.131 142.641 415.131 143.29V148.19Z" fill="#8F6FC9"/>
<path d="M398.805 132.535C398.805 131.083 399.57 130.253 400.97 130.253C402.37 130.253 403.135 131.083 403.135 132.535V137.254C403.135 138.706 402.37 139.536 400.97 139.536C399.569 139.536 398.805 138.706 398.805 137.254V132.535ZM400.232 137.345C400.232 137.993 400.517 138.24 400.971 138.24C401.425 138.24 401.71 137.993 401.71 137.345V132.445C401.71 131.797 401.425 131.55 400.971 131.55C400.517 131.55 400.232 131.796 400.232 132.445V137.345Z" fill="#8F6FC9"/>
<path d="M404.937 131.498C406.039 131.498 406.286 130.966 406.506 130.357H407.466V139.432H406.039V132.509H404.937V131.498Z" fill="#8F6FC9"/>
<path d="M410.069 131.498C411.171 131.498 411.417 130.966 411.638 130.357H412.598V139.432H411.172V132.509H410.07V131.498H410.069Z" fill="#8F6FC9"/>
<path d="M199.293 88.1703C200.395 88.1703 200.641 87.6383 200.862 87.0293H201.822V96.1043H200.396V89.1813H199.294L199.293 88.1703Z" fill="#8F6FC9"/>
<path d="M203.428 89.2073C203.428 87.7553 204.193 86.9253 205.593 86.9253C206.993 86.9253 207.758 87.7553 207.758 89.2073V93.9263C207.758 95.3783 206.993 96.2083 205.593 96.2083C204.193 96.2083 203.428 95.3783 203.428 93.9263V89.2073ZM204.854 94.0173C204.854 94.6653 205.139 94.9123 205.593 94.9123C206.047 94.9123 206.332 94.6653 206.332 94.0173V89.1173C206.332 88.4693 206.047 88.2223 205.593 88.2223C205.139 88.2223 204.854 88.4683 204.854 89.1173V94.0173Z" fill="#8F6FC9"/>
<path d="M209.559 88.1703C210.661 88.1703 210.907 87.6383 211.128 87.0293H212.087V96.1043H210.661V89.1813H209.559V88.1703Z" fill="#8F6FC9"/>
<path d="M213.693 89.2073C213.693 87.7553 214.458 86.9253 215.858 86.9253C217.258 86.9253 218.023 87.7553 218.023 89.2073V93.9263C218.023 95.3783 217.258 96.2083 215.858 96.2083C214.458 96.2083 213.693 95.3783 213.693 93.9263V89.2073ZM215.119 94.0173C215.119 94.6653 215.404 94.9123 215.858 94.9123C216.312 94.9123 216.597 94.6653 216.597 94.0173V89.1173C216.597 88.4693 216.312 88.2223 215.858 88.2223C215.404 88.2223 215.119 88.4683 215.119 89.1173V94.0173Z" fill="#8F6FC9"/>
<path d="M218.826 89.2073C218.826 87.7553 219.591 86.9253 220.991 86.9253C222.391 86.9253 223.156 87.7553 223.156 89.2073V93.9263C223.156 95.3783 222.391 96.2083 220.991 96.2083C219.591 96.2083 218.826 95.3783 218.826 93.9263V89.2073ZM220.252 94.0173C220.252 94.6653 220.537 94.9123 220.991 94.9123C221.445 94.9123 221.73 94.6653 221.73 94.0173V89.1173C221.73 88.4693 221.445 88.2223 220.991 88.2223C220.537 88.2223 220.252 88.4683 220.252 89.1173V94.0173Z" fill="#8F6FC9"/>
<path d="M203.927 78.3621C203.927 76.9101 204.692 76.0801 206.092 76.0801C207.492 76.0801 208.257 76.9101 208.257 78.3621V83.0811C208.257 84.5331 207.492 85.3631 206.092 85.3631C204.692 85.3631 203.927 84.5331 203.927 83.0811V78.3621ZM205.353 83.1711C205.353 83.8191 205.638 84.0661 206.092 84.0661C206.546 84.0661 206.831 83.8191 206.831 83.1711V78.2701C206.831 77.6221 206.546 77.3761 206.092 77.3761C205.638 77.3761 205.353 77.6221 205.353 78.2701V83.1711Z" fill="#8F6FC9"/>
<path d="M210.058 77.3241C211.16 77.3241 211.406 76.7921 211.627 76.1831H212.587V85.2581H211.161V78.3351H210.059L210.058 77.3241Z" fill="#8F6FC9"/>
<path d="M215.19 77.3241C216.292 77.3241 216.539 76.7921 216.759 76.1831H217.719V85.2581H216.293V78.3351H215.191L215.19 77.3241Z" fill="#8F6FC9"/>
<path d="M383.484 131.891C383.484 128.467 381.9 125.408 379.428 123.402C379.374 123.35 379.316 123.304 379.252 123.27C377.398 121.825 375.075 120.956 372.548 120.956C370.023 120.956 367.701 121.825 365.848 123.268C365.78 123.303 365.719 123.351 365.663 123.407C363.195 125.414 361.613 128.47 361.613 131.892C361.613 135.318 363.2 138.378 365.674 140.385C365.72 140.429 365.77 140.467 365.824 140.498C367.681 141.952 370.012 142.828 372.549 142.828C375.076 142.828 377.399 141.958 379.253 140.513C379.316 140.479 379.374 140.434 379.428 140.382C381.899 138.375 383.484 135.316 383.484 131.891ZM378.824 138.768C378.344 138.432 377.839 138.137 377.313 137.883C377.815 136.38 378.128 134.614 378.198 132.696H381.833C381.626 135.096 380.506 137.232 378.824 138.768ZM369.885 138.781C370.739 138.528 371.631 138.39 372.549 138.39C373.467 138.39 374.359 138.527 375.213 138.781C374.45 140.319 373.475 141.216 372.549 141.216C371.623 141.216 370.648 140.319 369.885 138.781ZM369.037 140.524C368.545 140.323 368.077 140.077 367.63 139.799C367.877 139.645 368.129 139.503 368.387 139.374C368.588 139.789 368.804 140.174 369.037 140.524ZM372.549 122.566C373.475 122.566 374.449 123.463 375.213 125.001C374.359 125.254 373.467 125.392 372.549 125.392C371.631 125.392 370.739 125.255 369.885 125.001C370.648 123.463 371.623 122.566 372.549 122.566ZM368.387 124.409C368.129 124.28 367.877 124.138 367.63 123.984C368.076 123.705 368.544 123.46 369.037 123.259C368.804 123.608 368.588 123.993 368.387 124.409ZM376.06 123.258C376.552 123.459 377.02 123.705 377.467 123.983C377.22 124.137 376.968 124.279 376.71 124.408C376.509 123.993 376.292 123.608 376.06 123.258ZM372.549 127.003C373.663 127.003 374.764 126.822 375.818 126.492C376.238 127.781 376.521 129.339 376.589 131.087H368.509C368.577 129.34 368.86 127.781 369.28 126.492C370.333 126.822 371.434 127.003 372.549 127.003ZM376.588 132.696C376.52 134.443 376.237 136.002 375.817 137.29C374.764 136.96 373.662 136.779 372.548 136.779C371.434 136.779 370.332 136.96 369.279 137.29C368.859 136.001 368.576 134.443 368.508 132.696H376.588ZM376.71 139.374C376.968 139.503 377.22 139.645 377.467 139.799C377.021 140.078 376.552 140.323 376.06 140.525C376.292 140.174 376.509 139.789 376.71 139.374ZM381.832 131.086H378.197C378.127 129.168 377.815 127.402 377.312 125.899C377.838 125.645 378.343 125.35 378.823 125.014C380.506 126.55 381.626 128.687 381.832 131.086ZM366.273 125.014C366.753 125.35 367.258 125.645 367.783 125.899C367.281 127.402 366.968 129.167 366.899 131.086H363.264C363.471 128.687 364.591 126.55 366.273 125.014ZM363.264 132.696H366.899C366.968 134.614 367.281 136.38 367.783 137.883C367.258 138.137 366.752 138.432 366.272 138.768C364.591 137.232 363.471 135.096 363.264 132.696Z" fill="#8F6FC9"/>
<path opacity="0.87" d="M422.005 197.08C422.072 196.735 422.11 196.379 422.11 196.015C422.11 192.947 419.623 190.46 416.555 190.46C415.597 190.46 414.696 190.702 413.91 191.129C412.183 188.758 409.392 187.21 406.234 187.21C400.987 187.21 396.734 191.463 396.734 196.71C396.734 196.733 396.737 196.755 396.738 196.778C391.749 197.341 387.871 201.57 387.871 206.709C387.871 212.232 392.348 216.709 397.871 216.709H419.343C424.866 216.709 429.343 212.232 429.343 206.709C429.341 202.111 426.232 198.248 422.005 197.08Z" fill="#FFEFB0"/>
<path d="M417.93 203.146C417.93 200.226 416.579 197.618 414.472 195.907C414.426 195.863 414.377 195.824 414.322 195.795C412.741 194.563 410.76 193.821 408.606 193.821C406.452 193.821 404.473 194.562 402.892 195.792C402.834 195.822 402.782 195.863 402.734 195.91C400.629 197.621 399.28 200.228 399.28 203.145C399.28 206.067 400.633 208.676 402.742 210.387C402.782 210.425 402.824 210.457 402.87 210.483C404.454 211.723 406.442 212.47 408.604 212.47C410.759 212.47 412.74 211.728 414.32 210.496C414.374 210.467 414.423 210.428 414.469 210.385C416.578 208.674 417.93 206.066 417.93 203.146ZM413.956 209.01C413.547 208.723 413.116 208.472 412.668 208.255C413.096 206.974 413.363 205.468 413.422 203.832H416.521C416.345 205.878 415.39 207.7 413.956 209.01ZM406.333 209.021C407.061 208.805 407.822 208.688 408.605 208.688C409.388 208.688 410.148 208.805 410.876 209.021C410.225 210.333 409.394 211.098 408.605 211.098C407.815 211.097 406.984 210.332 406.333 209.021ZM405.61 210.507C405.19 210.336 404.791 210.126 404.41 209.888C404.62 209.756 404.836 209.636 405.056 209.526C405.228 209.881 405.412 210.209 405.61 210.507ZM408.605 195.194C409.394 195.194 410.225 195.959 410.876 197.27C410.148 197.486 409.387 197.603 408.605 197.603C407.822 197.603 407.061 197.486 406.333 197.27C406.984 195.959 407.815 195.194 408.605 195.194ZM405.057 196.765C404.837 196.655 404.622 196.534 404.411 196.402C404.792 196.164 405.191 195.955 405.611 195.783C405.412 196.082 405.228 196.411 405.057 196.765ZM411.599 195.784C412.019 195.956 412.418 196.165 412.799 196.403C412.589 196.535 412.373 196.655 412.153 196.766C411.982 196.411 411.797 196.082 411.599 195.784ZM408.605 198.977C409.555 198.977 410.494 198.823 411.392 198.541C411.75 199.64 411.991 200.969 412.049 202.459H405.159C405.217 200.969 405.458 199.64 405.816 198.541C406.715 198.823 407.655 198.977 408.605 198.977ZM412.05 203.832C411.992 205.322 411.751 206.651 411.393 207.75C410.495 207.468 409.556 207.314 408.606 207.314C407.656 207.314 406.717 207.468 405.818 207.75C405.46 206.651 405.219 205.322 405.161 203.832H412.05ZM412.153 209.526C412.373 209.636 412.588 209.757 412.799 209.889C412.418 210.127 412.019 210.336 411.599 210.508C411.797 210.209 411.982 209.881 412.153 209.526ZM416.522 202.459H413.423C413.364 200.823 413.097 199.317 412.669 198.036C413.117 197.819 413.548 197.568 413.957 197.281C415.39 198.591 416.345 200.413 416.522 202.459ZM403.254 197.281C403.663 197.568 404.094 197.819 404.542 198.036C404.114 199.317 403.847 200.823 403.788 202.459H400.689C400.864 200.413 401.819 198.591 403.254 197.281ZM400.688 203.832H403.787C403.846 205.468 404.113 206.974 404.541 208.255C404.093 208.472 403.662 208.723 403.253 209.01C401.819 207.7 400.864 205.878 400.688 203.832Z" fill="#8F6FC9"/>
<path d="M120.143 95.3878H133.254C136.626 95.3878 139.36 92.6538 139.36 89.2818C139.36 85.9098 136.626 83.1758 133.254 83.1758H120.143C116.771 83.1758 114.037 85.9098 114.037 89.2818C114.037 92.6548 116.77 95.3878 120.143 95.3878Z" fill="#FFEFB0"/>
<path d="M128.146 88.977C131.35 88.977 133.947 86.3798 133.947 83.176C133.947 79.9722 131.35 77.375 128.146 77.375C124.942 77.375 122.345 79.9722 122.345 83.176C122.345 86.3798 124.942 88.977 128.146 88.977Z" fill="#FFEFB0"/>
<path d="M121.844 86.1439C123.717 86.1439 125.236 84.6252 125.236 82.7519C125.236 80.8785 123.717 79.3599 121.844 79.3599C119.971 79.3599 118.452 80.8785 118.452 82.7519C118.452 84.6252 119.971 86.1439 121.844 86.1439Z" fill="#FFEFB0"/>
<path d="M131.787 86.144H121.241C120.707 86.144 120.274 85.711 120.274 85.177C120.274 84.643 120.707 84.21 121.241 84.21H131.787C132.321 84.21 132.754 84.643 132.754 85.177C132.754 85.711 132.321 86.144 131.787 86.144Z" fill="#8F6FC9"/>
<path d="M133.842 88.977H121.241C120.707 88.977 120.274 88.544 120.274 88.01C120.274 87.476 120.707 87.043 121.241 87.043H133.842C134.376 87.043 134.809 87.476 134.809 88.01C134.809 88.544 134.376 88.977 133.842 88.977Z" fill="#8F6FC9"/>
<path d="M133.842 91.81H121.241C120.707 91.81 120.274 91.377 120.274 90.843C120.274 90.309 120.707 89.876 121.241 89.876H133.842C134.376 89.876 134.809 90.309 134.809 90.843C134.809 91.377 134.376 91.81 133.842 91.81Z" fill="#8F6FC9"/>
<path d="M339.499 314.679V289.923C339.499 286.696 336.883 284.08 333.656 284.08H333.588C330.361 284.08 327.745 286.696 327.745 289.923V291.412C327.745 294.639 325.129 297.255 321.902 297.255C318.675 297.255 316.059 294.639 316.059 291.412V271.371C316.059 267.949 313.285 265.175 309.863 265.175C306.441 265.175 303.667 267.949 303.667 271.371V313.238C303.667 316.857 300.733 319.792 297.113 319.792C293.494 319.792 290.559 316.858 290.559 313.238V277.01C290.559 273.783 287.943 271.167 284.716 271.167H274.224" stroke="white" stroke-miterlimit="10"/>
<path d="M334.85 302.197C330.992 302.197 327.847 305.289 327.779 309.146L327.439 328.701C327.341 334.347 331.891 338.976 337.537 338.976H339.498V302.197H334.85Z" fill="white"/>
<path d="M351.217 309.145C351.15 305.288 348.004 302.196 344.146 302.196H339.498V338.975H341.459C347.106 338.975 351.655 334.346 351.557 328.7L351.217 309.145Z" fill="#D5E6F0"/>
<path d="M339.405 319.099C338.37 319.099 337.53 318.26 337.53 317.224V311.218C337.53 310.182 338.37 309.343 339.405 309.343C340.441 309.343 341.28 310.182 341.28 311.218V317.224C341.28 318.26 340.44 319.099 339.405 319.099Z" fill="#8FB4C9"/>
<path d="M231.175 252.146L229.894 269.017H274.223L272.942 252.146H231.175Z" fill="#F1F1F1"/>
<path d="M272.238 242.883H231.879L231.175 252.146H272.942L272.238 242.883Z" fill="#808080"/>
<path d="M285.387 274.807H218.729V270.543C218.729 268.879 220.078 267.53 221.743 267.53H282.374C284.038 267.53 285.389 268.879 285.389 270.543V274.807H285.387Z" fill="#A4CDE7"/>
<path d="M350.116 103.94H154.001C150.696 103.94 148.017 106.619 148.017 109.924V227.665H271.411H356.1V142.977V109.925C356.1 106.62 353.421 103.94 350.116 103.94Z" fill="#A4CDE7"/>
<path d="M251.231 247.845H350.116C353.421 247.845 356.1 245.166 356.1 241.861V227.665H271.411L251.231 247.845Z" fill="#E5E5E5"/>
<path d="M148.017 227.666V241.862C148.017 245.167 150.696 247.846 154.001 247.846H251.232L271.412 227.666H148.017Z" fill="#F1F1F1"/>
<path d="M347.499 111.22H155.299V219.39H347.499V111.22Z" fill="#2C528F"/>
<path d="M195.642 125.294H166.142C164.991 125.294 164.059 124.361 164.059 123.211C164.059 122.06 164.992 121.128 166.142 121.128H195.642C196.793 121.128 197.725 122.061 197.725 123.211C197.725 124.361 196.792 125.294 195.642 125.294Z" fill="#C2FFC2"/>
<path d="M270.309 125.294H240.809C239.658 125.294 238.726 124.361 238.726 123.211C238.726 122.06 239.659 121.128 240.809 121.128H270.309C271.46 121.128 272.392 122.061 272.392 123.211C272.392 124.361 271.459 125.294 270.309 125.294Z" fill="#C2FFC2"/>
<path d="M284.809 125.294H278.039C276.888 125.294 275.956 124.361 275.956 123.211C275.956 122.06 276.889 121.128 278.039 121.128H284.809C285.96 121.128 286.892 122.061 286.892 123.211C286.892 124.361 285.959 125.294 284.809 125.294Z" fill="white"/>
<path d="M232.818 125.294H222.142C220.991 125.294 220.059 124.361 220.059 123.211C220.059 122.06 220.992 121.128 222.142 121.128H232.818C233.968 121.128 234.901 122.061 234.901 123.211C234.902 124.361 233.969 125.294 232.818 125.294Z" fill="#FE168D"/>
<path d="M185.868 132.96H166.142C164.991 132.96 164.059 132.027 164.059 130.877C164.059 129.726 164.992 128.794 166.142 128.794H185.868C187.019 128.794 187.951 129.727 187.951 130.877C187.951 132.028 187.019 132.96 185.868 132.96Z" fill="#00FFFF"/>
<path d="M238.858 132.96H219.132C217.982 132.96 217.049 132.027 217.049 130.877C217.049 129.726 217.982 128.794 219.132 128.794H238.858C240.009 128.794 240.941 129.727 240.941 130.877C240.941 132.028 240.008 132.96 238.858 132.96Z" fill="#00FFFF"/>
<path d="M249.148 132.96H245.553C244.402 132.96 243.47 132.027 243.47 130.877C243.47 129.726 244.403 128.794 245.553 128.794H249.148C250.299 128.794 251.231 129.727 251.231 130.877C251.232 132.028 250.299 132.96 249.148 132.96Z" fill="white"/>
<path d="M199.122 132.96H192.755C191.604 132.96 190.672 132.027 190.672 130.877C190.672 129.726 191.605 128.794 192.755 128.794H199.122C200.273 128.794 201.205 129.727 201.205 130.877C201.206 132.028 200.273 132.96 199.122 132.96Z" fill="#00FFFF"/>
<path d="M212.252 132.96H205.885C204.734 132.96 203.802 132.027 203.802 130.877C203.802 129.726 204.735 128.794 205.885 128.794H212.252C213.402 128.794 214.335 129.727 214.335 130.877C214.335 132.028 213.402 132.96 212.252 132.96Z" fill="#00FFFF"/>
<path d="M185.868 140.627H166.142C164.991 140.627 164.059 139.694 164.059 138.544C164.059 137.393 164.992 136.461 166.142 136.461H185.868C187.019 136.461 187.951 137.394 187.951 138.544C187.951 139.694 187.019 140.627 185.868 140.627Z" fill="white"/>
<path d="M199.122 140.627H192.755C191.604 140.627 190.672 139.694 190.672 138.544C190.672 137.393 191.605 136.461 192.755 136.461H199.122C200.273 136.461 201.205 137.394 201.205 138.544C201.206 139.694 200.273 140.627 199.122 140.627Z" fill="white"/>
<path d="M212.252 140.627H205.885C204.734 140.627 203.802 139.694 203.802 138.544C203.802 137.393 204.735 136.461 205.885 136.461H212.252C213.402 136.461 214.335 137.394 214.335 138.544C214.335 139.694 213.402 140.627 212.252 140.627Z" fill="white"/>
<path d="M247.716 140.627H245.706C244.555 140.627 243.623 139.694 243.623 138.544C243.623 137.393 244.556 136.461 245.706 136.461H247.716C248.867 136.461 249.799 137.394 249.799 138.544C249.799 139.694 248.866 140.627 247.716 140.627Z" fill="#FE168D"/>
<path d="M256.573 140.627H254.563C253.412 140.627 252.48 139.694 252.48 138.544C252.48 137.393 253.413 136.461 254.563 136.461H256.573C257.724 136.461 258.656 137.394 258.656 138.544C258.656 139.694 257.723 140.627 256.573 140.627Z" fill="#FE168D"/>
<path d="M265.432 140.627H263.422C262.271 140.627 261.339 139.694 261.339 138.544C261.339 137.393 262.272 136.461 263.422 136.461H265.432C266.583 136.461 267.515 137.394 267.515 138.544C267.515 139.694 266.582 140.627 265.432 140.627Z" fill="white"/>
<path d="M274.289 140.627H272.279C271.128 140.627 270.196 139.694 270.196 138.544C270.196 137.393 271.129 136.461 272.279 136.461H274.289C275.44 136.461 276.372 137.394 276.372 138.544C276.372 139.694 275.439 140.627 274.289 140.627Z" fill="white"/>
<path d="M176.586 148.294H166.142C164.991 148.294 164.059 147.361 164.059 146.211C164.059 145.06 164.992 144.128 166.142 144.128H176.586C177.737 144.128 178.669 145.061 178.669 146.211C178.67 147.361 177.737 148.294 176.586 148.294Z" fill="white"/>
<path d="M208.991 148.294H198.547C197.397 148.294 196.464 147.361 196.464 146.211C196.464 145.06 197.397 144.128 198.547 144.128H208.991C210.142 144.128 211.074 145.061 211.074 146.211C211.074 147.361 210.142 148.294 208.991 148.294Z" fill="#FE168D"/>
<path d="M215.284 148.294H214.704C213.553 148.294 212.621 147.361 212.621 146.211C212.621 145.06 213.554 144.128 214.704 144.128H215.284C216.435 144.128 217.367 145.061 217.367 146.211C217.367 147.361 216.434 148.294 215.284 148.294Z" fill="white"/>
<path d="M184.692 148.294H182.417C181.266 148.294 180.334 147.361 180.334 146.211C180.334 145.06 181.267 144.128 182.417 144.128H184.692C185.843 144.128 186.775 145.061 186.775 146.211C186.775 147.361 185.842 148.294 184.692 148.294Z" fill="white"/>
<path d="M192.72 148.294H190.445C189.294 148.294 188.362 147.361 188.362 146.211C188.362 145.06 189.295 144.128 190.445 144.128H192.72C193.871 144.128 194.803 145.061 194.803 146.211C194.803 147.361 193.87 148.294 192.72 148.294Z" fill="white"/>
<path d="M190.331 155.96H166.142C164.991 155.96 164.059 155.027 164.059 153.877C164.059 152.726 164.992 151.794 166.142 151.794H190.331C191.482 151.794 192.414 152.727 192.414 153.877C192.414 155.028 191.482 155.96 190.331 155.96Z" fill="#00FFFF"/>
<path d="M233.911 155.96H229.029C227.878 155.96 226.946 155.027 226.946 153.877C226.946 152.726 227.879 151.794 229.029 151.794H233.911C235.061 151.794 235.994 152.727 235.994 153.877C235.994 155.028 235.061 155.96 233.911 155.96Z" fill="white"/>
<path d="M243.64 155.96H241.181C240.03 155.96 239.098 155.027 239.098 153.877C239.098 152.726 240.031 151.794 241.181 151.794H243.64C244.791 151.794 245.723 152.727 245.723 153.877C245.723 155.028 244.791 155.96 243.64 155.96Z" fill="white"/>
<path d="M253.288 155.96H250.83C249.679 155.96 248.747 155.027 248.747 153.877C248.747 152.726 249.68 151.794 250.83 151.794H253.288C254.439 151.794 255.371 152.727 255.371 153.877C255.371 155.028 254.438 155.96 253.288 155.96Z" fill="white"/>
<path d="M206.061 155.96H197.726C196.575 155.96 195.643 155.027 195.643 153.877C195.643 152.726 196.576 151.794 197.726 151.794H206.061C207.212 151.794 208.144 152.727 208.144 153.877C208.145 155.028 207.212 155.96 206.061 155.96Z" fill="#00FFFF"/>
<path d="M221.643 155.96H213.308C212.157 155.96 211.225 155.027 211.225 153.877C211.225 152.726 212.158 151.794 213.308 151.794H221.643C222.794 151.794 223.726 152.727 223.726 153.877C223.726 155.028 222.793 155.96 221.643 155.96Z" fill="#00FFFF"/>
<path d="M193.769 163.627H166.142C164.991 163.627 164.059 162.694 164.059 161.544C164.059 160.393 164.992 159.461 166.142 159.461H193.769C194.92 159.461 195.852 160.394 195.852 161.544C195.852 162.694 194.92 163.627 193.769 163.627Z" fill="white"/>
<path d="M264.281 163.627H236.654C235.503 163.627 234.571 162.694 234.571 161.544C234.571 160.393 235.504 159.461 236.654 159.461H264.281C265.432 159.461 266.364 160.394 266.364 161.544C266.364 162.694 265.431 163.627 264.281 163.627Z" fill="white"/>
<path d="M277.974 163.627H271.812C270.661 163.627 269.729 162.694 269.729 161.544C269.729 160.393 270.663 159.461 271.812 159.461H277.974C279.124 159.461 280.057 160.394 280.057 161.544C280.058 162.694 279.125 163.627 277.974 163.627Z" fill="white"/>
<path d="M178.649 171.294H166.142C164.991 171.294 164.059 170.361 164.059 169.211C164.059 168.06 164.992 167.128 166.142 167.128H178.649C179.8 167.128 180.732 168.061 180.732 169.211C180.732 170.361 179.799 171.294 178.649 171.294Z" fill="white"/>
<path d="M215.626 171.294H203.119C201.968 171.294 201.036 170.361 201.036 169.211C201.036 168.06 201.969 167.128 203.119 167.128H215.626C216.777 167.128 217.709 168.061 217.709 169.211C217.71 170.361 216.777 171.294 215.626 171.294Z" fill="#FE168D"/>
<path d="M222.809 171.294H221.559C220.408 171.294 219.476 170.361 219.476 169.211C219.476 168.06 220.409 167.128 221.559 167.128H222.809C223.96 167.128 224.892 168.061 224.892 169.211C224.892 170.361 223.959 171.294 222.809 171.294Z" fill="#FE168D"/>
<path d="M187.898 171.294H184.714C183.563 171.294 182.631 170.361 182.631 169.211C182.631 168.06 183.564 167.128 184.714 167.128H187.898C189.049 167.128 189.981 168.061 189.981 169.211C189.982 170.361 189.049 171.294 187.898 171.294Z" fill="white"/>
<path d="M197.06 171.294H193.876C192.725 171.294 191.793 170.361 191.793 169.211C191.793 168.06 192.726 167.128 193.876 167.128H197.06C198.211 167.128 199.143 168.061 199.143 169.211C199.144 170.361 198.211 171.294 197.06 171.294Z" fill="#C2FFC2"/>
<path d="M181.392 178.96H166.142C164.991 178.96 164.059 178.027 164.059 176.877C164.059 175.726 164.992 174.794 166.142 174.794H181.392C182.543 174.794 183.475 175.727 183.475 176.877C183.476 178.028 182.543 178.96 181.392 178.96Z" fill="white"/>
<path d="M224.456 178.96H209.206C208.055 178.96 207.123 178.027 207.123 176.877C207.123 175.726 208.056 174.794 209.206 174.794H224.456C225.607 174.794 226.539 175.727 226.539 176.877C226.539 178.028 225.606 178.96 224.456 178.96Z" fill="#00FFFF"/>
<path d="M232.818 178.96H230.677C229.526 178.96 228.594 178.027 228.594 176.877C228.594 175.726 229.527 174.794 230.677 174.794H232.818C233.968 174.794 234.901 175.727 234.901 176.877C234.902 178.028 233.969 178.96 232.818 178.96Z" fill="#00FFFF"/>
<path d="M192.164 178.96H187.77C186.619 178.96 185.687 178.027 185.687 176.877C185.687 175.726 186.62 174.794 187.77 174.794H192.164C193.315 174.794 194.247 175.727 194.247 176.877C194.247 178.028 193.314 178.96 192.164 178.96Z" fill="#00FFFF"/>
<path d="M202.832 178.96H198.438C197.287 178.96 196.355 178.027 196.355 176.877C196.355 175.726 197.288 174.794 198.438 174.794H202.832C203.983 174.794 204.915 175.727 204.915 176.877C204.916 178.028 203.983 178.96 202.832 178.96Z" fill="#00FFFF"/>
<path d="M185.868 194.294H166.142C164.991 194.294 164.059 193.361 164.059 192.211C164.059 191.06 164.992 190.128 166.142 190.128H185.868C187.019 190.128 187.951 191.061 187.951 192.211C187.951 193.361 187.019 194.294 185.868 194.294Z" fill="#C2FFC2"/>
<path d="M226.911 194.294H226.166C225.015 194.294 224.083 193.361 224.083 192.211C224.083 191.06 225.016 190.128 226.166 190.128H226.911C228.062 190.128 228.994 191.061 228.994 192.211C228.995 193.361 228.062 194.294 226.911 194.294Z" fill="#FE168D"/>
<path d="M214.318 125.294H203.642C202.491 125.294 201.559 124.361 201.559 123.211C201.559 122.06 202.492 121.128 203.642 121.128H214.318C215.468 121.128 216.401 122.061 216.401 123.211C216.402 124.361 215.469 125.294 214.318 125.294Z" fill="#FFE068"/>
<path d="M221.142 140.627H219.132C217.982 140.627 217.049 139.694 217.049 138.544C217.049 137.393 217.982 136.461 219.132 136.461H221.142C222.293 136.461 223.225 137.394 223.225 138.544C223.225 139.694 222.292 140.627 221.142 140.627Z" fill="#FFE068"/>
<path d="M230 140.627H227.99C226.839 140.627 225.907 139.694 225.907 138.544C225.907 137.393 226.84 136.461 227.99 136.461H230C231.151 136.461 232.083 137.394 232.083 138.544C232.083 139.694 231.15 140.627 230 140.627Z" fill="#FFE068"/>
<path d="M238.858 140.627H236.848C235.697 140.627 234.765 139.694 234.765 138.544C234.765 137.393 235.698 136.461 236.848 136.461H238.858C240.009 136.461 240.941 137.394 240.941 138.544C240.941 139.694 240.008 140.627 238.858 140.627Z" fill="#FFE068"/>
<path d="M211.406 163.627H201.555C200.404 163.627 199.472 162.694 199.472 161.544C199.472 160.393 200.405 159.461 201.555 159.461H211.406C212.557 159.461 213.489 160.394 213.489 161.544C213.49 162.694 212.557 163.627 211.406 163.627Z" fill="#FFE068"/>
<path d="M228.877 163.627H219.026C217.875 163.627 216.943 162.694 216.943 161.544C216.943 160.393 217.876 159.461 219.026 159.461H228.877C230.028 159.461 230.96 160.394 230.96 161.544C230.961 162.694 230.028 163.627 228.877 163.627Z" fill="#FFE068"/>
<path d="M220.399 194.294H209.446C208.295 194.294 207.363 193.361 207.363 192.211C207.363 191.06 208.296 190.128 209.446 190.128H220.399C221.55 190.128 222.482 191.061 222.482 192.211C222.483 193.361 221.55 194.294 220.399 194.294Z" fill="#FFE068"/>
<path d="M195.254 194.294H192.755C191.604 194.294 190.672 193.361 190.672 192.211C190.672 191.06 191.605 190.128 192.755 190.128H195.254C196.405 190.128 197.337 191.061 197.337 192.211C197.338 193.361 196.405 194.294 195.254 194.294Z" fill="#FFE068"/>
<path d="M203.562 194.294H201.063C199.912 194.294 198.98 193.361 198.98 192.211C198.98 191.06 199.913 190.128 201.063 190.128H203.562C204.712 190.128 205.645 191.061 205.645 192.211C205.645 193.361 204.712 194.294 203.562 194.294Z" fill="#FFE068"/>
<path d="M185.868 201.96H166.142C164.991 201.96 164.059 201.027 164.059 199.877C164.059 198.726 164.992 197.794 166.142 197.794H185.868C187.019 197.794 187.951 198.727 187.951 199.877C187.951 201.028 187.019 201.96 185.868 201.96Z" fill="#00FFFF"/>
<path d="M238.858 201.96H219.132C217.982 201.96 217.049 201.027 217.049 199.877C217.049 198.726 217.982 197.794 219.132 197.794H238.858C240.009 197.794 240.941 198.727 240.941 199.877C240.941 201.028 240.008 201.96 238.858 201.96Z" fill="#00FFFF"/>
<path d="M249.148 201.96H245.553C244.402 201.96 243.47 201.027 243.47 199.877C243.47 198.726 244.403 197.794 245.553 197.794H249.148C250.299 197.794 251.231 198.727 251.231 199.877C251.232 201.028 250.299 201.96 249.148 201.96Z" fill="#00FFFF"/>
<path d="M199.122 201.96H192.755C191.604 201.96 190.672 201.027 190.672 199.877C190.672 198.726 191.605 197.794 192.755 197.794H199.122C200.273 197.794 201.205 198.727 201.205 199.877C201.206 201.028 200.273 201.96 199.122 201.96Z" fill="#FE168D"/>
<path d="M212.252 201.96H205.885C204.734 201.96 203.802 201.027 203.802 199.877C203.802 198.726 204.735 197.794 205.885 197.794H212.252C213.402 197.794 214.335 198.727 214.335 199.877C214.335 201.028 213.402 201.96 212.252 201.96Z" fill="#FE168D"/>
<path opacity="0.2" d="M246.569 111.22L155.299 202.48V176.22L220.289 111.22H246.569Z" fill="white"/>
<path opacity="0.2" d="M331.479 111.22L223.319 219.39H173.639L281.819 111.22H331.479Z" fill="white"/>
<path d="M374.951 240.543C374.951 252.145 379.114 259.64 384.249 259.64V217.627C384.249 217.627 374.951 228.942 374.951 240.543Z" fill="#C2FFC2"/>
<path d="M384.249 217.627V259.64C389.384 259.64 393.547 252.145 393.547 240.543C393.548 228.942 384.249 217.627 384.249 217.627Z" fill="#80A880"/>
<path d="M392.834 240.093C384.63 248.297 382.274 256.54 385.905 260.171L415.613 230.463C415.613 230.463 401.037 231.889 392.834 240.093Z" fill="#C2FFC2"/>
<path d="M415.612 230.464L385.904 260.172C389.535 263.803 397.779 261.447 405.982 253.243C414.186 245.039 415.612 230.464 415.612 230.464Z" fill="#80A880"/>
<path d="M375.665 240.093C383.869 248.297 386.225 256.54 382.594 260.171L352.886 230.463C352.886 230.463 367.462 231.889 375.665 240.093Z" fill="#C2FFC2"/>
<path d="M352.886 230.464L382.594 260.172C378.963 263.803 370.719 261.447 362.516 253.243C354.312 245.039 352.886 230.464 352.886 230.464Z" fill="#80A880"/>
<path d="M384.248 257.237V293.46H399.374H401.164C402.578 293.46 403.724 292.314 403.724 290.9V257.237H384.248Z" fill="#8FB4C9"/>
<path d="M384.248 257.237H364.772V290.9C364.772 292.314 365.918 293.46 367.332 293.46H369.122H384.248V257.237Z" fill="#A4CDE7"/>
<path d="M399.374 293.46H384.248V297.511H399.374V293.46Z" fill="#528AA8"/>
<path d="M384.248 293.46H369.122V297.511H384.248V293.46Z" fill="#79A3BA"/>
</svg>
