<svg width="158" height="180" viewBox="0 0 158 180" fill="none" xmlns="http://www.w3.org/2000/svg">
<path d="M97.4975 70.5028C98.4263 70.5028 99.1791 69.751 99.1791 68.8235C99.1791 67.896 98.4263 67.1441 97.4975 67.1441C96.5688 67.1441 95.8159 67.896 95.8159 68.8235C95.8159 69.751 96.5688 70.5028 97.4975 70.5028Z" fill="#293347"/>
<path fill-rule="evenodd" clip-rule="evenodd" d="M154 22.473H4V168.578C4 170.434 4.75276 172.113 5.97002 173.328C7.18793 174.544 8.87069 175.295 10.7294 175.295H147.271C149.129 175.295 150.812 174.543 152.029 173.328C153.247 172.112 154 170.433 154 168.578V22.473Z" fill="#141C3A" stroke="black" stroke-width="8"/>
<path fill-rule="evenodd" clip-rule="evenodd" d="M147.271 4H10.7294C8.87086 4 7.18852 4.75195 5.9708 5.9678C4.75308 7.18365 4 8.86336 4 10.7187V19.786H154V10.7187C154 8.86391 153.247 7.18417 152.029 5.96817C150.811 4.75228 149.129 4 147.271 4Z" fill="white" stroke="black" stroke-width="8"/>
<path d="M15.7715 15.0838C17.4432 15.0838 18.7984 13.7304 18.7984 12.0609C18.7984 10.3915 17.4432 9.03809 15.7715 9.03809C14.0998 9.03809 12.7446 10.3915 12.7446 12.0609C12.7446 13.7304 14.0998 15.0838 15.7715 15.0838Z" fill="#141C3A"/>
<path d="M25.8609 15.0838C27.5326 15.0838 28.8878 13.7304 28.8878 12.0609C28.8878 10.3915 27.5326 9.03809 25.8609 9.03809C24.1892 9.03809 22.834 10.3915 22.834 12.0609C22.834 13.7304 24.1892 15.0838 25.8609 15.0838Z" fill="#6E07F3"/>
<path d="M35.9507 15.0838C37.6224 15.0838 38.9776 13.7304 38.9776 12.0609C38.9776 10.3915 37.6224 9.03809 35.9507 9.03809C34.279 9.03809 32.9238 10.3915 32.9238 12.0609C32.9238 13.7304 34.279 15.0838 35.9507 15.0838Z" fill="#5BE9B9"/>
<path opacity="0.54" d="M24.8516 117.861H21.4884C20.7454 117.861 20.1431 118.462 20.1431 119.204C20.1431 119.946 20.7454 120.548 21.4884 120.548H24.8516C25.5946 120.548 26.1969 119.946 26.1969 119.204C26.1969 118.462 25.5946 117.861 24.8516 117.861Z" fill="#535B6B"/>
<path opacity="0.54" d="M24.8516 50.6864H21.4884C20.7454 50.6864 20.1431 51.2879 20.1431 52.0298C20.1431 52.7718 20.7454 53.3733 21.4884 53.3733H24.8516C25.5946 53.3733 26.1969 52.7718 26.1969 52.0298C26.1969 51.2879 25.5946 50.6864 24.8516 50.6864Z" fill="#535B6B"/>
<path fill-rule="evenodd" clip-rule="evenodd" d="M31.5782 50.6864H40.6589C41.4019 50.6864 42.0042 51.2879 42.0042 52.0298C42.0042 52.7718 41.4019 53.3733 40.6589 53.3733H31.5782C30.8352 53.3733 30.2329 52.7718 30.2329 52.0298C30.2329 51.2879 30.8352 50.6864 31.5782 50.6864Z" fill="#6E07F3"/>
<path fill-rule="evenodd" clip-rule="evenodd" d="M46.713 50.6864H55.7937C56.5367 50.6864 57.139 51.2879 57.139 52.0298C57.139 52.7718 56.5367 53.3733 55.7937 53.3733H46.713C45.97 53.3733 45.3677 52.7718 45.3677 52.0298C45.3677 51.2879 45.97 50.6864 46.713 50.6864Z" fill="#5BE9B9"/>
<path fill-rule="evenodd" clip-rule="evenodd" d="M61.8472 50.6864H78.6634C79.4064 50.6864 80.0087 51.2879 80.0087 52.0298C80.0087 52.7718 79.4064 53.3733 78.6634 53.3733H61.8472C61.1043 53.3733 60.502 52.7718 60.502 52.0298C60.502 51.2879 61.1043 50.6864 61.8472 50.6864Z" fill="#6E07F3"/>
<path fill-rule="evenodd" clip-rule="evenodd" d="M84.7174 50.6864H109.605C110.348 50.6864 110.951 51.2879 110.951 52.0298C110.951 52.7718 110.348 53.3733 109.605 53.3733H84.7174C83.9744 53.3733 83.3721 52.7718 83.3721 52.0298C83.3721 51.2879 83.9744 50.6864 84.7174 50.6864Z" fill="#6E07F3"/>
<path opacity="0.54" d="M24.8516 64.1213H21.4884C20.7454 64.1213 20.1431 64.7228 20.1431 65.4648C20.1431 66.2067 20.7454 66.8082 21.4884 66.8082H24.8516C25.5946 66.8082 26.1969 66.2067 26.1969 65.4648C26.1969 64.7228 25.5946 64.1213 24.8516 64.1213Z" fill="#535B6B"/>
<path opacity="0.54" d="M24.8516 77.5562H21.4884C20.7454 77.5562 20.1431 78.1577 20.1431 78.8997C20.1431 79.6417 20.7454 80.2432 21.4884 80.2432H24.8516C25.5946 80.2432 26.1969 79.6417 26.1969 78.8997C26.1969 78.1577 25.5946 77.5562 24.8516 77.5562Z" fill="#535B6B"/>
<path opacity="0.54" d="M24.8516 90.9911H21.4884C20.7454 90.9911 20.1431 91.5926 20.1431 92.3346C20.1431 93.0766 20.7454 93.6781 21.4884 93.6781H24.8516C25.5946 93.6781 26.1969 93.0766 26.1969 92.3346C26.1969 91.5926 25.5946 90.9911 24.8516 90.9911Z" fill="#535B6B"/>
<path opacity="0.54" d="M24.8516 104.426H21.4884C20.7454 104.426 20.1431 105.028 20.1431 105.77C20.1431 106.512 20.7454 107.113 21.4884 107.113H24.8516C25.5946 107.113 26.1969 106.512 26.1969 105.77C26.1969 105.028 25.5946 104.426 24.8516 104.426Z" fill="#535B6B"/>
<path opacity="0.54" d="M24.8516 131.296H21.4884C20.7454 131.296 20.1431 131.897 20.1431 132.639C20.1431 133.381 20.7454 133.983 21.4884 133.983H24.8516C25.5946 133.983 26.1969 133.381 26.1969 132.639C26.1969 131.897 25.5946 131.296 24.8516 131.296Z" fill="#535B6B"/>
<path opacity="0.54" d="M24.8516 144.731H21.4884C20.7454 144.731 20.1431 145.332 20.1431 146.074C20.1431 146.816 20.7454 147.418 21.4884 147.418H24.8516C25.5946 147.418 26.1969 146.816 26.1969 146.074C26.1969 145.332 25.5946 144.731 24.8516 144.731Z" fill="#535B6B"/>
<path d="M52.4302 64.1213H31.5782C30.8352 64.1213 30.2329 64.7228 30.2329 65.4648C30.2329 66.2067 30.8352 66.8082 31.5782 66.8082H52.4302C53.1732 66.8082 53.7755 66.2067 53.7755 65.4648C53.7755 64.7228 53.1732 64.1213 52.4302 64.1213Z" fill="#6E07F3"/>
<path d="M96.1521 64.1213H58.484C57.741 64.1213 57.1387 64.7228 57.1387 65.4648C57.1387 66.2067 57.741 66.8082 58.484 66.8082H96.1521C96.8951 66.8082 97.4974 66.2067 97.4974 65.4648C97.4974 64.7228 96.8951 64.1213 96.1521 64.1213Z" fill="#5BE9B9"/>
<path d="M116.331 64.1213H102.206C101.463 64.1213 100.86 64.7228 100.86 65.4648C100.86 66.2067 101.463 66.8082 102.206 66.8082H116.331C117.074 66.8082 117.676 66.2067 117.676 65.4648C117.676 64.7228 117.074 64.1213 116.331 64.1213Z" fill="#6E07F3"/>
<path d="M45.7038 77.5562H31.5782C30.8352 77.5562 30.2329 78.1577 30.2329 78.8997C30.2329 79.6417 30.8352 80.2432 31.5782 80.2432H45.7038C46.4467 80.2432 47.0491 79.6417 47.0491 78.8997C47.0491 78.1577 46.4467 77.5562 45.7038 77.5562Z" fill="#5BE9B9"/>
<path d="M65.883 77.5562H51.7574C51.0144 77.5562 50.4121 78.1577 50.4121 78.8997C50.4121 79.6417 51.0144 80.2432 51.7574 80.2432H65.883C66.6259 80.2432 67.2283 79.6417 67.2283 78.8997C67.2283 78.1577 66.6259 77.5562 65.883 77.5562Z" fill="#6E07F3"/>
<path d="M79.3357 77.5562H71.9366C71.1936 77.5562 70.5913 78.1577 70.5913 78.8997C70.5913 79.6417 71.1936 80.2432 71.9366 80.2432H79.3357C80.0787 80.2432 80.681 79.6417 80.681 78.8997C80.681 78.1577 80.0787 77.5562 79.3357 77.5562Z" fill="#6E07F3"/>
<path d="M62.5199 90.9911H31.5782C30.8352 90.9911 30.2329 91.5926 30.2329 92.3346C30.2329 93.0766 30.8352 93.6781 31.5782 93.6781H62.5199C63.2629 93.6781 63.8652 93.0766 63.8652 92.3346C63.8652 91.5926 63.2629 90.9911 62.5199 90.9911Z" fill="#6E07F3"/>
<path d="M89.4258 90.9911H68.5738C67.8308 90.9911 67.2285 91.5926 67.2285 92.3346C67.2285 93.0766 67.8308 93.6781 68.5738 93.6781H89.4258C90.1688 93.6781 90.7711 93.0766 90.7711 92.3346C90.7711 91.5926 90.1688 90.9911 89.4258 90.9911Z" fill="#6E07F3"/>
<path d="M62.5199 104.426H31.5782C30.8352 104.426 30.2329 105.028 30.2329 105.77C30.2329 106.512 30.8352 107.113 31.5782 107.113H62.5199C63.2629 107.113 63.8652 106.512 63.8652 105.77C63.8652 105.028 63.2629 104.426 62.5199 104.426Z" fill="#6E07F3"/>
<path d="M109.605 104.426H68.5738C67.8308 104.426 67.2285 105.028 67.2285 105.77C67.2285 106.512 67.8308 107.113 68.5738 107.113H109.605C110.348 107.113 110.95 106.512 110.95 105.77C110.95 105.028 110.348 104.426 109.605 104.426Z" fill="#5BE9B9"/>
<path d="M52.4302 117.861H31.5782C30.8352 117.861 30.2329 118.462 30.2329 119.204C30.2329 119.946 30.8352 120.548 31.5782 120.548H52.4302C53.1732 120.548 53.7755 119.946 53.7755 119.204C53.7755 118.462 53.1732 117.861 52.4302 117.861Z" fill="#6E07F3"/>
<path d="M79.336 117.861H58.484C57.741 117.861 57.1387 118.462 57.1387 119.204C57.1387 119.946 57.741 120.548 58.484 120.548H79.336C80.079 120.548 80.6813 119.946 80.6813 119.204C80.6813 118.462 80.079 117.861 79.336 117.861Z" fill="#5BE9B9"/>
<path d="M96.1521 117.861H85.3897C84.6467 117.861 84.0444 118.462 84.0444 119.204C84.0444 119.946 84.6467 120.548 85.3897 120.548H96.1521C96.895 120.548 97.4973 119.946 97.4973 119.204C97.4973 118.462 96.895 117.861 96.1521 117.861Z" fill="#6E07F3"/>
<path d="M72.6096 131.296H31.5782C30.8352 131.296 30.2329 131.897 30.2329 132.639C30.2329 133.381 30.8352 133.983 31.5782 133.983H72.6096C73.3526 133.983 73.9549 133.381 73.9549 132.639C73.9549 131.897 73.3526 131.296 72.6096 131.296Z" fill="#6E07F3"/>
<path d="M49.067 144.731H31.5782C30.8352 144.731 30.2329 145.332 30.2329 146.074C30.2329 146.816 30.8352 147.418 31.5782 147.418H49.067C49.81 147.418 50.4123 146.816 50.4123 146.074C50.4123 145.332 49.81 144.731 49.067 144.731Z" fill="#5BE9B9"/>
</svg>
