<svg width="81" height="80" viewBox="0 0 81 80" fill="none" xmlns="http://www.w3.org/2000/svg">
<path d="M24.5015 26.7436L24.4915 26.7502L24.482 26.7577L24.5015 26.7436ZM68.7419 26.069C68.4326 25.8265 68.0895 25.6143 67.7196 25.4368C67.196 25.186 66.6147 25.0253 66.0118 24.9646C65.4088 24.9039 64.7969 24.9445 64.214 25.0838C63.6311 25.2232 63.0894 25.4584 62.6226 25.7748C62.1558 26.0913 61.7738 26.4823 61.5 26.9237C59.9691 29.3782 57.8576 31.5626 55.2867 33.3516C55.6799 31.5491 55.8781 29.722 55.8792 27.8914C55.8874 22.3222 54.082 16.8507 50.6466 12.0339C47.2112 7.21721 42.2685 3.22728 36.3219 0.470397C35.6669 0.168221 34.9282 0.00642365 34.1752 0.000187372C33.4222 -0.00604891 32.6797 0.14348 32.0172 0.434744C31.3547 0.726007 30.794 1.14946 30.3877 1.66536C29.9814 2.18126 29.7428 2.7727 29.6944 3.38417C29.4456 6.81333 28.344 10.1657 26.4561 13.2382C24.5682 16.3106 21.9334 19.0392 18.7114 21.2587L17.6871 21.9368C14.3178 23.7816 11.3355 26.0557 8.85467 28.6719C4.9983 32.6253 2.32688 37.2553 1.05227 42.195C-0.222341 47.1347 -0.0650899 52.2481 1.51155 57.1297C3.0882 62.0113 6.04086 66.5269 10.1354 70.3183C14.2299 74.1097 19.3537 77.0727 25.1005 78.9722C25.7752 79.1966 26.5074 79.2824 27.2325 79.222C27.9577 79.1617 28.6534 78.9571 29.2584 78.6262C29.8633 78.2953 30.3589 77.8484 30.7015 77.3249C31.044 76.8013 31.2229 76.2172 31.2225 75.6241C31.2193 75.2404 31.1447 74.8593 31.0011 74.4939C30.0068 71.4524 29.7205 68.2864 30.1569 65.1592C34.3624 71.6138 41.1131 76.7301 49.3235 79.6856C50.3257 80.0505 51.4587 80.0996 52.5028 79.8234C58.9897 78.1197 64.8336 75.0945 69.479 71.0353C74.1244 66.9761 77.4172 62.0177 79.0444 56.6313C80.6716 51.2449 80.5793 45.6094 78.776 40.2602C76.9728 34.911 73.5187 30.0259 68.7419 26.069ZM51.3873 72.4737C47.5131 70.8759 44.0956 68.6326 41.3569 65.8896C38.6181 63.1465 36.6196 59.9651 35.491 56.5522C35.1464 55.403 34.8798 54.2393 34.6924 53.0663C34.5655 52.3193 34.1548 51.6232 33.5179 51.0755C32.8809 50.5277 32.0495 50.1556 31.1399 50.0112C30.8597 49.9663 30.5748 49.9438 30.2892 49.9442C29.508 49.9439 28.7406 50.1113 28.0643 50.4294C27.388 50.7475 26.8268 51.2051 26.4372 51.7561C22.7495 56.9318 20.8949 62.8374 21.0791 68.8183C17.8357 66.7663 15.1251 64.2108 13.1043 61.3001C11.0836 58.3893 9.79285 55.1812 9.30698 51.8615C8.82111 48.5419 9.14976 45.1768 10.2739 41.9612C11.398 38.7457 13.2952 35.7437 15.8556 33.1292C17.7996 31.0744 20.1449 29.2931 22.7978 27.8562C22.9127 27.7959 23.0228 27.7298 23.1277 27.6584C23.1277 27.6584 24.4464 26.7705 24.4915 26.7502C30.8234 22.3921 35.3269 16.5353 37.3746 9.99577C42.2171 13.6385 45.4461 18.4804 46.5602 23.7696C47.6742 29.0588 46.611 34.4993 43.5356 39.2463C43.1293 39.8798 42.9626 40.597 43.0566 41.3074C43.1506 42.0178 43.501 42.6897 44.0637 43.2383C44.6264 43.7868 45.3761 44.1875 46.2183 44.3898C47.0605 44.592 47.9575 44.5868 48.796 44.3747C55.6039 42.6381 61.5946 39.2461 65.9618 34.6551C68.5864 37.8098 70.3024 41.4059 70.9818 45.1752C71.6611 48.9446 71.2864 52.7902 69.8855 56.4253C68.4845 60.0605 66.0936 63.3915 62.8907 66.1702C59.6878 68.9489 55.7558 71.1035 51.3873 72.4737Z" fill="#6E07F3"/>
</svg>
